<svg width="34" height="34" viewBox="0 0 34 34" fill="none" xmlns="http://www.w3.org/2000/svg">
<path d="M15.2293 31.8751H18.7993C20.1593 31.8751 21.0376 30.9118 20.7826 29.736L20.2018 27.1719H13.8268L13.246 29.736C12.991 30.841 13.9543 31.8751 15.2293 31.8751Z" stroke="#FF4202" stroke-width="2.125" stroke-linecap="round" stroke-linejoin="round"/>
<path d="M20.2016 27.1578L22.6525 24.976C24.0266 23.7577 24.0833 22.9076 22.9925 21.5335L18.6716 16.0511C17.7649 14.9036 16.2775 14.9036 15.3708 16.0511L11.05 21.5335C9.95913 22.9076 9.95911 23.8002 11.3899 24.976L13.8408 27.1578" stroke="#FF4202" stroke-width="2.125" stroke-linecap="round" stroke-linejoin="round"/>
<path d="M17.0142 15.7534V19.3376" stroke="#FF4202" stroke-width="2.125" stroke-linecap="round" stroke-linejoin="round"/>
<path d="M17.7367 7.08325H16.32C15.5408 7.08325 14.9033 6.44575 14.9033 5.66659V4.24992C14.9033 3.47075 15.5408 2.83325 16.32 2.83325H17.7367C18.5158 2.83325 19.1533 3.47075 19.1533 4.24992V5.66659C19.1533 6.44575 18.5158 7.08325 17.7367 7.08325Z" stroke="#FF4202" stroke-width="2.125" stroke-linecap="round" stroke-linejoin="round"/>
<path d="M4.63249 20.0741H6.04915C6.82832 20.0741 7.46582 19.4366 7.46582 18.6574V17.2407C7.46582 16.4616 6.82832 15.824 6.04915 15.824H4.63249C3.85332 15.824 3.21582 16.4616 3.21582 17.2407V18.6574C3.21582 19.4366 3.85332 20.0741 4.63249 20.0741Z" stroke="#FF4202" stroke-width="2.125" stroke-linecap="round" stroke-linejoin="round"/>
<path d="M29.3675 20.0741H27.9508C27.1717 20.0741 26.5342 19.4366 26.5342 18.6574V17.2407C26.5342 16.4616 27.1717 15.824 27.9508 15.824H29.3675C30.1467 15.824 30.7842 16.4616 30.7842 17.2407V18.6574C30.7842 19.4366 30.1467 20.0741 29.3675 20.0741Z" stroke="#FF4202" stroke-width="2.125" stroke-linecap="round" stroke-linejoin="round"/>
<path d="M14.9033 5.04346C9.50584 5.68096 5.3125 10.2568 5.3125 15.8243" stroke="#FF4202" stroke-width="2.125" stroke-linecap="round" stroke-linejoin="round"/>
<path d="M28.6875 15.8243C28.6875 10.2709 24.5225 5.70929 19.1533 5.04346" stroke="#FF4202" stroke-width="2.125" stroke-linecap="round" stroke-linejoin="round"/>
</svg>
