<svg width="209" height="40" viewBox="0 0 209 40" fill="none" xmlns="http://www.w3.org/2000/svg">
<g clip-path="url(#clip0_247_2395)">
<path d="M55.5206 35.2217C52.8517 33.7412 50.7555 31.6801 49.232 29.0383C47.7071 26.3965 46.9453 23.4037 46.9453 20.0612C46.9453 16.7187 47.7071 13.7272 49.232 11.0841C50.7568 8.44229 52.8517 6.38116 55.5206 4.90072C58.1881 3.42027 61.1992 2.68005 64.5539 2.68005C67.4814 2.68005 70.1181 3.22118 72.4665 4.30343C74.8136 5.38569 76.7657 6.94653 78.3214 8.98342L72.5578 14.4266C70.4835 11.8167 67.9678 10.5111 65.0107 10.5111C63.2723 10.5111 61.7242 10.9093 60.368 11.7044C59.0104 12.5007 57.9591 13.6226 57.2114 15.0711C56.4638 16.5196 56.0906 18.1826 56.0906 20.0612C56.0906 21.9398 56.4638 23.6028 57.2114 25.0513C57.9578 26.4998 59.0104 27.6229 60.368 28.418C61.7242 29.2144 63.2723 29.6113 65.0107 29.6113C67.9678 29.6113 70.4835 28.307 72.5578 25.6958L78.3214 31.139C76.7657 33.1771 74.8149 34.7367 72.4665 35.819C70.1181 36.9012 67.4814 37.4424 64.5539 37.4424C61.1992 37.4424 58.1881 36.7021 55.5206 35.2217Z" fill="#100D38"/>
<path d="M93.6656 11.3469C95.0836 10.7586 96.7076 10.4637 98.5361 10.4637V18.6291C97.7434 18.5334 97.0872 18.4862 96.5699 18.4862C94.7092 18.4862 93.2538 19.012 92.2025 20.0624C91.1499 21.1127 90.6248 22.7208 90.6248 24.8853V36.7748H81.9351V10.8926H90.2131V13.9964C91.0971 12.8197 92.2488 11.9353 93.6668 11.3469H93.6656Z" fill="#100D38"/>
<path d="M127.076 26.1259H109.056C109.421 27.4634 110.13 28.4895 111.183 29.2054C112.235 29.9214 113.553 30.28 115.14 30.28C116.329 30.28 117.358 30.1052 118.227 29.7542C119.095 29.4045 119.972 28.8315 120.857 28.0351L125.43 33.001C123.021 35.8023 119.499 37.2024 114.864 37.2024C111.966 37.2024 109.421 36.6293 107.226 35.4833C105.031 34.3372 103.331 32.7457 102.126 30.7088C100.922 28.672 100.32 26.3632 100.32 23.7852C100.32 21.2072 100.906 18.9546 102.08 16.9331C103.253 14.9115 104.877 13.3277 106.95 12.1816C109.024 11.0356 111.356 10.4625 113.948 10.4625C116.54 10.4625 118.659 10.996 120.672 12.0617C122.684 13.1286 124.277 14.6729 125.451 16.6931C126.624 18.7147 127.211 21.1102 127.211 23.8797C127.211 23.9435 127.165 24.6914 127.074 26.1233L127.076 26.1259ZM110.633 18.1034C109.734 18.8998 109.161 19.982 108.918 21.3502H119.072C118.828 19.982 118.256 18.8998 117.357 18.1034C116.457 17.3083 115.337 16.9101 113.996 16.9101C112.655 16.9101 111.533 17.3083 110.635 18.1034H110.633Z" fill="#100D38"/>
<path d="M157.309 10.8927V36.7736H149.031V34.0042C148.116 35.0545 147.018 35.8509 145.738 36.392C144.458 36.9332 143.1 37.2037 141.668 37.2037C138.466 37.2037 135.912 36.2172 134.006 34.2428C132.1 32.2698 131.147 29.3089 131.147 25.3615V10.8927H139.837V23.881C139.837 25.8235 140.187 27.2401 140.889 28.1309C141.591 29.023 142.611 29.4684 143.953 29.4684C145.295 29.4684 146.446 28.9668 147.314 27.9637C148.183 26.9606 148.618 25.4253 148.618 23.3565V10.8927H157.308H157.309Z" fill="#100D38"/>
<path d="M177.93 36.8626C177.93 36.8626 177.957 36.8374 177.319 36.9913C176.267 37.2453 175.147 37.3729 173.958 37.3729C170.726 37.3729 168.241 36.5459 166.502 34.8893C164.764 33.234 163.895 30.767 163.895 27.4884V18.7984H160.282V12.0178H163.895V5.28431H172.585V12.0165H178.256V18.7972H172.585V27.3927C172.585 28.3167 172.821 29.0403 173.294 29.5648C173.766 30.0906 174.399 30.3523 175.192 30.3523C176.198 30.3523 177.901 30.3523 177.901 30.3523L177.93 36.2984V36.4818V36.8626Z" fill="#100D38"/>
<path d="M187.862 35.4845C185.727 34.3384 184.058 32.7469 182.853 30.7101C181.649 28.6732 181.047 26.3645 181.047 23.7864C181.047 21.2084 181.649 18.9482 182.853 16.91C184.058 14.8732 185.719 13.2893 187.838 12.1586C189.958 11.0291 192.359 10.4637 195.042 10.4637C197.725 10.4637 200.134 11.0291 202.269 12.1586C204.402 13.2893 206.065 14.8642 207.254 16.8858C208.443 18.9074 209.037 21.2072 209.037 23.7852C209.037 26.3632 208.443 28.6719 207.254 30.7088C206.065 32.7469 204.402 34.3371 202.269 35.4832C200.134 36.6293 197.725 37.2023 195.042 37.2023C192.359 37.2023 189.995 36.6293 187.862 35.4832V35.4845ZM198.793 28.3465C199.768 27.2476 200.256 25.7289 200.256 23.7864C200.256 21.844 199.768 20.3801 198.793 19.2979C197.816 18.2156 196.567 17.6745 195.042 17.6745C193.517 17.6745 192.268 18.2156 191.291 19.2979C190.314 20.3801 189.828 21.8759 189.828 23.7864C189.828 25.697 190.315 27.2489 191.291 28.3465C192.266 29.4453 193.516 29.9941 195.042 29.9941C196.568 29.9941 197.816 29.4453 198.793 28.3465Z" fill="#100D38"/>
<path d="M20.1655 40C14.7789 40 9.71536 37.9197 5.90643 34.142C2.09749 30.3644 0 25.3424 0 20C0 14.6576 2.09749 9.63563 5.90643 5.85795C9.71536 2.08028 14.7789 0 20.1655 0V9.14683C13.9876 9.14683 8.98961 14.2505 9.23024 20.4288C9.45028 26.0622 14.0532 30.6273 19.7331 30.8455C25.9638 31.0842 31.1085 26.1272 31.1085 20H40.331C40.331 25.3424 38.2335 30.3644 34.4246 34.142C30.6156 37.9197 25.5521 40 20.1655 40Z" fill="#1531FF"/>
<path d="M35.9559 4.57275H26.7334V13.7196H35.9559V4.57275Z" fill="#100D38"/>
</g>
<defs>
<clipPath id="clip0_247_2395">
<rect width="209" height="40" fill="white"/>
</clipPath>
</defs>
</svg>
