<svg width="111" height="40" viewBox="0 0 111 40" fill="none" xmlns="http://www.w3.org/2000/svg">
<path d="M10.775 37.8826H5.9212L8.44464 25.2551H3.22994C2.72597 25.2548 2.22905 25.1071 1.77886 24.8237C1.32868 24.5403 0.937719 24.1291 0.637228 23.623C0.336736 23.1168 0.135043 22.5298 0.0482643 21.9087C-0.038514 21.2877 -0.0079711 20.6499 0.137452 20.0462L4.98373 0H16.9285L13.1433 12.6275H18.2192C18.7967 12.628 19.3634 12.8242 19.8589 13.1953C20.3544 13.5664 20.7602 14.0986 21.0333 14.7352C21.3064 15.3718 21.4364 16.0891 21.4097 16.8108C21.383 17.5325 21.2004 18.2317 20.8815 18.834L10.775 37.8826Z" fill="#006D5A"/>
<path d="M29.3258 22.831V1.67477H35.7665L39.9788 17.7753L44.1336 1.67477H50.603V22.831H46.5201V5.76813L42.2215 22.831H37.7648L33.4087 5.76813V22.831H29.3258Z" fill="#222220"/>
<path d="M54.0246 16.296H58.3232C58.4861 17.4545 58.9606 18.3163 59.7465 18.8812C60.5324 19.4366 61.6681 19.7143 63.1537 19.7143C64.4188 19.7143 65.3725 19.4893 66.0146 19.0392C66.6568 18.5892 66.9778 17.9237 66.9778 17.0428C66.9778 15.7598 65.1329 14.6969 61.4429 13.8543L61.3135 13.8256C61.2177 13.8064 61.0691 13.7729 60.8678 13.725C58.8935 13.2942 57.4846 12.8106 56.6411 12.2744C55.8936 11.7957 55.3233 11.1541 54.9303 10.3498C54.5374 9.53593 54.3409 8.57842 54.3409 7.47729C54.3409 5.41864 55.0406 3.84353 56.4399 2.75197C57.8392 1.65084 59.8615 1.10027 62.5068 1.10027C64.9795 1.10027 66.9108 1.68435 68.3005 2.85251C69.6998 4.02067 70.4378 5.66759 70.5145 7.79326H66.3309C66.2542 6.76873 65.8613 5.98836 65.152 5.45215C64.4428 4.91595 63.4316 4.64784 62.1186 4.64784C60.9781 4.64784 60.0963 4.87286 59.4733 5.32289C58.8599 5.76334 58.5532 6.3953 58.5532 7.21876C58.5532 8.33905 59.7561 9.17687 62.1617 9.73222C62.8135 9.88543 63.3214 10.0051 63.6856 10.0913C65.2287 10.4839 66.3213 10.7903 66.9635 11.0105C67.6152 11.2307 68.1807 11.4749 68.6599 11.743C69.5225 12.2218 70.1694 12.8585 70.6007 13.6532C71.032 14.4384 71.2477 15.3815 71.2477 16.4827C71.2477 18.6849 70.5049 20.3941 69.0193 21.6101C67.5337 22.8166 65.4396 23.4198 62.7368 23.4198C60.0723 23.4198 57.983 22.8022 56.4686 21.5671C54.9543 20.3319 54.1396 18.5748 54.0246 16.296Z" fill="#222220"/>
<path d="M27.8463 32.8474H29.3598C29.3755 33.683 29.6525 34.3489 30.191 34.8451C30.7347 35.3413 31.4588 35.5894 32.3632 35.5894C33.2571 35.5894 33.9603 35.4013 34.4726 35.0253C34.9901 34.6493 35.2489 34.1374 35.2489 33.4898C35.2489 32.6071 34.2818 31.936 32.3475 31.4764C32.2325 31.4503 32.1436 31.4294 32.0809 31.4137C30.5125 31.0429 29.4748 30.6303 28.9677 30.1759C28.4658 29.7163 28.2149 29.0661 28.2149 28.2252C28.2149 27.1963 28.5913 26.3711 29.3441 25.7496C30.0969 25.1229 31.098 24.8095 32.3475 24.8095C33.6231 24.8095 34.6268 25.1386 35.3587 25.7966C36.0906 26.4495 36.4618 27.3478 36.4722 28.4916L34.9745 28.4994C34.9222 27.7265 34.6582 27.1337 34.1824 26.7211C33.7119 26.3085 33.0663 26.1022 32.2455 26.1022C31.477 26.1022 30.8628 26.2719 30.4027 26.6114C29.9427 26.9457 29.7127 27.3922 29.7127 27.951C29.7127 28.8441 30.6641 29.51 32.5671 29.9488C32.8493 30.0166 33.0663 30.0689 33.2179 30.1054L33.3826 30.1446C34.6268 30.4423 35.4528 30.7635 35.8606 31.1082C36.169 31.3693 36.4043 31.6879 36.5663 32.064C36.7284 32.4348 36.8094 32.85 36.8094 33.3096C36.8094 34.4221 36.4095 35.3073 35.6096 35.9654C34.815 36.6235 33.7381 36.9525 32.3788 36.9525C30.9778 36.9525 29.8852 36.6 29.101 35.8949C28.3221 35.1846 27.9038 34.1688 27.8463 32.8474Z" fill="#222220"/>
<path d="M39.6089 32.44C39.6089 33.4794 39.8311 34.2758 40.2755 34.8294C40.7251 35.3778 41.3655 35.652 42.1967 35.652C43.0227 35.652 43.6553 35.3778 44.0944 34.8294C44.5335 34.2758 44.7531 33.4794 44.7531 32.44C44.7531 31.4059 44.5335 30.6147 44.0944 30.0663C43.6553 29.5126 43.0227 29.2358 42.1967 29.2358C41.3602 29.2358 40.7198 29.51 40.2755 30.0584C39.8311 30.6068 39.6089 31.4007 39.6089 32.44ZM38.166 32.44C38.166 31.0351 38.5163 29.9409 39.2168 29.1575C39.9226 28.3741 40.9106 27.9824 42.181 27.9824C43.4566 27.9824 44.4473 28.3741 45.153 29.1575C45.8588 29.9357 46.2117 31.0299 46.2117 32.44C46.2117 33.8502 45.8588 34.947 45.153 35.7304C44.4525 36.5138 43.467 36.9055 42.1967 36.9055C40.9211 36.9055 39.9304 36.5164 39.2247 35.7382C38.5189 34.9548 38.166 33.8554 38.166 32.44Z" fill="#222220"/>
<path d="M47.9447 36.647V25.1072H49.3797V36.647H47.9447Z" fill="#222220"/>
<path d="M56.7588 35.5267C56.3196 35.9863 55.8517 36.331 55.3551 36.5608C54.8637 36.7906 54.3409 36.9055 53.7868 36.9055C52.9294 36.9055 52.2602 36.6835 51.7793 36.2396C51.2983 35.7904 51.0578 35.1715 51.0578 34.3829C51.0578 33.6204 51.2931 33.0224 51.7636 32.5889C52.2393 32.1554 52.9608 31.876 53.9279 31.7506C54.1736 31.7245 54.5056 31.6879 54.9238 31.6409C55.64 31.5678 56.0792 31.4973 56.2412 31.4294C56.4033 31.3667 56.5105 31.2858 56.5627 31.1866C56.615 31.0821 56.6411 30.8601 56.6411 30.5206C56.6411 30.0924 56.4843 29.7712 56.1706 29.557C55.857 29.3429 55.3839 29.2358 54.7513 29.2358C54.0978 29.2358 53.6038 29.3664 53.2692 29.6276C52.9399 29.8887 52.7752 30.2752 52.7752 30.787H51.4421V30.7243C51.4421 29.8782 51.7401 29.2097 52.336 28.7188C52.932 28.2278 53.7528 27.9824 54.7983 27.9824C55.9223 27.9824 56.7483 28.1939 57.2763 28.6169C57.8096 29.0348 58.0762 29.6902 58.0762 30.5833V34.7824C58.0762 35.1428 58.1154 35.3752 58.1938 35.4797C58.2722 35.5841 58.4134 35.6364 58.6173 35.6364C58.6591 35.6364 58.7088 35.6338 58.7663 35.6285C58.829 35.6181 58.9022 35.605 58.9858 35.5894V36.6783C58.8133 36.7253 58.6617 36.7566 58.531 36.7723C58.4055 36.7932 58.2853 36.8037 58.1703 36.8037C57.6998 36.8037 57.3469 36.7018 57.1117 36.4981C56.8764 36.2944 56.7588 35.9863 56.7588 35.5737V35.5267ZM56.6255 32.3773C56.2491 32.581 55.6034 32.7403 54.6886 32.8552C54.3644 32.897 54.1213 32.931 53.9593 32.9571C53.4469 33.0406 53.0784 33.1921 52.8536 33.4115C52.6288 33.6308 52.5164 33.9494 52.5164 34.3672C52.5164 34.785 52.6471 35.1063 52.9085 35.3308C53.1699 35.5554 53.5437 35.6677 54.0299 35.6677C54.7879 35.6677 55.41 35.4771 55.8962 35.0958C56.3824 34.7145 56.6255 34.2262 56.6255 33.6308V32.3773Z" fill="#222220"/>
<path d="M60.2876 36.647V28.2566H61.652V29.7607C61.8768 29.1967 62.18 28.7762 62.5617 28.4994C62.9485 28.2174 63.4216 28.0764 63.981 28.0764C64.0856 28.0764 64.1614 28.079 64.2084 28.0842C64.2555 28.0842 64.3025 28.0894 64.3496 28.0999V29.5884C64.313 29.5832 64.2711 29.5805 64.2241 29.5805C64.177 29.5753 64.1065 29.5727 64.0124 29.5727C63.2596 29.5727 62.6845 29.779 62.2872 30.1916C61.8951 30.599 61.6991 31.1944 61.6991 31.9778V36.647H60.2876Z" fill="#222220"/>
<path d="M69.6584 32.8474H71.1719C71.1876 33.683 71.4646 34.3489 72.0031 34.8451C72.5468 35.3413 73.2708 35.5894 74.1752 35.5894C75.0692 35.5894 75.7723 35.4013 76.2847 35.0253C76.8022 34.6493 77.061 34.1374 77.061 33.4898C77.061 32.6071 76.0939 31.936 74.1596 31.4764C74.0446 31.4503 73.9557 31.4294 73.893 31.4137C72.3246 31.0429 71.2869 30.6303 70.7798 30.1759C70.2779 29.7163 70.027 29.0661 70.027 28.2252C70.027 27.1963 70.4034 26.3711 71.1562 25.7496C71.909 25.1229 72.9101 24.8095 74.1596 24.8095C75.4352 24.8095 76.4389 25.1386 77.1708 25.7966C77.9027 26.4495 78.2739 27.3478 78.2843 28.4916L76.7865 28.4994C76.7343 27.7265 76.4703 27.1337 75.9945 26.7211C75.524 26.3085 74.8784 26.1022 74.0576 26.1022C73.2891 26.1022 72.6749 26.2719 72.2148 26.6114C71.7548 26.9457 71.5247 27.3922 71.5247 27.951C71.5247 28.8441 72.4762 29.51 74.3791 29.9488C74.6614 30.0166 74.8784 30.0689 75.03 30.1054L75.1947 30.1446C76.4389 30.4423 77.2649 30.7635 77.6727 31.1082C77.9811 31.3693 78.2163 31.6879 78.3784 32.064C78.5405 32.4348 78.6215 32.85 78.6215 33.3096C78.6215 34.4221 78.2216 35.3073 77.4217 35.9654C76.6271 36.6235 75.5502 36.9525 74.1909 36.9525C72.7899 36.9525 71.6973 36.6 70.9131 35.8949C70.1341 35.1846 69.7159 34.1688 69.6584 32.8474Z" fill="#222220"/>
<path d="M81.7739 32.5105C81.7739 33.5551 81.9804 34.3411 82.3934 34.8686C82.8116 35.3909 83.4363 35.652 84.2675 35.652C85.0622 35.652 85.6738 35.3648 86.1025 34.7903C86.5364 34.2105 86.7534 33.3906 86.7534 32.3303C86.7534 31.3746 86.5286 30.6225 86.079 30.0741C85.6346 29.5257 85.0256 29.2515 84.2519 29.2515C83.4572 29.2515 82.8456 29.5335 82.4169 30.0976C81.9882 30.6617 81.7739 31.466 81.7739 32.5105ZM80.4408 40V28.2566H81.8209V29.4395C82.1712 28.9381 82.5633 28.5699 82.9972 28.3349C83.4363 28.0999 83.9565 27.9824 84.5577 27.9824C85.6765 27.9824 86.5678 28.3845 87.2317 29.1888C87.9009 29.9931 88.2355 31.0716 88.2355 32.4244C88.2355 33.7927 87.8983 34.8817 87.2239 35.6912C86.5495 36.5007 85.6555 36.9055 84.542 36.9055C83.9513 36.9055 83.4311 36.801 82.9815 36.5921C82.5371 36.378 82.1503 36.0542 81.8209 35.6207V40H80.4408Z" fill="#222220"/>
<path d="M95.1519 35.5267C94.7127 35.9863 94.2448 36.331 93.7482 36.5608C93.2568 36.7906 92.734 36.9055 92.1799 36.9055C91.3225 36.9055 90.6533 36.6835 90.1724 36.2396C89.6914 35.7904 89.4509 35.1715 89.4509 34.3829C89.4509 33.6204 89.6862 33.0224 90.1567 32.5889C90.6324 32.1554 91.3539 31.876 92.321 31.7506C92.5667 31.7245 92.8987 31.6879 93.3169 31.6409C94.0331 31.5678 94.4723 31.4973 94.6343 31.4294C94.7964 31.3667 94.9035 31.2858 94.9558 31.1866C95.0081 31.0821 95.0342 30.8601 95.0342 30.5206C95.0342 30.0924 94.8774 29.7712 94.5637 29.557C94.2501 29.3429 93.777 29.2358 93.1444 29.2358C92.4909 29.2358 91.9969 29.3664 91.6623 29.6276C91.3329 29.8887 91.1683 30.2752 91.1683 30.787H89.8352V30.7243C89.8352 29.8782 90.1332 29.2097 90.7291 28.7188C91.3251 28.2278 92.1459 27.9824 93.1914 27.9824C94.3154 27.9824 95.1414 28.1939 95.6694 28.6169C96.2027 29.0348 96.4693 29.6902 96.4693 30.5833V34.7824C96.4693 35.1428 96.5085 35.3752 96.5869 35.4797C96.6653 35.5841 96.8065 35.6364 97.0104 35.6364C97.0522 35.6364 97.1018 35.6338 97.1593 35.6285C97.2221 35.6181 97.2953 35.605 97.3789 35.5894V36.6783C97.2064 36.7253 97.0548 36.7566 96.9241 36.7723C96.7986 36.7932 96.6784 36.8037 96.5634 36.8037C96.0929 36.8037 95.74 36.7018 95.5047 36.4981C95.2695 36.2944 95.1519 35.9863 95.1519 35.5737V35.5267ZM95.0186 32.3773C94.6422 32.581 93.9965 32.7403 93.0816 32.8552C92.7575 32.897 92.5144 32.931 92.3524 32.9571C91.84 33.0406 91.4715 33.1921 91.2467 33.4115C91.0219 33.6308 90.9095 33.9494 90.9095 34.3672C90.9095 34.785 91.0402 35.1063 91.3016 35.3308C91.563 35.5554 91.9368 35.6677 92.423 35.6677C93.181 35.6677 93.8031 35.4771 94.2893 35.0958C94.7755 34.7145 95.0186 34.2262 95.0186 33.6308V32.3773Z" fill="#222220"/>
<path d="M98.6806 36.647V28.2566H100.045V29.7607C100.27 29.1967 100.573 28.7762 100.955 28.4994C101.342 28.2174 101.815 28.0764 102.374 28.0764C102.479 28.0764 102.554 28.079 102.602 28.0842C102.649 28.0842 102.696 28.0894 102.743 28.0999V29.5884C102.706 29.5832 102.664 29.5805 102.617 29.5805C102.57 29.5753 102.5 29.5727 102.405 29.5727C101.653 29.5727 101.078 29.779 100.68 30.1916C100.288 30.599 100.092 31.1944 100.092 31.9778V36.647H98.6806Z" fill="#222220"/>
<path d="M104.013 36.647V25.1072H105.425V32.0248L109.22 28.2566H111L107.855 31.3197L110.953 36.647H109.361L106.907 32.299L105.425 33.7248V36.647H104.013Z" fill="#222220"/>
<path d="M75.5099 1.41519H75.0804V2.37836H75.5232C75.774 2.37836 75.9538 2.34243 76.0625 2.27057C76.1713 2.19639 76.2257 2.07817 76.2257 1.9159C76.2257 1.73972 76.1691 1.61223 76.0559 1.53342C75.9427 1.4546 75.7607 1.41519 75.5099 1.41519ZM75.6031 1.06053C75.9893 1.06053 76.2789 1.12775 76.472 1.2622C76.6673 1.39433 76.765 1.59253 76.765 1.85679C76.765 2.0631 76.7095 2.23464 76.5985 2.3714C76.4876 2.50817 76.3311 2.59742 76.1291 2.63914L76.7517 3.96393H76.1624L75.5965 2.72607H75.0804V3.96393H74.5544V1.06053H75.6031ZM77.6705 2.58351C77.6705 2.27289 77.6184 1.98197 77.5141 1.71075C77.412 1.43953 77.2621 1.20077 77.0646 0.99446C76.8604 0.778878 76.6285 0.615452 76.3688 0.504184C76.1114 0.390598 75.8362 0.333805 75.5432 0.333805C75.2547 0.333805 74.9828 0.38828 74.7275 0.49723C74.4723 0.60618 74.2493 0.762651 74.0584 0.966643C73.8498 1.18686 73.6889 1.4349 73.5757 1.71075C73.4647 1.9866 73.4092 2.27057 73.4092 2.56265C73.4092 2.85241 73.4625 3.13174 73.569 3.40064C73.6778 3.66722 73.8331 3.90714 74.0351 4.1204C74.2348 4.33367 74.4634 4.49825 74.7209 4.61415C74.9806 4.72774 75.248 4.78453 75.5232 4.78453C75.8117 4.78453 76.0847 4.7289 76.3422 4.61763C76.6019 4.50636 76.8382 4.3441 77.0513 4.13083C77.2511 3.92684 77.4042 3.69271 77.5107 3.42845C77.6173 3.16187 77.6705 2.88022 77.6705 2.58351ZM75.5365 0C75.8717 0 76.189 0.0649065 76.4887 0.194719C76.7883 0.324532 77.0546 0.513456 77.2877 0.761492C77.5163 1.00257 77.6916 1.27843 77.8137 1.58905C77.9357 1.89967 77.9968 2.22421 77.9968 2.56265C77.9968 2.91268 77.9357 3.24185 77.8137 3.55015C77.6916 3.85614 77.5141 4.12736 77.281 4.3638C77.0391 4.60952 76.7672 4.79844 76.4654 4.93057C76.1657 5.06039 75.8561 5.12529 75.5365 5.12529C75.2103 5.12529 74.8984 5.06039 74.601 4.93057C74.3059 4.79844 74.0406 4.6072 73.8054 4.35685C73.5723 4.11113 73.3948 3.83528 73.2727 3.52929C73.1506 3.22098 73.0896 2.89877 73.0896 2.56265C73.0896 2.22421 73.1529 1.89735 73.2794 1.5821C73.4081 1.26452 73.5923 0.979392 73.832 0.726721C74.0562 0.487957 74.3125 0.307147 74.601 0.184288C74.8918 0.0614293 75.2036 0 75.5365 0Z" fill="#222220"/>
</svg>
