<svg width="122" height="40" viewBox="0 0 122 40" fill="none" xmlns="http://www.w3.org/2000/svg">
<path d="M35.416 1.65986L27.8242 27.2955H23.0701L17.6896 7.89355L11.9773 27.2955L7.26009 27.3323L0 1.65986H4.45924L9.76611 22.5372L15.5152 1.65986H20.2324L25.5762 22.4265L30.9199 1.65986H35.416Z" fill="black"/>
<path d="M37.4806 17.0412C37.4806 15.0002 37.8983 13.1928 38.7336 11.619C39.5935 10.0452 40.7483 8.82799 42.1978 7.96732C43.672 7.08206 45.2935 6.63944 47.0625 6.63944C48.6594 6.63944 50.0476 6.95911 51.2269 7.59846C52.4308 8.21323 53.3889 8.98783 54.1014 9.92227V6.97141H58.3396V27.2955H54.1014V24.2708C53.3889 25.2299 52.4185 26.029 51.19 26.6684C49.9616 27.3077 48.5612 27.6274 46.9888 27.6274C45.2444 27.6274 43.6474 27.1848 42.1978 26.2995C40.7483 25.3897 39.5935 24.1356 38.7336 22.5372C37.8983 20.9142 37.4806 19.0822 37.4806 17.0412ZM54.1014 17.115C54.1014 15.7133 53.8066 14.4961 53.217 13.4633C52.6519 12.4305 51.9025 11.6436 50.9689 11.1026C50.0353 10.5616 49.028 10.2911 47.9469 10.2911C46.8659 10.2911 45.8586 10.5616 44.925 11.1026C43.9914 11.619 43.2297 12.3936 42.6401 13.4264C42.075 14.4346 41.7924 15.6396 41.7924 17.0412C41.7924 18.4429 42.075 19.6724 42.6401 20.7298C43.2297 21.7872 43.9914 22.5987 44.925 23.1643C45.8832 23.7052 46.8905 23.9757 47.9469 23.9757C49.028 23.9757 50.0353 23.7052 50.9689 23.1643C51.9025 22.6233 52.6519 21.8364 53.217 20.8036C53.8066 19.7462 54.1014 18.5166 54.1014 17.115Z" fill="black"/>
<path d="M68.059 0V27.2955H63.8578V0H68.059Z" fill="black"/>
<path d="M77.7762 0V27.2955H73.5749V0H77.7762Z" fill="black"/>
<path d="M101.903 16.6355C101.903 17.3978 101.854 18.0863 101.756 18.7011H86.2403C86.3632 20.324 86.9651 21.6273 88.0462 22.611C89.1272 23.5946 90.4539 24.0864 92.0263 24.0864C94.2866 24.0864 95.8836 23.1397 96.8172 21.2462H101.35C100.736 23.1151 99.6181 24.652 97.9965 25.8569C96.3996 27.0373 94.4095 27.6274 92.0263 27.6274C90.0854 27.6274 88.341 27.1971 86.7931 26.3364C85.2699 25.4512 84.066 24.2216 83.1815 22.6479C82.3216 21.0495 81.8917 19.2052 81.8917 17.115C81.8917 15.0248 82.3093 13.1928 83.1447 11.619C84.0046 10.0206 85.1962 8.7911 86.7194 7.93044C88.2673 7.06977 90.0362 6.63944 92.0263 6.63944C93.9427 6.63944 95.6502 7.05747 97.1489 7.89355C98.6476 8.72963 99.8146 9.90997 100.65 11.4346C101.485 12.9346 101.903 14.6682 101.903 16.6355ZM97.5174 15.3076C97.4929 13.7584 96.9401 12.5166 95.859 11.5821C94.778 10.6477 93.439 10.1805 91.842 10.1805C90.3925 10.1805 89.1517 10.6477 88.1199 11.5821C87.088 12.492 86.4737 13.7338 86.2772 15.3076H97.5174Z" fill="#0164BC"/>
<path d="M114.735 17.0043L121.295 27.2955H116.541L112.155 20.3978L108.028 27.2955H103.642L110.202 17.2994L103.642 6.97141H108.396L112.782 13.869L116.909 6.97141H121.295L114.735 17.0043Z" fill="black"/>
<path d="M69.8609 33.8463V34.6593H68.2452V39.9213H67.2496V34.6593H65.6253V33.8463H69.8609Z" fill="#0164BC"/>
<path d="M72.249 34.467C72.0686 34.467 71.9172 34.4058 71.7949 34.2834C71.6727 34.161 71.6115 34.0095 71.6115 33.8289C71.6115 33.6482 71.6727 33.4967 71.7949 33.3743C71.9172 33.252 72.0686 33.1908 72.249 33.1908C72.4237 33.1908 72.5722 33.252 72.6944 33.3743C72.8167 33.4967 72.8779 33.6482 72.8779 33.8289C72.8779 34.0095 72.8167 34.161 72.6944 34.2834C72.5722 34.4058 72.4237 34.467 72.249 34.467ZM72.7381 35.105V39.9213H71.7425V35.105H72.7381Z" fill="#0164BC"/>
<path d="M75.9142 33.453V39.9213H74.9186V33.453H75.9142Z" fill="#0164BC"/>
<path d="M82.5049 37.3952C82.5049 37.5758 82.4933 37.739 82.47 37.8847H78.7933C78.8224 38.2693 78.965 38.5781 79.2212 38.8112C79.4774 39.0443 79.7918 39.1609 80.1644 39.1609C80.7001 39.1609 81.0785 38.9365 81.2997 38.4878H82.3739C82.2284 38.9307 81.9635 39.2949 81.5792 39.5804C81.2008 39.8601 80.7292 40 80.1644 40C79.7045 40 79.2911 39.898 78.9243 39.6941C78.5633 39.4843 78.278 39.1929 78.0684 38.82C77.8646 38.4412 77.7628 38.0041 77.7628 37.5088C77.7628 37.0135 77.8617 36.5794 78.0597 36.2064C78.2635 35.8276 78.5458 35.5363 78.9068 35.3323C79.2736 35.1284 79.6928 35.0264 80.1644 35.0264C80.6186 35.0264 81.0232 35.1254 81.3783 35.3236C81.7335 35.5217 82.01 35.8014 82.208 36.1627C82.406 36.5182 82.5049 36.929 82.5049 37.3952ZM81.4657 37.0805C81.4599 36.7134 81.3288 36.4191 81.0727 36.1977C80.8165 35.9762 80.4992 35.8655 80.1207 35.8655C79.7772 35.8655 79.4832 35.9762 79.2387 36.1977C78.9942 36.4133 78.8486 36.7076 78.802 37.0805H81.4657Z" fill="#0164BC"/>
<path d="M86.1047 40C85.7262 40 85.3857 39.933 85.0829 39.799C84.786 39.6591 84.5502 39.4726 84.3755 39.2395C84.2008 39.0006 84.1077 38.7355 84.096 38.4441H85.1266C85.144 38.6481 85.2401 38.82 85.4148 38.9598C85.5952 39.0939 85.8194 39.1609 86.0872 39.1609C86.3667 39.1609 86.5821 39.1084 86.7335 39.0035C86.8907 38.8928 86.9693 38.753 86.9693 38.584C86.9693 38.4033 86.882 38.2693 86.7073 38.1819C86.5384 38.0945 86.2677 37.9983 85.8951 37.8934C85.5341 37.7944 85.2401 37.6982 85.013 37.605C84.786 37.5117 84.588 37.369 84.4192 37.1767C84.2561 36.9844 84.1746 36.7309 84.1746 36.4162C84.1746 36.1598 84.2503 35.9267 84.4017 35.7169C84.5531 35.5013 84.7685 35.3323 85.048 35.2099C85.3333 35.0876 85.6593 35.0264 86.0261 35.0264C86.5734 35.0264 87.013 35.1662 87.3448 35.4459C87.6825 35.7198 87.863 36.0957 87.8863 36.5735H86.8907C86.8732 36.3579 86.7859 36.186 86.6287 36.0578C86.4715 35.9296 86.259 35.8655 85.9912 35.8655C85.7292 35.8655 85.5283 35.915 85.3886 36.0141C85.2488 36.1132 85.179 36.2443 85.179 36.4075C85.179 36.5357 85.2255 36.6435 85.3187 36.7309C85.4118 36.8183 85.5254 36.8882 85.6593 36.9407C85.7932 36.9873 85.9911 37.0485 86.2532 37.1242C86.6025 37.2175 86.8878 37.3136 87.109 37.4127C87.3361 37.5059 87.5311 37.6458 87.6941 37.8322C87.8572 38.0187 87.9416 38.2664 87.9474 38.5752C87.9474 38.8491 87.8717 39.0939 87.7204 39.3095C87.569 39.5251 87.3535 39.6941 87.0741 39.8164C86.8004 39.9388 86.4773 40 86.1047 40Z" fill="#0164BC"/>
<path d="M95.0209 33.8463C95.6672 33.8463 96.2319 33.9716 96.7152 34.2222C97.2042 34.467 97.5798 34.8224 97.8418 35.2886C98.1096 35.749 98.2435 36.288 98.2435 36.9057C98.2435 37.5234 98.1096 38.0595 97.8418 38.514C97.5798 38.9686 97.2042 39.3182 96.7152 39.563C96.2319 39.8019 95.6672 39.9213 95.0209 39.9213H93.0384V33.8463H95.0209ZM95.0209 39.1084C95.7312 39.1084 96.2756 38.9161 96.654 38.5315C97.0325 38.1469 97.2217 37.605 97.2217 36.9057C97.2217 36.2006 97.0325 35.6499 96.654 35.2536C96.2756 34.8574 95.7312 34.6593 95.0209 34.6593H94.034V39.1084H95.0209Z" fill="#0164BC"/>
<path d="M104.514 37.3952C104.514 37.5758 104.502 37.739 104.479 37.8847H100.802C100.831 38.2693 100.974 38.5781 101.23 38.8112C101.486 39.0443 101.801 39.1609 102.173 39.1609C102.709 39.1609 103.087 38.9365 103.309 38.4878H104.383C104.237 38.9307 103.972 39.2949 103.588 39.5804C103.21 39.8601 102.738 40 102.173 40C101.713 40 101.3 39.898 100.933 39.6941C100.572 39.4843 100.287 39.1929 100.077 38.82C99.8736 38.4412 99.7717 38.0041 99.7717 37.5088C99.7717 37.0135 99.8707 36.5794 100.069 36.2064C100.272 35.8276 100.555 35.5363 100.916 35.3323C101.283 35.1284 101.702 35.0264 102.173 35.0264C102.627 35.0264 103.032 35.1254 103.387 35.3236C103.742 35.5217 104.019 35.8014 104.217 36.1627C104.415 36.5182 104.514 36.929 104.514 37.3952ZM103.475 37.0805C103.469 36.7134 103.338 36.4191 103.082 36.1977C102.825 35.9762 102.508 35.8655 102.13 35.8655C101.786 35.8655 101.492 35.9762 101.248 36.1977C101.003 36.4133 100.858 36.7076 100.811 37.0805H103.475Z" fill="#0164BC"/>
<path d="M106.035 37.5088C106.035 37.0135 106.134 36.5794 106.332 36.2064C106.536 35.8276 106.815 35.5363 107.17 35.3323C107.526 35.1284 107.933 35.0264 108.393 35.0264C108.975 35.0264 109.456 35.1662 109.834 35.4459C110.218 35.7198 110.477 36.1132 110.611 36.626H109.537C109.45 36.3871 109.31 36.2006 109.118 36.0666C108.926 35.9325 108.684 35.8655 108.393 35.8655C107.986 35.8655 107.659 36.0112 107.415 36.3026C107.176 36.5881 107.057 36.9902 107.057 37.5088C107.057 38.0275 107.176 38.4325 107.415 38.7238C107.659 39.0152 107.986 39.1609 108.393 39.1609C108.969 39.1609 109.351 38.9074 109.537 38.4004H110.611C110.472 38.8899 110.21 39.2803 109.825 39.5717C109.441 39.8572 108.964 40 108.393 40C107.933 40 107.526 39.898 107.17 39.6941C106.815 39.4843 106.536 39.1929 106.332 38.82C106.134 38.4412 106.035 38.0041 106.035 37.5088Z" fill="#0164BC"/>
<path d="M114.564 40C114.11 40 113.699 39.898 113.333 39.6941C112.966 39.4843 112.678 39.1929 112.468 38.82C112.259 38.4412 112.154 38.0041 112.154 37.5088C112.154 37.0193 112.261 36.5852 112.477 36.2064C112.692 35.8276 112.986 35.5363 113.359 35.3323C113.732 35.1284 114.148 35.0264 114.608 35.0264C115.068 35.0264 115.484 35.1284 115.857 35.3323C116.229 35.5363 116.523 35.8276 116.739 36.2064C116.954 36.5852 117.062 37.0193 117.062 37.5088C117.062 37.9983 116.951 38.4324 116.73 38.8112C116.509 39.19 116.206 39.4843 115.822 39.6941C115.443 39.898 115.024 40 114.564 40ZM114.564 39.1346C114.82 39.1346 115.059 39.0735 115.28 38.9511C115.507 38.8287 115.691 38.6451 115.83 38.4004C115.97 38.1557 116.04 37.8585 116.04 37.5088C116.04 37.1592 115.973 36.8649 115.839 36.626C115.705 36.3812 115.528 36.1977 115.306 36.0753C115.085 35.9529 114.846 35.8917 114.59 35.8917C114.334 35.8917 114.095 35.9529 113.874 36.0753C113.659 36.1977 113.487 36.3812 113.359 36.626C113.231 36.8649 113.167 37.1592 113.167 37.5088C113.167 38.0275 113.298 38.4295 113.56 38.7151C113.828 38.9948 114.162 39.1346 114.564 39.1346Z" fill="#0164BC"/>
<path d="M119.915 35.8043C120.061 35.5596 120.253 35.3702 120.491 35.2362C120.736 35.0963 121.024 35.0264 121.356 35.0264V36.0578H121.103C120.713 36.0578 120.416 36.1569 120.212 36.355C120.014 36.5531 119.915 36.8969 119.915 37.3864V39.9213H118.919V35.105H119.915V35.8043Z" fill="#0164BC"/>
</svg>
