<svg width="199" height="40" viewBox="0 0 199 40" fill="none" xmlns="http://www.w3.org/2000/svg">
<path d="M67.8856 1.72225V20.1197H64.0851V2.35163L60.0426 20.1197H53.2405L49.2221 2.47267V20.1197H45.3975V1.72225H52.8047L56.6536 19.5145L60.4783 1.72225H67.8856Z" fill="black"/>
<path d="M74.4436 19.2482C73.0396 18.4736 71.9503 17.3601 71.1756 15.9318C70.401 14.5036 70.0137 12.8333 70.0137 10.921C70.0137 9.0086 70.401 7.3383 71.1756 5.91008C71.9503 4.48186 73.0396 3.36833 74.4436 2.5937C75.8476 1.81908 77.4452 1.43176 79.2365 1.43176C81.0278 1.43176 82.6255 1.81908 84.0295 2.5937C85.4335 3.36833 86.5228 4.48186 87.2974 5.91008C88.072 7.3383 88.4593 9.0086 88.4593 10.921C88.4593 12.8333 88.072 14.5036 87.2974 15.9318C86.5228 17.3601 85.4335 18.4736 84.0295 19.2482C82.6255 20.0228 81.0278 20.4102 79.2365 20.4102C77.4452 20.4102 75.8476 20.0228 74.4436 19.2482ZM81.9719 16.6096C82.7707 16.0771 83.3759 15.3267 83.8116 14.3584C84.2473 13.3901 84.4652 12.2524 84.4652 10.9694C84.4652 9.68639 84.2473 8.54866 83.8116 7.58037C83.3759 6.61209 82.7707 5.86167 81.9719 5.32911C81.1731 4.79655 80.2532 4.53027 79.2123 4.53027C78.1714 4.53027 77.2516 4.79655 76.4527 5.32911C75.6539 5.86167 75.0487 6.61209 74.613 7.58037C74.1773 8.54866 73.9594 9.68639 73.9594 10.9694C73.9594 12.2524 74.1773 13.3901 74.613 14.3584C75.0487 15.3267 75.6539 16.0771 76.4527 16.6096C77.2516 17.1422 78.1714 17.4085 79.2123 17.4085C80.2532 17.4085 81.1731 17.1422 81.9719 16.6096Z" fill="black"/>
<path d="M97.5895 19.3935L102.649 1.72225H106.764L101.172 20.1197H93.9584L88.3909 1.72225H92.506L97.5895 19.3935Z" fill="black"/>
<path d="M111.816 12.2766V16.9243H120.869V20.1197H107.991V1.72225H120.651V4.91759H111.816V9.08122H120.482V12.2766H111.816Z" fill="black"/>
<path d="M145.781 1.72225V20.1197H141.98V2.35163L137.938 20.1197H131.135L127.117 2.47267V20.1197H123.292V1.72225H130.7L134.549 19.5145L138.373 1.72225H145.781Z" fill="black"/>
<path d="M152.702 12.2766V16.9243H161.755V20.1197H148.877V1.72225H161.537V4.91759H152.702V9.08122H161.368V12.2766H152.702Z" fill="black"/>
<path d="M177.637 19.4903V1.72225H181.438V20.1197H174.055L167.979 2.35163V20.1197H164.178V1.72225H171.586L177.637 19.4903Z" fill="black"/>
<path d="M183.038 1.72225H198.288V4.91759H192.575V20.1197H188.75V4.91759H183.038V1.72225Z" fill="black"/>
<path d="M52.1754 21.288V21.3364C54.0635 21.3364 55.7096 21.6753 57.1136 22.3531C58.5176 23.0309 59.6069 24.0476 60.3815 25.4274C61.1561 26.8072 61.5434 28.5017 61.5434 30.5109C61.5434 32.5201 61.1561 34.2146 60.3815 35.5944C59.6069 36.9742 58.5176 37.9909 57.1136 38.6687C55.7096 39.3465 54.0635 39.6854 52.1754 39.6854H45.3975V21.288H52.1754ZM52.2722 36.5385H52.2238C53.3615 36.5385 54.3298 36.2964 55.1286 35.8364C55.9274 35.3765 56.5326 34.6987 56.9441 33.803C57.3556 32.9074 57.5735 31.8181 57.5735 30.5351C57.5735 29.2521 57.3556 28.1628 56.9441 27.2671C56.5326 26.3715 55.9274 25.6937 55.1286 25.2337C54.3298 24.7738 53.3857 24.5317 52.2722 24.5317H49.2221V36.5385H52.2722Z" fill="black"/>
<path d="M67.1862 38.8139C65.7823 38.0393 64.6929 36.9258 63.9183 35.4975C63.1437 34.0693 62.7564 32.399 62.7564 30.4867C62.7564 28.5743 63.1437 26.904 63.9183 25.4758C64.6929 24.0476 65.7823 22.934 67.1862 22.1594C68.5902 21.3848 70.1879 20.9975 71.9792 20.9975C73.7705 20.9975 75.3682 21.3848 76.7722 22.1594C78.1761 22.934 79.2655 24.0476 80.0401 25.4758C80.8147 26.904 81.202 28.5743 81.202 30.4867C81.202 32.399 80.8147 34.0693 80.0401 35.4975C79.2655 36.9258 78.1761 38.0393 76.7722 38.8139C75.3682 39.5886 73.7705 39.9759 71.9792 39.9759C70.1879 39.9759 68.5902 39.5886 67.1862 38.8139ZM74.7146 36.1753C75.5134 35.6428 76.1186 34.8924 76.5543 33.9241C76.99 32.9558 77.2079 31.8181 77.2079 30.5351C77.2079 29.2521 76.99 28.1144 76.5543 27.1461C76.1186 26.1778 75.5134 25.4274 74.7146 24.8948C73.9157 24.3623 72.9959 24.096 71.955 24.096C70.9141 24.096 69.9942 24.3623 69.1954 24.8948C68.3966 25.4274 67.7914 26.1778 67.3557 27.1461C66.92 28.1144 66.7021 29.2521 66.7021 30.5351C66.7021 31.8181 66.92 32.9558 67.3557 33.9241C67.7914 34.8924 68.3966 35.6428 69.1954 36.1753C69.9942 36.7079 70.9141 36.9742 71.955 36.9742C72.9959 36.9742 73.9157 36.7079 74.7146 36.1753Z" fill="black"/>
<path d="M105.817 21.288V39.6854H102.016V21.9173L97.9735 39.6854H91.1714L87.1531 22.0384V39.6854H83.3284V21.288H90.7357L94.5846 39.0802L98.4093 21.288H105.817Z" fill="black"/>
<path d="M126.197 39.6854H122.178L120.605 34.7229H112.568L110.995 39.6854H106.976L113.077 21.288H120.097L126.197 39.6854ZM116.587 22.0626L113.585 31.5276H119.588L116.587 22.0626Z" fill="black"/>
<path d="M131.183 39.6854H127.358V21.288H131.183V39.6854Z" fill="black"/>
<path d="M147.75 39.056V21.288H151.551V39.6854H144.168L138.092 21.9173V39.6854H134.291V21.288H141.699L147.75 39.056Z" fill="black"/>
<path d="M157.435 39.2739L157.339 39.3707C156.225 38.8865 155.329 38.2087 154.652 37.3131C153.974 36.4174 153.562 35.3523 153.393 34.1177H157.387C157.508 35.0618 157.919 35.788 158.621 36.2964C159.323 36.8047 160.195 37.0468 161.236 37.0468C162.083 37.0468 162.809 36.95 163.414 36.7563C164.02 36.5627 164.48 36.2964 164.794 35.9333C165.109 35.5702 165.278 35.1586 165.278 34.6745C165.278 34.2146 165.157 33.8273 164.891 33.5368C164.625 33.2463 164.237 33.0042 163.729 32.8106C163.221 32.6169 162.519 32.4232 161.599 32.2054L158.985 31.6244C157.363 31.2855 156.104 30.7045 155.208 29.8573C154.313 29.01 153.877 27.8965 153.877 26.5167C153.877 25.4758 154.192 24.5317 154.821 23.7087C155.45 22.8856 156.298 22.232 157.387 21.7721C158.476 21.3122 159.687 21.0701 161.018 21.0701C162.495 21.0701 163.778 21.288 164.867 21.7237C165.956 22.1594 166.803 22.7646 167.433 23.5392C168.062 24.3139 168.474 25.2337 168.643 26.2746H164.649C164.407 25.5242 163.971 24.9674 163.366 24.6043C162.761 24.2412 161.986 24.0718 161.042 24.0718C160.437 24.0718 159.88 24.1444 159.372 24.3139C158.864 24.4833 158.452 24.7254 158.162 25.0401C157.871 25.3548 157.726 25.7179 157.726 26.1294C157.726 26.5651 157.847 26.904 158.089 27.1703C158.331 27.4366 158.694 27.6544 159.178 27.8481C159.662 28.0417 160.364 28.2354 161.284 28.4533L163.899 29.0342C165.666 29.4216 166.997 30.0267 167.868 30.8498C168.74 31.6728 169.176 32.8106 169.176 34.2388C169.176 35.4249 168.837 36.4658 168.183 37.3373C167.53 38.2087 166.61 38.8623 165.399 39.3223C164.189 39.7822 162.785 40.0001 161.187 40.0001C159.808 40.0001 158.549 39.758 157.435 39.2739Z" fill="black"/>
<ellipse cx="19.9002" cy="19.957" rx="19.9002" ry="19.957" fill="black"/>
</svg>
