<svg width="105" height="40" viewBox="0 0 105 40" fill="none" xmlns="http://www.w3.org/2000/svg">
<path d="M47.1138 40C46.6126 40 46.2063 39.5937 46.2063 39.0925V29.5581C46.2063 29.0569 46.6126 28.6506 47.1138 28.6506H48.0213C48.1768 28.6506 48.3029 28.7767 48.3029 28.9322C48.3029 29.2094 48.7144 29.3592 48.936 29.1927C49.5178 28.7555 50.2881 28.4894 51.0753 28.4773C53.709 28.4253 55.3724 30.2447 55.3724 32.9304C55.3724 35.6335 53.657 37.5568 51.0579 37.5568C50.9862 37.5568 50.9139 37.5546 50.8411 37.5501C49.9883 37.4978 48.3029 38.3007 48.3029 39.1552C48.3029 39.6218 47.9247 40 47.4581 40H47.1138ZM48.3029 32.9651C48.3029 34.6285 49.2213 35.8068 50.7807 35.8068C52.3055 35.8241 53.2758 34.6285 53.2758 32.9651C53.2758 31.2324 52.1842 30.1581 50.7807 30.1754C49.3079 30.21 48.3029 31.3017 48.3029 32.9651Z" fill="#0071CF"/>
<path d="M57.6557 37.4355C57.1545 37.4355 56.7482 37.0292 56.7482 36.528V26.8897C56.7482 26.3885 57.1545 25.9822 57.6557 25.9822H58.0126C58.4626 25.9822 58.8275 26.347 58.8275 26.7971V27.0001C58.8275 27.7554 60.3075 28.4946 61.0627 28.4946C63.5059 28.4946 64.7881 30.314 64.7881 32.7745V36.528C64.7881 37.0292 64.3818 37.4355 63.8806 37.4355H63.599C63.0978 37.4355 62.6915 37.0292 62.6915 36.528V32.7745C62.6915 31.1284 61.9984 30.2794 60.8548 30.2794C59.5726 30.2794 58.8275 31.1111 58.8275 32.8265V36.528C58.8275 37.0292 58.4212 37.4355 57.92 37.4355H57.6557Z" fill="#0071CF"/>
<path d="M70.3182 37.6261C67.6671 37.7301 66.021 35.7375 66.021 33.0691C66.021 30.4353 67.7364 28.4773 70.3355 28.4946C71.0783 28.4946 71.876 28.6959 72.4893 29.1582C72.6985 29.3159 73.0906 29.1767 73.0906 28.9148C73.0906 28.7689 73.2089 28.6506 73.3548 28.6506H74.2797C74.7809 28.6506 75.1872 29.0569 75.1872 29.5581V36.528C75.1872 37.0292 74.7809 37.4355 74.2797 37.4355H73.3631C73.2126 37.4355 73.0906 37.3135 73.0906 37.163C73.0906 36.89 72.6694 36.7411 72.4513 36.9054C71.8762 37.3384 71.1097 37.5902 70.3182 37.6261ZM68.1176 33.0344C68.1176 34.8364 69.2093 35.9454 70.6128 35.9107C72.0856 35.8934 73.0906 34.7498 73.0906 32.9651C73.0906 31.423 72.1722 30.2447 70.6128 30.2274C69.088 30.21 68.1176 31.4403 68.1176 33.0344Z" fill="#0071CF"/>
<path d="M76.631 31.2497C76.631 29.5057 77.945 28.8525 79.4615 28.6925C79.9252 28.6436 80.3044 29.0286 80.3044 29.4949C80.3044 29.9512 79.9303 30.2923 79.4972 30.4361C78.9427 30.6202 78.7103 31.0136 78.7103 31.6482V36.528C78.7103 37.0292 78.304 37.4355 77.8028 37.4355H77.5238C77.0216 37.4355 76.6149 37.0277 76.6163 36.5255L76.631 31.2497Z" fill="#0071CF"/>
<path d="M82.6314 37.4355C82.1302 37.4355 81.7239 37.0292 81.7239 36.528V29.5581C81.7239 29.0569 82.1302 28.6506 82.6314 28.6506H83.5745C83.7104 28.6506 83.8205 28.7607 83.8205 28.8966C83.8205 29.1505 84.2342 29.2865 84.4324 29.1279C84.9917 28.6801 85.7264 28.4652 86.4023 28.4773C86.9241 28.4847 87.3523 28.5575 87.7109 28.7023C88.3529 28.9617 89.3728 29.0046 90.0118 28.7381C90.4515 28.5548 90.9396 28.4691 91.3926 28.4773C93.4718 28.512 94.4422 29.9848 94.4422 32.3413V36.528C94.4422 37.0292 94.0359 37.4355 93.5347 37.4355H93.2704C92.7692 37.4355 92.3629 37.0292 92.3629 36.528V32.3413C92.3629 31.0418 91.8084 30.262 90.7514 30.262C90.3358 30.2494 89.9475 30.42 89.6334 30.6738C89.4127 30.8522 89.3556 31.1515 89.3987 31.432C89.4457 31.7372 89.4692 32.0552 89.4692 32.4279V36.528C89.4692 37.0292 89.0629 37.4355 88.5617 37.4355H88.2801C87.7789 37.4355 87.3726 37.0292 87.3726 36.528V32.4279C87.3726 31.0591 86.8875 30.262 85.6572 30.262C84.479 30.2447 83.8205 31.3536 83.8205 32.5146V36.528C83.8205 37.0292 83.4142 37.4355 82.913 37.4355H82.6314Z" fill="#0071CF"/>
<path d="M99.9811 37.6261C97.33 37.7301 95.6839 35.7375 95.6839 33.0691C95.6839 30.4353 97.3993 28.4773 99.9984 28.4946C100.741 28.4946 101.539 28.6959 102.152 29.1582C102.361 29.3159 102.753 29.1767 102.753 28.9148C102.753 28.7689 102.872 28.6506 103.018 28.6506H103.943C104.444 28.6506 104.85 29.0569 104.85 29.5581V36.528C104.85 37.0292 104.444 37.4355 103.943 37.4355H103.026C102.875 37.4355 102.753 37.3135 102.753 37.163C102.753 36.89 102.332 36.7411 102.114 36.9054C101.539 37.3384 100.773 37.5902 99.9811 37.6261ZM97.7805 33.0344C97.7805 34.8364 98.8721 35.9454 100.276 35.9107C101.748 35.8934 102.753 34.7498 102.753 32.9651C102.753 31.423 101.835 30.2447 100.276 30.2274C98.7508 30.21 97.7805 31.4403 97.7805 33.0344Z" fill="#0071CF"/>
<path d="M32.2565 5.13403C31.6926 5.13403 31.1603 5.39457 30.8144 5.83991L28.6958 8.56717C27.6057 9.97047 25.4852 9.97024 24.3954 8.5667L22.2767 5.83809C21.9318 5.39391 21.401 5.13403 20.8386 5.13403C19.3304 5.13403 18.4762 6.86266 19.3923 8.0607L22.6793 12.359C23.4107 13.3154 23.427 14.6387 22.7194 15.6128L20.5278 18.6301L19.6839 19.7927C18.8042 21.0047 19.67 22.7031 21.1677 22.7031C21.7595 22.7031 22.315 22.4174 22.6592 21.9359L24.4131 19.4822C25.4749 17.9968 27.6691 17.9571 28.784 19.403L30.7803 21.9921C31.126 22.4405 31.6601 22.7031 32.2262 22.7031C33.7356 22.7031 34.5932 20.9757 33.6806 19.7734L30.4993 15.5817C29.7604 14.6081 29.7609 13.2614 30.5005 12.2883L33.7104 8.06528C34.6243 6.86291 33.7668 5.13403 32.2565 5.13403Z" fill="#0071CF"/>
<path d="M39.5451 0C38.2979 0 37.2219 0.832139 37.2219 2.14773C37.2219 3.39487 38.2979 4.2976 39.5451 4.2976C40.7922 4.2976 41.8661 3.43124 41.8661 2.18196C41.8661 0.866366 40.7922 0 39.5451 0Z" fill="#0071CF"/>
<path d="M41.6586 20.827V7.41656C41.6586 6.2682 40.7276 5.33728 39.5793 5.33728C38.4309 5.33728 37.5 6.26821 37.5 7.41656V20.827C37.5 21.9754 38.4309 22.9063 39.5793 22.9063C40.7276 22.9063 41.6586 21.9754 41.6586 20.827Z" fill="#0071CF"/>
<path d="M48.0442 16.9465V12.0243C48.0442 11.3355 48.6025 10.7772 49.2913 10.7772C49.9801 10.7772 50.5385 10.2188 50.5385 9.53003V8.73514C50.5385 8.04469 49.9787 7.48497 49.2883 7.48497C48.6002 7.48497 48.0415 6.92895 48.0381 6.24088L48.0179 2.08222C48.0123 0.930611 47.0772 0 45.9256 0C44.7763 0 43.8421 0.926984 43.8332 2.07624L43.7915 7.48497V10.7772L43.8493 17.7423C43.8493 21.3121 46.5133 22.6225 49.5719 22.8684C50.4746 22.941 51.1973 22.1855 51.1973 21.2798C51.1973 20.3453 50.4034 19.6718 49.5174 19.3747C48.5081 19.0362 48.0442 18.2653 48.0442 16.9465Z" fill="#0071CF"/>
<path d="M61.0566 4.92004C55.8584 4.92004 51.8389 8.45396 51.8389 14.0329C51.8389 19.6119 55.7899 23.1822 61.0566 23.1822C66.3232 23.1822 70.2422 19.5777 70.2422 14.0329C70.2422 8.48819 66.1863 4.92004 61.0566 4.92004ZM61.0566 19.8558C57.835 19.8558 56.0317 17.2567 56.0317 14.0329C56.0317 10.8092 57.9377 8.24646 61.0566 8.24646C64.1755 8.24646 66.0473 10.8113 66.0473 14.0329C66.0473 17.2545 64.2461 19.8558 61.0566 19.8558Z" fill="#0071CF"/>
<path d="M78.4566 12.268C76.2382 11.9557 75.6842 11.0209 75.6842 10.0155C75.6842 8.87317 76.5848 8.24853 77.8662 8.24853C78.9013 8.24853 79.7044 8.54489 80.1661 9.27026C80.7681 10.216 81.5174 11.2362 82.6385 11.2457C83.7404 11.2551 84.6903 10.3614 84.4228 9.29242C83.7179 6.475 81.2405 4.97859 77.8662 4.92212C74.4349 4.85152 71.5256 6.58426 71.5256 9.98127C71.5256 13.5858 73.9515 15.0062 77.7977 15.4918C80.2577 15.8383 81.0557 16.5656 81.0214 17.8834C81.0214 19.1647 79.9818 19.8578 78.3517 19.753C77.4455 19.7165 76.7664 19.3639 76.33 18.7849C75.6333 17.8604 74.8142 16.8074 73.6565 16.8074C72.5121 16.8074 71.5303 17.7483 71.8496 18.8473C72.6719 21.6772 75.3646 23.0235 78.386 23.0816C82.6836 23.15 85.2142 21.105 85.2142 17.6737C85.2142 14.2425 82.9274 12.8927 78.4566 12.268Z" fill="#0071CF"/>
<path d="M101.196 5.23259C100.904 5.23259 100.668 5.46902 100.668 5.76068C100.668 6.28443 99.8836 6.56263 99.4654 6.2473C98.2388 5.32239 96.6431 4.92027 95.1571 4.92027C89.9589 4.88604 86.5298 8.80073 86.5298 14.0695C86.5298 19.3383 89.822 23.3899 95.1229 23.1824C96.7054 23.1113 98.2388 22.6079 99.3891 21.7416C99.8251 21.4133 100.668 21.711 100.668 22.2569C100.668 22.5577 100.911 22.8016 101.212 22.8016H102.765C103.923 22.8016 104.863 21.8626 104.863 20.7042V7.33005C104.863 6.17165 103.923 5.23259 102.765 5.23259H101.196ZM95.7133 19.7512C92.9045 19.8218 90.7226 17.6034 90.7226 13.9989C90.7226 10.8116 92.6628 8.3515 95.7133 8.38573C98.8322 8.41996 100.668 10.7773 100.668 13.8599C100.668 17.4302 98.6589 19.7169 95.7133 19.7512Z" fill="#0071CF"/>
<path d="M17.7445 15.3485C17.7487 15.2887 17.7509 15.2266 17.753 15.1667V15.1517C18.0482 9.12141 14.495 4.81311 8.94175 4.81311C4.0901 4.81311 0 8.48607 0 14.1356C0 14.5827 0.0256701 15.0148 0.0812886 15.432L4.20134 15.3892H4.19278L17.7445 15.3464V15.3485ZM8.94175 8.13953C9.68618 8.13953 10.3771 8.30424 10.9932 8.58662C12.4735 9.26473 13.5153 10.6252 13.7592 12.0221H4.26338C4.7126 9.80381 6.4817 8.13953 8.94175 8.13953Z" fill="#67C9BA"/>
<path d="M8.85624 23.7234C8.85624 23.9823 8.84127 24.2368 8.8156 24.4871C4.58217 24.0208 0.885674 21.1671 0.136963 16.508C0.581911 16.4246 1.04183 16.3796 1.51245 16.3796C2.67189 16.3796 3.76714 16.647 4.74047 17.1241C4.74689 17.1284 4.75116 17.1305 4.75758 17.1326C6.27212 17.8813 7.49359 19.1349 8.19524 20.6751C8.47547 21.2869 8.67227 21.9415 8.77281 22.6282C8.82629 22.9854 8.8541 23.3512 8.8541 23.7213L8.85624 23.7234Z" fill="#0071CF"/>
<mask id="mask0_247_2426" style="mask-type:luminance" maskUnits="userSpaceOnUse" x="9" y="16" width="9" height="9">
<path d="M17.7571 16.3817H9.03784V24.4892H17.7571V16.3817Z" fill="white"/>
</mask>
<g mask="url(#mask0_247_2426)">
<path d="M9.0376 23.7233C9.0376 23.9821 9.05257 24.2367 9.07824 24.487C13.3117 24.0206 17.0082 21.167 17.7569 16.5079C17.3119 16.4244 16.852 16.3795 16.3814 16.3795C15.222 16.3795 14.1267 16.6469 13.1534 17.124C13.147 17.1282 13.1427 17.1304 13.1363 17.1325C11.6217 17.8812 10.4003 19.1348 9.6986 20.675C9.41837 21.2868 9.22157 21.9414 9.12103 22.628C9.06755 22.9853 9.03974 23.3511 9.03974 23.7212L9.0376 23.7233Z" fill="#FFBE3C"/>
</g>
</svg>
