<svg width="111" height="40" viewBox="0 0 111 40" fill="none" xmlns="http://www.w3.org/2000/svg">
<path d="M8.56003 21.724C8.42283 21.7179 8.28706 21.7088 8.14986 21.7088C5.80888 21.7088 3.46933 21.7088 1.12834 21.7088C1.01401 21.7088 0.898247 21.7133 0.786772 21.695C0.323721 21.6249 0.0321697 21.2816 0.00215712 20.7843C-0.0021304 20.7111 0.00215712 20.6379 0.00215712 20.5647C0.00215712 14.9708 -0.000701224 9.37689 0.00358629 3.783C0.00215712 2.41618 0.525233 1.33157 1.60426 0.576463C2.18307 0.172214 2.82906 0.00136157 3.51935 0.00136157C5.75743 0.00288704 7.99551 0.00136157 10.2336 0.00136157C13.2134 0.00136157 16.1932 0.00136157 19.1731 0.00136157C19.276 0.00136157 19.3789 -0.00321483 19.4818 0.00441251C19.9605 0.0349219 20.2892 0.375101 20.3335 0.881556C20.3435 0.989865 20.3378 1.10122 20.3378 1.21106C20.3378 3.72198 20.3378 6.23137 20.3378 8.74229C20.3378 8.87653 20.3435 9.01077 20.3464 9.14349C20.3293 9.15874 20.3121 9.17552 20.295 9.1923C20.1006 9.29146 19.8919 9.25942 19.6876 9.25942C16.2161 9.26095 12.7446 9.25942 9.27176 9.26095C8.87064 9.26095 8.67008 9.47502 8.67008 9.90317C8.67008 13.6085 8.67008 17.3139 8.66865 21.0208C8.66865 21.2389 8.69866 21.4616 8.60577 21.6691C8.59004 21.6874 8.57575 21.7057 8.56003 21.7225V21.724Z" fill="#091010"/>
<path d="M8.55983 30.876C8.56269 30.1468 8.56697 29.4176 8.56697 28.6885C8.56697 26.5009 8.56697 24.3134 8.56697 22.1244C8.56697 21.9901 8.56126 21.8574 8.5584 21.7232L8.55411 21.7293C8.71989 21.5783 8.91998 21.6164 9.11149 21.6149C11.7126 21.6118 14.3151 21.6072 16.9162 21.621C17.3006 21.6225 17.585 21.5005 17.8509 21.206C18.514 20.4677 19.1943 19.7462 19.8831 19.0353C20.1418 18.7699 20.249 18.4846 20.2476 18.1002C20.2362 15.3116 20.2404 12.5216 20.2433 9.733C20.2433 9.53012 20.2076 9.31502 20.3491 9.13807L20.3433 9.14265C22.8101 9.14265 25.2754 9.14417 27.7422 9.1457C27.8451 9.1457 27.948 9.14112 28.0509 9.14875C28.5282 9.18078 28.8569 9.52096 28.9012 10.0289C28.9098 10.125 28.9041 10.2242 28.9041 10.3218C28.9041 14.8799 28.9026 19.438 28.9084 23.9946C28.9084 24.2448 28.8483 24.4248 28.6797 24.6033C26.8018 26.597 24.9281 28.5954 23.0616 30.6014C22.883 30.7936 22.7043 30.8562 22.4585 30.8562C17.9709 30.8501 13.4847 30.8516 8.99715 30.8516C8.84852 30.8516 8.70131 30.8623 8.55268 30.8668L8.5584 30.8729L8.55983 30.876Z" fill="#091010"/>
<path d="M8.55406 30.8698C8.55835 30.9675 8.56693 31.0636 8.56693 31.1612C8.56693 33.7453 8.56693 36.3295 8.56693 38.9121C8.56693 38.9975 8.56978 39.0829 8.56264 39.1684C8.5312 39.5482 8.28824 39.8518 7.94238 39.9525C7.7866 39.9982 7.62653 39.9997 7.46646 39.9997C5.34272 39.9997 3.21897 39.9997 1.09522 39.9997C0.992321 39.9997 0.889421 40.0028 0.787949 39.9875C0.324898 39.9158 0.0319181 39.5757 0.00190556 39.0768C-0.00238195 39.0036 0.00190556 38.9304 0.00190556 38.8572C0.00190556 36.5659 0.00190556 34.2747 0.00190556 31.9834C0.00190556 31.8126 0.000476397 31.6417 0.056214 31.4785C0.18341 31.1139 0.419223 30.8973 0.787949 30.8622C0.85655 30.8561 0.92515 30.8561 0.99375 30.8561C3.4262 30.8561 5.85722 30.8561 8.28967 30.8561C8.3797 30.8561 8.47117 30.8698 8.56121 30.8774L8.55406 30.8698Z" fill="#091010"/>
<path d="M39.7355 25.6382V11.339H46.4148C49.5153 11.339 51.6935 13.2739 51.6935 16.0237C51.6935 18.7786 49.5053 20.7284 46.4148 20.7284H42.3574V25.6382H39.7355ZM42.3574 18.4486H46.2453C47.985 18.4486 49.0716 17.5186 49.0716 16.0237C49.0716 14.5388 47.9999 13.6188 46.2802 13.6188H42.3574V18.4486Z" fill="#091010"/>
<path d="M55.5655 10.839V13.3989H52.9834V10.839H55.5655ZM55.5256 14.6138V25.6382H53.0233V14.6138H55.5256Z" fill="#091010"/>
<path d="M68.0373 14.6138L64.2589 20.0385L68.3812 25.6382H65.4502L62.3299 21.3284L59.3042 25.6382H56.5278L60.5205 20.0685L56.6574 14.6138H59.5883L62.4545 18.8036L65.2658 14.6138H68.0373Z" fill="#091010"/>
<path d="M71.8424 10.839V17.9836C72.3707 15.6937 73.7864 14.3138 75.7353 14.3138C78.3921 14.3138 80.2763 16.7187 80.2763 20.1235C80.2763 23.5283 78.3921 25.9382 75.7304 25.9382C73.7864 25.9382 72.3707 24.5532 71.8424 22.2634V25.6382H69.3401V10.839H71.8424ZM71.8424 20.1235C71.8424 22.4134 72.9539 23.7583 74.8331 23.7583C76.7422 23.7583 77.7641 22.4933 77.7641 20.1235C77.7641 17.7536 76.7422 16.4937 74.8331 16.4937C72.949 16.4937 71.8424 17.8336 71.8424 20.1235Z" fill="#091010"/>
<path d="M89.0657 14.6138H91.6228L87.2513 26.1381C86.3192 28.623 84.764 29.7279 82.2667 29.7279C81.858 29.7279 81.4393 29.6929 81.0206 29.6279V27.5331C81.4193 27.5881 81.7583 27.6131 82.0723 27.6131C83.3683 27.6131 84.1609 27.1531 84.6245 26.0831L84.6494 26.0131L80.3875 14.6138H82.9995L86.0152 23.5583L89.0657 14.6138Z" fill="#091010"/>
<path d="M99.7219 25.5532C98.8296 25.8082 98.0421 25.9332 97.3492 25.9332C95.0463 25.9332 93.8201 24.5382 93.8201 21.8384V16.6537H92.3845V14.6138H93.8201V12.0739H96.3224V14.6138H99.7219V16.6537H96.3224V21.8434C96.3224 23.2083 96.8059 23.8283 97.9025 23.8283C98.3362 23.8283 98.9243 23.7283 99.7219 23.5233V25.5532Z" fill="#091010"/>
<path d="M108.538 21.9434H110.95C110.367 24.4332 108.413 25.9382 105.786 25.9382C102.516 25.9382 100.313 23.5933 100.313 20.1135C100.313 16.6437 102.491 14.3138 105.726 14.3138C108.926 14.3138 111 16.5837 111 20.0885C111 20.3485 110.99 20.6035 110.965 20.8884H102.785C102.995 22.7233 104.126 23.8233 105.856 23.8233C107.167 23.8233 108.049 23.1883 108.538 21.9434ZM102.82 19.0885H108.523C108.258 17.3436 107.296 16.4087 105.741 16.4087C104.146 16.4087 103.094 17.3986 102.82 19.0885Z" fill="#091010"/>
</svg>
