<svg width="254" height="40" viewBox="0 0 254 40" fill="none" xmlns="http://www.w3.org/2000/svg">
<path d="M0 30.9751V0.00576392H29.2211C35.4233 -0.160738 38.5452 3.29418 38.5452 8.53899C38.5452 12.1604 37.463 14.1168 35.5898 15.1574C38.4203 15.9483 40.1686 17.9047 40.1686 22.4419C40.1686 27.6867 37.0467 31.1416 30.8445 30.9751H0ZM9.40736 24.5648H27.7642C29.7206 24.6481 30.7613 23.6074 30.7196 21.651C30.7613 19.6946 29.7206 18.654 27.7642 18.6956H9.40736V24.5648ZM26.1408 6.41609H9.40736V12.2853H26.1408C28.0972 12.3269 29.1379 11.2863 29.0962 9.3715C29.1379 7.4151 28.0972 6.37447 26.1408 6.41609Z" fill="#4D4461"/>
<path d="M76.0784 21.0227C76.0367 21.0227 75.9951 21.0643 75.9118 21.0643L82.5719 30.9712L72.6234 31.0128L71.2616 28.984C68.2883 24.5544 63.3038 21.8969 57.9688 21.8969H51.9772V31.0128H42.5698V0.00183552H69.9178C73.5808 -0.0397919 76.4114 0.626218 78.3261 2.04148C78.4094 2.08311 78.4926 2.16636 78.5759 2.24961C78.7424 2.37449 78.9089 2.49937 79.0338 2.62424C79.1586 2.74912 79.2835 2.874 79.4084 2.99887C79.4916 3.12375 79.5749 3.207 79.6581 3.33188C79.783 3.49838 79.9079 3.66488 80.0328 3.83138C80.0744 3.91463 80.116 3.99788 80.1993 4.08113C80.2825 4.28926 80.4074 4.49739 80.5323 4.70552C80.5323 4.78877 80.5739 4.83039 80.6155 4.91364C80.6988 5.1634 80.782 5.41315 80.8653 5.6629C80.9069 5.70453 80.9069 5.74616 80.9069 5.78778C80.9902 6.07916 81.0734 6.37054 81.115 6.66192C81.115 6.70354 81.115 6.74517 81.115 6.78679C81.1983 7.07817 81.1983 7.41117 81.2399 7.74418C81.2399 7.7858 81.2399 7.7858 81.2399 7.7858L81.2815 13.4469C81.2815 13.7799 81.2399 14.0713 81.2399 14.321C81.1983 14.4043 81.1983 14.4875 81.1983 14.5708C81.1567 14.8205 81.115 15.1119 81.0734 15.3616C81.0734 15.4033 81.0734 15.4865 81.0318 15.5281C80.8653 16.3607 80.5739 17.1099 80.1993 17.7759C80.1993 17.8176 80.1577 17.8592 80.116 17.9008C79.9911 18.1089 79.8663 18.2754 79.7414 18.4836C79.6998 18.5252 79.6581 18.5668 79.6165 18.6501C78.9505 19.4409 78.0764 20.107 77.0357 20.6065C76.9525 20.6481 76.9109 20.6897 76.8276 20.6897C76.5779 20.8146 76.3281 20.9395 76.0784 21.0227ZM67.0872 6.37054H51.9772V15.4865H68.4193C68.5858 15.4865 68.7523 15.4865 68.9188 15.4865C68.9188 15.4865 68.9604 15.4865 69.002 15.4865C69.1685 15.4449 69.2934 15.4449 69.4599 15.4449L69.5015 15.4033C69.9594 15.3616 70.3757 15.2784 70.7503 15.1535C70.7503 15.1535 70.7919 15.1535 70.7919 15.1119C70.9168 15.0703 71.0417 15.0286 71.1249 14.987C71.1665 14.987 71.1665 14.987 71.2082 14.9454C71.666 14.7373 71.9991 14.4875 72.2904 14.1545C72.2904 14.1129 72.3321 14.1129 72.3321 14.0713C72.3737 13.988 72.4569 13.9048 72.4986 13.8215L72.5402 13.7799C72.7067 13.4885 72.8316 13.1971 72.8732 12.8641C72.8732 12.8225 72.9148 12.8225 72.9148 12.7809C72.9148 12.656 72.9148 12.5727 72.9564 12.4479C72.9564 12.4062 72.9564 12.3646 72.9564 12.3646C72.9564 12.2397 72.9564 12.1149 72.9564 11.99V9.61733C72.9564 9.49245 72.9564 9.32595 72.9148 9.20107C72.9148 9.20107 72.9148 9.20107 72.9148 9.15945C72.8732 9.03457 72.8732 8.90969 72.8316 8.78482C72.8316 8.78482 72.8316 8.78482 72.7899 8.74319C72.7899 8.61832 72.7483 8.53506 72.7067 8.41019C72.6651 8.41019 72.6651 8.36856 72.6651 8.36856C72.6234 8.24369 72.5818 8.16043 72.5402 8.07718C72.4986 8.03556 72.4986 8.03556 72.4569 7.99393C72.4153 7.91068 72.3737 7.82743 72.2904 7.7858C72.2904 7.74418 72.2488 7.70255 72.2072 7.66093C72.1239 7.57768 72.0823 7.53605 72.0407 7.49443C71.9991 7.41117 71.9158 7.36955 71.8742 7.32792C71.8326 7.2863 71.7909 7.24467 71.7493 7.24467C70.9584 6.66191 69.7929 6.37054 68.2528 6.41216H67.0872V6.37054Z" fill="#4D4461"/>
<path d="M125.1 10.9904V19.0658C125.1 19.482 125.1 19.8983 125.059 20.3145C125.059 20.3978 125.059 20.5227 125.017 20.6059C124.976 21.0222 124.934 21.3968 124.851 21.7298C124.851 21.8131 124.851 21.8963 124.809 21.9796C124.559 23.1451 124.185 24.2273 123.602 25.1431C123.56 25.2264 123.56 25.268 123.519 25.3512C123.352 25.601 123.144 25.8924 122.936 26.1837C122.894 26.2254 122.811 26.3086 122.769 26.3919C121.812 27.5158 120.605 28.4731 119.106 29.1808C119.023 29.2224 118.94 29.264 118.857 29.3057C118.524 29.4722 118.149 29.597 117.774 29.7635C117.691 29.7635 117.608 29.8052 117.525 29.8468C116.276 30.263 114.902 30.5544 113.32 30.7626C113.279 30.7626 113.195 30.7626 113.112 30.7626C112.654 30.8458 112.155 30.8874 111.614 30.8874C111.489 30.9291 111.364 30.9291 111.239 30.9291C110.698 30.9707 110.157 30.9707 109.616 30.9707H101.041C95.8376 31.0539 91.8416 30.0549 89.1359 28.0985C89.0111 28.0153 88.8862 27.8904 88.7613 27.8071C88.5532 27.6406 88.3034 27.4325 88.0953 27.266C87.9288 27.0995 87.7623 26.8914 87.5958 26.7249C87.4709 26.5584 87.346 26.4335 87.2212 26.3086C87.0547 26.0589 86.8882 25.8091 86.7217 25.5594C86.6384 25.4345 86.5552 25.3512 86.4719 25.2264C86.3054 24.935 86.1805 24.6436 86.014 24.3106C85.9724 24.2273 85.9308 24.1441 85.8891 24.0608C85.7643 23.6862 85.6394 23.3532 85.5145 22.9786C85.4729 22.8953 85.4729 22.8537 85.4313 22.7705C85.348 22.3542 85.2231 21.9796 85.1815 21.5217C85.1399 21.4801 85.1399 21.4384 85.1399 21.3968C85.0566 20.9389 85.015 20.4811 84.9734 20.0232C84.9734 19.9815 84.9734 19.9815 84.9734 19.9399V11.9062C84.9734 11.4899 84.9734 11.0737 85.015 10.6991C85.015 10.5742 85.015 10.4909 85.0566 10.3661C85.0983 9.99142 85.1399 9.61679 85.2231 9.24216C85.2231 9.15891 85.2231 9.07566 85.2648 8.99241C85.5145 7.82689 85.8891 6.78626 86.4719 5.82887C86.4719 5.74562 86.5135 5.70399 86.5552 5.66237C86.7217 5.37099 86.9298 5.07961 87.1379 4.82986C87.1795 4.74661 87.2628 4.66336 87.3044 4.62173C88.2618 3.45622 89.4689 2.49883 90.9675 1.7912C91.0507 1.74957 91.134 1.70795 91.2172 1.66632C91.5502 1.49982 91.9248 1.37494 92.2995 1.20844C92.3827 1.20844 92.466 1.16682 92.5492 1.16682C93.798 0.708933 95.1716 0.417556 96.7534 0.209428C96.795 0.209428 96.8783 0.209428 96.9199 0.209428C97.4194 0.126176 97.9189 0.0845509 98.4601 0.0845509C98.5849 0.0845509 98.7098 0.0429259 98.8347 0.0429259C99.3758 0.0429259 99.9169 0.00130092 100.458 0.00130092H109.033C114.236 -0.0403265 118.232 0.91706 120.938 2.87346C121.063 2.95671 121.188 3.08159 121.312 3.16484C121.521 3.37297 121.77 3.53947 121.978 3.7476C122.145 3.9141 122.311 4.0806 122.478 4.2471C122.603 4.4136 122.728 4.53848 122.853 4.70498C123.019 4.91311 123.186 5.16286 123.352 5.41262C123.435 5.53749 123.519 5.66237 123.602 5.74562C123.768 6.037 123.893 6.37 124.06 6.66138C124.101 6.74463 124.143 6.82788 124.185 6.95276C124.309 7.28577 124.434 7.66039 124.559 7.9934C124.601 8.07665 124.601 8.1599 124.642 8.20152C124.726 8.61778 124.809 9.03404 124.892 9.45029C124.892 9.49192 124.934 9.53354 124.934 9.61679C125.017 10.033 125.059 10.4909 125.1 10.9904ZM115.651 18.0251C115.651 17.817 115.693 17.6089 115.693 17.4008L115.651 13.1133C115.651 12.8636 115.61 12.6138 115.568 12.3641C115.568 12.3225 115.568 12.3225 115.568 12.2808C115.527 12.0727 115.485 11.8229 115.402 11.6148C115.402 11.6148 115.402 11.5732 115.402 11.5316C115.318 11.3234 115.277 11.1569 115.194 10.9488C115.152 10.9072 115.152 10.8656 115.11 10.8239C115.027 10.6574 114.944 10.4909 114.861 10.3244C114.819 10.2828 114.777 10.1995 114.736 10.1579C114.652 10.033 114.569 9.90817 114.486 9.7833C114.403 9.70004 114.361 9.61679 114.278 9.53354C114.194 9.45029 114.111 9.32541 114.028 9.24216C113.903 9.15891 113.778 9.07566 113.653 8.95078C113.612 8.90916 113.528 8.86753 113.487 8.78428C112.03 7.74364 109.907 7.24414 107.16 7.28576H102.623C102.331 7.28576 102.04 7.28576 101.748 7.28576C101.665 7.32739 101.624 7.32739 101.54 7.32739C101.291 7.32739 100.999 7.36902 100.749 7.36902C100.708 7.36902 100.666 7.41064 100.625 7.41064C99.7921 7.49389 99.0844 7.6604 98.4184 7.86852C98.3768 7.91015 98.3352 7.91015 98.2936 7.91015C98.0854 7.9934 97.8773 8.07665 97.7108 8.1599C97.6692 8.20152 97.6275 8.20152 97.5859 8.24315C96.795 8.61778 96.129 9.11729 95.6295 9.70004C95.5879 9.74167 95.5879 9.7833 95.5463 9.82492C95.4214 9.9498 95.3381 10.1163 95.2549 10.2828C95.2133 10.2828 95.2133 10.3244 95.1716 10.3661C94.8803 10.8656 94.6721 11.4483 94.5473 12.0311C94.5473 12.0727 94.5473 12.1143 94.5056 12.1559C94.464 12.3641 94.464 12.5722 94.4224 12.7803C94.4224 12.822 94.4224 12.8636 94.4224 12.9468C94.3808 13.155 94.3808 13.3631 94.3808 13.6128L94.4224 17.8586C94.4224 17.8586 94.4224 17.8586 94.4224 17.9003C94.4224 18.15 94.464 18.3581 94.5056 18.6079C94.5056 18.6495 94.5056 18.6495 94.5056 18.6912C94.5473 18.8993 94.5889 19.149 94.6305 19.3572C94.6721 19.3988 94.6721 19.3988 94.6721 19.4404C94.7554 19.6485 94.797 19.8567 94.8803 20.0232C94.9219 20.0648 94.9219 20.1064 94.9635 20.148C95.0468 20.3145 95.0884 20.4811 95.2133 20.6476C95.2549 20.6892 95.2965 20.7724 95.2965 20.8141C95.4214 20.9389 95.5046 21.1054 95.5879 21.2303C95.6711 21.2719 95.7128 21.3552 95.796 21.4384C95.8793 21.5217 95.9625 21.6466 96.0458 21.7298C96.1706 21.8131 96.2955 21.9379 96.4204 22.0212C96.462 22.0628 96.5453 22.1461 96.5869 22.1877C98.0438 23.2283 100.167 23.7278 102.914 23.6862H107.451C107.743 23.6862 108.034 23.6862 108.325 23.6862C108.409 23.6862 108.45 23.6862 108.533 23.6446C108.783 23.6446 109.075 23.603 109.324 23.603C109.366 23.603 109.408 23.603 109.449 23.5613C110.24 23.4781 110.989 23.3116 111.655 23.1035C111.697 23.0618 111.739 23.0618 111.78 23.0618C111.988 22.9786 112.196 22.8953 112.363 22.8121C112.405 22.8121 112.446 22.7705 112.488 22.7288C113.279 22.3542 113.945 21.8547 114.444 21.2719C114.486 21.2303 114.486 21.1887 114.528 21.1471C114.652 21.0222 114.736 20.8557 114.819 20.6892C114.861 20.6892 114.861 20.6476 114.902 20.6059C115.194 20.1064 115.402 19.5653 115.527 18.9409C115.527 18.8993 115.527 18.8577 115.568 18.816C115.568 18.6079 115.61 18.3998 115.651 18.1916C115.651 18.15 115.651 18.1084 115.651 18.0251Z" fill="#4D4461"/>
<path d="M161.718 26.5154V0H171.167V30.9694H154.725L136.909 4.45393V30.9694H127.502V0H143.902L161.718 26.5154Z" fill="#4D4461"/>
<path d="M173.569 0H211.24V9.36574L183.601 24.559H211.24V30.9694H173.569V21.6453L201.208 6.41033H173.569V0Z" fill="#4D4461"/>
<path d="M253.768 10.9904V19.0658C253.768 19.482 253.768 19.8983 253.727 20.3145C253.727 20.3978 253.727 20.5227 253.685 20.6059C253.643 21.0222 253.602 21.3968 253.519 21.7298C253.519 21.8131 253.519 21.8963 253.477 21.9796C253.227 23.1451 252.853 24.2273 252.27 25.1431C252.228 25.2264 252.228 25.268 252.187 25.3512C252.02 25.601 251.812 25.8924 251.604 26.1837C251.562 26.2254 251.479 26.3086 251.437 26.3919C250.48 27.5158 249.273 28.4731 247.774 29.1808C247.691 29.2224 247.608 29.264 247.525 29.3057C247.192 29.4722 246.817 29.597 246.442 29.7635C246.359 29.7635 246.276 29.8052 246.193 29.8468C244.944 30.263 243.57 30.5544 241.988 30.7626C241.947 30.7626 241.863 30.7626 241.78 30.7626C241.322 30.8458 240.823 30.8874 240.282 30.8874C240.157 30.9291 240.032 30.9291 239.907 30.9291C239.366 30.9707 238.825 30.9707 238.284 30.9707H229.709C224.506 31.0539 220.51 30.0549 217.804 28.0985C217.679 28.0153 217.554 27.8904 217.429 27.8071C217.221 27.6406 216.971 27.4325 216.763 27.266C216.597 27.0995 216.43 26.8914 216.264 26.7249C216.139 26.5584 216.014 26.4335 215.889 26.3086C215.723 26.0589 215.556 25.8091 215.39 25.5594C215.306 25.4345 215.223 25.3512 215.14 25.2264C214.973 24.935 214.848 24.6436 214.682 24.3106C214.64 24.2273 214.599 24.1441 214.557 24.0608C214.432 23.6862 214.307 23.3532 214.182 22.9786C214.141 22.8953 214.141 22.8537 214.099 22.7705C214.016 22.3542 213.891 21.9796 213.849 21.5217C213.808 21.4801 213.808 21.4384 213.808 21.3968C213.725 20.9389 213.683 20.4811 213.641 20.0232C213.641 19.9815 213.641 19.9815 213.641 19.9399V11.9062C213.641 11.4899 213.641 11.0737 213.683 10.6991C213.683 10.5742 213.683 10.4909 213.725 10.3661C213.766 9.99142 213.808 9.61679 213.891 9.24216C213.891 9.15891 213.891 9.07566 213.933 8.99241C214.182 7.82689 214.557 6.78626 215.14 5.82887C215.14 5.74562 215.182 5.70399 215.223 5.66237C215.39 5.37099 215.598 5.07961 215.806 4.82986C215.848 4.74661 215.931 4.66336 215.972 4.62173C216.93 3.45622 218.137 2.49883 219.635 1.7912C219.719 1.74957 219.802 1.70795 219.885 1.66632C220.218 1.49982 220.593 1.37494 220.967 1.20844C221.051 1.20844 221.134 1.16682 221.217 1.16682C222.466 0.708933 223.84 0.417556 225.421 0.209428C225.463 0.209428 225.546 0.209428 225.588 0.209428C226.087 0.126176 226.587 0.0845509 227.128 0.0845509C227.253 0.0845509 227.378 0.0429259 227.503 0.0429259C228.044 0.0429259 228.585 0.00130092 229.126 0.00130092H237.701C242.904 -0.0403265 246.9 0.91706 249.606 2.87346C249.731 2.95671 249.856 3.08159 249.98 3.16484C250.189 3.37297 250.438 3.53947 250.646 3.7476C250.813 3.9141 250.979 4.0806 251.146 4.2471C251.271 4.4136 251.396 4.53848 251.521 4.70498C251.687 4.91311 251.854 5.16286 252.02 5.41262C252.103 5.53749 252.187 5.66237 252.27 5.74562C252.436 6.037 252.561 6.37 252.728 6.66138C252.769 6.74463 252.811 6.82788 252.853 6.95276C252.977 7.28577 253.102 7.66039 253.227 7.9934C253.269 8.07665 253.269 8.1599 253.31 8.20152C253.394 8.61778 253.477 9.03404 253.56 9.45029C253.56 9.49192 253.602 9.53354 253.602 9.61679C253.685 10.033 253.727 10.4909 253.768 10.9904ZM244.319 18.0251C244.319 17.817 244.361 17.6089 244.361 17.4008L244.319 13.1133C244.319 12.8636 244.278 12.6138 244.236 12.3641C244.236 12.3225 244.236 12.3225 244.236 12.2808C244.194 12.0727 244.153 11.8229 244.07 11.6148C244.07 11.6148 244.07 11.5732 244.07 11.5316C243.986 11.3234 243.945 11.1569 243.861 10.9488C243.82 10.9072 243.82 10.8656 243.778 10.8239C243.695 10.6574 243.612 10.4909 243.528 10.3244C243.487 10.2828 243.445 10.1995 243.404 10.1579C243.32 10.033 243.237 9.90817 243.154 9.7833C243.071 9.70004 243.029 9.61679 242.946 9.53354C242.862 9.45029 242.779 9.32541 242.696 9.24216C242.571 9.15891 242.446 9.07566 242.321 8.95078C242.28 8.90916 242.196 8.86753 242.155 8.78428C240.698 7.74364 238.575 7.24414 235.828 7.28576H231.291C230.999 7.28576 230.708 7.28576 230.416 7.28576C230.333 7.32739 230.292 7.32739 230.208 7.32739C229.959 7.32739 229.667 7.36902 229.417 7.36902C229.376 7.36902 229.334 7.41064 229.293 7.41064C228.46 7.49389 227.752 7.6604 227.086 7.86852C227.045 7.91015 227.003 7.91015 226.962 7.91015C226.753 7.9934 226.545 8.07665 226.379 8.1599C226.337 8.20152 226.296 8.20152 226.254 8.24315C225.463 8.61778 224.797 9.11729 224.297 9.70004C224.256 9.74167 224.256 9.7833 224.214 9.82492C224.089 9.9498 224.006 10.1163 223.923 10.2828C223.881 10.2828 223.881 10.3244 223.84 10.3661C223.548 10.8656 223.34 11.4483 223.215 12.0311C223.215 12.0727 223.215 12.1143 223.174 12.1559C223.132 12.3641 223.132 12.5722 223.09 12.7803C223.09 12.822 223.09 12.8636 223.09 12.9468C223.049 13.155 223.049 13.3631 223.049 13.6128L223.09 17.8586C223.09 17.8586 223.09 17.8586 223.09 17.9003C223.09 18.15 223.132 18.3581 223.174 18.6079C223.174 18.6495 223.174 18.6495 223.174 18.6912C223.215 18.8993 223.257 19.149 223.298 19.3572C223.34 19.3988 223.34 19.3988 223.34 19.4404C223.423 19.6485 223.465 19.8567 223.548 20.0232C223.59 20.0648 223.59 20.1064 223.631 20.148C223.715 20.3145 223.756 20.4811 223.881 20.6476C223.923 20.6892 223.964 20.7724 223.964 20.8141C224.089 20.9389 224.173 21.1054 224.256 21.2303C224.339 21.2719 224.381 21.3552 224.464 21.4384C224.547 21.5217 224.63 21.6466 224.714 21.7298C224.839 21.8131 224.963 21.9379 225.088 22.0212C225.13 22.0628 225.213 22.1461 225.255 22.1877C226.712 23.2283 228.835 23.7278 231.582 23.6862H236.119C236.411 23.6862 236.702 23.6862 236.993 23.6862C237.077 23.6862 237.118 23.6862 237.201 23.6446C237.451 23.6446 237.743 23.603 237.992 23.603C238.034 23.603 238.076 23.603 238.117 23.5613C238.908 23.4781 239.657 23.3116 240.323 23.1035C240.365 23.0618 240.407 23.0618 240.448 23.0618C240.656 22.9786 240.864 22.8953 241.031 22.8121C241.073 22.8121 241.114 22.7705 241.156 22.7288C241.947 22.3542 242.613 21.8547 243.112 21.2719C243.154 21.2303 243.154 21.1887 243.195 21.1471C243.32 21.0222 243.404 20.8557 243.487 20.6892C243.528 20.6892 243.528 20.6476 243.57 20.6059C243.861 20.1064 244.07 19.5653 244.194 18.9409C244.194 18.8993 244.194 18.8577 244.236 18.816C244.236 18.6079 244.278 18.3998 244.319 18.1916C244.319 18.15 244.319 18.1084 244.319 18.0251Z" fill="#4D4461"/>
<rect y="33.5997" width="40.0018" height="6.40029" fill="#4D4461"/>
<path d="M43.1413 39.5996V33.5415H45.0873V39.5996H43.1413ZM50.8079 39.5996L48.2631 36.6586V39.5996H46.4756V33.5415H48.1751L50.7198 36.5265V33.5415H52.5073V39.5996H50.8079ZM57.2975 35.0912V39.5996H55.3515V35.0912H53.3615V33.5415H59.2787V35.0912H57.2975ZM60.1653 33.5415H65.4045V34.9944H62.1113V35.8309H64.929V37.2222H62.1113V38.1467H65.4661V39.5996H60.1653V33.5415ZM72.2699 35.3994C72.2699 35.7693 72.1701 36.1039 71.9705 36.4033C71.7709 36.7026 71.4803 36.9228 71.0987 37.0637L72.446 39.5996H70.2622L69.188 37.3895H68.4659V39.5996H66.5199V33.5415H70.227C70.6614 33.5415 71.0312 33.6266 71.3365 33.7969C71.6476 33.9612 71.8795 34.1872 72.0321 34.4749C72.1906 34.7566 72.2699 35.0648 72.2699 35.3994ZM70.2886 35.4787C70.2886 35.3202 70.2358 35.1881 70.1301 35.0824C70.0245 34.9768 69.8953 34.9239 69.7427 34.9239H68.4659V36.0422H69.7427C69.8953 36.0422 70.0245 35.9894 70.1301 35.8837C70.2358 35.7722 70.2886 35.6372 70.2886 35.4787ZM77.7056 39.5996L75.1608 36.6586V39.5996H73.3734V33.5415H75.0728L77.6176 36.5265V33.5415H79.4051V39.5996H77.7056ZM84.6816 39.5996L84.4263 38.7455H82.3042L82.0488 39.5996H80.0588L82.2689 33.5415H84.5319L86.7421 39.5996H84.6816ZM82.7092 37.3895H84.0212L83.3872 35.2321H83.352L82.7092 37.3895ZM90.3522 35.0912V39.5996H88.4062V35.0912H86.4161V33.5415H92.3334V35.0912H90.3522ZM93.3079 39.5996V33.5415H95.2539V39.5996H93.3079ZM99.6537 33.4358C100.699 33.4358 101.506 33.7029 102.075 34.2371C102.645 34.7713 102.929 35.5491 102.929 36.5706C102.929 37.592 102.645 38.3698 102.075 38.904C101.506 39.4382 100.699 39.7053 99.6537 39.7053C98.6088 39.7053 97.8017 39.4411 97.2323 38.9128C96.6687 38.3786 96.3869 37.5978 96.3869 36.5706C96.3869 35.5433 96.6687 34.7654 97.2323 34.2371C97.8017 33.7029 98.6088 33.4358 99.6537 33.4358ZM99.6537 34.8887C99.237 34.8887 98.92 35.0149 98.7028 35.2674C98.4856 35.5198 98.377 35.8603 98.377 36.2888V36.8523C98.377 37.2809 98.4856 37.6213 98.7028 37.8738C98.92 38.1262 99.237 38.2524 99.6537 38.2524C100.071 38.2524 100.388 38.1262 100.605 37.8738C100.828 37.6213 100.939 37.2809 100.939 36.8523V36.2888C100.939 35.8603 100.828 35.5198 100.605 35.2674C100.388 35.0149 100.071 34.8887 99.6537 34.8887ZM108.31 39.5996L105.765 36.6586V39.5996H103.977V33.5415H105.677L108.221 36.5265V33.5415H110.009V39.5996H108.31ZM115.286 39.5996L115.03 38.7455H112.908L112.653 39.5996H110.663L112.873 33.5415H115.136L117.346 39.5996H115.286ZM113.313 37.3895H114.625L113.991 35.2321H113.956L113.313 37.3895ZM118.08 33.5415H120.026V38.0499H123.134V39.5996H118.08V33.5415Z" fill="#4D4461"/>
</svg>
