<svg width="1384" height="313" viewBox="0 0 1384 313" fill="none" xmlns="http://www.w3.org/2000/svg">
<path d="M237.157 153.933L255.954 71H311.093L250.002 313H190.791L172.307 227.348C166.459 201.743 160.924 172.626 155.703 139.997C151.108 166.282 145.573 195.399 139.099 227.348L120.302 313H61.0907L0 71H55.4515L73.9354 153.933C81.872 189.281 88.451 220.89 93.6724 248.761C100.774 207.975 106.622 176.365 111.216 153.933L129.074 71H182.019L199.876 153.933C205.724 181.577 211.572 213.413 217.42 249.441C220.344 234.939 226.923 203.103 237.157 153.933Z" fill="white"/>
<path d="M489.09 71V122.323H371.608V166.169H478.438V214.433H371.608V261.677H488.777V313H318.663V71H489.09Z" fill="white"/>
<path d="M674.883 71V122.323H557.401V166.169H664.231V214.433H557.401V261.677H674.57V313H504.456V71H674.883Z" fill="white"/>
<path d="M835.613 71H900.15L810.55 169.907L900.15 313H837.493L773.269 208.315L743.194 240.604V313H690.249V71H743.194V175.685L835.613 71Z" fill="white"/>
<path d="M1050.46 121.643V71H1100.9V313H1043.88L989.373 216.472C972.664 186.335 961.073 164.356 954.598 150.534C955.434 181.577 955.851 218.851 955.851 262.357V313H905.412V71H962.43L1016.94 167.528C1032.61 195.625 1044.2 217.831 1051.72 234.146C1050.88 202.65 1050.46 165.149 1050.46 121.643Z" fill="white"/>
<path d="M1125.47 71H1216.95C1253.71 71 1281.9 81.7631 1301.54 103.289C1321.17 124.589 1330.99 154.159 1330.99 192C1330.99 229.841 1321.17 259.524 1301.54 281.051C1281.9 302.35 1253.71 313 1216.95 313H1125.47V71ZM1178.42 264.396H1216.01C1235.23 264.396 1249.95 258.391 1260.18 246.382C1270.63 234.146 1275.85 216.019 1275.85 192C1275.85 167.981 1270.63 149.967 1260.18 137.958C1249.95 125.722 1235.23 119.604 1216.01 119.604H1178.42V264.396Z" fill="white"/>
<path d="M1384 313H1328.86V254.539H1384V313Z" fill="white"/>
<path d="M32.3242 20.6292V0H44.3304V54H32.3242V32.1573H12.0061V54H0V0H12.0061V20.6292H32.3242Z" fill="white"/>
<path d="M97.3728 54H84.6563L81.6725 44.5955H60.644L57.7313 54H45.441L64.054 0H78.3335L97.3728 54ZM66.8957 24.6489L63.983 33.9017H78.2625L75.3497 24.6489C74.4499 21.9185 73.029 17.368 71.0872 10.9972C68.5771 19.2388 67.1799 23.7893 66.8957 24.6489Z" fill="white"/>
<path d="M98.5545 0H121.572C127.398 0 131.968 1.64326 135.283 4.92978C138.599 8.16573 140.256 12.5899 140.256 18.2022C140.256 23.8146 138.599 28.264 135.283 31.5506C131.968 34.7865 127.398 36.4045 121.572 36.4045H110.561V54H98.5545V0ZM110.561 25.559H120.791C123.159 25.559 124.982 24.927 126.261 23.6629C127.587 22.3989 128.25 20.5787 128.25 18.2022C128.25 15.8258 127.587 14.0056 126.261 12.7416C124.935 11.4775 123.111 10.8455 120.791 10.8455H110.561V25.559Z" fill="white"/>
<path d="M143.6 0H166.617C172.443 0 177.013 1.64326 180.329 4.92978C183.644 8.16573 185.302 12.5899 185.302 18.2022C185.302 23.8146 183.644 28.264 180.329 31.5506C177.013 34.7865 172.443 36.4045 166.617 36.4045H155.606V54H143.6V0ZM155.606 25.559H165.836C168.204 25.559 170.027 24.927 171.306 23.6629C172.632 22.3989 173.295 20.5787 173.295 18.2022C173.295 15.8258 172.632 14.0056 171.306 12.7416C169.98 11.4775 168.157 10.8455 165.836 10.8455H155.606V25.559Z" fill="white"/>
<path d="M213.524 7.73596L217.786 0H231L212.245 32.9916V54H200.239V32.9916L181.27 0H194.839L199.244 7.8118C200.854 10.7949 202.086 13.0702 202.938 14.6376C203.317 15.3961 203.767 16.2809 204.288 17.2921C204.856 18.3034 205.306 19.1124 205.638 19.7191C205.969 20.3258 206.254 20.8315 206.49 21.236C209.143 16.0281 211.487 11.5281 213.524 7.73596Z" fill="white"/>
</svg>
