<svg width="219" height="20" viewBox="0 0 219 20" fill="none" xmlns="http://www.w3.org/2000/svg">
<path d="M20.1986 19.9988C17.5426 19.9988 14.9618 19.4686 12.5293 18.4236C10.1828 17.4156 8.07689 15.9757 6.2697 14.1408C4.4625 12.306 3.04425 10.1679 2.05148 7.78543C1.02217 5.3157 0.5 2.69543 0.5 -0.00119781H12.9784C12.9784 4.04156 16.2168 7.32944 20.1986 7.32944C24.1805 7.32944 27.4188 4.04156 27.4188 -0.00119781H39.8973C39.8973 2.69543 39.3751 5.3157 38.3458 7.78543C37.353 10.1679 35.9348 12.306 34.1276 14.1408C32.3204 15.9757 30.2145 17.4156 27.8679 18.4236C25.4354 19.4686 22.8546 19.9988 20.1986 19.9988Z" fill="#FF4202"/>
<path d="M35.7803 19.9991V7.32972C39.7621 7.32972 43.0005 4.04184 43.0005 -0.000923157H55.4789C55.4789 2.69571 54.9567 5.31597 53.9274 7.7857C52.9347 10.1682 51.5164 12.3063 49.7092 14.1411C47.902 15.976 45.7961 17.4159 43.4496 18.4239C41.0171 19.4689 38.4363 19.9991 35.7803 19.9991Z" fill="#FF4202"/>
<path d="M79.8122 6.40472L80.7792 1.22091H86.3706L81.8214 18.7163H75.9658L74.829 13.3841C74.5862 12.3194 74.2875 10.8031 73.9329 8.83954C73.6257 10.4126 73.3205 11.9267 73.0132 13.3841L71.8765 18.7163H66.0208L61.4717 1.22091H67.063L68.03 6.40472C68.03 6.4549 68.0708 6.69489 68.1503 7.12905C68.232 7.56322 68.3674 8.30065 68.5608 9.34134C68.7542 10.382 68.9476 11.4598 69.141 12.5725C69.6889 9.57478 70.0693 7.51959 70.2777 6.40472L71.2941 1.22091H76.546L77.5624 6.40472C77.7708 7.51959 78.1512 9.57478 78.6991 12.5725C78.8925 11.4576 79.0859 10.382 79.2793 9.34134C79.4727 8.30065 79.6102 7.56322 79.6897 7.12905C79.7714 6.69489 79.8101 6.45271 79.8101 6.40472H79.8122Z" fill="#171717"/>
<path d="M100.818 1.21868V5.98578H92.1534V7.70499H100.164V12.2997H92.1534V13.9469H100.818V18.714H86.6846V1.21868H100.818Z" fill="#171717"/>
<path d="M116.09 1.21868V5.98578H107.426V7.70499H115.437V12.2997H107.426V13.9469H116.09V18.714H101.957V1.21868H116.09Z" fill="#171717"/>
<path d="M134.798 18.714H128.553L124.754 12.1536L122.697 14.6102V18.714H117.229V1.21868H122.697V8.0737L128.046 1.21868H134.364L128.338 8.36824L134.8 18.714H134.798Z" fill="#171717"/>
<path d="M145.831 4.07021V1.21868H151.156V18.714H145.468L141.839 12.4983C141.226 11.4663 140.685 10.4911 140.216 9.57474C140.281 11.2132 140.313 13.3099 140.313 15.8647V18.714H134.988V1.21868H140.676L144.235 7.43445C144.671 8.18715 145.228 9.28675 145.905 10.7267C145.857 9.26929 145.831 7.04828 145.831 4.06803V4.07021Z" fill="#171717"/>
<path d="M152.657 1.21868H160.789C166.419 1.21868 169.236 4.13566 169.236 9.96527C169.236 15.7949 166.395 18.7119 160.718 18.7119H152.659V1.21868H152.657ZM158.128 14.0953H160.451C161.579 14.0953 162.383 13.7833 162.86 13.1615C163.335 12.5397 163.573 11.475 163.573 9.96745C163.573 8.45987 163.335 7.39518 162.86 6.77338C162.383 6.15159 161.581 5.8396 160.451 5.8396H158.128V14.0953Z" fill="#171717"/>
<path d="M178.679 14.6996C177.508 14.6996 176.595 14.4291 175.944 13.8902C175.29 13.3513 174.962 12.5615 174.953 11.523H176.288C176.313 12.8735 177.119 13.5477 178.705 13.5477C179.36 13.5477 179.865 13.4189 180.22 13.1615C180.572 12.9041 180.749 12.531 180.749 12.0423C180.749 11.6452 180.602 11.3397 180.312 11.1238C180.022 10.9078 179.498 10.7158 178.742 10.5478L177.981 10.3841C177.068 10.1987 176.378 9.89544 175.912 9.47218C175.445 9.0511 175.213 8.46858 175.213 7.72679C175.213 6.985 175.495 6.39156 176.06 5.94867C176.625 5.50578 177.39 5.28542 178.353 5.28542C179.515 5.28542 180.39 5.5385 180.976 6.04467C181.563 6.55083 181.864 7.24681 181.881 8.13259H180.56C180.519 7.55007 180.33 7.12245 179.992 6.84755C179.655 6.57265 179.113 6.43738 178.366 6.43738C177.783 6.43738 177.338 6.54647 177.031 6.76682C176.724 6.98718 176.569 7.29917 176.569 7.70279C176.569 8.10641 176.707 8.42931 176.98 8.63876C177.255 8.86566 177.76 9.05983 178.501 9.22128L179.274 9.38491C180.289 9.60527 181.017 9.92162 181.462 10.334C181.907 10.7485 182.128 11.3048 182.128 12.0052C182.128 12.8408 181.823 13.4975 181.213 13.9797C180.602 14.4596 179.756 14.7018 178.677 14.7018L178.679 14.6996Z" fill="#171717"/>
<path d="M182.094 5.48755H189.335V6.70278H186.394V14.4981H185.036V6.70278H182.094V5.48755Z" fill="#171717"/>
<path d="M196.227 13.7563C195.595 14.3759 194.714 14.6857 193.584 14.6857C192.454 14.6857 191.573 14.3759 190.941 13.7563C190.309 13.1367 189.993 12.2618 189.993 11.1295V5.48533H191.328V11.1426C191.328 11.9193 191.521 12.5062 191.908 12.9011C192.295 13.296 192.853 13.4967 193.584 13.4967C194.315 13.4967 194.873 13.2981 195.26 12.9011C195.647 12.504 195.84 11.9193 195.84 11.1426V5.48533H197.175V11.1295C197.175 12.2596 196.859 13.1345 196.227 13.7563Z" fill="#171717"/>
<path d="M198.596 5.48755H201.761C203.132 5.48755 204.213 5.88899 205.001 6.68969C205.775 7.49039 206.16 8.59216 206.16 9.99284C206.16 11.3935 205.773 12.4931 205.001 13.296C204.213 14.0967 203.132 14.4981 201.761 14.4981H198.596V5.48755ZM199.93 13.3069H201.75C202.722 13.3069 203.467 13.0211 203.987 12.4473C204.507 11.8735 204.765 11.0553 204.765 9.99284C204.765 8.93033 204.505 8.11218 203.987 7.53838C203.467 6.96459 202.722 6.67878 201.75 6.67878H199.93V13.3091V13.3069Z" fill="#171717"/>
<path d="M208.666 14.4981H207.332V5.48755H208.666V14.4981Z" fill="#171717"/>
<path d="M214.174 14.6996C212.861 14.6996 211.814 14.2655 211.032 13.3971C210.235 12.5375 209.835 11.403 209.835 9.99362C209.835 8.58421 210.235 7.45407 211.032 6.57701C211.812 5.71741 212.861 5.28542 214.174 5.28542C215.486 5.28542 216.516 5.71523 217.315 6.57701C218.104 7.45407 218.499 8.59294 218.499 9.99362C218.499 11.3943 218.104 12.5288 217.315 13.3971C216.518 14.2655 215.471 14.6996 214.174 14.6996ZM214.174 13.4866C215.072 13.4866 215.785 13.1702 216.318 12.5375C216.849 11.9223 217.115 11.0736 217.115 9.99362C217.115 8.91366 216.849 8.06278 216.318 7.43662C215.779 6.81264 215.063 6.50065 214.174 6.50065C213.284 6.50065 212.57 6.81264 212.029 7.43662C211.49 8.07805 211.219 8.92893 211.219 9.99362C211.219 11.0583 211.49 11.9135 212.029 12.5375C212.56 13.1702 213.275 13.4866 214.174 13.4866Z" fill="#171717"/>
</svg>
