<svg width="434" height="282" viewBox="0 0 434 282" fill="none" xmlns="http://www.w3.org/2000/svg">
<g filter="url(#filter0_dd_247_2586)">
<g clip-path="url(#clip0_247_2586)">
<rect x="65.7954" y="7" width="253.304" height="158.088" rx="8.73463" fill="#ECECEC"/>
<rect x="154.016" y="88.2234" width="35.812" height="10.4815" rx="3.49385" fill="#FF1818"/>
<rect x="121.26" y="57.6611" width="142.374" height="8.73463" rx="3.49385" fill="#262626"/>
<rect x="139.603" y="69.0164" width="105.689" height="8.73463" rx="3.49385" fill="#262626"/>
<g opacity="0.2">
<rect x="195.07" y="88.2234" width="35.812" height="10.4815" rx="3.49385" fill="#FDF7FF"/>
</g>
<path d="M99.8623 150.239C99.8623 146.38 102.991 143.252 106.85 143.252H209.045C212.904 143.252 216.033 146.38 216.033 150.239V165.088H99.8623V150.239Z" fill="#262626"/>
<path d="M226.513 150.239C226.513 146.38 229.641 143.252 233.5 143.252H272.806C276.665 143.252 279.794 146.38 279.794 150.239V165.088H226.513V150.239Z" fill="#262626"/>
</g>
<rect x="66.2321" y="7.43673" width="252.431" height="157.215" rx="8.29789" stroke="white" stroke-opacity="0.1" stroke-width="0.873463"/>
</g>
<g filter="url(#filter1_dd_247_2586)">
<g clip-path="url(#clip1_247_2586)">
<rect x="41.6606" y="21.5249" width="301.575" height="188.214" rx="10.3991" fill="#ECECEC"/>
<rect x="146.691" y="118.226" width="42.6364" height="12.4789" rx="4.15965" fill="#FF1818"/>
<rect x="107.695" y="81.8401" width="169.506" height="10.3991" rx="4.15965" fill="#262626"/>
<rect x="129.533" y="95.3594" width="125.829" height="10.3991" rx="4.15965" fill="#262626"/>
<g opacity="0.2">
<rect x="195.57" y="118.226" width="42.6364" height="12.4789" rx="4.15965" fill="#FDF7FF"/>
</g>
<path d="M82.2185 192.06C82.2185 187.466 85.9432 183.741 90.5378 183.741H212.208C216.802 183.741 220.527 187.466 220.527 192.06V209.739H82.2185V192.06Z" fill="#262626"/>
<path d="M233.004 192.06C233.004 187.466 236.729 183.741 241.324 183.741H288.12C292.714 183.741 296.439 187.466 296.439 192.06V209.739H233.004V192.06Z" fill="#262626"/>
</g>
<rect x="42.1806" y="22.0449" width="300.535" height="187.174" rx="9.87917" stroke="white" stroke-opacity="0.1" stroke-width="1.03991"/>
</g>
<g filter="url(#filter2_dd_247_2586)">
<g clip-path="url(#clip2_247_2586)">
<rect x="18" y="35.5698" width="353.2" height="220.433" rx="12.1793" fill="#ECECEC"/>
<rect x="30.1804" y="47.7495" width="45.0634" height="14.6152" rx="7.30758" fill="white"/>
<rect x="170" y="148.826" width="49.9352" height="14.6152" rx="4.87172" fill="#FF1818"/>
<rect x="95.3389" y="106.21" width="198.523" height="12.1793" rx="4.87172" fill="#B5B5B5"/>
<rect x="120.916" y="122.043" width="147.37" height="12.1793" rx="4.87172" fill="#B5B5B5"/>
<path d="M65.5005 235.299C65.5005 229.917 69.8628 225.555 75.2439 225.555H217.742C223.123 225.555 227.485 229.917 227.485 235.299V256.003H65.5005V235.299Z" fill="#B5B5B5"/>
<path d="M242.1 235.299C242.1 229.917 246.462 225.555 251.843 225.555H306.65C312.031 225.555 316.393 229.917 316.393 235.299V256.003H242.1V235.299Z" fill="#B5B5B5"/>
<rect x="315.177" y="47.7495" width="45.0634" height="14.6152" rx="7.30758" fill="#B5B5B5"/>
</g>
<rect x="18.609" y="36.1788" width="351.982" height="219.215" rx="11.5703" stroke="white" stroke-opacity="0.1" stroke-width="1.21793"/>
</g>
<g filter="url(#filter3_d_247_2586)">
<path d="M280.991 155.653C280.611 154.665 281.581 153.695 282.569 154.075L304.768 162.608C305.911 163.047 305.769 164.707 304.569 164.946L295.483 166.754C295.019 166.846 294.65 167.199 294.536 167.658L291.971 178.023C291.684 179.183 290.074 179.283 289.645 178.168L280.991 155.653Z" fill="#FF4202"/>
<path d="M280.991 155.653C280.611 154.665 281.581 153.695 282.569 154.075L304.768 162.608C305.911 163.047 305.769 164.707 304.569 164.946L295.483 166.754C295.019 166.846 294.65 167.199 294.536 167.658L291.971 178.023C291.684 179.183 290.074 179.283 289.645 178.168L280.991 155.653Z" stroke="white" stroke-width="1.95496"/>
</g>
<g filter="url(#filter4_dd_247_2586)">
<rect x="302.192" y="176.62" width="107.808" height="35.054" rx="17.527" fill="#FF4202" shape-rendering="crispEdges"/>
<rect x="301.276" y="175.704" width="109.64" height="36.8858" rx="18.4429" stroke="white" stroke-width="1.83185" shape-rendering="crispEdges"/>
<path d="M324.809 200.647L320.867 187.429H323.272L325.37 194.408C325.568 195.132 325.767 195.873 325.966 197.03C326.183 195.855 326.382 195.168 326.617 194.408L328.697 187.429H331.246L333.289 194.408C333.506 195.15 333.705 195.909 333.922 197.03C334.175 195.801 334.356 195.096 334.555 194.427L336.689 187.429H339.04L335.025 200.647H332.783L329.962 191.027L327.087 200.647H324.809ZM343.341 200.882C340.683 200.882 338.82 198.947 338.82 196.18C338.82 193.378 340.646 191.443 343.268 191.443C345.944 191.443 347.644 193.233 347.644 196.018V196.687L340.918 196.705C341.08 198.278 341.912 199.074 343.377 199.074C344.588 199.074 345.384 198.603 345.637 197.754H347.68C347.301 199.706 345.673 200.882 343.341 200.882ZM343.286 193.251C341.984 193.251 341.189 193.956 340.972 195.294H345.456C345.456 194.065 344.606 193.251 343.286 193.251ZM353.587 200.882C350.929 200.882 349.066 198.947 349.066 196.18C349.066 193.378 350.892 191.443 353.514 191.443C356.19 191.443 357.89 193.233 357.89 196.018V196.687L351.164 196.705C351.326 198.278 352.158 199.074 353.623 199.074C354.834 199.074 355.63 198.603 355.883 197.754H357.926C357.547 199.706 355.919 200.882 353.587 200.882ZM353.532 193.251C352.23 193.251 351.435 193.956 351.218 195.294H355.702C355.702 194.065 354.852 193.251 353.532 193.251ZM362.061 200.647H359.873V187.194H362.061V195.457L365.532 191.714H368.299L364.899 195.258L368.226 200.647H365.695L363.362 196.886L362.061 198.242V200.647ZM371.953 200.647H369.747V191.714H371.79L371.971 192.871C372.531 191.967 373.616 191.443 374.828 191.443C377.07 191.443 378.227 192.835 378.227 195.15V200.647H376.021V195.674C376.021 194.173 375.28 193.45 374.141 193.45C372.785 193.45 371.953 194.39 371.953 195.837V200.647ZM384.246 200.882C381.66 200.882 380.051 198.983 380.051 196.217C380.051 193.432 381.679 191.443 384.373 191.443C385.62 191.443 386.723 191.967 387.284 192.853V187.194H389.472V200.647H387.447L387.302 199.254C386.76 200.285 385.602 200.882 384.246 200.882ZM384.734 198.857C386.271 198.857 387.266 197.754 387.266 196.144C387.266 194.535 386.271 193.414 384.734 193.414C383.197 193.414 382.257 194.553 382.257 196.144C382.257 197.736 383.197 198.857 384.734 198.857Z" fill="white"/>
</g>
<defs>
<filter id="filter0_dd_247_2586" x="53.412" y="0.395526" width="278.071" height="182.855" filterUnits="userSpaceOnUse" color-interpolation-filters="sRGB">
<feFlood flood-opacity="0" result="BackgroundImageFix"/>
<feColorMatrix in="SourceAlpha" type="matrix" values="0 0 0 0 0 0 0 0 0 0 0 0 0 0 0 0 0 0 127 0" result="hardAlpha"/>
<feOffset dy="5.77891"/>
<feGaussianBlur stdDeviation="6.19169"/>
<feComposite in2="hardAlpha" operator="out"/>
<feColorMatrix type="matrix" values="0 0 0 0 0 0 0 0 0 0 0 0 0 0 0 0 0 0 0.35 0"/>
<feBlend mode="normal" in2="BackgroundImageFix" result="effect1_dropShadow_247_2586"/>
<feColorMatrix in="SourceAlpha" type="matrix" values="0 0 0 0 0 0 0 0 0 0 0 0 0 0 0 0 0 0 127 0" result="hardAlpha"/>
<feOffset dy="2.0639"/>
<feGaussianBlur stdDeviation="3.30224"/>
<feComposite in2="hardAlpha" operator="out"/>
<feColorMatrix type="matrix" values="0 0 0 0 0 0 0 0 0 0 0 0 0 0 0 0 0 0 0.15 0"/>
<feBlend mode="normal" in2="effect1_dropShadow_247_2586" result="effect2_dropShadow_247_2586"/>
<feBlend mode="normal" in="SourceGraphic" in2="effect2_dropShadow_247_2586" result="shape"/>
</filter>
<filter id="filter1_dd_247_2586" x="26.9174" y="13.6619" width="331.061" height="217.7" filterUnits="userSpaceOnUse" color-interpolation-filters="sRGB">
<feFlood flood-opacity="0" result="BackgroundImageFix"/>
<feColorMatrix in="SourceAlpha" type="matrix" values="0 0 0 0 0 0 0 0 0 0 0 0 0 0 0 0 0 0 127 0" result="hardAlpha"/>
<feOffset dy="6.88016"/>
<feGaussianBlur stdDeviation="7.3716"/>
<feComposite in2="hardAlpha" operator="out"/>
<feColorMatrix type="matrix" values="0 0 0 0 0 0 0 0 0 0 0 0 0 0 0 0 0 0 0.35 0"/>
<feBlend mode="normal" in2="BackgroundImageFix" result="effect1_dropShadow_247_2586"/>
<feColorMatrix in="SourceAlpha" type="matrix" values="0 0 0 0 0 0 0 0 0 0 0 0 0 0 0 0 0 0 127 0" result="hardAlpha"/>
<feOffset dy="2.4572"/>
<feGaussianBlur stdDeviation="3.93152"/>
<feComposite in2="hardAlpha" operator="out"/>
<feColorMatrix type="matrix" values="0 0 0 0 0 0 0 0 0 0 0 0 0 0 0 0 0 0 0.15 0"/>
<feBlend mode="normal" in2="effect1_dropShadow_247_2586" result="effect2_dropShadow_247_2586"/>
<feBlend mode="normal" in="SourceGraphic" in2="effect2_dropShadow_247_2586" result="shape"/>
</filter>
<filter id="filter2_dd_247_2586" x="0.732967" y="26.3607" width="387.734" height="254.967" filterUnits="userSpaceOnUse" color-interpolation-filters="sRGB">
<feFlood flood-opacity="0" result="BackgroundImageFix"/>
<feColorMatrix in="SourceAlpha" type="matrix" values="0 0 0 0 0 0 0 0 0 0 0 0 0 0 0 0 0 0 127 0" result="hardAlpha"/>
<feOffset dy="8.05795"/>
<feGaussianBlur stdDeviation="8.63352"/>
<feComposite in2="hardAlpha" operator="out"/>
<feColorMatrix type="matrix" values="0 0 0 0 0.54902 0 0 0 0 0.54902 0 0 0 0 0.54902 0 0 0 0.35 0"/>
<feBlend mode="normal" in2="BackgroundImageFix" result="effect1_dropShadow_247_2586"/>
<feColorMatrix in="SourceAlpha" type="matrix" values="0 0 0 0 0 0 0 0 0 0 0 0 0 0 0 0 0 0 127 0" result="hardAlpha"/>
<feOffset dy="2.87784"/>
<feGaussianBlur stdDeviation="4.60454"/>
<feComposite in2="hardAlpha" operator="out"/>
<feColorMatrix type="matrix" values="0 0 0 0 0.54902 0 0 0 0 0.54902 0 0 0 0 0.54902 0 0 0 0.15 0"/>
<feBlend mode="normal" in2="effect1_dropShadow_247_2586" result="effect2_dropShadow_247_2586"/>
<feBlend mode="normal" in="SourceGraphic" in2="effect2_dropShadow_247_2586" result="shape"/>
</filter>
<filter id="filter3_d_247_2586" x="267.295" y="145.432" width="51.8664" height="52.1816" filterUnits="userSpaceOnUse" color-interpolation-filters="sRGB">
<feFlood flood-opacity="0" result="BackgroundImageFix"/>
<feColorMatrix in="SourceAlpha" type="matrix" values="0 0 0 0 0 0 0 0 0 0 0 0 0 0 0 0 0 0 127 0" result="hardAlpha"/>
<feOffset dy="5.05272"/>
<feGaussianBlur stdDeviation="6.3159"/>
<feComposite in2="hardAlpha" operator="out"/>
<feColorMatrix type="matrix" values="0 0 0 0 0 0 0 0 0 0 0 0 0 0 0 0 0 0 0.45 0"/>
<feBlend mode="normal" in2="BackgroundImageFix" result="effect1_dropShadow_247_2586"/>
<feBlend mode="normal" in="SourceGraphic" in2="effect1_dropShadow_247_2586" result="shape"/>
</filter>
<filter id="filter4_dd_247_2586" x="278.465" y="160.879" width="155.261" height="84.7389" filterUnits="userSpaceOnUse" color-interpolation-filters="sRGB">
<feFlood flood-opacity="0" result="BackgroundImageFix"/>
<feColorMatrix in="SourceAlpha" type="matrix" values="0 0 0 0 0 0 0 0 0 0 0 0 0 0 0 0 0 0 127 0" result="hardAlpha"/>
<feOffset dy="10.2175"/>
<feGaussianBlur stdDeviation="10.9473"/>
<feComposite in2="hardAlpha" operator="out"/>
<feColorMatrix type="matrix" values="0 0 0 0 0 0 0 0 0 0 0 0 0 0 0 0 0 0 0.35 0"/>
<feBlend mode="normal" in2="BackgroundImageFix" result="effect1_dropShadow_247_2586"/>
<feColorMatrix in="SourceAlpha" type="matrix" values="0 0 0 0 0 0 0 0 0 0 0 0 0 0 0 0 0 0 127 0" result="hardAlpha"/>
<feOffset dy="14.4065"/>
<feGaussianBlur stdDeviation="5.91755"/>
<feComposite in2="hardAlpha" operator="out"/>
<feColorMatrix type="matrix" values="0 0 0 0 0 0 0 0 0 0 0 0 0 0 0 0 0 0 0.15 0"/>
<feBlend mode="normal" in2="effect1_dropShadow_247_2586" result="effect2_dropShadow_247_2586"/>
<feBlend mode="normal" in="SourceGraphic" in2="effect2_dropShadow_247_2586" result="shape"/>
</filter>
<clipPath id="clip0_247_2586">
<rect x="65.7954" y="7" width="253.304" height="158.088" rx="8.73463" fill="white"/>
</clipPath>
<clipPath id="clip1_247_2586">
<rect x="41.6606" y="21.5249" width="301.575" height="188.214" rx="10.3991" fill="white"/>
</clipPath>
<clipPath id="clip2_247_2586">
<rect x="18" y="35.5698" width="353.2" height="220.433" rx="12.1793" fill="white"/>
</clipPath>
</defs>
</svg>
