<svg width="34" height="34" viewBox="0 0 34 34" fill="none" xmlns="http://www.w3.org/2000/svg">
<path d="M19.4507 4.97249L21.944 9.95916C22.284 10.6533 23.1907 11.3192 23.9557 11.4467L28.4749 12.1975C31.3649 12.6792 32.0449 14.7758 29.9624 16.8442L26.449 20.3575C25.854 20.9525 25.5282 22.1 25.7124 22.9217L26.7182 27.2708C27.5115 30.7133 25.684 32.045 22.6382 30.2458L18.4024 27.7383C17.6374 27.285 16.3765 27.285 15.5974 27.7383L11.3615 30.2458C8.32987 32.045 6.4882 30.6992 7.28154 27.2708L8.28737 22.9217C8.47154 22.1 8.1457 20.9525 7.5507 20.3575L4.03737 16.8442C1.96904 14.7758 2.63487 12.6792 5.52487 12.1975L10.044 11.4467C10.7949 11.3192 11.7015 10.6533 12.0415 9.95916L14.5349 4.97249C15.8949 2.26666 18.1049 2.26666 19.4507 4.97249Z" stroke="#FF4202" stroke-width="2.125" stroke-linecap="round" stroke-linejoin="round"/>
</svg>
