<svg width="974" height="74" viewBox="0 0 974 74" fill="none" xmlns="http://www.w3.org/2000/svg">
<g clip-path="url(#clip0_1_9210)">
<rect y="0.467773" width="974" height="72.8579" rx="7" fill="#AEDB35"/>
<path d="M920.488 -18.7051H115.505V92.4987H920.488V-18.7051Z" fill="#AEDB35"/>
<path d="M573.764 0.467842H592.696L568.41 24.7543H587.383L563.098 49.0393H582.07L557.785 73.3258H576.766H576.758L557.585 92.4987H920.487V73.3258V69.6949V0.467842V-18.7051H592.937L573.764 0.467842Z" fill="white"/>
<path d="M993.172 -18.7051H963.499V92.4987H993.172V-18.7051Z" fill="#AEDB35"/>
<path d="M963.499 -18.7051H920.486V92.4987H963.499V-18.7051Z" fill="#A6A6A6"/>
<path d="M10.5003 -18.7051H-19.1729V92.4987H10.5003V-18.7051Z" fill="#AEDB35"/>
<path d="M115.504 -18.7051H10.501V92.4987H115.504V-18.7051Z" fill="white"/>
<path d="M19.0293 68.1246L23.0146 62.9259L19.0293 57.7231L23.0146 52.5244L19.0293 47.3216L23.0146 42.1174L19.0293 36.9133L23.0146 31.7146L19.0293 26.5104L23.0146 21.3063L19.0293 16.0995L23.0146 10.8845L19.0293 5.6709" stroke="#A6A6A6" stroke-width="1.09115" stroke-miterlimit="10" stroke-linecap="round" stroke-linejoin="round"/>
<path d="M29.5244 68.1246L33.5097 62.9259L29.5244 57.7231L33.5097 52.5244L29.5244 47.3216L33.5097 42.1174L29.5244 36.9133L33.5097 31.7146L29.5244 26.5104L33.5097 21.3063L29.5244 16.0995L33.5097 10.8845L29.5244 5.6709" stroke="#A6A6A6" stroke-width="1.09115" stroke-miterlimit="10" stroke-linecap="round" stroke-linejoin="round"/>
<path d="M40.0195 68.1246L44.0048 62.9259L40.0195 57.7231L44.0048 52.5244L40.0195 47.3216L44.0048 42.1174L40.0195 36.9133L44.0048 31.7146L40.0195 26.5104L44.0048 21.3063L40.0195 16.0995L44.0048 10.8845L40.0195 5.6709" stroke="#A6A6A6" stroke-width="1.09115" stroke-miterlimit="10" stroke-linecap="round" stroke-linejoin="round"/>
<path d="M50.5146 68.1246L54.4999 62.9259L50.5146 57.7231L54.4999 52.5244L50.5146 47.3216L54.4999 42.1174L50.5146 36.9133L54.4999 31.7146L50.5146 26.5104L54.4999 21.3063L50.5146 16.0995L54.4999 10.8845L50.5146 5.6709" stroke="#A6A6A6" stroke-width="1.09115" stroke-miterlimit="10" stroke-linecap="round" stroke-linejoin="round"/>
<path d="M61.0098 68.1246L64.995 62.9259L61.0098 57.7231L64.995 52.5244L61.0098 47.3216L64.995 42.1174L61.0098 36.9133L64.995 31.7146L61.0098 26.5104L64.995 21.3063L61.0098 16.0995L64.995 10.8845L61.0098 5.6709" stroke="#A6A6A6" stroke-width="1.09115" stroke-miterlimit="10" stroke-linecap="round" stroke-linejoin="round"/>
<path d="M71.5039 68.1246L75.4892 62.9259L71.5039 57.7231L75.4892 52.5244L71.5039 47.3216L75.4892 42.1174L71.5039 36.9133L75.4892 31.7146L71.5039 26.5104L75.4892 21.3063L71.5039 16.0995L75.4892 10.8845L71.5039 5.6709" stroke="#A6A6A6" stroke-width="1.09115" stroke-miterlimit="10" stroke-linecap="round" stroke-linejoin="round"/>
<path d="M82.001 68.1246L85.9863 62.9259L82.001 57.7231L85.9863 52.5244L82.001 47.3216L85.9863 42.1174L82.001 36.9133L85.9863 31.7146L82.001 26.5104L85.9863 21.3063L82.001 16.0995L85.9863 10.8845L82.001 5.6709" stroke="#A6A6A6" stroke-width="1.09115" stroke-miterlimit="10" stroke-linecap="round" stroke-linejoin="round"/>
<path d="M92.4951 68.1246L96.4804 62.9259L92.4951 57.7231L96.4804 52.5244L92.4951 47.3216L96.4804 42.1174L92.4951 36.9133L96.4804 31.7146L92.4951 26.5104L96.4804 21.3063L92.4951 16.0995L96.4804 10.8845L92.4951 5.6709" stroke="#A6A6A6" stroke-width="1.09115" stroke-miterlimit="10" stroke-linecap="round" stroke-linejoin="round"/>
<path d="M102.99 68.1246L106.976 62.9259L102.99 57.7231L106.976 52.5244L102.99 47.3216L106.976 42.1174L102.99 36.9133L106.976 31.7146L102.99 26.5104L106.976 21.3063L102.99 16.0995L106.976 10.8845L102.99 5.6709" stroke="#A6A6A6" stroke-width="1.09115" stroke-miterlimit="10" stroke-linecap="round" stroke-linejoin="round"/>
<path d="M948.86 16.9149L953.878 11.8988L948.86 6.88135" stroke="#373638" stroke-width="1.09115" stroke-miterlimit="10" stroke-linecap="round" stroke-linejoin="round"/>
<path d="M953.878 11.8984H930.109" stroke="#373638" stroke-width="1.09115" stroke-miterlimit="10" stroke-linecap="round" stroke-linejoin="round"/>
<path d="M948.86 33.5814L953.878 28.5639L948.86 23.5479" stroke="#373638" stroke-width="1.09115" stroke-miterlimit="10" stroke-linecap="round" stroke-linejoin="round"/>
<path d="M953.878 28.564H930.109" stroke="#373638" stroke-width="1.09115" stroke-miterlimit="10" stroke-linecap="round" stroke-linejoin="round"/>
<path d="M948.86 50.2473L953.878 45.2299L948.86 40.2124" stroke="#373638" stroke-width="1.09115" stroke-miterlimit="10" stroke-linecap="round" stroke-linejoin="round"/>
<path d="M953.878 45.2295H930.109" stroke="#373638" stroke-width="1.09115" stroke-miterlimit="10" stroke-linecap="round" stroke-linejoin="round"/>
<path d="M948.86 66.9125L953.878 61.8964L948.86 56.8789" stroke="#373638" stroke-width="1.09115" stroke-miterlimit="10" stroke-linecap="round" stroke-linejoin="round"/>
<path d="M953.878 61.896H930.109" stroke="#373638" stroke-width="1.09115" stroke-miterlimit="10" stroke-linecap="round" stroke-linejoin="round"/>
<path d="M557.786 73.3257L582.071 49.0393H563.098L587.385 24.7542H568.411L592.697 0.467773H920.488V73.3257H557.786Z" fill="white"/>
<path d="M179.317 9.84961H125.197V63.9458H179.317V9.84961Z" fill="white"/>
<path d="M157.301 55.9753C157.301 55.345 157.301 54.7146 157.301 54.0206C155.942 54.0206 154.659 54.0206 153.301 54.0206C153.301 55.3003 153.301 56.5597 153.301 57.8949C152.617 57.8949 152.004 57.8949 151.283 57.8949C151.283 57.2984 151.283 56.6842 151.283 56.0173C150.589 56.0173 149.998 56.0173 149.3 56.0173C149.3 56.6112 149.3 57.2267 149.3 57.9071C148.581 57.9071 147.968 57.9071 147.299 57.9071C147.299 56.6314 147.299 55.3734 147.299 54.0057C147.893 54.0057 148.508 54.0057 149.268 54.0057C149.268 53.2468 149.268 52.5907 149.268 51.9346L149.239 51.9617C151.233 51.9617 153.225 51.9617 155.29 51.9617C155.29 51.1879 155.29 50.5575 155.29 49.9257L155.263 49.9555C155.893 49.9555 156.523 49.9555 157.261 49.9555C157.261 49.2696 157.261 48.6528 157.261 47.9858C157.955 47.9858 158.544 47.9858 159.242 47.9858C159.242 48.577 159.242 49.1912 159.242 49.9095C163.973 49.9095 168.6 49.9095 173.287 49.9095C173.287 51.2934 173.287 52.5745 173.287 53.9056C172.666 53.9056 172.078 53.9056 171.381 53.9056C171.381 53.2996 171.381 52.6854 171.381 52.009C169.325 52.009 167.374 52.009 165.35 52.009C165.35 53.9624 165.35 55.8888 165.35 57.8922C163.331 57.8922 161.38 57.8922 159.278 57.8922C159.278 57.2605 159.278 56.6057 159.278 55.951C159.932 55.951 160.589 55.951 161.345 55.951C161.345 55.2205 161.345 54.6077 161.345 53.9272C162.04 53.9272 162.63 53.9272 163.251 53.9272C163.251 53.2441 163.251 52.6326 163.251 52.0171C161.909 52.0171 160.629 52.0171 159.307 52.0171C159.307 53.3848 159.307 54.6821 159.307 55.9808C158.631 55.9686 157.953 55.9578 157.276 55.9456L157.301 55.9753Z" fill="black"/>
<path d="M145.166 29.8176C140.496 29.8176 135.894 29.8176 131.237 29.8176C131.237 25.1722 131.237 20.57 131.237 15.8867C135.842 15.8867 140.467 15.8867 145.166 15.8867C145.166 20.4835 145.166 25.1086 145.166 29.8176ZM143.158 27.8088C143.158 24.443 143.158 21.1558 143.158 17.8942C139.799 17.8942 136.512 17.8942 133.242 17.8942C133.242 21.237 133.242 24.5012 133.242 27.8088C136.559 27.8088 139.822 27.8088 143.158 27.8088Z" fill="black"/>
<path d="M173.277 29.8176C168.603 29.8176 164.001 29.8176 159.346 29.8176C159.346 25.1708 159.346 20.5687 159.346 15.8867C163.953 15.8867 168.58 15.8867 173.277 15.8867C173.277 20.4862 173.277 25.1113 173.277 29.8176ZM161.345 27.783C164.714 27.783 168.001 27.783 171.26 27.783C171.26 24.4241 171.26 21.1368 171.26 17.8685C167.916 17.8685 164.653 17.8685 161.345 17.8685C161.345 21.1842 161.345 24.4484 161.345 27.783Z" fill="black"/>
<path d="M131.237 43.9639C135.884 43.9639 140.486 43.9639 145.163 43.9639C145.163 48.5904 145.163 53.2155 145.163 57.9069C140.546 57.9069 135.919 57.9069 131.237 57.9069C131.237 53.2872 131.237 48.6851 131.237 43.9639ZM133.261 45.97C133.261 49.3385 133.261 52.6257 133.261 55.8845C136.62 55.8845 139.907 55.8845 143.176 55.8845C143.176 52.5405 143.176 49.2762 143.176 45.97C139.859 45.97 136.596 45.97 133.261 45.97Z" fill="black"/>
<path d="M155.262 31.8851C155.89 31.8851 156.518 31.8851 157.248 31.8851C157.248 32.5304 157.248 33.1432 157.248 33.8926C157.999 33.8926 158.652 33.8926 159.304 33.8926L159.277 33.8629C159.277 35.2102 159.277 36.559 159.277 37.9063L159.304 37.8766C158.008 37.8766 156.712 37.8766 155.346 37.8766C155.346 38.5543 155.346 39.1658 155.346 39.8841C155.955 39.8841 156.568 39.8841 157.249 39.8841C157.249 41.2423 157.249 42.4977 157.249 43.8599C157.926 43.8599 158.539 43.8599 159.22 43.8599C159.22 44.5755 159.22 45.1883 159.22 45.908C157.904 45.908 156.583 45.908 155.262 45.908L155.289 45.9378C155.289 45.2844 155.289 44.6323 155.289 43.9857C154.54 43.9857 153.928 43.9857 153.253 43.9857C153.253 44.6824 153.253 45.3101 153.253 45.9378L153.282 45.9094C152.603 45.9094 151.925 45.9094 151.246 45.9094L151.274 45.9378C151.274 44.6134 151.274 43.289 151.274 41.8943C150.5 41.8943 149.869 41.8943 149.238 41.8943L149.268 41.9214C149.268 41.291 149.268 40.6592 149.268 39.922C150.592 39.922 151.878 39.922 153.214 39.922C153.214 39.2266 153.214 38.6368 153.214 37.9402C152.622 37.9402 152.006 37.9402 151.276 37.9402C151.276 37.1826 151.276 36.5265 151.276 35.8704L151.246 35.8975C152.569 35.8975 153.893 35.8975 155.289 35.8975C155.289 34.4513 155.289 33.1527 155.289 31.854L155.262 31.8851Z" fill="black"/>
<path d="M133.206 35.8974C133.206 35.2683 133.206 34.6393 133.206 33.9047C132.52 33.9047 131.906 33.9047 131.237 33.9047C131.237 33.1877 131.237 32.5763 131.237 31.9175C132.536 31.9175 133.791 31.9175 135.155 31.9175C135.155 32.5262 135.155 33.139 135.155 33.8154C135.872 33.8154 136.485 33.8154 137.168 33.8154C137.168 33.2094 137.168 32.6182 137.168 31.9499C137.847 31.9499 138.46 31.9499 139.179 31.9499C139.179 33.1999 139.179 34.4823 139.179 35.9041C141.271 35.9041 143.259 35.9041 145.248 35.9041L145.22 35.8757C145.22 36.5034 145.22 37.1297 145.22 37.8602C144.576 37.8602 143.962 37.8602 143.211 37.8602C143.211 38.6097 143.211 39.2617 143.211 39.9151L143.239 39.8867C142.61 39.8867 141.982 39.8867 141.249 39.8867C141.249 40.5698 141.249 41.1827 141.249 41.8523C139.867 41.8523 138.588 41.8523 137.24 41.8523C137.24 41.2368 137.24 40.6483 137.24 39.9557C136.562 39.9557 135.948 39.9557 135.232 39.9557C135.232 38.5759 135.232 37.2948 135.232 35.8689C134.483 35.8689 133.829 35.8689 133.176 35.8689L133.206 35.8974Z" fill="black"/>
<path d="M147.26 31.8834C147.26 29.2496 147.26 26.6157 147.26 23.9102C149.243 23.9102 151.192 23.9102 153.253 23.9102C153.253 25.896 153.253 27.886 153.253 29.8759L153.282 29.8489C152.626 29.8489 151.972 29.8489 151.213 29.8489C151.213 29.117 151.213 28.5015 151.213 27.909C150.515 27.909 149.925 27.909 149.231 27.909C149.231 29.2455 149.231 30.5306 149.231 31.8564C148.492 31.8564 147.862 31.8564 147.231 31.8564L147.26 31.8834Z" fill="black"/>
<path d="M171.328 33.8938C171.957 33.8938 172.586 33.8938 173.281 33.8938C173.281 37.2175 173.281 40.5007 173.281 43.8989C172.635 43.8989 171.98 43.8989 171.326 43.8989L171.355 43.9273C171.355 43.2969 171.355 42.6665 171.355 41.9306C170.665 41.9306 170.049 41.9306 169.384 41.9306C169.384 41.2366 169.384 40.6468 169.384 39.9488C169.979 39.9488 170.593 39.9488 171.356 39.9488C171.356 37.852 171.356 35.8593 171.356 33.8667L171.328 33.8938Z" fill="black"/>
<path d="M163.293 35.8716C163.293 36.5006 163.293 37.131 163.293 37.8642C164.642 37.8642 165.925 37.8642 167.265 37.8642C167.265 38.5785 167.265 39.1899 167.265 39.8731C166.644 39.8731 166.054 39.8731 165.36 39.8731C165.36 40.5522 165.36 41.1664 165.36 41.8914C164.605 41.8914 163.95 41.8914 163.297 41.8914L163.325 41.9199C163.325 41.2908 163.325 40.6631 163.325 39.9326C161.978 39.9326 160.697 39.9326 159.306 39.9326C159.306 39.1832 159.306 38.5298 159.306 37.8778L159.279 37.9075C159.933 37.9075 160.585 37.9075 161.336 37.9075C161.336 37.1594 161.336 36.5466 161.336 35.9C162.066 35.9 162.695 35.9 163.323 35.9L163.293 35.8716Z" fill="black"/>
<path d="M145.249 35.9025C145.249 35.2735 145.249 34.6458 145.249 33.9153C144.579 33.9153 143.968 33.9153 143.293 33.9153C143.293 33.2037 143.293 32.5936 143.293 31.882C144.624 31.882 145.943 31.882 147.261 31.882L147.231 31.855C147.231 32.5097 147.231 33.1658 147.231 33.8639C148.677 33.8639 149.977 33.8639 151.276 33.8639C151.266 34.543 151.255 35.2207 151.246 35.8998L151.276 35.8727C149.257 35.8741 147.239 35.8741 145.221 35.8754L145.249 35.9025Z" fill="black"/>
<path d="M149.268 49.954C149.268 48.6066 149.268 47.2593 149.268 45.9119L149.238 45.9389C149.917 45.9389 150.595 45.9389 151.274 45.9389L151.246 45.9105C151.246 46.5639 151.246 47.216 151.246 47.8639C151.995 47.8639 152.607 47.8639 153.282 47.8639C153.282 47.1673 153.282 46.5396 153.282 45.9105L153.253 45.9389C153.932 45.9389 154.61 45.9389 155.289 45.9389L155.262 45.9092C155.262 47.2579 155.262 48.6066 155.262 49.9567L155.289 49.9269C153.272 49.9269 151.255 49.9269 149.238 49.9269L149.268 49.954Z" fill="black"/>
<path d="M155.287 21.8131C153.988 21.8131 152.69 21.8131 151.326 21.8131C151.326 19.8164 151.326 17.8657 151.326 15.8608C151.934 15.8608 152.522 15.8608 153.221 15.8608C153.221 17.1189 153.221 18.4041 153.221 19.8394C153.978 19.8394 154.632 19.8394 155.287 19.8394L155.259 19.811C155.259 20.4873 155.257 21.1651 155.257 21.8415L155.287 21.8131Z" fill="black"/>
<path d="M159.306 33.8937C159.306 33.2647 159.306 32.6356 159.306 31.939C161.288 31.939 163.233 31.939 165.248 31.939C165.248 33.2052 165.248 34.4822 165.248 35.8728C164.598 35.8728 163.945 35.8728 163.293 35.8728L163.323 35.8999C163.323 35.2452 163.323 34.5891 163.323 33.864C161.877 33.864 160.578 33.864 159.279 33.864L159.306 33.8937Z" fill="black"/>
<path d="M163.295 41.8916C163.295 42.5233 163.295 43.1537 163.295 43.8924C163.977 43.8924 164.594 43.8924 165.261 43.8924C165.261 44.5877 165.261 45.1775 165.261 45.8769C164.67 45.8769 164.054 45.8769 163.332 45.8769C163.332 46.5966 163.332 47.2107 163.332 47.879C162.636 47.879 162.045 47.879 161.377 47.879C161.377 45.9486 161.377 43.9952 161.377 41.92C162.013 41.92 162.669 41.92 163.325 41.92L163.295 41.8916Z" fill="black"/>
<path d="M171.326 43.8989C171.326 44.5307 171.326 45.1611 171.326 45.8997C172.008 45.8997 172.623 45.8997 173.292 45.8997C173.292 46.595 173.292 47.1862 173.292 47.8544C172.032 47.8544 170.749 47.8544 169.355 47.8544C169.355 47.2579 169.355 46.6437 169.355 45.9592C168.658 45.9592 168.069 45.9592 167.4 45.9592C167.4 45.2761 167.4 44.6619 167.4 43.9273C168.704 43.9273 170.03 43.9273 171.355 43.9273L171.326 43.8989Z" fill="black"/>
<path d="M155.289 19.8401C155.289 18.5455 155.289 17.2508 155.289 15.8818C155.932 15.8818 156.542 15.8818 157.22 15.8818C157.22 17.1413 157.22 18.4196 157.22 19.8117C156.566 19.8117 155.914 19.8117 155.261 19.8117L155.289 19.8401Z" fill="black"/>
<path d="M149.193 21.8119C148.527 21.8119 147.962 21.8119 147.32 21.8119C147.32 20.5173 147.32 19.2362 147.32 17.8848C147.909 17.8848 148.52 17.8848 149.193 17.8848C149.193 19.1658 149.193 20.4469 149.193 21.8119Z" fill="black"/>
<path d="M155.259 21.8419C155.888 21.8419 156.517 21.8419 157.215 21.8419C157.215 23.1554 157.215 24.4338 157.215 25.7785C156.614 25.7785 156.004 25.7785 155.287 25.7785C155.287 24.4514 155.287 23.1324 155.287 21.8135L155.259 21.8419Z" fill="black"/>
<path d="M171.357 33.866C170.062 33.866 168.767 33.866 167.398 33.866C167.398 33.2234 167.398 32.6133 167.398 31.9355C168.659 31.9355 169.936 31.9355 171.328 31.9355C171.328 32.5889 171.328 33.241 171.328 33.8944L171.357 33.866Z" fill="black"/>
<path d="M149.268 45.912C148.639 45.912 148.01 45.912 147.313 45.912C147.313 44.5958 147.313 43.316 147.313 41.924C147.963 41.924 148.616 41.924 149.268 41.924L149.238 41.897C149.238 43.2443 149.238 44.5931 149.238 45.9404L149.268 45.912Z" fill="black"/>
<path d="M143.211 39.9137C143.839 39.9137 144.466 39.9137 145.164 39.9137C145.164 40.5562 145.164 41.1663 145.164 41.8441C144.568 41.8441 143.959 41.8441 143.239 41.8441C143.239 41.1893 143.239 40.5373 143.239 39.8853L143.211 39.9137Z" fill="black"/>
<path d="M155.331 29.9095C155.331 29.2575 155.331 28.6041 155.331 27.9033C155.952 27.9033 156.539 27.9033 157.205 27.9033C157.205 28.4945 157.205 29.1032 157.205 29.8824C156.596 29.8824 155.948 29.8824 155.3 29.8811L155.331 29.9095Z" fill="black"/>
<path d="M133.177 35.8687C133.177 36.4963 133.177 37.124 133.177 37.8221C132.534 37.8221 131.924 37.8221 131.246 37.8221C131.246 37.2255 131.246 36.6167 131.246 35.8971C131.901 35.8971 132.553 35.8971 133.205 35.8971L133.177 35.8687Z" fill="black"/>
<path d="M149.268 51.9357C148.639 51.9357 148.012 51.9357 147.313 51.9357C147.313 51.2878 147.313 50.6777 147.313 49.9553C147.961 49.9553 148.615 49.9553 149.268 49.9553L149.238 49.9282C149.238 50.6073 149.238 51.2851 149.238 51.9642L149.268 51.9357Z" fill="black"/>
<path d="M153.252 29.8756C153.945 29.8864 154.636 29.8959 155.33 29.908L155.299 29.881C155.287 30.5493 155.274 31.2175 155.261 31.8845L155.288 31.8547C154.61 31.8642 153.931 31.8736 153.252 31.8845C153.261 31.2054 153.271 30.5263 153.279 29.8472L153.252 29.8756Z" fill="black"/>
<path d="M157.272 55.9468C157.272 56.5745 157.272 57.2022 157.272 57.9002C156.63 57.9002 156.02 57.9002 155.342 57.9002C155.342 57.305 155.342 56.6949 155.342 55.9752C155.997 55.9752 156.649 55.9752 157.301 55.9752L157.272 55.9468Z" fill="black"/>
<path d="M131.259 39.938C131.896 39.938 132.483 39.938 133.13 39.938C133.13 40.5846 133.13 41.1961 133.13 41.8589C132.513 41.8589 131.924 41.8589 131.259 41.8589C131.259 41.2624 131.259 40.6509 131.259 39.938Z" fill="black"/>
<path d="M171.276 57.953C170.621 57.953 170.057 57.953 169.412 57.953C169.412 57.3321 169.412 56.7206 169.412 56.0361C169.988 56.0361 170.598 56.0361 171.276 56.0361C171.276 56.6395 171.276 57.2509 171.276 57.953Z" fill="black"/>
<path d="M141.171 19.8896C141.171 21.8999 141.171 23.8249 141.171 25.7972C139.197 25.7972 137.272 25.7972 135.271 25.7972C135.271 23.8546 135.271 21.9053 135.271 19.8896C137.206 19.8896 139.155 19.8896 141.171 19.8896Z" fill="black"/>
<path d="M169.262 25.8013C167.264 25.8013 165.34 25.8013 163.362 25.8013C163.362 23.833 163.362 21.908 163.362 19.9019C165.293 19.9019 167.242 19.9019 169.262 19.9019C169.262 21.8242 169.262 23.7722 169.262 25.8013Z" fill="black"/>
<path d="M135.245 53.8888C135.245 51.8826 135.245 49.9576 135.245 47.9839C137.217 47.9839 139.142 47.9839 141.145 47.9839C141.145 49.9224 141.145 51.8718 141.145 53.8888C139.213 53.8888 137.265 53.8888 135.245 53.8888Z" fill="black"/>
<path d="M151.245 33.8919C151.245 33.2615 151.245 32.6297 151.245 31.856C151.969 31.856 152.625 31.856 153.281 31.856C153.281 32.4864 153.281 33.1167 153.281 33.8919C152.557 33.8919 151.901 33.8919 151.245 33.8919Z" fill="black"/>
<mask id="mask0_1_9210" style="mask-type:luminance" maskUnits="userSpaceOnUse" x="115" y="-19" width="806" height="112">
<path d="M920.488 -18.7051H115.505V92.4987H920.488V-18.7051Z" fill="white"/>
</mask>
<g mask="url(#mask0_1_9210)">
<path d="M762.692 110.856C778.318 110.856 790.984 98.2592 790.984 82.7199C790.984 67.1806 778.318 54.5835 762.692 54.5835C747.067 54.5835 734.4 67.1806 734.4 82.7199C734.4 98.2592 747.067 110.856 762.692 110.856Z" fill="black"/>
<path d="M530.941 49.7944C537.44 56.2932 537.439 66.8273 530.941 73.326C524.443 66.8286 524.443 56.2932 530.941 49.7944Z" fill="#F28705"/>
<path d="M554.472 73.3262C547.975 79.8249 537.439 79.8249 530.94 73.3262C537.439 66.8288 547.975 66.8288 554.472 73.3262Z" fill="#F28705"/>
<path d="M507.409 73.3262C513.907 66.8288 524.442 66.8288 530.941 73.3262C524.442 79.8236 513.907 79.8249 507.409 73.3262Z" fill="#F28705"/>
<path d="M907.989 6.99246V-6.24717L854.97 -59.2666H841.729L907.989 6.99246Z" fill="#F28705"/>
<path d="M888.135 13.6077H901.373L835.115 -52.6514V-39.4104L888.135 13.6077Z" fill="#F28705"/>
<path d="M861.663 13.6078H874.902L835.115 -26.1787V-12.9404L861.663 13.6078Z" fill="#F28705"/>
<path d="M835.19 13.608H848.429L835.115 0.293945V13.5349L835.19 13.608Z" fill="#F28705"/>
<path d="M518.563 15.7274C517.807 14.9712 517.808 13.7442 518.563 12.988C519.318 12.2332 520.546 12.2332 521.301 12.988C522.057 13.7442 522.057 14.9725 521.302 15.7274C520.547 16.4836 519.319 16.4822 518.563 15.7274Z" fill="black"/>
<path d="M511.905 22.3861C511.148 21.6299 511.15 20.4029 511.905 19.6467C512.659 18.8905 513.888 18.8905 514.644 19.6467C515.4 20.4016 515.4 21.6313 514.644 22.3875C513.889 23.1423 512.659 23.1423 511.905 22.3861Z" fill="black"/>
<path d="M505.245 29.0453C504.49 28.2904 504.49 27.0621 505.245 26.3059C506 25.5497 507.228 25.5497 507.984 26.3059C508.74 27.0621 508.74 28.2904 507.984 29.0466C507.228 29.8029 506.001 29.8001 505.245 29.0453Z" fill="black"/>
<path d="M512.301 9.46392C511.544 8.70772 511.544 7.4794 512.301 6.7232C513.055 5.96835 514.285 5.96835 515.04 6.72455C515.795 7.48075 515.795 8.70772 515.04 9.46257C514.284 10.2188 513.055 10.2201 512.301 9.46392Z" fill="black"/>
<path d="M505.641 16.1239C504.886 15.369 504.885 14.1394 505.641 13.3845C506.396 12.6283 507.625 12.6297 508.382 13.3845C509.138 14.1407 509.136 15.3677 508.382 16.1239C507.624 16.8787 506.397 16.8787 505.641 16.1239Z" fill="black"/>
<path d="M498.983 22.7825C498.227 22.0263 498.227 20.7979 498.983 20.0417C499.739 19.2855 500.968 19.2869 501.724 20.0417C502.48 20.7966 502.479 22.0249 501.724 22.7811C500.969 23.5373 499.738 23.5373 498.983 22.7825Z" fill="black"/>
<path d="M524.826 21.9896C524.07 21.2334 524.072 20.0064 524.826 19.2502C525.581 18.4954 526.81 18.4954 527.564 19.2502C528.321 20.0064 528.321 21.2347 527.566 21.9896C526.811 22.7458 525.581 22.7458 524.826 21.9896Z" fill="black"/>
<path d="M518.166 28.6493C517.411 27.8945 517.411 26.6661 518.166 25.9099C518.921 25.1537 520.149 25.1537 520.905 25.9099C521.661 26.6648 521.661 27.8945 520.905 28.6507C520.15 29.4055 518.922 29.4042 518.166 28.6493Z" fill="black"/>
<path d="M511.508 35.308C510.752 34.5531 510.753 33.3248 511.508 32.5686C512.263 31.8124 513.491 31.8124 514.247 32.5686C515.004 33.3248 515.004 34.5531 514.247 35.3093C513.493 36.0642 512.264 36.0642 511.508 35.308Z" fill="black"/>
<path d="M478.277 53.2855H455.295L471.546 37.0346L467.657 33.144L451.405 49.3949V26.4126H445.904V49.3949L429.653 33.144L425.763 37.0346L442.014 53.2855H419.031V58.7873H442.014L425.763 75.0382L429.653 78.9274L445.904 62.6765V85.6589H451.405V62.6765L467.657 78.9274L471.546 75.0382L455.295 58.7873H478.277V53.2855Z" fill="white"/>
<path d="M628.453 73.3258C650.138 82.3083 646.498 90.4398 625.277 80.992C634.725 102.212 626.592 105.853 617.611 84.167C608.628 105.852 600.497 102.212 609.943 80.992C588.723 90.4398 585.082 82.3069 606.767 73.3258C585.082 64.3434 588.722 56.2119 609.943 65.6597C600.495 44.44 608.628 40.7983 617.611 62.4847C626.593 40.7997 634.725 44.44 625.277 65.6597C646.498 56.2119 650.138 64.3434 628.453 73.3258Z" fill="#F28705"/>
<path d="M328.59 78.9279C337.003 78.9279 343.822 72.1086 343.822 63.6957C343.822 55.2827 337.003 48.4634 328.59 48.4634C320.177 48.4634 313.357 55.2827 313.357 63.6957" stroke="white" stroke-width="8.72921" stroke-miterlimit="10"/>
<path d="M615.017 7.12402L622.949 12.5744L630.886 7.12402L638.821 12.5744L646.758 7.12402L654.696 12.5744L662.63 7.12402L670.571 12.5744L678.517 7.12402L686.464 12.5744" stroke="black" stroke-width="5.81951" stroke-miterlimit="10"/>
<path d="M420.666 16.3779C396.538 19.8098 393.755 22.5925 390.322 46.722C386.89 22.5925 384.107 19.8112 359.978 16.3779C384.106 12.9459 386.888 10.1632 390.322 -13.9663C393.754 10.1632 396.536 12.9459 420.666 16.3779Z" fill="#F28705"/>
</g>
<path d="M776.63 43.5381C776.63 45.8164 777.131 46.9556 778.179 46.9556C779.182 46.9556 779.728 46.0898 779.728 43.8115V43.3558C779.728 40.2117 777.632 39.0725 775.172 37.4777C772.483 35.7006 769.795 33.7868 769.795 28.9111V28.4555C769.795 24.0355 772.119 20.6636 778.316 20.6636C784.467 20.6636 786.837 23.671 786.837 29.3668V32.6932H780.002V31.1895C780.002 27.9542 779.364 27.1796 778.134 27.1796C777.268 27.1796 776.858 27.8175 776.858 28.8656V29.3212C776.858 31.4629 779.136 32.921 781.551 34.5614C784.331 36.4752 786.837 38.3435 786.837 43.7203V44.6317C786.837 50.3275 784.467 53.4716 778.316 53.4716C772.119 53.4716 769.795 50.3275 769.795 44.6317V42.6267C769.795 40.2573 770.114 39.6649 770.114 39.6649H776.949C776.949 39.6649 776.63 40.7129 776.63 43.5381Z" fill="#AEDB35"/>
<path d="M800.896 40.7585C797.797 40.7585 796.293 39.5282 795.245 35.3361H794.79L796.385 41.9432V53.0159H789.094V21.1192H797.615C803.766 21.1192 806.136 23.2609 806.136 30.506V31.4173C806.136 38.2068 804.678 40.7585 800.896 40.7585ZM796.385 27.6353V31.3718C796.385 33.8779 796.977 34.2425 797.888 34.2425C798.891 34.2425 799.301 33.559 799.301 31.4173V30.506C799.301 28.2276 798.845 27.6353 797.615 27.6353H796.385Z" fill="#AEDB35"/>
<path d="M821.465 21.1192V27.6353H815.496V33.7868H820.782V39.7105H815.496V46.4999H821.465V53.0159H808.205V21.1192H821.465Z" fill="#AEDB35"/>
<path d="M833.778 53.0159L833.322 45.9531H830.771L830.269 53.0159H822.979L827.581 21.1192H836.512L841.114 53.0159H833.778ZM831.181 40.0294H832.912L832.274 30.2782H831.819L831.181 40.0294Z" fill="#AEDB35"/>
<path d="M859.725 43.1735V46.7733C859.725 51.4667 860.044 53.0159 860.044 53.0159H852.982C852.982 53.0159 852.663 52.378 852.663 50.0541V41.8977C852.663 38.2068 851.797 37.4777 850.339 37.4777H849.792V53.0159H842.957V21.1192H849.792V33.559H850.248L852.526 21.1192H859.999L856.49 34.7893L853.847 35.1082V35.5639C858.586 35.5639 859.725 37.7511 859.725 43.1735Z" fill="#AEDB35"/>
<path d="M875.595 21.1192V27.6353H869.626V33.7868H874.912V39.7105H869.626V46.4999H875.595V53.0159H862.335V21.1192H875.595Z" fill="#AEDB35"/>
<path d="M895.199 43.4469V46.7733C895.199 51.4667 895.518 53.0159 895.518 53.0159H888.227C888.227 53.0159 887.908 52.378 887.908 50.0541V43.2647C887.908 39.6193 887.042 38.8447 885.539 38.8447H885.311V53.0159H878.02V21.1192H886.997C892.966 21.1192 895.29 22.6685 895.29 28.0454C895.29 33.2856 893.65 35.3361 888.455 35.3361V35.7917C893.376 35.7917 895.199 37.341 895.199 43.4469ZM885.311 32.3287H886.997C888.227 32.3287 888.683 31.6452 888.683 29.9592C888.683 28.4555 888.227 27.6353 886.997 27.6353H885.311V32.3287Z" fill="#AEDB35"/>
<path d="M203.739 24.3322C203.309 24.3322 202.977 24.2149 202.742 23.9803C202.508 23.7359 202.39 23.3938 202.39 22.954V15.11C202.39 14.6603 202.508 14.3182 202.742 14.0836C202.977 13.8491 203.309 13.7318 203.739 13.7318C204.179 13.7318 204.512 13.8491 204.736 14.0836C204.971 14.3182 205.088 14.6603 205.088 15.11V17.8517H209.355V15.11C209.355 14.6603 209.467 14.3182 209.692 14.0836C209.927 13.8491 210.264 13.7318 210.704 13.7318C211.134 13.7318 211.461 13.8491 211.686 14.0836C211.921 14.3182 212.038 14.6603 212.038 15.11V22.954C212.038 23.3938 211.921 23.7359 211.686 23.9803C211.461 24.2149 211.134 24.3322 210.704 24.3322C210.264 24.3322 209.927 24.2149 209.692 23.9803C209.467 23.7359 209.355 23.3938 209.355 22.954V20.0656H205.088V22.954C205.088 23.3938 204.976 23.7359 204.751 23.9803C204.526 24.2149 204.189 24.3322 203.739 24.3322ZM214.4 24.3322C214.097 24.3322 213.843 24.2637 213.638 24.1269C213.433 23.9803 213.306 23.7848 213.257 23.5404C213.208 23.2863 213.252 23.0028 213.389 22.69L217.039 14.8314C217.215 14.4502 217.43 14.1716 217.685 13.9957C217.948 13.8197 218.247 13.7318 218.579 13.7318C218.911 13.7318 219.2 13.8197 219.444 13.9957C219.698 14.1716 219.918 14.4502 220.104 14.8314L223.755 22.69C223.911 23.0028 223.965 23.2863 223.916 23.5404C223.877 23.7946 223.755 23.99 223.549 24.1269C223.354 24.2637 223.109 24.3322 222.816 24.3322C222.425 24.3322 222.122 24.2442 221.907 24.0682C221.702 23.8923 221.516 23.6088 221.35 23.2179L220.558 21.3558L221.585 22.1036H215.544L216.585 21.3558L215.793 23.2179C215.617 23.6088 215.436 23.8923 215.251 24.0682C215.065 24.2442 214.782 24.3322 214.4 24.3322ZM218.55 16.6788L216.849 20.74L216.438 20.0363H220.705L220.294 20.74L218.579 16.6788H218.55ZM230.061 24.3615C228.917 24.3615 227.935 24.1415 227.114 23.7017C226.293 23.2618 225.662 22.6412 225.222 21.8397C224.792 21.0382 224.577 20.0998 224.577 19.0246C224.577 18.2231 224.699 17.4949 224.944 16.84C225.198 16.1851 225.56 15.6231 226.029 15.1539C226.508 14.6848 227.084 14.328 227.759 14.0836C228.443 13.8295 229.21 13.7024 230.061 13.7024C230.51 13.7024 230.975 13.7562 231.454 13.8637C231.942 13.9615 232.372 14.113 232.744 14.3182C233.018 14.4648 233.208 14.6506 233.316 14.8754C233.423 15.1002 233.457 15.3299 233.418 15.5645C233.389 15.7991 233.306 16.0092 233.169 16.1949C233.032 16.3806 232.856 16.5077 232.641 16.5761C232.426 16.6348 232.192 16.6006 231.937 16.4735C231.644 16.3366 231.351 16.234 231.058 16.1656C230.774 16.0874 230.476 16.0483 230.163 16.0483C229.557 16.0483 229.049 16.1656 228.639 16.4002C228.238 16.625 227.935 16.9573 227.73 17.3972C227.524 17.837 227.422 18.3795 227.422 19.0246C227.422 19.6697 227.524 20.2171 227.73 20.6667C227.935 21.1066 228.238 21.4438 228.639 21.6784C229.049 21.9032 229.557 22.0156 230.163 22.0156C230.418 22.0156 230.691 21.9863 230.984 21.9276C231.278 21.8592 231.566 21.7566 231.849 21.6197C232.143 21.4927 232.402 21.4585 232.627 21.5171C232.861 21.5758 233.047 21.693 233.184 21.869C233.33 22.0449 233.423 22.2502 233.462 22.4848C233.501 22.7096 233.467 22.9344 233.36 23.1592C233.262 23.384 233.086 23.5649 232.832 23.7017C232.49 23.907 232.065 24.0682 231.556 24.1855C231.058 24.3028 230.559 24.3615 230.061 24.3615ZM236.284 24.3322C235.854 24.3322 235.522 24.2149 235.287 23.9803C235.053 23.7359 234.935 23.3987 234.935 22.9686V15.0953C234.935 14.6457 235.053 14.3085 235.287 14.0836C235.522 13.8491 235.854 13.7318 236.284 13.7318C236.724 13.7318 237.056 13.8491 237.281 14.0836C237.516 14.3085 237.633 14.6457 237.633 15.0953V18.2915H237.662L241.225 14.3622C241.411 14.1667 241.606 14.0152 241.812 13.9077C242.027 13.7904 242.266 13.7318 242.53 13.7318C242.941 13.7318 243.234 13.8393 243.41 14.0543C243.596 14.2596 243.679 14.5039 243.659 14.7874C243.649 15.0611 243.537 15.3152 243.322 15.5498L239.774 19.3179V18.2182L243.498 22.4261C243.752 22.7096 243.879 23.0028 243.879 23.3058C243.879 23.5991 243.776 23.8434 243.571 24.0389C243.376 24.2344 243.082 24.3322 242.691 24.3322C242.359 24.3322 242.09 24.2686 241.885 24.1415C241.69 24.0047 241.475 23.8043 241.24 23.5404L237.662 19.5378H237.633V22.9686C237.633 23.3987 237.521 23.7359 237.296 23.9803C237.071 24.2149 236.734 24.3322 236.284 24.3322ZM246.781 24.2002C246.321 24.2002 245.97 24.0829 245.725 23.8483C245.491 23.604 245.373 23.257 245.373 22.8073V15.2566C245.373 14.8069 245.491 14.4648 245.725 14.2303C245.97 13.9859 246.321 13.8637 246.781 13.8637H251.751C252.103 13.8637 252.367 13.9517 252.543 14.1276C252.719 14.3036 252.807 14.5577 252.807 14.89C252.807 15.2321 252.719 15.496 252.543 15.6818C252.367 15.8577 252.103 15.9457 251.751 15.9457H247.954V17.9103H251.429C251.771 17.9103 252.03 17.9983 252.206 18.1742C252.391 18.3502 252.484 18.6092 252.484 18.9513C252.484 19.2934 252.391 19.5524 252.206 19.7284C252.03 19.9043 251.771 19.9923 251.429 19.9923H247.954V22.1182H251.751C252.103 22.1182 252.367 22.2111 252.543 22.3968C252.719 22.5727 252.807 22.8269 252.807 23.1592C252.807 23.5013 252.719 23.7603 252.543 23.9363C252.367 24.1122 252.103 24.2002 251.751 24.2002H246.781ZM255.728 24.3322C255.298 24.3322 254.966 24.2149 254.731 23.9803C254.497 23.7359 254.379 23.3987 254.379 22.9686V15.2272C254.379 14.7874 254.497 14.4502 254.731 14.2156C254.976 13.981 255.313 13.8637 255.743 13.8637H259.35C260.523 13.8637 261.427 14.1521 262.062 14.7288C262.707 15.2957 263.03 16.0874 263.03 17.1039C263.03 17.7588 262.883 18.3306 262.59 18.8194C262.306 19.2983 261.891 19.6697 261.344 19.9336C260.806 20.1878 260.141 20.3149 259.35 20.3149L259.467 20.0509H260.171C260.591 20.0509 260.962 20.1536 261.285 20.3588C261.608 20.5543 261.876 20.8573 262.091 21.2679L262.824 22.5874C262.981 22.8709 263.054 23.1494 263.044 23.4231C263.035 23.687 262.927 23.907 262.722 24.0829C262.526 24.2491 262.238 24.3322 261.857 24.3322C261.476 24.3322 261.163 24.254 260.918 24.0976C260.684 23.9412 260.474 23.6968 260.288 23.3645L258.954 20.916C258.836 20.7009 258.685 20.5543 258.499 20.4761C258.323 20.3882 258.118 20.3442 257.883 20.3442H257.077V22.9686C257.077 23.3987 256.965 23.7359 256.74 23.9803C256.515 24.2149 256.178 24.3322 255.728 24.3322ZM257.077 18.4382H258.866C259.384 18.4382 259.78 18.3355 260.053 18.1303C260.327 17.925 260.464 17.6073 260.464 17.1773C260.464 16.7667 260.327 16.4588 260.053 16.2536C259.78 16.0385 259.384 15.931 258.866 15.931H257.077V18.4382ZM270.275 24.3322C269.845 24.3322 269.513 24.2149 269.278 23.9803C269.044 23.7359 268.926 23.3938 268.926 22.954V15.11C268.926 14.6603 269.044 14.3182 269.278 14.0836C269.513 13.8491 269.845 13.7318 270.275 13.7318C270.715 13.7318 271.048 13.8491 271.272 14.0836C271.507 14.3182 271.624 14.6603 271.624 15.11V17.8517H275.891V15.11C275.891 14.6603 276.003 14.3182 276.228 14.0836C276.463 13.8491 276.8 13.7318 277.24 13.7318C277.67 13.7318 277.997 13.8491 278.222 14.0836C278.457 14.3182 278.574 14.6603 278.574 15.11V22.954C278.574 23.3938 278.457 23.7359 278.222 23.9803C277.997 24.2149 277.67 24.3322 277.24 24.3322C276.8 24.3322 276.463 24.2149 276.228 23.9803C276.003 23.7359 275.891 23.3938 275.891 22.954V20.0656H271.624V22.954C271.624 23.3938 271.512 23.7359 271.287 23.9803C271.062 24.2149 270.725 24.3322 270.275 24.3322ZM285.437 24.3615C284.392 24.3615 283.473 24.1415 282.681 23.7017C281.889 23.2521 281.274 22.6265 280.834 21.825C280.404 21.0235 280.189 20.09 280.189 19.0246C280.189 18.2231 280.311 17.4949 280.555 16.84C280.809 16.1851 281.166 15.6231 281.625 15.1539C282.095 14.6848 282.652 14.328 283.297 14.0836C283.942 13.8295 284.655 13.7024 285.437 13.7024C286.483 13.7024 287.397 13.9224 288.179 14.3622C288.971 14.8021 289.587 15.4227 290.027 16.2242C290.466 17.016 290.686 17.9494 290.686 19.0246C290.686 19.8261 290.559 20.5543 290.305 21.2092C290.061 21.8641 289.704 22.431 289.235 22.91C288.775 23.3791 288.223 23.7408 287.578 23.9949C286.933 24.2393 286.219 24.3615 285.437 24.3615ZM285.437 22.1036C285.955 22.1036 286.395 21.9814 286.757 21.737C287.119 21.4927 287.397 21.1408 287.593 20.6814C287.788 20.222 287.886 19.6697 287.886 19.0246C287.886 18.057 287.671 17.3043 287.241 16.7667C286.811 16.2291 286.21 15.9603 285.437 15.9603C284.929 15.9603 284.489 16.0825 284.118 16.3269C283.756 16.5615 283.478 16.9085 283.282 17.3679C283.087 17.8175 282.989 18.3697 282.989 19.0246C282.989 19.9923 283.204 20.7498 283.634 21.2972C284.064 21.8348 284.665 22.1036 285.437 22.1036ZM296.854 24.3615C296.101 24.3615 295.436 24.2686 294.86 24.0829C294.283 23.8874 293.794 23.5991 293.393 23.2179C293.002 22.8367 292.704 22.3626 292.499 21.7957C292.304 21.219 292.206 20.5543 292.206 19.8017V15.0953C292.206 14.6457 292.323 14.3085 292.558 14.0836C292.792 13.8491 293.125 13.7318 293.555 13.7318C293.995 13.7318 294.327 13.8491 294.552 14.0836C294.786 14.3085 294.904 14.6457 294.904 15.0953V19.831C294.904 20.5836 295.07 21.1506 295.402 21.5318C295.734 21.913 296.218 22.1036 296.854 22.1036C297.479 22.1036 297.958 21.913 298.29 21.5318C298.623 21.1506 298.789 20.5836 298.789 19.831V15.0953C298.789 14.6457 298.901 14.3085 299.126 14.0836C299.361 13.8491 299.693 13.7318 300.123 13.7318C300.553 13.7318 300.881 13.8491 301.105 14.0836C301.33 14.3085 301.443 14.6457 301.443 15.0953V19.8017C301.443 20.8085 301.267 21.654 300.915 22.3382C300.573 23.0126 300.06 23.5209 299.375 23.863C298.691 24.1953 297.851 24.3615 296.854 24.3615ZM307.088 24.3615C306.697 24.3615 306.287 24.3322 305.857 24.2735C305.436 24.2246 305.036 24.1464 304.654 24.0389C304.273 23.9314 303.931 23.8043 303.628 23.6577C303.364 23.5306 303.178 23.3645 303.071 23.1592C302.963 22.9442 302.924 22.7194 302.954 22.4848C302.983 22.2502 303.066 22.0449 303.203 21.869C303.34 21.6833 303.52 21.5611 303.745 21.5024C303.97 21.434 304.224 21.4633 304.508 21.5904C304.879 21.7664 305.299 21.9032 305.769 22.0009C306.238 22.0987 306.678 22.1476 307.088 22.1476C307.733 22.1476 308.183 22.0645 308.437 21.8983C308.701 21.7224 308.833 21.5073 308.833 21.2532C308.833 21.0284 308.74 20.8476 308.554 20.7107C308.378 20.5739 308.061 20.4566 307.601 20.3588L305.886 19.9923C304.948 19.7968 304.249 19.4547 303.789 18.966C303.33 18.4773 303.1 17.8468 303.1 17.0746C303.1 16.5663 303.203 16.1069 303.408 15.6964C303.623 15.2761 303.921 14.9194 304.302 14.6261C304.693 14.3329 305.153 14.1081 305.681 13.9517C306.218 13.7855 306.814 13.7024 307.469 13.7024C307.978 13.7024 308.491 13.7611 309.009 13.8784C309.537 13.9859 309.991 14.1521 310.372 14.3769C310.597 14.4942 310.758 14.6554 310.856 14.8607C310.954 15.066 310.993 15.281 310.973 15.5058C310.954 15.7209 310.876 15.9115 310.739 16.0776C310.612 16.2438 310.436 16.3562 310.211 16.4148C309.996 16.4637 309.737 16.4246 309.434 16.2976C309.151 16.1705 308.828 16.0776 308.466 16.019C308.114 15.9506 307.772 15.9163 307.44 15.9163C307.078 15.9163 306.77 15.9603 306.516 16.0483C306.262 16.1265 306.067 16.2438 305.93 16.4002C305.803 16.5566 305.739 16.7374 305.739 16.9427C305.739 17.1479 305.822 17.3239 305.989 17.4705C306.164 17.6073 306.482 17.7246 306.942 17.8224L308.642 18.1889C309.59 18.3942 310.299 18.7314 310.768 19.2006C311.237 19.6697 311.472 20.2806 311.472 21.0333C311.472 21.5415 311.369 22.0009 311.164 22.4115C310.959 22.822 310.666 23.1739 310.284 23.4671C309.903 23.7506 309.444 23.9705 308.906 24.1269C308.369 24.2833 307.763 24.3615 307.088 24.3615ZM314.204 24.2002C313.745 24.2002 313.393 24.0829 313.149 23.8483C312.914 23.604 312.797 23.257 312.797 22.8073V15.2566C312.797 14.8069 312.914 14.4648 313.149 14.2303C313.393 13.9859 313.745 13.8637 314.204 13.8637H319.175C319.527 13.8637 319.791 13.9517 319.966 14.1276C320.142 14.3036 320.23 14.5577 320.23 14.89C320.23 15.2321 320.142 15.496 319.966 15.6818C319.791 15.8577 319.527 15.9457 319.175 15.9457H315.377V17.9103H318.852C319.194 17.9103 319.453 17.9983 319.629 18.1742C319.815 18.3502 319.908 18.6092 319.908 18.9513C319.908 19.2934 319.815 19.5524 319.629 19.7284C319.453 19.9043 319.194 19.9923 318.852 19.9923H315.377V22.1182H319.175C319.527 22.1182 319.791 22.2111 319.966 22.3968C320.142 22.5727 320.23 22.8269 320.23 23.1592C320.23 23.5013 320.142 23.7603 319.966 23.9363C319.791 24.1122 319.527 24.2002 319.175 24.2002H314.204ZM331.276 24.3615C330.094 24.3615 329.087 24.1415 328.256 23.7017C327.435 23.2618 326.809 22.6461 326.379 21.8543C325.949 21.0626 325.734 20.1389 325.734 19.0833C325.734 18.2622 325.861 17.5242 326.115 16.8694C326.379 16.2047 326.756 15.6378 327.244 15.1686C327.733 14.6897 328.329 14.328 329.033 14.0836C329.747 13.8295 330.553 13.7024 331.452 13.7024C331.941 13.7024 332.44 13.7513 332.948 13.8491C333.456 13.937 333.955 14.1081 334.443 14.3622C334.697 14.4795 334.868 14.6457 334.956 14.8607C335.054 15.066 335.084 15.2859 335.044 15.5205C335.015 15.7453 334.932 15.9554 334.795 16.1509C334.668 16.3366 334.492 16.4637 334.267 16.5321C334.043 16.5908 333.788 16.5566 333.505 16.4295C333.212 16.2927 332.894 16.19 332.552 16.1216C332.21 16.0434 331.848 16.0043 331.467 16.0043C330.812 16.0043 330.265 16.1216 329.825 16.3562C329.395 16.5908 329.072 16.9378 328.857 17.3972C328.642 17.8566 328.535 18.4186 328.535 19.0833C328.535 20.0803 328.779 20.8329 329.268 21.3412C329.756 21.8494 330.48 22.1036 331.438 22.1036C331.731 22.1036 332.049 22.0743 332.391 22.0156C332.743 21.957 333.094 21.8739 333.446 21.7664L332.948 22.778V20.2709H331.921C331.589 20.2709 331.33 20.1878 331.144 20.0216C330.968 19.8555 330.881 19.6209 330.881 19.3179C330.881 19.0148 330.968 18.7851 331.144 18.6288C331.33 18.4626 331.589 18.3795 331.921 18.3795H334.091C334.434 18.3795 334.693 18.4724 334.868 18.6581C335.054 18.834 335.147 19.093 335.147 19.4352V22.6754C335.147 22.9686 335.084 23.2179 334.956 23.4231C334.839 23.6284 334.649 23.775 334.385 23.863C333.925 24.0194 333.427 24.1415 332.889 24.2295C332.352 24.3175 331.814 24.3615 331.276 24.3615ZM341.936 24.3615C340.891 24.3615 339.972 24.1415 339.18 23.7017C338.388 23.2521 337.773 22.6265 337.333 21.825C336.903 21.0235 336.688 20.09 336.688 19.0246C336.688 18.2231 336.81 17.4949 337.054 16.84C337.308 16.1851 337.665 15.6231 338.124 15.1539C338.594 14.6848 339.151 14.328 339.796 14.0836C340.441 13.8295 341.154 13.7024 341.936 13.7024C342.982 13.7024 343.896 13.9224 344.678 14.3622C345.47 14.8021 346.086 15.4227 346.526 16.2242C346.965 17.016 347.185 17.9494 347.185 19.0246C347.185 19.8261 347.058 20.5543 346.804 21.2092C346.56 21.8641 346.203 22.431 345.734 22.91C345.274 23.3791 344.722 23.7408 344.077 23.9949C343.432 24.2393 342.718 24.3615 341.936 24.3615ZM341.936 22.1036C342.454 22.1036 342.894 21.9814 343.256 21.737C343.618 21.4927 343.896 21.1408 344.092 20.6814C344.287 20.222 344.385 19.6697 344.385 19.0246C344.385 18.057 344.17 17.3043 343.74 16.7667C343.31 16.2291 342.709 15.9603 341.936 15.9603C341.428 15.9603 340.988 16.0825 340.617 16.3269C340.255 16.5615 339.977 16.9085 339.781 17.3679C339.586 17.8175 339.488 18.3697 339.488 19.0246C339.488 19.9923 339.703 20.7498 340.133 21.2972C340.563 21.8348 341.164 22.1036 341.936 22.1036ZM349.004 24.3322C348.701 24.3322 348.447 24.2637 348.242 24.1269C348.037 23.9803 347.91 23.7848 347.861 23.5404C347.812 23.2863 347.856 23.0028 347.993 22.69L351.643 14.8314C351.819 14.4502 352.034 14.1716 352.288 13.9957C352.552 13.8197 352.851 13.7318 353.183 13.7318C353.515 13.7318 353.804 13.8197 354.048 13.9957C354.302 14.1716 354.522 14.4502 354.708 14.8314L358.358 22.69C358.515 23.0028 358.569 23.2863 358.52 23.5404C358.481 23.7946 358.358 23.99 358.153 24.1269C357.958 24.2637 357.713 24.3322 357.42 24.3322C357.029 24.3322 356.726 24.2442 356.511 24.0682C356.306 23.8923 356.12 23.6088 355.954 23.2179L355.162 21.3558L356.188 22.1036H350.148L351.189 21.3558L350.397 23.2179C350.221 23.6088 350.04 23.8923 349.855 24.0682C349.669 24.2442 349.385 24.3322 349.004 24.3322ZM353.154 16.6788L351.453 20.74L351.042 20.0363H355.309L354.898 20.74L353.183 16.6788H353.154Z" fill="#282729"/>
<path d="M205.851 41.9562C204.58 41.9562 203.603 41.4919 202.918 40.5633C202.244 39.625 201.907 38.3006 201.907 36.59C201.907 35.4366 202.058 34.469 202.361 33.687C202.664 32.8953 203.109 32.299 203.695 31.8983C204.282 31.4975 205 31.2972 205.851 31.2972C207.131 31.2972 208.109 31.7468 208.783 32.646C209.457 33.5453 209.795 34.8551 209.795 36.5754C209.795 37.719 209.643 38.6915 209.34 39.493C209.037 40.2945 208.592 40.9054 208.006 41.3257C207.419 41.746 206.701 41.9562 205.851 41.9562ZM205.851 39.8156C206.32 39.8156 206.667 39.5615 206.892 39.0532C207.126 38.5351 207.244 37.7092 207.244 36.5754C207.244 35.4513 207.126 34.6498 206.892 34.1708C206.667 33.6821 206.32 33.4378 205.851 33.4378C205.381 33.4378 205.03 33.6821 204.795 34.1708C204.57 34.6498 204.458 35.4513 204.458 36.5754C204.458 37.7092 204.57 38.5351 204.795 39.0532C205.03 39.5615 205.381 39.8156 205.851 39.8156ZM216.196 41.9269C215.786 41.9269 215.463 41.8145 215.228 41.5897C215.004 41.3648 214.891 41.0325 214.891 40.5927V40.0648H211.944C211.514 40.0648 211.177 39.9671 210.933 39.7716C210.698 39.5761 210.581 39.278 210.581 38.8772C210.581 38.6427 210.625 38.4178 210.713 38.2028C210.801 37.978 210.957 37.7092 211.182 37.3964L214.759 32.1769C214.955 31.8836 215.175 31.6686 215.419 31.5317C215.663 31.3949 215.952 31.3265 216.284 31.3265C216.655 31.3265 216.949 31.4389 217.164 31.6637C217.379 31.8787 217.486 32.2111 217.486 32.6607V38.0269H217.838C218.21 38.0269 218.488 38.1148 218.674 38.2908C218.869 38.4667 218.967 38.716 218.967 39.0385C218.967 39.3709 218.869 39.625 218.674 39.8009C218.488 39.9769 218.21 40.0648 217.838 40.0648H217.486V40.5927C217.486 41.0227 217.374 41.3551 217.149 41.5897C216.934 41.8145 216.616 41.9269 216.196 41.9269ZM214.891 38.0269V34.5667H215.302L212.545 38.6573V38.0269H214.891ZM220.853 38.8772C220.56 38.8772 220.315 38.7795 220.12 38.584C219.924 38.3885 219.826 38.1442 219.826 37.8509C219.826 37.5577 219.924 37.3182 220.12 37.1325C220.315 36.937 220.56 36.8393 220.853 36.8393H223.756C224.049 36.8393 224.293 36.937 224.489 37.1325C224.684 37.3182 224.782 37.5577 224.782 37.8509C224.782 38.1442 224.684 38.3885 224.489 38.584C224.293 38.7795 224.049 38.8772 223.756 38.8772H220.853ZM229.962 41.9562C228.692 41.9562 227.714 41.4919 227.03 40.5633C226.355 39.625 226.018 38.3006 226.018 36.59C226.018 35.4366 226.17 34.469 226.473 33.687C226.776 32.8953 227.221 32.299 227.807 31.8983C228.393 31.4975 229.112 31.2972 229.962 31.2972C231.243 31.2972 232.22 31.7468 232.895 32.646C233.569 33.5453 233.906 34.8551 233.906 36.5754C233.906 37.719 233.755 38.6915 233.452 39.493C233.149 40.2945 232.704 40.9054 232.118 41.3257C231.531 41.746 230.813 41.9562 229.962 41.9562ZM229.962 39.8156C230.431 39.8156 230.778 39.5615 231.003 39.0532C231.238 38.5351 231.355 37.7092 231.355 36.5754C231.355 35.4513 231.238 34.6498 231.003 34.1708C230.778 33.6821 230.431 33.4378 229.962 33.4378C229.493 33.4378 229.141 33.6821 228.907 34.1708C228.682 34.6498 228.569 35.4513 228.569 36.5754C228.569 37.7092 228.682 38.5351 228.907 39.0532C229.141 39.5615 229.493 39.8156 229.962 39.8156ZM237.844 41.9562C237.444 41.9562 237.038 41.9073 236.628 41.8096C236.217 41.7118 235.826 41.5652 235.455 41.3697C235.22 41.2524 235.059 41.096 234.971 40.9006C234.883 40.6953 234.849 40.4851 234.868 40.2701C234.897 40.0453 234.976 39.8498 235.103 39.6836C235.23 39.5077 235.396 39.3855 235.601 39.3171C235.816 39.2487 236.056 39.2731 236.32 39.3904C236.613 39.5272 236.887 39.6201 237.141 39.669C237.395 39.7179 237.639 39.7423 237.874 39.7423C238.363 39.7423 238.768 39.6445 239.091 39.4491C239.423 39.2438 239.667 38.9408 239.824 38.54C239.99 38.1295 240.073 37.6212 240.073 37.0152V36.2528H240.293C240.215 36.6633 240.054 37.0201 239.809 37.3231C239.575 37.6261 239.281 37.8558 238.929 38.0122C238.587 38.1686 238.201 38.2468 237.771 38.2468C237.204 38.2468 236.691 38.1051 236.232 37.8216C235.782 37.5284 235.425 37.1276 235.161 36.6193C234.897 36.1013 234.766 35.5246 234.766 34.8893C234.766 34.1855 234.917 33.5648 235.22 33.0272C235.523 32.4896 235.943 32.0693 236.481 31.7663C237.028 31.4536 237.649 31.2972 238.343 31.2972C239.252 31.2972 240.019 31.5024 240.645 31.913C241.28 32.3235 241.764 32.9197 242.096 33.7017C242.429 34.4739 242.595 35.4171 242.595 36.5314C242.595 37.3818 242.487 38.1442 242.272 38.8186C242.057 39.493 241.744 40.0648 241.334 40.534C240.923 40.9934 240.425 41.3453 239.838 41.5897C239.252 41.834 238.587 41.9562 237.844 41.9562ZM238.49 36.1942C238.744 36.1942 238.964 36.1355 239.149 36.0182C239.345 35.8912 239.491 35.725 239.589 35.5197C239.697 35.3047 239.751 35.0554 239.751 34.772C239.751 34.4787 239.697 34.2246 239.589 34.0096C239.491 33.7945 239.345 33.6333 239.149 33.5257C238.964 33.4084 238.744 33.3498 238.49 33.3498C238.235 33.3498 238.016 33.4084 237.83 33.5257C237.644 33.6333 237.497 33.7945 237.39 34.0096C237.282 34.2246 237.229 34.4787 237.229 34.772C237.229 35.0554 237.282 35.3047 237.39 35.5197C237.497 35.725 237.644 35.8912 237.83 36.0182C238.016 36.1355 238.235 36.1942 238.49 36.1942ZM248.764 41.9269C248.461 41.9269 248.207 41.8585 248.001 41.7216C247.796 41.575 247.669 41.3795 247.62 41.1351C247.571 40.881 247.615 40.5976 247.752 40.2848L251.403 32.4261C251.579 32.0449 251.794 31.7663 252.048 31.5904C252.312 31.4145 252.61 31.3265 252.942 31.3265C253.275 31.3265 253.563 31.4145 253.807 31.5904C254.061 31.7663 254.281 32.0449 254.467 32.4261L258.118 40.2848C258.274 40.5976 258.328 40.881 258.279 41.1351C258.24 41.3893 258.118 41.5848 257.913 41.7216C257.717 41.8585 257.473 41.9269 257.179 41.9269C256.788 41.9269 256.485 41.8389 256.27 41.663C256.065 41.487 255.879 41.2036 255.713 40.8126L254.922 38.9506L255.948 39.6983H249.907L250.948 38.9506L250.157 40.8126C249.981 41.2036 249.8 41.487 249.614 41.663C249.428 41.8389 249.145 41.9269 248.764 41.9269ZM252.913 34.2735L251.212 38.3348L250.802 37.631H255.068L254.658 38.3348L252.942 34.2735H252.913ZM263.965 41.9562C263.212 41.9562 262.548 41.8633 261.971 41.6776C261.394 41.4821 260.906 41.1938 260.505 40.8126C260.114 40.4314 259.816 39.9573 259.611 39.3904C259.415 38.8137 259.317 38.1491 259.317 37.3964V32.69C259.317 32.2404 259.435 31.9032 259.669 31.6784C259.904 31.4438 260.236 31.3265 260.666 31.3265C261.106 31.3265 261.438 31.4438 261.663 31.6784C261.898 31.9032 262.015 32.2404 262.015 32.69V37.4257C262.015 38.1784 262.181 38.7453 262.514 39.1265C262.846 39.5077 263.33 39.6983 263.965 39.6983C264.591 39.6983 265.07 39.5077 265.402 39.1265C265.734 38.7453 265.9 38.1784 265.9 37.4257V32.69C265.9 32.2404 266.013 31.9032 266.238 31.6784C266.472 31.4438 266.805 31.3265 267.235 31.3265C267.665 31.3265 267.992 31.4438 268.217 31.6784C268.442 31.9032 268.554 32.2404 268.554 32.69V37.3964C268.554 38.4032 268.378 39.2487 268.026 39.9329C267.684 40.6073 267.171 41.1156 266.487 41.4577C265.803 41.79 264.962 41.9562 263.965 41.9562ZM275.636 41.9562C274.454 41.9562 273.447 41.7363 272.616 41.2964C271.795 40.8566 271.17 40.2408 270.739 39.4491C270.309 38.6573 270.094 37.7336 270.094 36.678C270.094 35.8569 270.221 35.119 270.476 34.4641C270.739 33.7994 271.116 33.2325 271.604 32.7633C272.093 32.2844 272.689 31.9227 273.393 31.6784C274.107 31.4242 274.913 31.2972 275.812 31.2972C276.301 31.2972 276.8 31.346 277.308 31.4438C277.816 31.5317 278.315 31.7028 278.803 31.9569C279.058 32.0742 279.229 32.2404 279.317 32.4554C279.414 32.6607 279.444 32.8806 279.405 33.1152C279.375 33.34 279.292 33.5502 279.155 33.7457C279.028 33.9314 278.852 34.0584 278.627 34.1269C278.403 34.1855 278.148 34.1513 277.865 34.0242C277.572 33.8874 277.254 33.7848 276.912 33.7163C276.57 33.6381 276.208 33.599 275.827 33.599C275.172 33.599 274.625 33.7163 274.185 33.9509C273.755 34.1855 273.432 34.5325 273.217 34.9919C273.002 35.4513 272.895 36.0133 272.895 36.678C272.895 37.675 273.139 38.4276 273.628 38.9359C274.117 39.4442 274.84 39.6983 275.798 39.6983C276.091 39.6983 276.409 39.669 276.751 39.6103C277.103 39.5517 277.454 39.4686 277.806 39.3611L277.308 40.3727V37.8656H276.282C275.949 37.8656 275.69 37.7825 275.504 37.6163C275.329 37.4502 275.241 37.2156 275.241 36.9126C275.241 36.6096 275.329 36.3799 275.504 36.2235C275.69 36.0573 275.949 35.9742 276.282 35.9742H278.451C278.794 35.9742 279.053 36.0671 279.229 36.2528C279.414 36.4287 279.507 36.6878 279.507 37.0299V40.2701C279.507 40.5633 279.444 40.8126 279.317 41.0179C279.199 41.2231 279.009 41.3697 278.745 41.4577C278.285 41.6141 277.787 41.7363 277.249 41.8242C276.712 41.9122 276.174 41.9562 275.636 41.9562ZM286.68 41.7949C286.25 41.7949 285.937 41.6972 285.741 41.5017C285.556 41.2964 285.463 40.9983 285.463 40.6073C285.463 40.3336 285.521 40.0893 285.639 39.8742C285.766 39.6592 285.927 39.4491 286.123 39.2438L288.688 36.5607C289.07 36.1502 289.338 35.7983 289.495 35.5051C289.661 35.2118 289.744 34.9186 289.744 34.6254C289.744 34.2539 289.622 33.9754 289.377 33.7896C289.133 33.6039 288.781 33.5111 288.322 33.5111C288.087 33.5111 287.838 33.5453 287.574 33.6137C287.31 33.6724 287.027 33.7799 286.724 33.9363C286.46 34.0536 286.22 34.0878 286.005 34.0389C285.8 33.99 285.624 33.8825 285.477 33.7163C285.341 33.5502 285.253 33.3596 285.214 33.1445C285.184 32.9295 285.218 32.7193 285.316 32.5141C285.414 32.299 285.59 32.1231 285.844 31.9863C286.294 31.7419 286.758 31.566 287.237 31.4584C287.726 31.3509 288.214 31.2972 288.703 31.2972C289.504 31.2972 290.174 31.4145 290.712 31.649C291.259 31.8836 291.674 32.2257 291.958 32.6754C292.241 33.1152 292.383 33.6626 292.383 34.3175C292.383 34.728 292.32 35.1287 292.192 35.5197C292.075 35.9107 291.88 36.3017 291.606 36.6927C291.342 37.0836 290.985 37.4991 290.536 37.9389L288.161 40.2848V39.6103H291.782C292.144 39.6103 292.417 39.7032 292.603 39.8889C292.798 40.0746 292.896 40.3434 292.896 40.6953C292.896 41.0472 292.798 41.3209 292.603 41.5164C292.417 41.7021 292.144 41.7949 291.782 41.7949H286.68ZM297.758 41.9562C296.487 41.9562 295.51 41.4919 294.826 40.5633C294.151 39.625 293.814 38.3006 293.814 36.59C293.814 35.4366 293.966 34.469 294.269 33.687C294.572 32.8953 295.016 32.299 295.603 31.8983C296.189 31.4975 296.908 31.2972 297.758 31.2972C299.039 31.2972 300.016 31.7468 300.691 32.646C301.365 33.5453 301.702 34.8551 301.702 36.5754C301.702 37.719 301.551 38.6915 301.248 39.493C300.945 40.2945 300.5 40.9054 299.913 41.3257C299.327 41.746 298.609 41.9562 297.758 41.9562ZM297.758 39.8156C298.227 39.8156 298.574 39.5615 298.799 39.0532C299.034 38.5351 299.151 37.7092 299.151 36.5754C299.151 35.4513 299.034 34.6498 298.799 34.1708C298.574 33.6821 298.227 33.4378 297.758 33.4378C297.289 33.4378 296.937 33.6821 296.703 34.1708C296.478 34.6498 296.365 35.4513 296.365 36.5754C296.365 37.7092 296.478 38.5351 296.703 39.0532C296.937 39.5615 297.289 39.8156 297.758 39.8156ZM304.262 41.7949C303.832 41.7949 303.519 41.6972 303.324 41.5017C303.138 41.2964 303.045 40.9983 303.045 40.6073C303.045 40.3336 303.104 40.0893 303.221 39.8742C303.348 39.6592 303.51 39.4491 303.705 39.2438L306.271 36.5607C306.652 36.1502 306.921 35.7983 307.077 35.5051C307.243 35.2118 307.327 34.9186 307.327 34.6254C307.327 34.2539 307.204 33.9754 306.96 33.7896C306.716 33.6039 306.364 33.5111 305.904 33.5111C305.67 33.5111 305.421 33.5453 305.157 33.6137C304.893 33.6724 304.609 33.7799 304.306 33.9363C304.042 34.0536 303.803 34.0878 303.588 34.0389C303.383 33.99 303.207 33.8825 303.06 33.7163C302.923 33.5502 302.835 33.3596 302.796 33.1445C302.767 32.9295 302.801 32.7193 302.899 32.5141C302.996 32.299 303.172 32.1231 303.427 31.9863C303.876 31.7419 304.34 31.566 304.819 31.4584C305.308 31.3509 305.797 31.2972 306.286 31.2972C307.087 31.2972 307.757 31.4145 308.294 31.649C308.842 31.8836 309.257 32.2257 309.54 32.6754C309.824 33.1152 309.966 33.6626 309.966 34.3175C309.966 34.728 309.902 35.1287 309.775 35.5197C309.658 35.9107 309.462 36.3017 309.189 36.6927C308.925 37.0836 308.568 37.4991 308.118 37.9389L305.743 40.2848V39.6103H309.364C309.726 39.6103 310 39.7032 310.186 39.8889C310.381 40.0746 310.479 40.3434 310.479 40.6953C310.479 41.0472 310.381 41.3209 310.186 41.5164C310 41.7021 309.726 41.7949 309.364 41.7949H304.262ZM316.895 41.9269C316.484 41.9269 316.162 41.8145 315.927 41.5897C315.702 41.3648 315.59 41.0325 315.59 40.5927V40.0648H312.643C312.213 40.0648 311.876 39.9671 311.631 39.7716C311.397 39.5761 311.279 39.278 311.279 38.8772C311.279 38.6427 311.323 38.4178 311.411 38.2028C311.499 37.978 311.656 37.7092 311.881 37.3964L315.458 32.1769C315.654 31.8836 315.873 31.6686 316.118 31.5317C316.362 31.3949 316.651 31.3265 316.983 31.3265C317.354 31.3265 317.648 31.4389 317.863 31.6637C318.078 31.8787 318.185 32.2111 318.185 32.6607V38.0269H318.537C318.908 38.0269 319.187 38.1148 319.373 38.2908C319.568 38.4667 319.666 38.716 319.666 39.0385C319.666 39.3709 319.568 39.625 319.373 39.8009C319.187 39.9769 318.908 40.0648 318.537 40.0648H318.185V40.5927C318.185 41.0227 318.073 41.3551 317.848 41.5897C317.633 41.8145 317.315 41.9269 316.895 41.9269ZM315.59 38.0269V34.5667H316.001L313.244 38.6573V38.0269H315.59Z" fill="#282729"/>
<path d="M206.261 59.55C205.352 59.55 204.58 59.3447 203.945 58.9342C203.319 58.5236 202.84 57.9323 202.508 57.1601C202.175 56.3781 202.009 55.43 202.009 54.3157C202.009 53.4654 202.117 52.7029 202.332 52.0285C202.547 51.3541 202.86 50.7872 203.27 50.3278C203.681 49.8586 204.179 49.5018 204.766 49.2575C205.352 49.0131 206.017 48.8909 206.76 48.8909C207.16 48.8909 207.566 48.9398 207.977 49.0375C208.387 49.1353 208.778 49.2819 209.15 49.4774C209.384 49.5947 209.545 49.756 209.633 49.9612C209.721 50.1567 209.751 50.3669 209.721 50.5917C209.702 50.8067 209.628 51.0022 209.501 51.1781C209.374 51.3443 209.203 51.4616 208.988 51.53C208.783 51.5984 208.548 51.574 208.284 51.4567C207.991 51.3199 207.718 51.227 207.463 51.1781C207.209 51.1293 206.965 51.1048 206.73 51.1048C206.242 51.1048 205.836 51.2075 205.513 51.4127C205.191 51.6082 204.947 51.9112 204.78 52.3217C204.614 52.7225 204.531 53.2259 204.531 53.8319V54.5943H204.311C204.399 54.174 204.56 53.8172 204.795 53.524C205.03 53.221 205.318 52.9913 205.66 52.8349C206.012 52.6785 206.403 52.6003 206.833 52.6003C207.41 52.6003 207.923 52.7469 208.372 53.0402C208.822 53.3236 209.179 53.7195 209.443 54.2278C209.707 54.736 209.839 55.3127 209.839 55.9578C209.839 56.6616 209.687 57.2823 209.384 57.8199C209.081 58.3575 208.661 58.7827 208.123 59.0954C207.586 59.3984 206.965 59.55 206.261 59.55ZM206.115 57.4973C206.369 57.4973 206.589 57.4387 206.774 57.3214C206.97 57.2041 207.116 57.0379 207.214 56.8229C207.322 56.6078 207.375 56.3586 207.375 56.0751C207.375 55.7819 207.322 55.5327 207.214 55.3274C207.116 55.1123 206.97 54.9462 206.774 54.8289C206.589 54.7018 206.369 54.6383 206.115 54.6383C205.87 54.6383 205.65 54.7018 205.455 54.8289C205.269 54.9462 205.122 55.1123 205.015 55.3274C204.907 55.5327 204.854 55.7819 204.854 56.0751C204.854 56.3586 204.907 56.6078 205.015 56.8229C205.122 57.0379 205.269 57.2041 205.455 57.3214C205.65 57.4387 205.87 57.4973 206.115 57.4973ZM216.784 59.3887C216.325 59.3887 215.973 59.2714 215.729 59.0368C215.494 58.7924 215.377 58.4454 215.377 57.9958V50.445C215.377 49.9954 215.494 49.6533 215.729 49.4187C215.973 49.1744 216.325 49.0522 216.784 49.0522H219.658C221.457 49.0522 222.845 49.5018 223.822 50.4011C224.809 51.3003 225.303 52.571 225.303 54.2131C225.303 55.0342 225.176 55.7672 224.922 56.4124C224.668 57.0477 224.301 57.5902 223.822 58.0398C223.343 58.4796 222.752 58.8169 222.048 59.0515C221.354 59.2763 220.557 59.3887 219.658 59.3887H216.784ZM218.075 57.2041H219.482C220 57.2041 220.445 57.1405 220.816 57.0135C221.198 56.8864 221.51 56.7007 221.755 56.4563C222.009 56.212 222.195 55.9041 222.312 55.5327C222.439 55.1612 222.503 54.7214 222.503 54.2131C222.503 53.1966 222.253 52.4488 221.755 51.9699C221.256 51.4811 220.499 51.2368 219.482 51.2368H218.075V57.2041ZM227.129 59.5206C226.826 59.5206 226.572 59.4522 226.367 59.3154C226.161 59.1687 226.034 58.9733 225.985 58.7289C225.937 58.4748 225.981 58.1913 226.117 57.8785L229.768 50.0199C229.944 49.6387 230.159 49.3601 230.413 49.1841C230.677 49.0082 230.975 48.9202 231.308 48.9202C231.64 48.9202 231.928 49.0082 232.173 49.1841C232.427 49.3601 232.647 49.6387 232.832 50.0199L236.483 57.8785C236.64 58.1913 236.693 58.4748 236.645 58.7289C236.605 58.983 236.483 59.1785 236.278 59.3154C236.082 59.4522 235.838 59.5206 235.545 59.5206C235.154 59.5206 234.851 59.4327 234.636 59.2567C234.431 59.0808 234.245 58.7973 234.079 58.4063L233.287 56.5443L234.313 57.2921H228.273L229.314 56.5443L228.522 58.4063C228.346 58.7973 228.165 59.0808 227.979 59.2567C227.794 59.4327 227.51 59.5206 227.129 59.5206ZM231.278 51.8672L229.578 55.9285L229.167 55.2248H233.434L233.023 55.9285L231.308 51.8672H231.278ZM240.651 59.5206C240.221 59.5206 239.889 59.4033 239.654 59.1687C239.419 58.9244 239.302 58.5774 239.302 58.1278V54.1105L239.859 55.5913L236.487 50.7383C236.321 50.5037 236.248 50.2447 236.267 49.9612C236.297 49.668 236.414 49.4236 236.619 49.2281C236.834 49.0229 237.137 48.9202 237.528 48.9202C237.802 48.9202 238.051 48.9887 238.276 49.1255C238.501 49.2526 238.711 49.4725 238.906 49.7853L240.959 52.8056H240.431L242.484 49.7706C242.689 49.4578 242.899 49.2379 243.114 49.1108C243.329 48.9838 243.583 48.9202 243.877 48.9202C244.248 48.9202 244.536 49.0131 244.742 49.1988C244.947 49.3845 245.054 49.6191 245.064 49.9026C245.084 50.186 244.996 50.4744 244.8 50.7676L241.457 55.5913L242 54.1105V58.1278C242 59.0563 241.55 59.5206 240.651 59.5206ZM249.845 59.55C249.454 59.55 249.043 59.5206 248.613 59.462C248.193 59.4131 247.792 59.3349 247.411 59.2274C247.03 59.1199 246.687 58.9928 246.384 58.8462C246.121 58.7191 245.935 58.553 245.827 58.3477C245.72 58.1327 245.681 57.9078 245.71 57.6733C245.739 57.4387 245.822 57.2334 245.959 57.0575C246.096 56.8718 246.277 56.7496 246.502 56.6909C246.727 56.6225 246.981 56.6518 247.264 56.7789C247.636 56.9548 248.056 57.0917 248.525 57.1894C248.994 57.2872 249.434 57.336 249.845 57.336C250.49 57.336 250.939 57.253 251.193 57.0868C251.457 56.9108 251.589 56.6958 251.589 56.4417C251.589 56.2169 251.496 56.036 251.311 55.8992C251.135 55.7624 250.817 55.6451 250.358 55.5473L248.642 55.1808C247.704 54.9853 247.005 54.6432 246.546 54.1545C246.086 53.6657 245.857 53.0353 245.857 52.2631C245.857 51.7548 245.959 51.2954 246.165 50.8849C246.38 50.4646 246.678 50.1078 247.059 49.8146C247.45 49.5214 247.909 49.2966 248.437 49.1402C248.975 48.974 249.571 48.8909 250.226 48.8909C250.734 48.8909 251.247 48.9496 251.765 49.0669C252.293 49.1744 252.748 49.3405 253.129 49.5653C253.354 49.6826 253.515 49.8439 253.613 50.0492C253.71 50.2544 253.75 50.4695 253.73 50.6943C253.71 50.9093 253.632 51.0999 253.495 51.2661C253.368 51.4323 253.192 51.5447 252.968 51.6033C252.753 51.6522 252.493 51.6131 252.19 51.486C251.907 51.359 251.584 51.2661 251.223 51.2075C250.871 51.139 250.529 51.1048 250.196 51.1048C249.835 51.1048 249.527 51.1488 249.273 51.2368C249.019 51.315 248.823 51.4323 248.686 51.5887C248.559 51.7451 248.496 51.9259 248.496 52.1311C248.496 52.3364 248.579 52.5123 248.745 52.659C248.921 52.7958 249.239 52.9131 249.698 53.0108L251.399 53.3774C252.347 53.5826 253.056 53.9199 253.525 54.389C253.994 54.8582 254.228 55.4691 254.228 56.2217C254.228 56.73 254.126 57.1894 253.921 57.5999C253.715 58.0105 253.422 58.3624 253.041 58.6556C252.66 58.939 252.2 59.159 251.663 59.3154C251.125 59.4718 250.519 59.55 249.845 59.55ZM261.097 59.5206C260.667 59.5206 260.335 59.4033 260.1 59.1687C259.866 58.9244 259.749 58.5872 259.749 58.1571V50.4157C259.749 49.9759 259.866 49.6387 260.1 49.4041C260.345 49.1695 260.682 49.0522 261.112 49.0522H264.719C265.892 49.0522 266.796 49.3552 267.431 49.9612C268.076 50.5575 268.399 51.3834 268.399 52.439C268.399 53.4947 268.076 54.3255 267.431 54.9315C266.796 55.5278 265.892 55.8259 264.719 55.8259H262.446V58.1571C262.446 58.5872 262.334 58.9244 262.109 59.1687C261.884 59.4033 261.547 59.5206 261.097 59.5206ZM262.446 53.7586H264.25C264.758 53.7586 265.149 53.6511 265.423 53.436C265.696 53.2112 265.833 52.8789 265.833 52.439C265.833 51.9894 265.696 51.6571 265.423 51.442C265.149 51.227 264.758 51.1195 264.25 51.1195H262.446V53.7586ZM269.052 59.5206C268.749 59.5206 268.495 59.4522 268.29 59.3154C268.085 59.1687 267.958 58.9733 267.909 58.7289C267.86 58.4748 267.904 58.1913 268.041 57.8785L271.691 50.0199C271.867 49.6387 272.082 49.3601 272.337 49.1841C272.6 49.0082 272.899 48.9202 273.231 48.9202C273.563 48.9202 273.852 49.0082 274.096 49.1841C274.35 49.3601 274.57 49.6387 274.756 50.0199L278.406 57.8785C278.563 58.1913 278.617 58.4748 278.568 58.7289C278.529 58.983 278.406 59.1785 278.201 59.3154C278.006 59.4522 277.761 59.5206 277.468 59.5206C277.077 59.5206 276.774 59.4327 276.559 59.2567C276.354 59.0808 276.168 58.7973 276.002 58.4063L275.21 56.5443L276.237 57.2921H270.196L271.237 56.5443L270.445 58.4063C270.269 58.7973 270.088 59.0808 269.903 59.2567C269.717 59.4327 269.434 59.5206 269.052 59.5206ZM273.202 51.8672L271.501 55.9285L271.09 55.2248H275.357L274.946 55.9285L273.231 51.8672H273.202ZM283.463 59.55C283.072 59.55 282.662 59.5206 282.232 59.462C281.811 59.4131 281.411 59.3349 281.03 59.2274C280.648 59.1199 280.306 58.9928 280.003 58.8462C279.739 58.7191 279.554 58.553 279.446 58.3477C279.339 58.1327 279.299 57.9078 279.329 57.6733C279.358 57.4387 279.441 57.2334 279.578 57.0575C279.715 56.8718 279.896 56.7496 280.121 56.6909C280.345 56.6225 280.599 56.6518 280.883 56.7789C281.254 56.9548 281.675 57.0917 282.144 57.1894C282.613 57.2872 283.053 57.336 283.463 57.336C284.108 57.336 284.558 57.253 284.812 57.0868C285.076 56.9108 285.208 56.6958 285.208 56.4417C285.208 56.2169 285.115 56.036 284.93 55.8992C284.754 55.7624 284.436 55.6451 283.977 55.5473L282.261 55.1808C281.323 54.9853 280.624 54.6432 280.164 54.1545C279.705 53.6657 279.475 53.0353 279.475 52.2631C279.475 51.7548 279.578 51.2954 279.783 50.8849C279.998 50.4646 280.296 50.1078 280.678 49.8146C281.069 49.5214 281.528 49.2966 282.056 49.1402C282.593 48.974 283.19 48.8909 283.845 48.8909C284.353 48.8909 284.866 48.9496 285.384 49.0669C285.912 49.1744 286.366 49.3405 286.748 49.5653C286.972 49.6826 287.134 49.8439 287.231 50.0492C287.329 50.2544 287.368 50.4695 287.349 50.6943C287.329 50.9093 287.251 51.0999 287.114 51.2661C286.987 51.4323 286.811 51.5447 286.586 51.6033C286.371 51.6522 286.112 51.6131 285.809 51.486C285.526 51.359 285.203 51.2661 284.842 51.2075C284.49 51.139 284.148 51.1048 283.815 51.1048C283.454 51.1048 283.146 51.1488 282.892 51.2368C282.637 51.315 282.442 51.4323 282.305 51.5887C282.178 51.7451 282.115 51.9259 282.115 52.1311C282.115 52.3364 282.198 52.5123 282.364 52.659C282.54 52.7958 282.857 52.9131 283.317 53.0108L285.018 53.3774C285.966 53.5826 286.674 53.9199 287.143 54.389C287.613 54.8582 287.847 55.4691 287.847 56.2217C287.847 56.73 287.745 57.1894 287.539 57.5999C287.334 58.0105 287.041 58.3624 286.66 58.6556C286.278 58.939 285.819 59.159 285.281 59.3154C284.744 59.4718 284.138 59.55 283.463 59.55ZM293.014 59.55C292.623 59.55 292.212 59.5206 291.782 59.462C291.362 59.4131 290.961 59.3349 290.58 59.2274C290.198 59.1199 289.856 58.9928 289.553 58.8462C289.289 58.7191 289.104 58.553 288.996 58.3477C288.889 58.1327 288.85 57.9078 288.879 57.6733C288.908 57.4387 288.991 57.2334 289.128 57.0575C289.265 56.8718 289.446 56.7496 289.671 56.6909C289.895 56.6225 290.15 56.6518 290.433 56.7789C290.804 56.9548 291.225 57.0917 291.694 57.1894C292.163 57.2872 292.603 57.336 293.014 57.336C293.659 57.336 294.108 57.253 294.362 57.0868C294.626 56.9108 294.758 56.6958 294.758 56.4417C294.758 56.2169 294.665 56.036 294.48 55.8992C294.304 55.7624 293.986 55.6451 293.527 55.5473L291.811 55.1808C290.873 54.9853 290.174 54.6432 289.715 54.1545C289.255 53.6657 289.026 53.0353 289.026 52.2631C289.026 51.7548 289.128 51.2954 289.333 50.8849C289.548 50.4646 289.847 50.1078 290.228 49.8146C290.619 49.5214 291.078 49.2966 291.606 49.1402C292.144 48.974 292.74 48.8909 293.395 48.8909C293.903 48.8909 294.416 48.9496 294.934 49.0669C295.462 49.1744 295.917 49.3405 296.298 49.5653C296.523 49.6826 296.684 49.8439 296.782 50.0492C296.879 50.2544 296.918 50.4695 296.899 50.6943C296.879 50.9093 296.801 51.0999 296.664 51.2661C296.537 51.4323 296.361 51.5447 296.136 51.6033C295.921 51.6522 295.662 51.6131 295.359 51.486C295.076 51.359 294.753 51.2661 294.392 51.2075C294.04 51.139 293.698 51.1048 293.365 51.1048C293.004 51.1048 292.696 51.1488 292.442 51.2368C292.188 51.315 291.992 51.4323 291.855 51.5887C291.728 51.7451 291.665 51.9259 291.665 52.1311C291.665 52.3364 291.748 52.5123 291.914 52.659C292.09 52.7958 292.408 52.9131 292.867 53.0108L294.568 53.3774C295.516 53.5826 296.224 53.9199 296.694 54.389C297.163 54.8582 297.397 55.4691 297.397 56.2217C297.397 56.73 297.295 57.1894 297.089 57.5999C296.884 58.0105 296.591 58.3624 296.21 58.6556C295.829 58.939 295.369 59.159 294.832 59.3154C294.294 59.4718 293.688 59.55 293.014 59.55Z" fill="#282729"/>
<path d="M184.089 64.4077H122.574V9.27197H184.089V64.4077Z" fill="black"/>
<path d="M135.205 12.8993V27.9312H131.481V22.0473H130.224V27.9312H126.499V12.8993H130.224V18.7618H131.481V12.8993H135.205Z" fill="#F2F0E4"/>
<path d="M140.956 24.6027H139.653L139.42 27.9312H135.695L138.023 12.8993H142.586L144.937 27.9312H141.189L140.956 24.6027ZM140.77 21.8111L140.421 17.2156H140.188L139.862 21.8111H140.77Z" fill="#F2F0E4"/>
<path d="M153.775 24.0444C153.775 25.3901 153.441 26.4137 152.774 27.1152C152.106 27.8024 150.989 28.146 149.422 28.146C147.839 28.146 146.714 27.8024 146.046 27.1152C145.395 26.4137 145.069 25.3901 145.069 24.0444V16.7861C145.069 15.4404 145.395 14.424 146.046 13.7368C146.714 13.0353 147.839 12.6846 149.422 12.6846C150.989 12.6846 152.106 13.0353 152.774 13.7368C153.441 14.424 153.775 15.4404 153.775 16.7861V18.3537H150.167V17.6451C150.167 16.8863 150.105 16.3853 149.98 16.1419C149.872 15.8842 149.686 15.7554 149.422 15.7554C149.158 15.7554 148.964 15.8842 148.84 16.1419C148.731 16.3853 148.677 16.8863 148.677 17.6451V23.1854C148.677 23.9442 148.731 24.4524 148.84 24.7101C148.964 24.9535 149.158 25.0751 149.422 25.0751C149.686 25.0751 149.872 24.9535 149.98 24.7101C150.105 24.4524 150.167 23.9442 150.167 23.1854C150.167 22.6271 150.159 22.1618 150.143 21.7896C150.128 21.4174 150.112 21.1167 150.097 20.8877C150.066 20.63 150.035 20.4224 150.004 20.2649H153.612C153.643 20.3222 153.674 20.4153 153.705 20.5441C153.72 20.6586 153.736 20.8018 153.751 20.9736C153.767 21.1454 153.775 21.3744 153.775 21.6608V24.0444Z" fill="#F2F0E4"/>
<path d="M163.163 23.2928V24.9893C163.163 25.5333 163.17 25.9985 163.186 26.3851C163.201 26.7573 163.225 27.0579 163.256 27.287C163.271 27.559 163.295 27.7737 163.326 27.9312H159.717C159.686 27.8596 159.663 27.7666 159.648 27.652C159.617 27.5375 159.593 27.3944 159.578 27.2226C159.562 27.0365 159.555 26.8074 159.555 26.5354V22.6915C159.555 22.262 159.523 21.9113 159.461 21.6393C159.415 21.3673 159.337 21.1597 159.229 21.0165C159.136 20.8591 159.011 20.7517 158.856 20.6944C158.717 20.6372 158.554 20.6085 158.367 20.6085H158.088V27.9312H154.596V12.8993H158.088V18.7618H158.321L159.485 12.8993H163.302L161.51 19.3416L160.16 19.4919V19.7066C160.765 19.7066 161.262 19.7782 161.65 19.9214C162.037 20.0502 162.34 20.2578 162.557 20.5441C162.79 20.8304 162.945 21.2026 163.023 21.6608C163.116 22.1046 163.163 22.6486 163.163 23.2928Z" fill="#F2F0E4"/>
<path d="M170.804 15.9701H167.755V18.8691H170.455V21.6608H167.755V24.8604H170.804V27.9312H164.03V12.8993H170.804V15.9701Z" fill="#F2F0E4"/>
<path d="M180.353 24.9893C180.353 25.5333 180.361 25.9985 180.376 26.3851C180.392 26.7573 180.415 27.0579 180.446 27.287C180.462 27.559 180.485 27.7737 180.516 27.9312H176.792C176.761 27.8596 176.737 27.7666 176.722 27.652C176.691 27.5375 176.667 27.3944 176.652 27.2226C176.636 27.0365 176.629 26.8074 176.629 26.5354V23.3357C176.629 22.9063 176.598 22.5555 176.536 22.2835C176.489 22.0115 176.411 21.8039 176.303 21.6608C176.21 21.5033 176.086 21.3959 175.93 21.3386C175.775 21.2814 175.604 21.2528 175.418 21.2528H175.302V27.9312H171.577V12.8993H176.163C176.924 12.8993 177.568 12.9494 178.095 13.0496C178.638 13.1498 179.081 13.3288 179.422 13.5865C179.763 13.8299 180.012 14.1663 180.167 14.5958C180.322 15.0109 180.4 15.5335 180.4 16.1634C180.4 16.779 180.338 17.3087 180.213 17.7525C180.105 18.1819 179.919 18.5327 179.655 18.8047C179.391 19.0767 179.034 19.2771 178.584 19.406C178.134 19.5205 177.575 19.5778 176.908 19.5778V19.7925C177.544 19.7925 178.08 19.8498 178.514 19.9643C178.949 20.0645 179.298 20.2506 179.562 20.5226C179.841 20.7946 180.043 21.1669 180.167 21.6393C180.291 22.1117 180.353 22.7058 180.353 23.4216V24.9893ZM176.163 18.1819C176.473 18.1819 176.691 18.0961 176.815 17.9243C176.955 17.7525 177.024 17.4661 177.024 17.0653C177.024 16.7074 176.955 16.4354 176.815 16.2493C176.691 16.0632 176.473 15.9701 176.163 15.9701H175.302V18.1819H176.163Z" fill="#F2F0E4"/>
<path d="M135.205 29.4283V44.4602H131.481V38.5763H130.224V44.4602H126.499V29.4283H130.224V35.2908H131.481V29.4283H135.205Z" fill="#F2F0E4"/>
<path d="M140.374 29.2136C141.942 29.2136 143.059 29.5643 143.726 30.2658C144.394 30.953 144.727 31.9623 144.727 33.2937V40.5734C144.727 41.9191 144.394 42.9427 143.726 43.6442C143.059 44.3314 141.942 44.675 140.374 44.675C138.791 44.675 137.666 44.3314 136.999 43.6442C136.347 42.9427 136.021 41.9191 136.021 40.5734V33.2937C136.021 31.9623 136.347 30.953 136.999 30.2658C137.666 29.5643 138.791 29.2136 140.374 29.2136ZM141.119 34.1741C141.119 33.4154 141.057 32.9143 140.933 32.6709C140.809 32.4132 140.623 32.2844 140.374 32.2844C140.126 32.2844 139.94 32.4132 139.816 32.6709C139.691 32.9143 139.629 33.4154 139.629 34.1741V39.7145C139.629 40.4732 139.691 40.9814 139.816 41.2391C139.94 41.4825 140.126 41.6042 140.374 41.6042C140.623 41.6042 140.809 41.4825 140.933 41.2391C141.057 40.9814 141.119 40.4732 141.119 39.7145V34.1741Z" fill="#F2F0E4"/>
<path d="M145.479 29.4283H148.971V39.7145C148.971 40.4732 149.033 40.9814 149.157 41.2391C149.297 41.4825 149.522 41.6042 149.832 41.6042C150.142 41.6042 150.36 41.4825 150.484 41.2391C150.623 40.9814 150.693 40.4732 150.693 39.7145V29.4283H154.185V40.5734C154.185 41.9191 153.851 42.9427 153.184 43.6442C152.517 44.3314 151.399 44.675 149.832 44.675C148.249 44.675 147.124 44.3314 146.457 43.6442C145.805 42.9427 145.479 41.9191 145.479 40.5734V29.4283Z" fill="#F2F0E4"/>
<path d="M158.333 39.9936C158.333 41.0673 158.597 41.6042 159.125 41.6042C159.388 41.6042 159.582 41.4968 159.707 41.2821C159.846 41.053 159.916 40.6665 159.916 40.1225V39.9077C159.916 39.5355 159.854 39.2206 159.73 38.9629C159.606 38.6909 159.435 38.4546 159.218 38.2542C159.016 38.0395 158.768 37.8462 158.473 37.6744C158.193 37.5026 157.899 37.3237 157.588 37.1376C157.247 36.9228 156.905 36.7009 156.564 36.4719C156.238 36.2428 155.943 35.978 155.679 35.6773C155.431 35.3624 155.229 34.9973 155.074 34.5821C154.919 34.167 154.841 33.6731 154.841 33.1004V32.8857C154.841 32.3703 154.919 31.8907 155.074 31.4469C155.229 30.9888 155.478 30.5951 155.819 30.2658C156.176 29.9366 156.626 29.6789 157.169 29.4928C157.728 29.3067 158.403 29.2136 159.194 29.2136C160.762 29.2136 161.879 29.5643 162.546 30.2658C163.214 30.953 163.547 31.9694 163.547 33.3152V34.8828H160.056V34.1741C160.056 33.4154 159.97 32.9143 159.8 32.6709C159.644 32.4132 159.412 32.2844 159.101 32.2844C158.667 32.2844 158.45 32.5493 158.45 33.0789V33.2937C158.45 33.5514 158.512 33.7876 158.636 34.0023C158.775 34.2171 158.954 34.4247 159.171 34.6251C159.404 34.8112 159.66 34.9973 159.939 35.1834C160.234 35.3695 160.537 35.5628 160.847 35.7632C161.204 35.9923 161.546 36.2285 161.871 36.4719C162.197 36.7009 162.484 36.9801 162.733 37.3094C162.981 37.6386 163.175 38.0252 163.315 38.469C163.47 38.9128 163.547 39.4496 163.547 40.0795V40.509C163.547 41.8547 163.214 42.8855 162.546 43.6013C161.879 44.3171 160.762 44.675 159.194 44.675C157.612 44.675 156.486 44.3171 155.819 43.6013C155.167 42.8855 154.841 41.8547 154.841 40.509V39.5641C154.841 39.2778 154.849 39.0488 154.865 38.877C154.88 38.7052 154.904 38.562 154.935 38.4475C154.95 38.3186 154.973 38.2256 155.004 38.1683H158.496C158.465 38.2685 158.442 38.4045 158.426 38.5763C158.395 38.7338 158.372 38.9271 158.356 39.1561C158.341 39.3852 158.333 39.6643 158.333 39.9936Z" fill="#F2F0E4"/>
<path d="M171.009 32.4991H167.959V35.3982H170.66V38.1898H167.959V41.3894H171.009V44.4602H164.235V29.4283H171.009V32.4991Z" fill="#F2F0E4"/>
<path d="M135.065 60.9893H131.737L132.249 58.3694H132.016C131.907 58.9277 131.768 59.393 131.597 59.7652C131.426 60.1231 131.225 60.4095 130.992 60.6242C130.759 60.839 130.487 60.9893 130.177 61.0752C129.882 61.1611 129.556 61.204 129.199 61.204C128.191 61.204 127.469 60.839 127.035 60.1088C126.6 59.3644 126.383 58.2692 126.383 56.8233V49.8442C126.383 48.4985 126.709 47.482 127.36 46.7949C128.028 46.0934 129.153 45.7426 130.736 45.7426C132.303 45.7426 133.42 46.0934 134.088 46.7949C134.755 47.482 135.089 48.4985 135.089 49.8442V51.4118H131.597V50.7032C131.597 49.9444 131.527 49.4433 131.388 49.2C131.263 48.9423 131.046 48.8134 130.736 48.8134C130.425 48.8134 130.2 48.9423 130.061 49.2C129.937 49.4433 129.874 49.9444 129.874 50.7032V52.0775H135.089L135.065 60.9893ZM129.874 55.9643C129.874 56.3938 129.882 56.7517 129.898 57.038C129.929 57.3244 129.975 57.5462 130.037 57.7037C130.1 57.8612 130.177 57.9757 130.27 58.0473C130.379 58.1046 130.503 58.1332 130.643 58.1332C130.751 58.1332 130.844 58.1046 130.922 58.0473C131.015 57.9757 131.093 57.8612 131.155 57.7037C131.217 57.5319 131.263 57.3029 131.294 57.0166C131.341 56.7159 131.364 56.3294 131.364 55.857V54.8691H129.874V55.9643Z" fill="#F2F0E4"/>
<path d="M140.192 45.7426C141.76 45.7426 142.877 46.0934 143.544 46.7949C144.212 47.482 144.545 48.4913 144.545 49.8227V57.1025C144.545 58.4482 144.212 59.4718 143.544 60.1733C142.877 60.8604 141.76 61.204 140.192 61.204C138.61 61.204 137.484 60.8604 136.817 60.1733C136.165 59.4718 135.839 58.4482 135.839 57.1025V49.8227C135.839 48.4913 136.165 47.482 136.817 46.7949C137.484 46.0934 138.61 45.7426 140.192 45.7426ZM140.937 50.7032C140.937 49.9444 140.875 49.4433 140.751 49.2C140.627 48.9423 140.441 48.8134 140.192 48.8134C139.944 48.8134 139.758 48.9423 139.634 49.2C139.51 49.4433 139.448 49.9444 139.448 50.7032V56.2435C139.448 57.0022 139.51 57.5105 139.634 57.7681C139.758 58.0115 139.944 58.1332 140.192 58.1332C140.441 58.1332 140.627 58.0115 140.751 57.7681C140.875 57.5105 140.937 57.0022 140.937 56.2435V50.7032Z" fill="#F2F0E4"/>
<path d="M149.958 57.6608H148.655L148.422 60.9893H144.697L147.025 45.9574H151.588L153.939 60.9893H150.191L149.958 57.6608ZM149.772 54.8691L149.423 50.2737H149.19L148.864 54.8691H149.772Z" fill="#F2F0E4"/>
</g>
<defs>
<clipPath id="clip0_1_9210">
<rect y="0.467773" width="974" height="72.8579" rx="7" fill="white"/>
</clipPath>
</defs>
</svg>
