<svg width="974" height="73" viewBox="0 0 974 73" fill="none" xmlns="http://www.w3.org/2000/svg">
<g clip-path="url(#clip0_1_8953)">
<path d="M920.486 -19.1733H115.503V92.0304H920.486V-19.1733Z" fill="black"/>
<path d="M573.764 -0.000419617H592.696L568.41 24.286H587.383L563.098 48.5711H582.07L557.785 72.8575H576.766H576.758L557.585 92.0304H920.487V72.8575V69.2266V-0.000419617V-19.1733H592.937L573.764 -0.000419617Z" fill="white"/>
<path d="M115.504 -19.1733H10.501V92.0304H115.504V-19.1733Z" fill="white"/>
<path d="M963.499 -19.1733H920.486V92.0304H963.499V-19.1733Z" fill="#A6A6A6"/>
<path d="M10.5003 -19.1729H-19.1729V92.0309H10.5003V-19.1729Z" fill="black"/>
<path d="M993.172 -19.1733H963.499V92.0304H993.172V-19.1733Z" fill="black"/>
<path d="M19.0293 67.6563L23.0146 62.4576L19.0293 57.2562L23.0146 52.0561L19.0293 46.8533L23.0146 41.6492L19.0293 36.445L23.0146 31.2463L19.0293 26.0422L23.0146 20.838L19.0293 15.6312L23.0146 10.4162L19.0293 5.20264" stroke="#A6A6A6" stroke-width="1.09115" stroke-miterlimit="10" stroke-linecap="round" stroke-linejoin="round"/>
<path d="M29.5244 67.6563L33.5097 62.4576L29.5244 57.2562L33.5097 52.0561L29.5244 46.8533L33.5097 41.6492L29.5244 36.445L33.5097 31.2463L29.5244 26.0422L33.5097 20.838L29.5244 15.6312L33.5097 10.4162L29.5244 5.20264" stroke="#A6A6A6" stroke-width="1.09115" stroke-miterlimit="10" stroke-linecap="round" stroke-linejoin="round"/>
<path d="M40.0195 67.6563L44.0048 62.4576L40.0195 57.2562L44.0048 52.0561L40.0195 46.8533L44.0048 41.6492L40.0195 36.445L44.0048 31.2463L40.0195 26.0422L44.0048 20.838L40.0195 15.6312L44.0048 10.4162L40.0195 5.20264" stroke="#A6A6A6" stroke-width="1.09115" stroke-miterlimit="10" stroke-linecap="round" stroke-linejoin="round"/>
<path d="M50.5146 67.6563L54.4999 62.4576L50.5146 57.2562L54.4999 52.0561L50.5146 46.8533L54.4999 41.6492L50.5146 36.445L54.4999 31.2463L50.5146 26.0422L54.4999 20.838L50.5146 15.6312L54.4999 10.4162L50.5146 5.20264" stroke="#A6A6A6" stroke-width="1.09115" stroke-miterlimit="10" stroke-linecap="round" stroke-linejoin="round"/>
<path d="M61.0098 67.6563L64.995 62.4576L61.0098 57.2562L64.995 52.0561L61.0098 46.8533L64.995 41.6492L61.0098 36.445L64.995 31.2463L61.0098 26.0422L64.995 20.838L61.0098 15.6312L64.995 10.4162L61.0098 5.20264" stroke="#A6A6A6" stroke-width="1.09115" stroke-miterlimit="10" stroke-linecap="round" stroke-linejoin="round"/>
<path d="M71.5039 67.6563L75.4892 62.4576L71.5039 57.2562L75.4892 52.0561L71.5039 46.8533L75.4892 41.6492L71.5039 36.445L75.4892 31.2463L71.5039 26.0422L75.4892 20.838L71.5039 15.6312L75.4892 10.4162L71.5039 5.20264" stroke="#A6A6A6" stroke-width="1.09115" stroke-miterlimit="10" stroke-linecap="round" stroke-linejoin="round"/>
<path d="M82.001 67.6563L85.9863 62.4576L82.001 57.2562L85.9863 52.0561L82.001 46.8533L85.9863 41.6492L82.001 36.445L85.9863 31.2463L82.001 26.0422L85.9863 20.838L82.001 15.6312L85.9863 10.4162L82.001 5.20264" stroke="#A6A6A6" stroke-width="1.09115" stroke-miterlimit="10" stroke-linecap="round" stroke-linejoin="round"/>
<path d="M92.4951 67.6563L96.4804 62.4576L92.4951 57.2562L96.4804 52.0561L92.4951 46.8533L96.4804 41.6492L92.4951 36.445L96.4804 31.2463L92.4951 26.0422L96.4804 20.838L92.4951 15.6312L96.4804 10.4162L92.4951 5.20264" stroke="#A6A6A6" stroke-width="1.09115" stroke-miterlimit="10" stroke-linecap="round" stroke-linejoin="round"/>
<path d="M102.99 67.6563L106.976 62.4576L102.99 57.2562L106.976 52.0561L102.99 46.8533L106.976 41.6492L102.99 36.445L106.976 31.2463L102.99 26.0422L106.976 20.838L102.99 15.6312L106.976 10.4162L102.99 5.20264" stroke="#A6A6A6" stroke-width="1.09115" stroke-miterlimit="10" stroke-linecap="round" stroke-linejoin="round"/>
<path d="M948.86 16.6078L953.878 11.5903L948.86 6.57422" stroke="#373638" stroke-width="1.09115" stroke-miterlimit="10" stroke-linecap="round" stroke-linejoin="round"/>
<path d="M953.878 11.5903H930.109" stroke="#373638" stroke-width="1.09115" stroke-miterlimit="10" stroke-linecap="round" stroke-linejoin="round"/>
<path d="M948.86 33.2742L953.878 28.2567L948.86 23.2393" stroke="#373638" stroke-width="1.09115" stroke-miterlimit="10" stroke-linecap="round" stroke-linejoin="round"/>
<path d="M953.878 28.2568H930.109" stroke="#373638" stroke-width="1.09115" stroke-miterlimit="10" stroke-linecap="round" stroke-linejoin="round"/>
<path d="M948.86 49.9397L953.878 44.9222L948.86 39.9048" stroke="#373638" stroke-width="1.09115" stroke-miterlimit="10" stroke-linecap="round" stroke-linejoin="round"/>
<path d="M953.878 44.9229H930.109" stroke="#373638" stroke-width="1.09115" stroke-miterlimit="10" stroke-linecap="round" stroke-linejoin="round"/>
<path d="M948.86 66.6053L953.878 61.5892L948.86 56.5718" stroke="#373638" stroke-width="1.09115" stroke-miterlimit="10" stroke-linecap="round" stroke-linejoin="round"/>
<path d="M953.878 61.5889H930.109" stroke="#373638" stroke-width="1.09115" stroke-miterlimit="10" stroke-linecap="round" stroke-linejoin="round"/>
<path d="M557.786 72.8579L582.071 48.5715H563.098L587.385 24.2864H568.411L592.697 0H920.488V72.8579H557.786Z" fill="white"/>
<path d="M157.301 55.5066C157.301 54.8762 157.301 54.2445 157.301 53.5518C155.942 53.5518 154.659 53.5518 153.301 53.5518C153.301 54.8316 153.301 56.091 153.301 57.4262C152.617 57.4262 152.004 57.4262 151.283 57.4262C151.283 56.8296 151.283 56.2155 151.283 55.5485C150.589 55.5485 149.998 55.5485 149.3 55.5485C149.3 56.1424 149.3 56.7579 149.3 57.4384C148.581 57.4384 147.968 57.4384 147.299 57.4384C147.299 56.1627 147.299 54.9046 147.299 53.537C147.893 53.537 148.508 53.537 149.268 53.537C149.268 52.778 149.268 52.1219 149.268 51.4658L149.239 51.4929C151.233 51.4929 153.225 51.4929 155.29 51.4929C155.29 50.7191 155.29 50.0887 155.29 49.457L155.263 49.4867C155.893 49.4867 156.523 49.4867 157.261 49.4867C157.261 48.8009 157.261 48.184 157.261 47.5171C157.955 47.5171 158.544 47.5171 159.242 47.5171C159.242 48.1083 159.242 48.7224 159.242 49.4407C163.973 49.4407 168.6 49.4407 173.287 49.4407C173.287 50.8246 173.287 52.1057 173.287 53.4368C172.666 53.4368 172.078 53.4368 171.381 53.4368C171.381 52.8308 171.381 52.2166 171.381 51.5402C169.325 51.5402 167.374 51.5402 165.35 51.5402C165.35 53.4937 165.35 55.42 165.35 57.4235C163.331 57.4235 161.38 57.4235 159.278 57.4235C159.278 56.7917 159.278 56.137 159.278 55.4822C159.932 55.4822 160.589 55.4822 161.345 55.4822C161.345 54.7517 161.345 54.1389 161.345 53.4585C162.04 53.4585 162.63 53.4585 163.251 53.4585C163.251 52.7753 163.251 52.1625 163.251 51.5484C161.909 51.5484 160.629 51.5484 159.307 51.5484C159.307 52.916 159.307 54.2133 159.307 55.512C158.631 55.4998 157.953 55.489 157.276 55.4768L157.301 55.5066Z" fill="black"/>
<path d="M145.166 29.3508C140.496 29.3508 135.894 29.3508 131.237 29.3508C131.237 24.7054 131.237 20.1032 131.237 15.4199C135.842 15.4199 140.467 15.4199 145.166 15.4199C145.166 20.0153 145.166 24.6405 145.166 29.3508ZM143.158 27.3406C143.158 23.9749 143.158 20.6876 143.158 17.4261C139.799 17.4261 136.512 17.4261 133.242 17.4261C133.242 20.7688 133.242 24.0331 133.242 27.3406C136.559 27.3406 139.822 27.3406 143.158 27.3406Z" fill="black"/>
<path d="M173.277 29.3494C168.603 29.3494 164.001 29.3494 159.346 29.3494C159.346 24.7026 159.346 20.1004 159.346 15.4185C163.953 15.4185 168.58 15.4185 173.277 15.4185C173.277 20.0179 173.277 24.643 173.277 29.3494ZM161.345 27.3148C164.714 27.3148 168.001 27.3148 171.26 27.3148C171.26 23.9558 171.26 20.6686 171.26 17.4003C167.916 17.4003 164.653 17.4003 161.345 17.4003C161.345 20.7159 161.345 23.9802 161.345 27.3148Z" fill="black"/>
<path d="M131.237 43.4961C135.884 43.4961 140.486 43.4961 145.163 43.4961C145.163 48.1226 145.163 52.7477 145.163 57.4392C140.546 57.4392 135.919 57.4392 131.237 57.4392C131.237 52.8194 131.237 48.2173 131.237 43.4961ZM133.261 45.5023C133.261 48.8707 133.261 52.1579 133.261 55.4168C136.62 55.4168 139.907 55.4168 143.176 55.4168C143.176 52.0727 143.176 48.8098 143.176 45.5023C139.859 45.5023 136.596 45.5023 133.261 45.5023Z" fill="black"/>
<path d="M155.262 31.4164C155.89 31.4164 156.518 31.4164 157.248 31.4164C157.248 32.0616 157.248 32.6745 157.248 33.4239C157.999 33.4239 158.652 33.4239 159.304 33.4239L159.277 33.3941C159.277 34.7415 159.277 36.0902 159.277 37.4376L159.304 37.4078C158.008 37.4078 156.712 37.4078 155.346 37.4078C155.346 38.0856 155.346 38.697 155.346 39.4153C155.955 39.4153 156.568 39.4153 157.249 39.4153C157.249 40.7735 157.249 42.0303 157.249 43.3912C157.926 43.3912 158.539 43.3912 159.22 43.3912C159.22 44.1068 159.22 44.7182 159.22 45.4393C157.904 45.4393 156.583 45.4393 155.262 45.4393L155.289 45.469C155.289 44.8156 155.289 44.1636 155.289 43.5156C154.54 43.5156 153.928 43.5156 153.253 43.5156C153.253 44.2123 153.253 44.84 153.253 45.469L153.282 45.4406C152.603 45.4406 151.925 45.4406 151.246 45.4406L151.274 45.469C151.274 44.1447 151.274 42.8203 151.274 41.4256C150.5 41.4256 149.869 41.4256 149.238 41.4256L149.268 41.4526C149.268 40.8222 149.268 40.1905 149.268 39.4532C150.592 39.4532 151.878 39.4532 153.214 39.4532C153.214 38.7579 153.214 38.1694 153.214 37.4714C152.622 37.4714 152.006 37.4714 151.276 37.4714C151.276 36.7138 151.276 36.0577 151.276 35.4017L151.246 35.4287C152.569 35.4287 153.893 35.4287 155.289 35.4287C155.289 33.9826 155.289 32.6839 155.289 31.3853L155.262 31.4164Z" fill="black"/>
<path d="M133.206 35.4291C133.206 34.8001 133.206 34.171 133.206 33.4364C132.52 33.4364 131.906 33.4364 131.237 33.4364C131.237 32.7195 131.237 32.108 131.237 31.4492C132.536 31.4492 133.791 31.4492 135.155 31.4492C135.155 32.058 135.155 32.6708 135.155 33.3472C135.872 33.3472 136.485 33.3472 137.168 33.3472C137.168 32.7411 137.168 32.15 137.168 31.4817C137.847 31.4817 138.46 31.4817 139.179 31.4817C139.179 32.733 139.179 34.0154 139.179 35.4359C141.271 35.4359 143.259 35.4359 145.248 35.4359L145.22 35.4074C145.22 36.0351 145.22 36.6615 145.22 37.392C144.576 37.392 143.962 37.392 143.211 37.392C143.211 38.1414 143.211 38.7935 143.211 39.4455L143.239 39.4171C142.61 39.4171 141.982 39.4171 141.249 39.4171C141.249 40.1002 141.249 40.713 141.249 41.3827C139.867 41.3827 138.588 41.3827 137.24 41.3827C137.24 40.7672 137.24 40.1787 137.24 39.4861C136.562 39.4861 135.948 39.4861 135.232 39.4861C135.232 38.1062 135.232 36.8252 135.232 35.3993C134.483 35.3993 133.829 35.3993 133.176 35.3993L133.206 35.4291Z" fill="black"/>
<path d="M147.26 31.4152C147.26 28.7813 147.26 26.1475 147.26 23.4419C149.243 23.4419 151.192 23.4419 153.253 23.4419C153.253 25.4278 153.253 27.4177 153.253 29.4076L153.282 29.3806C152.626 29.3806 151.972 29.3806 151.213 29.3806C151.213 28.6487 151.213 28.0332 151.213 27.4407C150.515 27.4407 149.925 27.4407 149.231 27.4407C149.231 28.7772 149.231 30.0624 149.231 31.3881C148.492 31.3881 147.862 31.3881 147.231 31.3881L147.26 31.4152Z" fill="black"/>
<path d="M171.328 33.4249C171.957 33.4249 172.586 33.4249 173.281 33.4249C173.281 36.7487 173.281 40.0319 173.281 43.43C172.635 43.43 171.98 43.43 171.326 43.43L171.355 43.4584C171.355 42.8281 171.355 42.1977 171.355 41.4617C170.665 41.4617 170.049 41.4617 169.384 41.4617C169.384 40.7678 169.384 40.178 169.384 39.4799C169.979 39.4799 170.593 39.4799 171.356 39.4799C171.356 37.3831 171.356 35.3905 171.356 33.3965L171.328 33.4249Z" fill="black"/>
<path d="M163.293 35.4033C163.293 36.0324 163.293 36.6628 163.293 37.396C164.642 37.396 165.925 37.396 167.265 37.396C167.265 38.1102 167.265 38.7217 167.265 39.4048C166.644 39.4048 166.054 39.4048 165.36 39.4048C165.36 40.0839 165.36 40.6981 165.36 41.4232C164.605 41.4232 163.95 41.4232 163.297 41.4232L163.325 41.4516C163.325 40.8225 163.325 40.1949 163.325 39.4644C161.978 39.4644 160.697 39.4644 159.306 39.4644C159.306 38.7149 159.306 38.0615 159.306 37.4095L159.279 37.4393C159.933 37.4393 160.585 37.4393 161.336 37.4393C161.336 36.6912 161.336 36.0784 161.336 35.4317C162.066 35.4317 162.695 35.4317 163.323 35.4317L163.293 35.4033Z" fill="black"/>
<path d="M145.249 35.4342C145.249 34.8052 145.249 34.1775 145.249 33.447C144.579 33.447 143.968 33.447 143.293 33.447C143.293 32.7354 143.293 32.1253 143.293 31.4138C144.624 31.4138 145.943 31.4138 147.261 31.4138L147.231 31.3867C147.231 32.0415 147.231 32.6976 147.231 33.3956C148.677 33.3956 149.977 33.3956 151.276 33.3956C151.266 34.0747 151.255 34.7524 151.246 35.4302L151.276 35.4031C149.257 35.4045 147.239 35.4045 145.221 35.4058L145.249 35.4342Z" fill="black"/>
<path d="M149.268 49.4856C149.268 48.1382 149.268 46.7909 149.268 45.4422L149.238 45.4692C149.917 45.4692 150.595 45.4692 151.274 45.4692L151.246 45.4408C151.246 46.0942 151.246 46.7462 151.246 47.3942C151.995 47.3942 152.607 47.3942 153.282 47.3942C153.282 46.6975 153.282 46.0698 153.282 45.4408L153.253 45.4692C153.932 45.4692 154.61 45.4692 155.289 45.4692L155.262 45.4395C155.262 46.7882 155.262 48.1369 155.262 49.4856L155.289 49.4558C153.272 49.4558 151.255 49.4558 149.238 49.4558L149.268 49.4856Z" fill="black"/>
<path d="M155.287 21.3453C153.988 21.3453 152.69 21.3453 151.326 21.3453C151.326 19.3486 151.326 17.3979 151.326 15.3931C151.934 15.3931 152.522 15.3931 153.221 15.3931C153.221 16.6511 153.221 17.9363 153.221 19.3716C153.978 19.3716 154.632 19.3716 155.287 19.3716L155.259 19.3432C155.259 20.0196 155.257 20.6973 155.257 21.3737L155.287 21.3453Z" fill="black"/>
<path d="M159.306 33.4255C159.306 32.7964 159.306 32.1674 159.306 31.4707C161.288 31.4707 163.233 31.4707 165.248 31.4707C165.248 32.7369 165.248 34.0139 165.248 35.4046C164.598 35.4046 163.945 35.4046 163.293 35.4046L163.323 35.4316C163.323 34.7769 163.323 34.1208 163.323 33.3957C161.877 33.3957 160.578 33.3957 159.279 33.3957L159.306 33.4255Z" fill="black"/>
<path d="M163.295 41.4229C163.295 42.0546 163.295 42.685 163.295 43.4236C163.977 43.4236 164.594 43.4236 165.261 43.4236C165.261 44.1189 165.261 44.7088 165.261 45.4081C164.67 45.4081 164.054 45.4081 163.332 45.4081C163.332 46.1278 163.332 46.742 163.332 47.4102C162.636 47.4102 162.045 47.4102 161.377 47.4102C161.377 45.4798 161.377 43.5264 161.377 41.4513C162.013 41.4513 162.669 41.4513 163.325 41.4513L163.295 41.4229Z" fill="black"/>
<path d="M171.326 43.4316C171.326 44.0634 171.326 44.6938 171.326 45.4324C172.008 45.4324 172.623 45.4324 173.292 45.4324C173.292 46.1277 173.292 46.7189 173.292 47.3872C172.032 47.3872 170.749 47.3872 169.355 47.3872C169.355 46.7906 169.355 46.1764 169.355 45.4919C168.658 45.4919 168.069 45.4919 167.4 45.4919C167.4 44.8088 167.4 44.1946 167.4 43.46C168.704 43.46 170.03 43.46 171.355 43.46L171.326 43.4316Z" fill="black"/>
<path d="M155.289 19.3713C155.289 18.0767 155.289 16.7821 155.289 15.4131C155.932 15.4131 156.542 15.4131 157.22 15.4131C157.22 16.6725 157.22 17.9509 157.22 19.3429C156.566 19.3429 155.914 19.3429 155.261 19.3429L155.289 19.3713Z" fill="black"/>
<path d="M149.193 21.3436C148.527 21.3436 147.962 21.3436 147.32 21.3436C147.32 20.049 147.32 18.7679 147.32 17.4165C147.909 17.4165 148.52 17.4165 149.193 17.4165C149.193 18.6976 149.193 19.9787 149.193 21.3436Z" fill="black"/>
<path d="M155.259 21.3736C155.888 21.3736 156.517 21.3736 157.215 21.3736C157.215 22.6872 157.215 23.9655 157.215 25.3116C156.614 25.3116 156.004 25.3116 155.287 25.3116C155.287 23.9845 155.287 22.6655 155.287 21.3452L155.259 21.3736Z" fill="black"/>
<path d="M171.357 33.3967C170.062 33.3967 168.767 33.3967 167.398 33.3967C167.398 32.7542 167.398 32.1441 167.398 31.4663C168.659 31.4663 169.936 31.4663 171.328 31.4663C171.328 32.1197 171.328 32.7731 171.328 33.4251L171.357 33.3967Z" fill="black"/>
<path d="M149.268 45.4438C148.639 45.4438 148.01 45.4438 147.313 45.4438C147.313 44.1275 147.313 42.8478 147.313 41.4558C147.963 41.4558 148.616 41.4558 149.268 41.4558L149.238 41.4287C149.238 42.7761 149.238 44.1248 149.238 45.4722L149.268 45.4438Z" fill="black"/>
<path d="M143.211 39.4449C143.839 39.4449 144.466 39.4449 145.164 39.4449C145.164 40.0875 145.164 40.6976 145.164 41.3753C144.568 41.3753 143.959 41.3753 143.239 41.3753C143.239 40.7206 143.239 40.0685 143.239 39.4165L143.211 39.4449Z" fill="black"/>
<path d="M155.331 29.4412C155.331 28.7892 155.331 28.1358 155.331 27.4351C155.952 27.4351 156.539 27.4351 157.205 27.4351C157.205 28.0262 157.205 28.635 157.205 29.4142C156.596 29.4142 155.948 29.4142 155.3 29.4128L155.331 29.4412Z" fill="black"/>
<path d="M133.177 35.4004C133.177 36.0281 133.177 36.6558 133.177 37.3538C132.534 37.3538 131.924 37.3538 131.246 37.3538C131.246 36.7572 131.246 36.1485 131.246 35.4288C131.901 35.4288 132.553 35.4288 133.205 35.4288L133.177 35.4004Z" fill="black"/>
<path d="M149.268 51.467C148.639 51.467 148.012 51.467 147.313 51.467C147.313 50.819 147.313 50.2089 147.313 49.4865C147.961 49.4865 148.615 49.4865 149.268 49.4865L149.238 49.4595C149.238 50.1386 149.238 50.8163 149.238 51.4954L149.268 51.467Z" fill="black"/>
<path d="M153.253 29.4073C153.946 29.4181 154.637 29.429 155.331 29.4398L155.3 29.4127C155.288 30.081 155.275 30.7493 155.262 31.4162L155.289 31.3864C154.611 31.3959 153.932 31.4067 153.253 31.4162C153.262 30.7371 153.272 30.058 153.28 29.3789L153.253 29.4073Z" fill="black"/>
<path d="M157.273 55.4785C157.273 56.1062 157.273 56.7339 157.273 57.4319C156.631 57.4319 156.021 57.4319 155.343 57.4319C155.343 56.8367 155.343 56.2266 155.343 55.5069C155.998 55.5069 156.65 55.5069 157.302 55.5069L157.273 55.4785Z" fill="black"/>
<path d="M131.259 39.4697C131.896 39.4697 132.483 39.4697 133.13 39.4697C133.13 40.1164 133.13 40.7278 133.13 41.3907C132.513 41.3907 131.924 41.3907 131.259 41.3907C131.259 40.7941 131.259 40.1826 131.259 39.4697Z" fill="black"/>
<path d="M171.276 57.4848C170.621 57.4848 170.057 57.4848 169.412 57.4848C169.412 56.8638 169.412 56.2524 169.412 55.5679C169.988 55.5679 170.598 55.5679 171.276 55.5679C171.276 56.1712 171.276 56.7827 171.276 57.4848Z" fill="black"/>
<path d="M141.171 19.4214C141.171 21.4316 141.171 23.3566 141.171 25.3303C139.197 25.3303 137.272 25.3303 135.271 25.3303C135.271 23.3877 135.271 21.4384 135.271 19.4214C137.206 19.4214 139.155 19.4214 141.171 19.4214Z" fill="black"/>
<path d="M169.262 25.3331C167.264 25.3331 165.34 25.3331 163.362 25.3331C163.362 23.3648 163.362 21.4398 163.362 19.4336C165.293 19.4336 167.242 19.4336 169.262 19.4336C169.262 21.3559 169.262 23.3052 169.262 25.3331Z" fill="black"/>
<path d="M135.245 53.4205C135.245 51.4143 135.245 49.4893 135.245 47.5156C137.217 47.5156 139.142 47.5156 141.145 47.5156C141.145 49.4542 141.145 51.4035 141.145 53.4205C139.213 53.4205 137.265 53.4205 135.245 53.4205Z" fill="black"/>
<path d="M151.245 33.4241C151.245 32.7937 151.245 32.162 151.245 31.3882C151.969 31.3882 152.625 31.3882 153.281 31.3882C153.281 32.0186 153.281 32.649 153.281 33.4241C152.557 33.4241 151.901 33.4241 151.245 33.4241Z" fill="black"/>
<path d="M875.166 89.1734L869.359 85.4208C855.272 76.3153 855.272 69.7232 855.272 67.2408C855.272 61.3333 860.061 56.5444 865.969 56.5444C869.88 56.5444 873.3 58.6426 875.165 61.7743C877.031 58.6426 880.45 56.5444 884.361 56.5444C890.269 56.5444 895.058 61.3333 895.058 67.2408C895.058 69.7232 895.058 76.3153 880.971 85.4208L875.166 89.1734Z" fill="#33C9FF"/>
<path d="M703.359 0C713.462 0 721.65 8.18972 721.65 18.2909C711.549 18.2909 703.359 10.1025 703.359 0Z" fill="#FE70C4"/>
<path d="M739.941 0C739.941 10.1025 731.753 18.2909 721.65 18.2909C721.652 8.18972 729.84 0 739.941 0Z" fill="#FE70C4"/>
<path d="M739.941 36.5819C729.84 36.5819 721.652 28.3936 721.65 18.291C731.753 18.291 739.941 26.4807 739.941 36.5819Z" fill="#FE70C4"/>
<path d="M703.359 36.5819C703.359 26.4807 711.548 18.291 721.65 18.291C721.65 28.3936 713.462 36.5819 703.359 36.5819Z" fill="#FE70C4"/>
<path d="M455.907 21.3817V8.14209L402.889 -44.876H389.648L455.907 21.3817Z" fill="white"/>
<path d="M436.054 27.9965H449.292L383.034 -38.2612V-25.0202L436.054 27.9965Z" fill="white"/>
<path d="M409.582 27.9966H422.821L383.034 -11.7886V1.44836L409.582 27.9966Z" fill="white"/>
<path d="M383.109 27.9971H396.348L383.034 14.6831V27.9241L383.109 27.9971Z" fill="white"/>
<path d="M631.791 16.7036C630.723 16.7036 629.855 15.8351 629.855 14.7664C629.855 13.6991 630.724 12.8306 631.791 12.8306C632.859 12.8306 633.73 13.6991 633.73 14.7664C633.73 15.8351 632.86 16.7036 631.791 16.7036Z" fill="#373638"/>
<path d="M631.791 26.1219C630.723 26.1219 629.855 25.2534 629.855 24.1847C629.855 23.116 630.724 22.2476 631.791 22.2476C632.859 22.2476 633.73 23.116 633.73 24.1847C633.73 25.2534 632.86 26.1219 631.791 26.1219Z" fill="#373638"/>
<path d="M631.791 35.5389C630.723 35.5389 629.855 34.6704 629.855 33.6017C629.855 32.533 630.724 31.6646 631.791 31.6646C632.859 31.6646 633.73 32.533 633.73 33.6017C633.73 34.6704 632.86 35.5389 631.791 35.5389Z" fill="#373638"/>
<path d="M622.934 16.7036C621.866 16.7036 620.997 15.8351 620.997 14.7664C620.997 13.6991 621.867 12.8306 622.934 12.8306C624.003 12.8306 624.871 13.6991 624.871 14.7664C624.87 15.8351 624.003 16.7036 622.934 16.7036Z" fill="#373638"/>
<path d="M622.934 26.1219C621.866 26.1219 620.997 25.2534 620.997 24.1847C620.997 23.116 621.867 22.2476 622.934 22.2476C624.003 22.2476 624.871 23.116 624.871 24.1847C624.871 25.2534 624.003 26.1219 622.934 26.1219Z" fill="#373638"/>
<path d="M622.934 35.5389C621.866 35.5389 620.997 34.6704 620.997 33.6017C620.997 32.533 621.867 31.6646 622.934 31.6646C624.003 31.6646 624.871 32.533 624.871 33.6017C624.871 34.6704 624.003 35.5389 622.934 35.5389Z" fill="#373638"/>
<path d="M640.648 16.7036C639.579 16.7036 638.712 15.8351 638.712 14.7664C638.712 13.6991 639.58 12.8306 640.648 12.8306C641.715 12.8306 642.586 13.6991 642.586 14.7664C642.586 15.8351 641.716 16.7036 640.648 16.7036Z" fill="#373638"/>
<path d="M640.648 26.1219C639.579 26.1219 638.712 25.2534 638.712 24.1847C638.712 23.116 639.58 22.2476 640.648 22.2476C641.715 22.2476 642.586 23.116 642.586 24.1847C642.586 25.2534 641.716 26.1219 640.648 26.1219Z" fill="#373638"/>
<path d="M640.648 35.5389C639.579 35.5389 638.712 34.6704 638.712 33.6017C638.712 32.533 639.58 31.6646 640.648 31.6646C641.715 31.6646 642.586 32.533 642.586 33.6017C642.586 34.6704 641.716 35.5389 640.648 35.5389Z" fill="#373638"/>
<path d="M675.66 59.2869H660.202L671.132 48.3564L668.516 45.7401L657.585 56.6706V41.2124H653.884V56.6706L642.954 45.7401L640.337 48.3564L651.268 59.2869H635.81V62.9867H651.268L640.337 73.9185L642.954 76.5348L653.884 65.6043V81.0625H657.585V65.6043L668.516 76.5348L671.132 73.9185L660.202 62.9867H675.66V59.2869Z" fill="#AEDB35"/>
<path d="M546.596 12.8306C568.281 21.8131 564.641 29.9446 543.42 20.4968C552.868 41.7165 544.735 45.3582 535.754 23.6731C526.771 45.3582 518.64 41.7178 528.088 20.4968C506.868 29.9446 503.226 21.8117 524.911 12.8306C503.226 3.84817 506.867 -4.28338 528.088 5.16307C518.64 -16.0566 526.773 -19.6983 535.754 1.9881C544.736 -19.6969 552.868 -16.0566 543.42 5.16307C564.641 -4.28338 568.281 3.84817 546.596 12.8306Z" fill="#FE70C4"/>
<path d="M363.539 69.2117C392.491 81.2041 387.631 92.0615 359.3 79.4482C371.913 107.779 361.056 112.64 349.063 83.6878C337.071 112.64 326.213 107.779 338.827 79.4482C310.496 92.0615 305.635 81.2041 334.587 69.2117C305.635 57.2193 310.496 46.3619 338.827 58.9752C326.213 30.644 337.071 25.7835 349.063 54.7356C361.056 25.7835 371.913 30.644 359.3 58.9752C387.631 46.3619 392.491 57.2193 363.539 69.2117Z" fill="#33C9FF"/>
<path d="M483.449 66.0017C475.036 66.0017 468.217 59.1823 468.217 50.7694C468.217 42.3565 475.036 35.5371 483.449 35.5371C491.862 35.5371 498.681 42.3565 498.681 50.7694" stroke="white" stroke-width="8.72921" stroke-miterlimit="10"/>
<path d="M781.795 40.1441C778.696 40.1441 777.193 38.9138 776.145 34.7217H775.689L777.284 41.3289V52.4016H769.993V20.5049H778.514C784.666 20.5049 787.035 22.6465 787.035 29.8916V30.803C787.035 37.5924 785.577 40.1441 781.795 40.1441ZM777.284 27.0209V30.7574C777.284 33.2636 777.876 33.6281 778.788 33.6281C779.79 33.6281 780.2 32.9446 780.2 30.803V29.8916C780.2 27.6133 779.744 27.0209 778.514 27.0209H777.284Z" fill="black"/>
<path d="M797.168 52.4016L796.712 45.3387H794.161L793.659 52.4016H786.369L790.971 20.5049H799.902L804.504 52.4016H797.168ZM794.571 39.4151H796.302L795.664 29.6638H795.209L794.571 39.4151Z" fill="black"/>
<path d="M823.526 42.8326V46.1589C823.526 50.8523 823.844 52.4016 823.844 52.4016H816.554C816.554 52.4016 816.235 51.7637 816.235 49.4397V42.6503C816.235 39.005 815.369 38.2303 813.865 38.2303H813.638V52.4016H806.347V20.5049H815.323C821.293 20.5049 823.617 22.0542 823.617 27.431C823.617 32.6712 821.976 34.7217 816.782 34.7217V35.1774C821.703 35.1774 823.526 36.7266 823.526 42.8326ZM813.638 31.7143H815.323C816.554 31.7143 817.009 31.0308 817.009 29.3448C817.009 27.8411 816.554 27.0209 815.323 27.0209H813.638V31.7143Z" fill="black"/>
<path d="M836.788 27.0209V52.4016H829.498V27.0209H825.214V20.5049H841.072V27.0209H836.788Z" fill="black"/>
<path d="M851.081 20.5049L853.541 38.4582H853.997L853.541 20.5049H859.875V52.4016H851.718L849.258 34.2205H848.802L849.258 52.4016H842.879V20.5049H851.081Z" fill="black"/>
<path d="M875.917 20.5049V27.0209H869.948V33.1724H875.234V39.0961H869.948V45.8855H875.917V52.4016H862.657V20.5049H875.917Z" fill="black"/>
<path d="M895.521 42.8326V46.1589C895.521 50.8523 895.84 52.4016 895.84 52.4016H888.549C888.549 52.4016 888.23 51.7637 888.23 49.4397V42.6503C888.23 39.005 887.364 38.2303 885.861 38.2303H885.633V52.4016H878.342V20.5049H887.319C893.288 20.5049 895.612 22.0542 895.612 27.431C895.612 32.6712 893.972 34.7217 888.777 34.7217V35.1774C893.698 35.1774 895.521 36.7266 895.521 42.8326ZM885.633 31.7143H887.319C888.549 31.7143 889.005 31.0308 889.005 29.3448C889.005 27.8411 888.549 27.0209 887.319 27.0209H885.633V31.7143Z" fill="black"/>
<path d="M203.739 23.8644C203.309 23.8644 202.977 23.7471 202.742 23.5125C202.508 23.2681 202.39 22.926 202.39 22.4862V14.6422C202.39 14.1926 202.508 13.8505 202.742 13.6159C202.977 13.3813 203.309 13.264 203.739 13.264C204.179 13.264 204.512 13.3813 204.736 13.6159C204.971 13.8505 205.088 14.1926 205.088 14.6422V17.3839H209.355V14.6422C209.355 14.1926 209.467 13.8505 209.692 13.6159C209.927 13.3813 210.264 13.264 210.704 13.264C211.134 13.264 211.461 13.3813 211.686 13.6159C211.921 13.8505 212.038 14.1926 212.038 14.6422V22.4862C212.038 22.926 211.921 23.2681 211.686 23.5125C211.461 23.7471 211.134 23.8644 210.704 23.8644C210.264 23.8644 209.927 23.7471 209.692 23.5125C209.467 23.2681 209.355 22.926 209.355 22.4862V19.5978H205.088V22.4862C205.088 22.926 204.976 23.2681 204.751 23.5125C204.526 23.7471 204.189 23.8644 203.739 23.8644ZM214.4 23.8644C214.097 23.8644 213.843 23.796 213.638 23.6591C213.433 23.5125 213.306 23.317 213.257 23.0726C213.208 22.8185 213.252 22.5351 213.389 22.2223L217.039 14.3636C217.215 13.9824 217.43 13.7038 217.685 13.5279C217.948 13.352 218.247 13.264 218.579 13.264C218.911 13.264 219.2 13.352 219.444 13.5279C219.698 13.7038 219.918 13.9824 220.104 14.3636L223.755 22.2223C223.911 22.5351 223.965 22.8185 223.916 23.0726C223.877 23.3268 223.755 23.5223 223.549 23.6591C223.354 23.796 223.109 23.8644 222.816 23.8644C222.425 23.8644 222.122 23.7764 221.907 23.6005C221.702 23.4245 221.516 23.1411 221.35 22.7501L220.558 20.8881L221.585 21.6358H215.544L216.585 20.8881L215.793 22.7501C215.617 23.1411 215.436 23.4245 215.251 23.6005C215.065 23.7764 214.782 23.8644 214.4 23.8644ZM218.55 16.211L216.849 20.2723L216.438 19.5685H220.705L220.294 20.2723L218.579 16.211H218.55ZM230.061 23.8937C228.917 23.8937 227.935 23.6738 227.114 23.2339C226.293 22.7941 225.662 22.1734 225.222 21.3719C224.792 20.5704 224.577 19.632 224.577 18.5568C224.577 17.7553 224.699 17.0271 224.944 16.3723C225.198 15.7174 225.56 15.1553 226.029 14.6862C226.508 14.217 227.084 13.8602 227.759 13.6159C228.443 13.3617 229.21 13.2347 230.061 13.2347C230.51 13.2347 230.975 13.2884 231.454 13.3959C231.942 13.4937 232.372 13.6452 232.744 13.8505C233.018 13.9971 233.208 14.1828 233.316 14.4076C233.423 14.6324 233.457 14.8621 233.418 15.0967C233.389 15.3313 233.306 15.5414 233.169 15.7271C233.032 15.9129 232.856 16.0399 232.641 16.1083C232.426 16.167 232.192 16.1328 231.937 16.0057C231.644 15.8689 231.351 15.7662 231.058 15.6978C230.774 15.6196 230.476 15.5805 230.163 15.5805C229.557 15.5805 229.049 15.6978 228.639 15.9324C228.238 16.1572 227.935 16.4896 227.73 16.9294C227.524 17.3693 227.422 17.9117 227.422 18.5568C227.422 19.202 227.524 19.7493 227.73 20.199C227.935 20.6388 228.238 20.976 228.639 21.2106C229.049 21.4354 229.557 21.5478 230.163 21.5478C230.418 21.5478 230.691 21.5185 230.984 21.4599C231.278 21.3914 231.566 21.2888 231.849 21.152C232.143 21.0249 232.402 20.9907 232.627 21.0493C232.861 21.108 233.047 21.2253 233.184 21.4012C233.33 21.5772 233.423 21.7824 233.462 22.017C233.501 22.2418 233.467 22.4666 233.36 22.6914C233.262 22.9163 233.086 23.0971 232.832 23.2339C232.49 23.4392 232.065 23.6005 231.556 23.7178C231.058 23.8351 230.559 23.8937 230.061 23.8937ZM236.284 23.8644C235.854 23.8644 235.522 23.7471 235.287 23.5125C235.053 23.2681 234.935 22.9309 234.935 22.5008V14.6275C234.935 14.1779 235.053 13.8407 235.287 13.6159C235.522 13.3813 235.854 13.264 236.284 13.264C236.724 13.264 237.056 13.3813 237.281 13.6159C237.516 13.8407 237.633 14.1779 237.633 14.6275V17.8238H237.662L241.225 13.8944C241.411 13.6989 241.606 13.5474 241.812 13.4399C242.027 13.3226 242.266 13.264 242.53 13.264C242.941 13.264 243.234 13.3715 243.41 13.5865C243.596 13.7918 243.679 14.0362 243.659 14.3196C243.649 14.5933 243.537 14.8474 243.322 15.082L239.774 18.8501V17.7505L243.498 21.9584C243.752 22.2418 243.879 22.5351 243.879 22.8381C243.879 23.1313 243.776 23.3757 243.571 23.5711C243.376 23.7666 243.082 23.8644 242.691 23.8644C242.359 23.8644 242.09 23.8008 241.885 23.6738C241.69 23.5369 241.475 23.3366 241.24 23.0726L237.662 19.07H237.633V22.5008C237.633 22.9309 237.521 23.2681 237.296 23.5125C237.071 23.7471 236.734 23.8644 236.284 23.8644ZM246.781 23.7324C246.321 23.7324 245.97 23.6151 245.725 23.3805C245.491 23.1362 245.373 22.7892 245.373 22.3396V14.7888C245.373 14.3392 245.491 13.9971 245.725 13.7625C245.97 13.5181 246.321 13.3959 246.781 13.3959H251.751C252.103 13.3959 252.367 13.4839 252.543 13.6598C252.719 13.8358 252.807 14.0899 252.807 14.4223C252.807 14.7644 252.719 15.0283 252.543 15.214C252.367 15.3899 252.103 15.4779 251.751 15.4779H247.954V17.4426H251.429C251.771 17.4426 252.03 17.5305 252.206 17.7065C252.391 17.8824 252.484 18.1414 252.484 18.4835C252.484 18.8256 252.391 19.0847 252.206 19.2606C252.03 19.4366 251.771 19.5245 251.429 19.5245H247.954V21.6505H251.751C252.103 21.6505 252.367 21.7433 252.543 21.929C252.719 22.105 252.807 22.3591 252.807 22.6914C252.807 23.0335 252.719 23.2926 252.543 23.4685C252.367 23.6445 252.103 23.7324 251.751 23.7324H246.781ZM255.728 23.8644C255.298 23.8644 254.966 23.7471 254.731 23.5125C254.497 23.2681 254.379 22.9309 254.379 22.5008V14.7595C254.379 14.3196 254.497 13.9824 254.731 13.7478C254.976 13.5132 255.313 13.3959 255.743 13.3959H259.35C260.523 13.3959 261.427 13.6843 262.062 14.261C262.707 14.8279 263.03 15.6196 263.03 16.6362C263.03 17.2911 262.883 17.8629 262.59 18.3516C262.306 18.8305 261.891 19.202 261.344 19.4659C260.806 19.72 260.141 19.8471 259.35 19.8471L259.467 19.5832H260.171C260.591 19.5832 260.962 19.6858 261.285 19.8911C261.608 20.0866 261.876 20.3896 262.091 20.8001L262.824 22.1196C262.981 22.4031 263.054 22.6817 263.044 22.9554C263.035 23.2193 262.927 23.4392 262.722 23.6151C262.526 23.7813 262.238 23.8644 261.857 23.8644C261.476 23.8644 261.163 23.7862 260.918 23.6298C260.684 23.4734 260.474 23.229 260.288 22.8967L258.954 20.4482C258.836 20.2332 258.685 20.0866 258.499 20.0084C258.323 19.9204 258.118 19.8764 257.883 19.8764H257.077V22.5008C257.077 22.9309 256.965 23.2681 256.74 23.5125C256.515 23.7471 256.178 23.8644 255.728 23.8644ZM257.077 17.9704H258.866C259.384 17.9704 259.78 17.8678 260.053 17.6625C260.327 17.4572 260.464 17.1396 260.464 16.7095C260.464 16.299 260.327 15.9911 260.053 15.7858C259.78 15.5708 259.384 15.4632 258.866 15.4632H257.077V17.9704ZM270.275 23.8644C269.845 23.8644 269.513 23.7471 269.278 23.5125C269.044 23.2681 268.926 22.926 268.926 22.4862V14.6422C268.926 14.1926 269.044 13.8505 269.278 13.6159C269.513 13.3813 269.845 13.264 270.275 13.264C270.715 13.264 271.048 13.3813 271.272 13.6159C271.507 13.8505 271.624 14.1926 271.624 14.6422V17.3839H275.891V14.6422C275.891 14.1926 276.003 13.8505 276.228 13.6159C276.463 13.3813 276.8 13.264 277.24 13.264C277.67 13.264 277.997 13.3813 278.222 13.6159C278.457 13.8505 278.574 14.1926 278.574 14.6422V22.4862C278.574 22.926 278.457 23.2681 278.222 23.5125C277.997 23.7471 277.67 23.8644 277.24 23.8644C276.8 23.8644 276.463 23.7471 276.228 23.5125C276.003 23.2681 275.891 22.926 275.891 22.4862V19.5978H271.624V22.4862C271.624 22.926 271.512 23.2681 271.287 23.5125C271.062 23.7471 270.725 23.8644 270.275 23.8644ZM285.437 23.8937C284.392 23.8937 283.473 23.6738 282.681 23.2339C281.889 22.7843 281.274 22.1587 280.834 21.3572C280.404 20.5557 280.189 19.6223 280.189 18.5568C280.189 17.7553 280.311 17.0271 280.555 16.3723C280.809 15.7174 281.166 15.1553 281.625 14.6862C282.095 14.217 282.652 13.8602 283.297 13.6159C283.942 13.3617 284.655 13.2347 285.437 13.2347C286.483 13.2347 287.397 13.4546 288.179 13.8944C288.971 14.3343 289.587 14.955 290.027 15.7565C290.466 16.5482 290.686 17.4817 290.686 18.5568C290.686 19.3584 290.559 20.0866 290.305 20.7414C290.061 21.3963 289.704 21.9632 289.235 22.4422C288.775 22.9114 288.223 23.273 287.578 23.5272C286.933 23.7715 286.219 23.8937 285.437 23.8937ZM285.437 21.6358C285.955 21.6358 286.395 21.5136 286.757 21.2693C287.119 21.0249 287.397 20.673 287.593 20.2136C287.788 19.7542 287.886 19.202 287.886 18.5568C287.886 17.5892 287.671 16.8365 287.241 16.299C286.811 15.7614 286.21 15.4926 285.437 15.4926C284.929 15.4926 284.489 15.6147 284.118 15.8591C283.756 16.0937 283.478 16.4407 283.282 16.9001C283.087 17.3497 282.989 17.902 282.989 18.5568C282.989 19.5245 283.204 20.282 283.634 20.8294C284.064 21.367 284.665 21.6358 285.437 21.6358ZM296.854 23.8937C296.101 23.8937 295.436 23.8008 294.86 23.6151C294.283 23.4196 293.794 23.1313 293.393 22.7501C293.002 22.3689 292.704 21.8948 292.499 21.3279C292.304 20.7512 292.206 20.0866 292.206 19.3339V14.6275C292.206 14.1779 292.323 13.8407 292.558 13.6159C292.792 13.3813 293.125 13.264 293.555 13.264C293.995 13.264 294.327 13.3813 294.552 13.6159C294.786 13.8407 294.904 14.1779 294.904 14.6275V19.3632C294.904 20.1159 295.07 20.6828 295.402 21.064C295.734 21.4452 296.218 21.6358 296.854 21.6358C297.479 21.6358 297.958 21.4452 298.29 21.064C298.623 20.6828 298.789 20.1159 298.789 19.3632V14.6275C298.789 14.1779 298.901 13.8407 299.126 13.6159C299.361 13.3813 299.693 13.264 300.123 13.264C300.553 13.264 300.881 13.3813 301.105 13.6159C301.33 13.8407 301.443 14.1779 301.443 14.6275V19.3339C301.443 20.3407 301.267 21.1862 300.915 21.8704C300.573 22.5448 300.06 23.0531 299.375 23.3952C298.691 23.7275 297.851 23.8937 296.854 23.8937ZM307.088 23.8937C306.697 23.8937 306.287 23.8644 305.857 23.8057C305.436 23.7569 305.036 23.6787 304.654 23.5711C304.273 23.4636 303.931 23.3366 303.628 23.1899C303.364 23.0629 303.178 22.8967 303.071 22.6914C302.963 22.4764 302.924 22.2516 302.954 22.017C302.983 21.7824 303.066 21.5772 303.203 21.4012C303.34 21.2155 303.52 21.0933 303.745 21.0347C303.97 20.9663 304.224 20.9956 304.508 21.1226C304.879 21.2986 305.299 21.4354 305.769 21.5332C306.238 21.6309 306.678 21.6798 307.088 21.6798C307.733 21.6798 308.183 21.5967 308.437 21.4305C308.701 21.2546 308.833 21.0396 308.833 20.7854C308.833 20.5606 308.74 20.3798 308.554 20.2429C308.378 20.1061 308.061 19.9888 307.601 19.8911L305.886 19.5245C304.948 19.329 304.249 18.9869 303.789 18.4982C303.33 18.0095 303.1 17.379 303.1 16.6068C303.1 16.0986 303.203 15.6392 303.408 15.2286C303.623 14.8083 303.921 14.4516 304.302 14.1583C304.693 13.8651 305.153 13.6403 305.681 13.4839C306.218 13.3177 306.814 13.2347 307.469 13.2347C307.978 13.2347 308.491 13.2933 309.009 13.4106C309.537 13.5181 309.991 13.6843 310.372 13.9091C310.597 14.0264 310.758 14.1877 310.856 14.3929C310.954 14.5982 310.993 14.8132 310.973 15.038C310.954 15.2531 310.876 15.4437 310.739 15.6099C310.612 15.776 310.436 15.8884 310.211 15.9471C309.996 15.9959 309.737 15.9568 309.434 15.8298C309.151 15.7027 308.828 15.6099 308.466 15.5512C308.114 15.4828 307.772 15.4486 307.44 15.4486C307.078 15.4486 306.77 15.4926 306.516 15.5805C306.262 15.6587 306.067 15.776 305.93 15.9324C305.803 16.0888 305.739 16.2696 305.739 16.4749C305.739 16.6802 305.822 16.8561 305.989 17.0027C306.164 17.1396 306.482 17.2568 306.942 17.3546L308.642 17.7211C309.59 17.9264 310.299 18.2636 310.768 18.7328C311.237 19.202 311.472 19.8129 311.472 20.5655C311.472 21.0738 311.369 21.5332 311.164 21.9437C310.959 22.3542 310.666 22.7061 310.284 22.9993C309.903 23.2828 309.444 23.5027 308.906 23.6591C308.369 23.8155 307.763 23.8937 307.088 23.8937ZM314.204 23.7324C313.745 23.7324 313.393 23.6151 313.149 23.3805C312.914 23.1362 312.797 22.7892 312.797 22.3396V14.7888C312.797 14.3392 312.914 13.9971 313.149 13.7625C313.393 13.5181 313.745 13.3959 314.204 13.3959H319.175C319.527 13.3959 319.791 13.4839 319.966 13.6598C320.142 13.8358 320.23 14.0899 320.23 14.4223C320.23 14.7644 320.142 15.0283 319.966 15.214C319.791 15.3899 319.527 15.4779 319.175 15.4779H315.377V17.4426H318.852C319.194 17.4426 319.453 17.5305 319.629 17.7065C319.815 17.8824 319.908 18.1414 319.908 18.4835C319.908 18.8256 319.815 19.0847 319.629 19.2606C319.453 19.4366 319.194 19.5245 318.852 19.5245H315.377V21.6505H319.175C319.527 21.6505 319.791 21.7433 319.966 21.929C320.142 22.105 320.23 22.3591 320.23 22.6914C320.23 23.0335 320.142 23.2926 319.966 23.4685C319.791 23.6445 319.527 23.7324 319.175 23.7324H314.204ZM331.276 23.8937C330.094 23.8937 329.087 23.6738 328.256 23.2339C327.435 22.7941 326.809 22.1783 326.379 21.3866C325.949 20.5948 325.734 19.6711 325.734 18.6155C325.734 17.7944 325.861 17.0565 326.115 16.4016C326.379 15.7369 326.756 15.17 327.244 14.7008C327.733 14.2219 328.329 13.8602 329.033 13.6159C329.747 13.3617 330.553 13.2347 331.452 13.2347C331.941 13.2347 332.44 13.2835 332.948 13.3813C333.456 13.4692 333.955 13.6403 334.443 13.8944C334.697 14.0117 334.868 14.1779 334.956 14.3929C335.054 14.5982 335.084 14.8181 335.044 15.0527C335.015 15.2775 334.932 15.4877 334.795 15.6832C334.668 15.8689 334.492 15.9959 334.267 16.0644C334.043 16.123 333.788 16.0888 333.505 15.9617C333.212 15.8249 332.894 15.7223 332.552 15.6538C332.21 15.5756 331.848 15.5365 331.467 15.5365C330.812 15.5365 330.265 15.6538 329.825 15.8884C329.395 16.123 329.072 16.47 328.857 16.9294C328.642 17.3888 328.535 17.9508 328.535 18.6155C328.535 19.6125 328.779 20.3651 329.268 20.8734C329.756 21.3817 330.48 21.6358 331.438 21.6358C331.731 21.6358 332.049 21.6065 332.391 21.5478C332.743 21.4892 333.094 21.4061 333.446 21.2986L332.948 22.3102V19.8031H331.921C331.589 19.8031 331.33 19.72 331.144 19.5538C330.968 19.3877 330.881 19.1531 330.881 18.8501C330.881 18.5471 330.968 18.3174 331.144 18.161C331.33 17.9948 331.589 17.9117 331.921 17.9117H334.091C334.434 17.9117 334.693 18.0046 334.868 18.1903C335.054 18.3662 335.147 18.6253 335.147 18.9674V22.2076C335.147 22.5008 335.084 22.7501 334.956 22.9554C334.839 23.1606 334.649 23.3072 334.385 23.3952C333.925 23.5516 333.427 23.6738 332.889 23.7617C332.352 23.8497 331.814 23.8937 331.276 23.8937ZM341.936 23.8937C340.891 23.8937 339.972 23.6738 339.18 23.2339C338.388 22.7843 337.773 22.1587 337.333 21.3572C336.903 20.5557 336.688 19.6223 336.688 18.5568C336.688 17.7553 336.81 17.0271 337.054 16.3723C337.308 15.7174 337.665 15.1553 338.124 14.6862C338.594 14.217 339.151 13.8602 339.796 13.6159C340.441 13.3617 341.154 13.2347 341.936 13.2347C342.982 13.2347 343.896 13.4546 344.678 13.8944C345.47 14.3343 346.086 14.955 346.526 15.7565C346.965 16.5482 347.185 17.4817 347.185 18.5568C347.185 19.3584 347.058 20.0866 346.804 20.7414C346.56 21.3963 346.203 21.9632 345.734 22.4422C345.274 22.9114 344.722 23.273 344.077 23.5272C343.432 23.7715 342.718 23.8937 341.936 23.8937ZM341.936 21.6358C342.454 21.6358 342.894 21.5136 343.256 21.2693C343.618 21.0249 343.896 20.673 344.092 20.2136C344.287 19.7542 344.385 19.202 344.385 18.5568C344.385 17.5892 344.17 16.8365 343.74 16.299C343.31 15.7614 342.709 15.4926 341.936 15.4926C341.428 15.4926 340.988 15.6147 340.617 15.8591C340.255 16.0937 339.977 16.4407 339.781 16.9001C339.586 17.3497 339.488 17.902 339.488 18.5568C339.488 19.5245 339.703 20.282 340.133 20.8294C340.563 21.367 341.164 21.6358 341.936 21.6358ZM349.004 23.8644C348.701 23.8644 348.447 23.796 348.242 23.6591C348.037 23.5125 347.91 23.317 347.861 23.0726C347.812 22.8185 347.856 22.5351 347.993 22.2223L351.643 14.3636C351.819 13.9824 352.034 13.7038 352.288 13.5279C352.552 13.352 352.851 13.264 353.183 13.264C353.515 13.264 353.804 13.352 354.048 13.5279C354.302 13.7038 354.522 13.9824 354.708 14.3636L358.358 22.2223C358.515 22.5351 358.569 22.8185 358.52 23.0726C358.481 23.3268 358.358 23.5223 358.153 23.6591C357.958 23.796 357.713 23.8644 357.42 23.8644C357.029 23.8644 356.726 23.7764 356.511 23.6005C356.306 23.4245 356.12 23.1411 355.954 22.7501L355.162 20.8881L356.188 21.6358H350.148L351.189 20.8881L350.397 22.7501C350.221 23.1411 350.04 23.4245 349.855 23.6005C349.669 23.7764 349.385 23.8644 349.004 23.8644ZM353.154 16.211L351.453 20.2723L351.042 19.5685H355.309L354.898 20.2723L353.183 16.211H353.154Z" fill="#F24405"/>
<path d="M205.851 41.4879C204.58 41.4879 203.603 41.0237 202.918 40.0951C202.244 39.1567 201.907 37.8323 201.907 36.1218C201.907 34.9684 202.058 34.0007 202.361 33.2188C202.664 32.427 203.109 31.8308 203.695 31.43C204.282 31.0293 205 30.8289 205.851 30.8289C207.131 30.8289 208.109 31.2785 208.783 32.1778C209.457 33.077 209.795 34.3868 209.795 36.1071C209.795 37.2507 209.643 38.2233 209.34 39.0248C209.037 39.8263 208.592 40.4372 208.006 40.8575C207.419 41.2778 206.701 41.4879 205.851 41.4879ZM205.851 39.3473C206.32 39.3473 206.667 39.0932 206.892 38.5849C207.126 38.0669 207.244 37.2409 207.244 36.1071C207.244 34.983 207.126 34.1815 206.892 33.7026C206.667 33.2139 206.32 32.9695 205.851 32.9695C205.381 32.9695 205.03 33.2139 204.795 33.7026C204.57 34.1815 204.458 34.983 204.458 36.1071C204.458 37.2409 204.57 38.0669 204.795 38.5849C205.03 39.0932 205.381 39.3473 205.851 39.3473ZM216.196 41.4586C215.786 41.4586 215.463 41.3462 215.228 41.1214C215.004 40.8966 214.891 40.5643 214.891 40.1244V39.5966H211.944C211.514 39.5966 211.177 39.4988 210.933 39.3033C210.698 39.1079 210.581 38.8097 210.581 38.409C210.581 38.1744 210.625 37.9496 210.713 37.7345C210.801 37.5097 210.957 37.2409 211.182 36.9282L214.759 31.7086C214.955 31.4154 215.175 31.2003 215.419 31.0635C215.663 30.9266 215.952 30.8582 216.284 30.8582C216.655 30.8582 216.949 30.9706 217.164 31.1954C217.379 31.4105 217.486 31.7428 217.486 32.1924V37.5586H217.838C218.21 37.5586 218.488 37.6466 218.674 37.8225C218.869 37.9985 218.967 38.2477 218.967 38.5703C218.967 38.9026 218.869 39.1567 218.674 39.3327C218.488 39.5086 218.21 39.5966 217.838 39.5966H217.486V40.1244C217.486 40.5545 217.374 40.8868 217.149 41.1214C216.934 41.3462 216.616 41.4586 216.196 41.4586ZM214.891 37.5586V34.0985H215.302L212.545 38.1891V37.5586H214.891ZM220.853 38.409C220.56 38.409 220.315 38.3112 220.12 38.1158C219.924 37.9203 219.826 37.6759 219.826 37.3827C219.826 37.0894 219.924 36.85 220.12 36.6642C220.315 36.4688 220.56 36.371 220.853 36.371H223.756C224.049 36.371 224.293 36.4688 224.489 36.6642C224.684 36.85 224.782 37.0894 224.782 37.3827C224.782 37.6759 224.684 37.9203 224.489 38.1158C224.293 38.3112 224.049 38.409 223.756 38.409H220.853ZM229.962 41.4879C228.692 41.4879 227.714 41.0237 227.03 40.0951C226.355 39.1567 226.018 37.8323 226.018 36.1218C226.018 34.9684 226.17 34.0007 226.473 33.2188C226.776 32.427 227.221 31.8308 227.807 31.43C228.393 31.0293 229.112 30.8289 229.962 30.8289C231.243 30.8289 232.22 31.2785 232.895 32.1778C233.569 33.077 233.906 34.3868 233.906 36.1071C233.906 37.2507 233.755 38.2233 233.452 39.0248C233.149 39.8263 232.704 40.4372 232.118 40.8575C231.531 41.2778 230.813 41.4879 229.962 41.4879ZM229.962 39.3473C230.431 39.3473 230.778 39.0932 231.003 38.5849C231.238 38.0669 231.355 37.2409 231.355 36.1071C231.355 34.983 231.238 34.1815 231.003 33.7026C230.778 33.2139 230.431 32.9695 229.962 32.9695C229.493 32.9695 229.141 33.2139 228.907 33.7026C228.682 34.1815 228.569 34.983 228.569 36.1071C228.569 37.2409 228.682 38.0669 228.907 38.5849C229.141 39.0932 229.493 39.3473 229.962 39.3473ZM237.844 41.4879C237.444 41.4879 237.038 41.4391 236.628 41.3413C236.217 41.2436 235.826 41.097 235.455 40.9015C235.22 40.7842 235.059 40.6278 234.971 40.4323C234.883 40.227 234.849 40.0169 234.868 39.8018C234.897 39.577 234.976 39.3815 235.103 39.2154C235.23 39.0394 235.396 38.9173 235.601 38.8488C235.816 38.7804 236.056 38.8049 236.32 38.9221C236.613 39.059 236.887 39.1518 237.141 39.2007C237.395 39.2496 237.639 39.274 237.874 39.274C238.363 39.274 238.768 39.1763 239.091 38.9808C239.423 38.7755 239.667 38.4725 239.824 38.0718C239.99 37.6612 240.073 37.153 240.073 36.547V35.7845H240.293C240.215 36.1951 240.054 36.5518 239.809 36.8548C239.575 37.1579 239.281 37.3876 238.929 37.5439C238.587 37.7003 238.201 37.7785 237.771 37.7785C237.204 37.7785 236.691 37.6368 236.232 37.3533C235.782 37.0601 235.425 36.6594 235.161 36.1511C234.897 35.633 234.766 35.0563 234.766 34.421C234.766 33.7172 234.917 33.0966 235.22 32.559C235.523 32.0214 235.943 31.6011 236.481 31.2981C237.028 30.9853 237.649 30.8289 238.343 30.8289C239.252 30.8289 240.019 31.0342 240.645 31.4447C241.28 31.8552 241.764 32.4515 242.096 33.2334C242.429 34.0056 242.595 34.9488 242.595 36.0631C242.595 36.9135 242.487 37.6759 242.272 38.3503C242.057 39.0248 241.744 39.5966 241.334 40.0658C240.923 40.5252 240.425 40.877 239.838 41.1214C239.252 41.3658 238.587 41.4879 237.844 41.4879ZM238.49 35.7259C238.744 35.7259 238.964 35.6673 239.149 35.55C239.345 35.4229 239.491 35.2567 239.589 35.0515C239.697 34.8364 239.751 34.5872 239.751 34.3037C239.751 34.0105 239.697 33.7563 239.589 33.5413C239.491 33.3263 239.345 33.165 239.149 33.0575C238.964 32.9402 238.744 32.8815 238.49 32.8815C238.235 32.8815 238.016 32.9402 237.83 33.0575C237.644 33.165 237.497 33.3263 237.39 33.5413C237.282 33.7563 237.229 34.0105 237.229 34.3037C237.229 34.5872 237.282 34.8364 237.39 35.0515C237.497 35.2567 237.644 35.4229 237.83 35.55C238.016 35.6673 238.235 35.7259 238.49 35.7259ZM248.764 41.4586C248.461 41.4586 248.207 41.3902 248.001 41.2534C247.796 41.1067 247.669 40.9112 247.62 40.6669C247.571 40.4127 247.615 40.1293 247.752 39.8165L251.403 31.9578C251.579 31.5766 251.794 31.2981 252.048 31.1221C252.312 30.9462 252.61 30.8582 252.942 30.8582C253.275 30.8582 253.563 30.9462 253.807 31.1221C254.061 31.2981 254.281 31.5766 254.467 31.9578L258.118 39.8165C258.274 40.1293 258.328 40.4127 258.279 40.6669C258.24 40.921 258.118 41.1165 257.913 41.2534C257.717 41.3902 257.473 41.4586 257.179 41.4586C256.788 41.4586 256.485 41.3706 256.27 41.1947C256.065 41.0188 255.879 40.7353 255.713 40.3443L254.922 38.4823L255.948 39.23H249.907L250.948 38.4823L250.157 40.3443C249.981 40.7353 249.8 41.0188 249.614 41.1947C249.428 41.3706 249.145 41.4586 248.764 41.4586ZM252.913 33.8052L251.212 37.8665L250.802 37.1627H255.068L254.658 37.8665L252.942 33.8052H252.913ZM263.965 41.4879C263.212 41.4879 262.548 41.3951 261.971 41.2094C261.394 41.0139 260.906 40.7255 260.505 40.3443C260.114 39.9631 259.816 39.4891 259.611 38.9221C259.415 38.3455 259.317 37.6808 259.317 36.9282V32.2218C259.317 31.7721 259.435 31.4349 259.669 31.2101C259.904 30.9755 260.236 30.8582 260.666 30.8582C261.106 30.8582 261.438 30.9755 261.663 31.2101C261.898 31.4349 262.015 31.7721 262.015 32.2218V36.9575C262.015 37.7101 262.181 38.277 262.514 38.6582C262.846 39.0394 263.33 39.23 263.965 39.23C264.591 39.23 265.07 39.0394 265.402 38.6582C265.734 38.277 265.9 37.7101 265.9 36.9575V32.2218C265.9 31.7721 266.013 31.4349 266.238 31.2101C266.472 30.9755 266.805 30.8582 267.235 30.8582C267.665 30.8582 267.992 30.9755 268.217 31.2101C268.442 31.4349 268.554 31.7721 268.554 32.2218V36.9282C268.554 37.9349 268.378 38.7804 268.026 39.4646C267.684 40.1391 267.171 40.6473 266.487 40.9894C265.803 41.3218 264.962 41.4879 263.965 41.4879ZM275.636 41.4879C274.454 41.4879 273.447 41.268 272.616 40.8282C271.795 40.3883 271.17 39.7725 270.739 38.9808C270.309 38.1891 270.094 37.2654 270.094 36.2097C270.094 35.3887 270.221 34.6507 270.476 33.9958C270.739 33.3312 271.116 32.7642 271.604 32.2951C272.093 31.8161 272.689 31.4545 273.393 31.2101C274.107 30.956 274.913 30.8289 275.812 30.8289C276.301 30.8289 276.8 30.8778 277.308 30.9755C277.816 31.0635 278.315 31.2345 278.803 31.4887C279.058 31.606 279.229 31.7721 279.317 31.9872C279.414 32.1924 279.444 32.4124 279.405 32.6469C279.375 32.8718 279.292 33.0819 279.155 33.2774C279.028 33.4631 278.852 33.5902 278.627 33.6586C278.403 33.7172 278.148 33.683 277.865 33.556C277.572 33.4191 277.254 33.3165 276.912 33.2481C276.57 33.1699 276.208 33.1308 275.827 33.1308C275.172 33.1308 274.625 33.2481 274.185 33.4827C273.755 33.7172 273.432 34.0642 273.217 34.5236C273.002 34.983 272.895 35.5451 272.895 36.2097C272.895 37.2067 273.139 37.9594 273.628 38.4676C274.117 38.9759 274.84 39.23 275.798 39.23C276.091 39.23 276.409 39.2007 276.751 39.1421C277.103 39.0834 277.454 39.0003 277.806 38.8928L277.308 39.9045V37.3973H276.282C275.949 37.3973 275.69 37.3142 275.504 37.1481C275.329 36.9819 275.241 36.7473 275.241 36.4443C275.241 36.1413 275.329 35.9116 275.504 35.7552C275.69 35.5891 275.949 35.506 276.282 35.506H278.451C278.794 35.506 279.053 35.5988 279.229 35.7845C279.414 35.9605 279.507 36.2195 279.507 36.5616V39.8018C279.507 40.0951 279.444 40.3443 279.317 40.5496C279.199 40.7549 279.009 40.9015 278.745 40.9894C278.285 41.1458 277.787 41.268 277.249 41.356C276.712 41.444 276.174 41.4879 275.636 41.4879ZM286.68 41.3267C286.25 41.3267 285.937 41.2289 285.741 41.0334C285.556 40.8282 285.463 40.53 285.463 40.1391C285.463 39.8654 285.521 39.621 285.639 39.406C285.766 39.1909 285.927 38.9808 286.123 38.7755L288.688 36.0924C289.07 35.6819 289.338 35.33 289.495 35.0368C289.661 34.7436 289.744 34.4503 289.744 34.1571C289.744 33.7857 289.622 33.5071 289.377 33.3214C289.133 33.1357 288.781 33.0428 288.322 33.0428C288.087 33.0428 287.838 33.077 287.574 33.1454C287.31 33.2041 287.027 33.3116 286.724 33.468C286.46 33.5853 286.22 33.6195 286.005 33.5706C285.8 33.5218 285.624 33.4142 285.477 33.2481C285.341 33.0819 285.253 32.8913 285.214 32.6763C285.184 32.4612 285.218 32.2511 285.316 32.0458C285.414 31.8308 285.59 31.6548 285.844 31.518C286.294 31.2736 286.758 31.0977 287.237 30.9902C287.726 30.8827 288.214 30.8289 288.703 30.8289C289.504 30.8289 290.174 30.9462 290.712 31.1808C291.259 31.4154 291.674 31.7575 291.958 32.2071C292.241 32.6469 292.383 33.1943 292.383 33.8492C292.383 34.2597 292.32 34.6605 292.192 35.0515C292.075 35.4424 291.88 35.8334 291.606 36.2244C291.342 36.6154 290.985 37.0308 290.536 37.4706L288.161 39.8165V39.1421H291.782C292.144 39.1421 292.417 39.2349 292.603 39.4206C292.798 39.6064 292.896 39.8752 292.896 40.227C292.896 40.5789 292.798 40.8526 292.603 41.0481C292.417 41.2338 292.144 41.3267 291.782 41.3267H286.68ZM297.758 41.4879C296.487 41.4879 295.51 41.0237 294.826 40.0951C294.151 39.1567 293.814 37.8323 293.814 36.1218C293.814 34.9684 293.966 34.0007 294.269 33.2188C294.572 32.427 295.016 31.8308 295.603 31.43C296.189 31.0293 296.908 30.8289 297.758 30.8289C299.039 30.8289 300.016 31.2785 300.691 32.1778C301.365 33.077 301.702 34.3868 301.702 36.1071C301.702 37.2507 301.551 38.2233 301.248 39.0248C300.945 39.8263 300.5 40.4372 299.913 40.8575C299.327 41.2778 298.609 41.4879 297.758 41.4879ZM297.758 39.3473C298.227 39.3473 298.574 39.0932 298.799 38.5849C299.034 38.0669 299.151 37.2409 299.151 36.1071C299.151 34.983 299.034 34.1815 298.799 33.7026C298.574 33.2139 298.227 32.9695 297.758 32.9695C297.289 32.9695 296.937 33.2139 296.703 33.7026C296.478 34.1815 296.365 34.983 296.365 36.1071C296.365 37.2409 296.478 38.0669 296.703 38.5849C296.937 39.0932 297.289 39.3473 297.758 39.3473ZM304.262 41.3267C303.832 41.3267 303.519 41.2289 303.324 41.0334C303.138 40.8282 303.045 40.53 303.045 40.1391C303.045 39.8654 303.104 39.621 303.221 39.406C303.348 39.1909 303.51 38.9808 303.705 38.7755L306.271 36.0924C306.652 35.6819 306.921 35.33 307.077 35.0368C307.243 34.7436 307.327 34.4503 307.327 34.1571C307.327 33.7857 307.204 33.5071 306.96 33.3214C306.716 33.1357 306.364 33.0428 305.904 33.0428C305.67 33.0428 305.421 33.077 305.157 33.1454C304.893 33.2041 304.609 33.3116 304.306 33.468C304.042 33.5853 303.803 33.6195 303.588 33.5706C303.383 33.5218 303.207 33.4142 303.06 33.2481C302.923 33.0819 302.835 32.8913 302.796 32.6763C302.767 32.4612 302.801 32.2511 302.899 32.0458C302.996 31.8308 303.172 31.6548 303.427 31.518C303.876 31.2736 304.34 31.0977 304.819 30.9902C305.308 30.8827 305.797 30.8289 306.286 30.8289C307.087 30.8289 307.757 30.9462 308.294 31.1808C308.842 31.4154 309.257 31.7575 309.54 32.2071C309.824 32.6469 309.966 33.1943 309.966 33.8492C309.966 34.2597 309.902 34.6605 309.775 35.0515C309.658 35.4424 309.462 35.8334 309.189 36.2244C308.925 36.6154 308.568 37.0308 308.118 37.4706L305.743 39.8165V39.1421H309.364C309.726 39.1421 310 39.2349 310.186 39.4206C310.381 39.6064 310.479 39.8752 310.479 40.227C310.479 40.5789 310.381 40.8526 310.186 41.0481C310 41.2338 309.726 41.3267 309.364 41.3267H304.262ZM316.895 41.4586C316.484 41.4586 316.162 41.3462 315.927 41.1214C315.702 40.8966 315.59 40.5643 315.59 40.1244V39.5966H312.643C312.213 39.5966 311.876 39.4988 311.631 39.3033C311.397 39.1079 311.279 38.8097 311.279 38.409C311.279 38.1744 311.323 37.9496 311.411 37.7345C311.499 37.5097 311.656 37.2409 311.881 36.9282L315.458 31.7086C315.654 31.4154 315.873 31.2003 316.118 31.0635C316.362 30.9266 316.651 30.8582 316.983 30.8582C317.354 30.8582 317.648 30.9706 317.863 31.1954C318.078 31.4105 318.185 31.7428 318.185 32.1924V37.5586H318.537C318.908 37.5586 319.187 37.6466 319.373 37.8225C319.568 37.9985 319.666 38.2477 319.666 38.5703C319.666 38.9026 319.568 39.1567 319.373 39.3327C319.187 39.5086 318.908 39.5966 318.537 39.5966H318.185V40.1244C318.185 40.5545 318.073 40.8868 317.848 41.1214C317.633 41.3462 317.315 41.4586 316.895 41.4586ZM315.59 37.5586V34.0985H316.001L313.244 38.1891V37.5586H315.59Z" fill="#F24405"/>
<path d="M206.261 59.0822C205.352 59.0822 204.58 58.8769 203.945 58.4664C203.319 58.0559 202.84 57.4645 202.508 56.6923C202.175 55.9104 202.009 54.9622 202.009 53.848C202.009 52.9976 202.117 52.2352 202.332 51.5607C202.547 50.8863 202.86 50.3194 203.27 49.86C203.681 49.3908 204.179 49.034 204.766 48.7897C205.352 48.5453 206.017 48.4231 206.76 48.4231C207.16 48.4231 207.566 48.472 207.977 48.5698C208.387 48.6675 208.778 48.8141 209.15 49.0096C209.384 49.1269 209.545 49.2882 209.633 49.4934C209.721 49.6889 209.751 49.8991 209.721 50.1239C209.702 50.3389 209.628 50.5344 209.501 50.7104C209.374 50.8765 209.203 50.9938 208.988 51.0622C208.783 51.1307 208.548 51.1062 208.284 50.9889C207.991 50.8521 207.718 50.7592 207.463 50.7104C207.209 50.6615 206.965 50.6371 206.73 50.6371C206.242 50.6371 205.836 50.7397 205.513 50.9449C205.191 51.1404 204.947 51.4434 204.78 51.854C204.614 52.2547 204.531 52.7581 204.531 53.3641V54.1265H204.311C204.399 53.7062 204.56 53.3495 204.795 53.0562C205.03 52.7532 205.318 52.5235 205.66 52.3671C206.012 52.2107 206.403 52.1325 206.833 52.1325C207.41 52.1325 207.923 52.2792 208.372 52.5724C208.822 52.8559 209.179 53.2517 209.443 53.76C209.707 54.2683 209.839 54.845 209.839 55.4901C209.839 56.1938 209.687 56.8145 209.384 57.3521C209.081 57.8897 208.661 58.3149 208.123 58.6277C207.586 58.9307 206.965 59.0822 206.261 59.0822ZM206.115 57.0295C206.369 57.0295 206.589 56.9709 206.774 56.8536C206.97 56.7363 207.116 56.5701 207.214 56.3551C207.322 56.1401 207.375 55.8908 207.375 55.6074C207.375 55.3141 207.322 55.0649 207.214 54.8596C207.116 54.6446 206.97 54.4784 206.774 54.3611C206.589 54.234 206.369 54.1705 206.115 54.1705C205.87 54.1705 205.65 54.234 205.455 54.3611C205.269 54.4784 205.122 54.6446 205.015 54.8596C204.907 55.0649 204.854 55.3141 204.854 55.6074C204.854 55.8908 204.907 56.1401 205.015 56.3551C205.122 56.5701 205.269 56.7363 205.455 56.8536C205.65 56.9709 205.87 57.0295 206.115 57.0295ZM216.784 58.9209C216.325 58.9209 215.973 58.8036 215.729 58.569C215.494 58.3247 215.377 57.9777 215.377 57.528V49.9773C215.377 49.5277 215.494 49.1855 215.729 48.951C215.973 48.7066 216.325 48.5844 216.784 48.5844H219.658C221.457 48.5844 222.845 49.034 223.822 49.9333C224.809 50.8325 225.303 52.1032 225.303 53.7453C225.303 54.5664 225.176 55.2995 224.922 55.9446C224.668 56.5799 224.301 57.1224 223.822 57.572C223.343 58.0119 222.752 58.3491 222.048 58.5837C221.354 58.8085 220.557 58.9209 219.658 58.9209H216.784ZM218.075 56.7363H219.482C220 56.7363 220.445 56.6728 220.816 56.5457C221.198 56.4186 221.51 56.2329 221.755 55.9886C222.009 55.7442 222.195 55.4363 222.312 55.0649C222.439 54.6934 222.503 54.2536 222.503 53.7453C222.503 52.7288 222.253 51.981 221.755 51.5021C221.256 51.0134 220.499 50.769 219.482 50.769H218.075V56.7363ZM227.129 59.0529C226.826 59.0529 226.572 58.9844 226.367 58.8476C226.161 58.701 226.034 58.5055 225.985 58.2611C225.937 58.007 225.981 57.7235 226.117 57.4107L229.768 49.5521C229.944 49.1709 230.159 48.8923 230.413 48.7164C230.677 48.5404 230.975 48.4525 231.308 48.4525C231.64 48.4525 231.928 48.5404 232.173 48.7164C232.427 48.8923 232.647 49.1709 232.832 49.5521L236.483 57.4107C236.64 57.7235 236.693 58.007 236.645 58.2611C236.605 58.5153 236.483 58.7107 236.278 58.8476C236.082 58.9844 235.838 59.0529 235.545 59.0529C235.154 59.0529 234.851 58.9649 234.636 58.7889C234.431 58.613 234.245 58.3295 234.079 57.9386L233.287 56.0765L234.313 56.8243H228.273L229.314 56.0765L228.522 57.9386C228.346 58.3295 228.165 58.613 227.979 58.7889C227.794 58.9649 227.51 59.0529 227.129 59.0529ZM231.278 51.3995L229.578 55.4607L229.167 54.757H233.434L233.023 55.4607L231.308 51.3995H231.278ZM240.651 59.0529C240.221 59.0529 239.889 58.9356 239.654 58.701C239.419 58.4566 239.302 58.1096 239.302 57.66V53.6427L239.859 55.1235L236.487 50.2705C236.321 50.0359 236.248 49.7769 236.267 49.4934C236.297 49.2002 236.414 48.9558 236.619 48.7604C236.834 48.5551 237.137 48.4525 237.528 48.4525C237.802 48.4525 238.051 48.5209 238.276 48.6577C238.501 48.7848 238.711 49.0047 238.906 49.3175L240.959 52.3378H240.431L242.484 49.3028C242.689 48.9901 242.899 48.7701 243.114 48.6431C243.329 48.516 243.583 48.4525 243.877 48.4525C244.248 48.4525 244.536 48.5453 244.742 48.731C244.947 48.9167 245.054 49.1513 245.064 49.4348C245.084 49.7183 244.996 50.0066 244.8 50.2998L241.457 55.1235L242 53.6427V57.66C242 58.5886 241.55 59.0529 240.651 59.0529ZM249.845 59.0822C249.454 59.0822 249.043 59.0529 248.613 58.9942C248.193 58.9453 247.792 58.8671 247.411 58.7596C247.03 58.6521 246.687 58.525 246.384 58.3784C246.121 58.2513 245.935 58.0852 245.827 57.8799C245.72 57.6649 245.681 57.4401 245.71 57.2055C245.739 56.9709 245.822 56.7656 245.959 56.5897C246.096 56.404 246.277 56.2818 246.502 56.2231C246.727 56.1547 246.981 56.1841 247.264 56.3111C247.636 56.4871 248.056 56.6239 248.525 56.7216C248.994 56.8194 249.434 56.8683 249.845 56.8683C250.49 56.8683 250.939 56.7852 251.193 56.619C251.457 56.4431 251.589 56.228 251.589 55.9739C251.589 55.7491 251.496 55.5683 251.311 55.4314C251.135 55.2946 250.817 55.1773 250.358 55.0795L248.642 54.713C247.704 54.5175 247.005 54.1754 246.546 53.6867C246.086 53.198 245.857 52.5675 245.857 51.7953C245.857 51.2871 245.959 50.8277 246.165 50.4171C246.38 49.9968 246.678 49.6401 247.059 49.3468C247.45 49.0536 247.909 48.8288 248.437 48.6724C248.975 48.5062 249.571 48.4231 250.226 48.4231C250.734 48.4231 251.247 48.4818 251.765 48.5991C252.293 48.7066 252.748 48.8728 253.129 49.0976C253.354 49.2149 253.515 49.3761 253.613 49.5814C253.71 49.7867 253.75 50.0017 253.73 50.2265C253.71 50.4416 253.632 50.6322 253.495 50.7983C253.368 50.9645 253.192 51.0769 252.968 51.1355C252.753 51.1844 252.493 51.1453 252.19 51.0183C251.907 50.8912 251.584 50.7983 251.223 50.7397C250.871 50.6713 250.529 50.6371 250.196 50.6371C249.835 50.6371 249.527 50.681 249.273 50.769C249.019 50.8472 248.823 50.9645 248.686 51.1209C248.559 51.2773 248.496 51.4581 248.496 51.6634C248.496 51.8686 248.579 52.0446 248.745 52.1912C248.921 52.328 249.239 52.4453 249.698 52.5431L251.399 52.9096C252.347 53.1149 253.056 53.4521 253.525 53.9213C253.994 54.3904 254.228 55.0013 254.228 55.754C254.228 56.2622 254.126 56.7216 253.921 57.1322C253.715 57.5427 253.422 57.8946 253.041 58.1878C252.66 58.4713 252.2 58.6912 251.663 58.8476C251.125 59.004 250.519 59.0822 249.845 59.0822ZM261.097 59.0529C260.667 59.0529 260.335 58.9356 260.1 58.701C259.866 58.4566 259.749 58.1194 259.749 57.6893V49.948C259.749 49.5081 259.866 49.1709 260.1 48.9363C260.345 48.7017 260.682 48.5844 261.112 48.5844H264.719C265.892 48.5844 266.796 48.8874 267.431 49.4934C268.076 50.0897 268.399 50.9156 268.399 51.9713C268.399 53.0269 268.076 53.8577 267.431 54.4637C266.796 55.06 265.892 55.3581 264.719 55.3581H262.446V57.6893C262.446 58.1194 262.334 58.4566 262.109 58.701C261.884 58.9356 261.547 59.0529 261.097 59.0529ZM262.446 53.2908H264.25C264.758 53.2908 265.149 53.1833 265.423 52.9683C265.696 52.7434 265.833 52.4111 265.833 51.9713C265.833 51.5216 265.696 51.1893 265.423 50.9743C265.149 50.7592 264.758 50.6517 264.25 50.6517H262.446V53.2908ZM269.052 59.0529C268.749 59.0529 268.495 58.9844 268.29 58.8476C268.085 58.701 267.958 58.5055 267.909 58.2611C267.86 58.007 267.904 57.7235 268.041 57.4107L271.691 49.5521C271.867 49.1709 272.082 48.8923 272.337 48.7164C272.6 48.5404 272.899 48.4525 273.231 48.4525C273.563 48.4525 273.852 48.5404 274.096 48.7164C274.35 48.8923 274.57 49.1709 274.756 49.5521L278.406 57.4107C278.563 57.7235 278.617 58.007 278.568 58.2611C278.529 58.5153 278.406 58.7107 278.201 58.8476C278.006 58.9844 277.761 59.0529 277.468 59.0529C277.077 59.0529 276.774 58.9649 276.559 58.7889C276.354 58.613 276.168 58.3295 276.002 57.9386L275.21 56.0765L276.237 56.8243H270.196L271.237 56.0765L270.445 57.9386C270.269 58.3295 270.088 58.613 269.903 58.7889C269.717 58.9649 269.434 59.0529 269.052 59.0529ZM273.202 51.3995L271.501 55.4607L271.09 54.757H275.357L274.946 55.4607L273.231 51.3995H273.202ZM283.463 59.0822C283.072 59.0822 282.662 59.0529 282.232 58.9942C281.811 58.9453 281.411 58.8671 281.03 58.7596C280.648 58.6521 280.306 58.525 280.003 58.3784C279.739 58.2513 279.554 58.0852 279.446 57.8799C279.339 57.6649 279.299 57.4401 279.329 57.2055C279.358 56.9709 279.441 56.7656 279.578 56.5897C279.715 56.404 279.896 56.2818 280.121 56.2231C280.345 56.1547 280.599 56.1841 280.883 56.3111C281.254 56.4871 281.675 56.6239 282.144 56.7216C282.613 56.8194 283.053 56.8683 283.463 56.8683C284.108 56.8683 284.558 56.7852 284.812 56.619C285.076 56.4431 285.208 56.228 285.208 55.9739C285.208 55.7491 285.115 55.5683 284.93 55.4314C284.754 55.2946 284.436 55.1773 283.977 55.0795L282.261 54.713C281.323 54.5175 280.624 54.1754 280.164 53.6867C279.705 53.198 279.475 52.5675 279.475 51.7953C279.475 51.2871 279.578 50.8277 279.783 50.4171C279.998 49.9968 280.296 49.6401 280.678 49.3468C281.069 49.0536 281.528 48.8288 282.056 48.6724C282.593 48.5062 283.19 48.4231 283.845 48.4231C284.353 48.4231 284.866 48.4818 285.384 48.5991C285.912 48.7066 286.366 48.8728 286.748 49.0976C286.972 49.2149 287.134 49.3761 287.231 49.5814C287.329 49.7867 287.368 50.0017 287.349 50.2265C287.329 50.4416 287.251 50.6322 287.114 50.7983C286.987 50.9645 286.811 51.0769 286.586 51.1355C286.371 51.1844 286.112 51.1453 285.809 51.0183C285.526 50.8912 285.203 50.7983 284.842 50.7397C284.49 50.6713 284.148 50.6371 283.815 50.6371C283.454 50.6371 283.146 50.681 282.892 50.769C282.637 50.8472 282.442 50.9645 282.305 51.1209C282.178 51.2773 282.115 51.4581 282.115 51.6634C282.115 51.8686 282.198 52.0446 282.364 52.1912C282.54 52.328 282.857 52.4453 283.317 52.5431L285.018 52.9096C285.966 53.1149 286.674 53.4521 287.143 53.9213C287.613 54.3904 287.847 55.0013 287.847 55.754C287.847 56.2622 287.745 56.7216 287.539 57.1322C287.334 57.5427 287.041 57.8946 286.66 58.1878C286.278 58.4713 285.819 58.6912 285.281 58.8476C284.744 59.004 284.138 59.0822 283.463 59.0822ZM293.014 59.0822C292.623 59.0822 292.212 59.0529 291.782 58.9942C291.362 58.9453 290.961 58.8671 290.58 58.7596C290.198 58.6521 289.856 58.525 289.553 58.3784C289.289 58.2513 289.104 58.0852 288.996 57.8799C288.889 57.6649 288.85 57.4401 288.879 57.2055C288.908 56.9709 288.991 56.7656 289.128 56.5897C289.265 56.404 289.446 56.2818 289.671 56.2231C289.895 56.1547 290.15 56.1841 290.433 56.3111C290.804 56.4871 291.225 56.6239 291.694 56.7216C292.163 56.8194 292.603 56.8683 293.014 56.8683C293.659 56.8683 294.108 56.7852 294.362 56.619C294.626 56.4431 294.758 56.228 294.758 55.9739C294.758 55.7491 294.665 55.5683 294.48 55.4314C294.304 55.2946 293.986 55.1773 293.527 55.0795L291.811 54.713C290.873 54.5175 290.174 54.1754 289.715 53.6867C289.255 53.198 289.026 52.5675 289.026 51.7953C289.026 51.2871 289.128 50.8277 289.333 50.4171C289.548 49.9968 289.847 49.6401 290.228 49.3468C290.619 49.0536 291.078 48.8288 291.606 48.6724C292.144 48.5062 292.74 48.4231 293.395 48.4231C293.903 48.4231 294.416 48.4818 294.934 48.5991C295.462 48.7066 295.917 48.8728 296.298 49.0976C296.523 49.2149 296.684 49.3761 296.782 49.5814C296.879 49.7867 296.918 50.0017 296.899 50.2265C296.879 50.4416 296.801 50.6322 296.664 50.7983C296.537 50.9645 296.361 51.0769 296.136 51.1355C295.921 51.1844 295.662 51.1453 295.359 51.0183C295.076 50.8912 294.753 50.7983 294.392 50.7397C294.04 50.6713 293.698 50.6371 293.365 50.6371C293.004 50.6371 292.696 50.681 292.442 50.769C292.188 50.8472 291.992 50.9645 291.855 51.1209C291.728 51.2773 291.665 51.4581 291.665 51.6634C291.665 51.8686 291.748 52.0446 291.914 52.1912C292.09 52.328 292.408 52.4453 292.867 52.5431L294.568 52.9096C295.516 53.1149 296.224 53.4521 296.694 53.9213C297.163 54.3904 297.397 55.0013 297.397 55.754C297.397 56.2622 297.295 56.7216 297.089 57.1322C296.884 57.5427 296.591 57.8946 296.21 58.1878C295.829 58.4713 295.369 58.6912 294.832 58.8476C294.294 59.004 293.688 59.0822 293.014 59.0822Z" fill="#F24405"/>
<path d="M182.267 65.1606H120.752V10.0249H182.267V65.1606Z" fill="black"/>
<path d="M133.383 13.6522V28.6841H129.658V22.8002H128.401V28.6841H124.677V13.6522H128.401V19.5147H129.658V13.6522H133.383Z" fill="#F2F0E4"/>
<path d="M139.134 25.3556H137.83L137.598 28.6841H133.873L136.201 13.6522H140.763L143.114 28.6841H139.367L139.134 25.3556ZM138.948 22.564L138.599 17.9685H138.366L138.04 22.564H138.948Z" fill="#F2F0E4"/>
<path d="M151.952 24.7973C151.952 26.143 151.619 27.1666 150.951 27.8681C150.284 28.5553 149.167 28.8989 147.599 28.8989C146.017 28.8989 144.891 28.5553 144.224 27.8681C143.572 27.1666 143.247 26.143 143.247 24.7973V17.5391C143.247 16.1933 143.572 15.1769 144.224 14.4897C144.891 13.7882 146.017 13.4375 147.599 13.4375C149.167 13.4375 150.284 13.7882 150.951 14.4897C151.619 15.1769 151.952 16.1933 151.952 17.5391V19.1067H148.344V18.398C148.344 17.6393 148.282 17.1382 148.158 16.8948C148.05 16.6371 147.863 16.5083 147.599 16.5083C147.336 16.5083 147.142 16.6371 147.018 16.8948C146.909 17.1382 146.855 17.6393 146.855 18.398V23.9384C146.855 24.6971 146.909 25.2053 147.018 25.463C147.142 25.7064 147.336 25.8281 147.599 25.8281C147.863 25.8281 148.05 25.7064 148.158 25.463C148.282 25.2053 148.344 24.6971 148.344 23.9384C148.344 23.38 148.337 22.9148 148.321 22.5425C148.306 22.1703 148.29 21.8697 148.275 21.6406C148.243 21.3829 148.212 21.1753 148.181 21.0179H151.789C151.821 21.0751 151.852 21.1682 151.883 21.297C151.898 21.4116 151.914 21.5547 151.929 21.7265C151.945 21.8983 151.952 22.1274 151.952 22.4137V24.7973Z" fill="#F2F0E4"/>
<path d="M161.34 24.0457V25.7422C161.34 26.2862 161.348 26.7515 161.364 27.138C161.379 27.5102 161.402 27.8109 161.433 28.0399C161.449 28.3119 161.472 28.5267 161.503 28.6841H157.895C157.864 28.6126 157.841 28.5195 157.825 28.405C157.794 28.2904 157.771 28.1473 157.756 27.9755C157.74 27.7894 157.732 27.5603 157.732 27.2883V23.4444C157.732 23.015 157.701 22.6642 157.639 22.3922C157.593 22.1202 157.515 21.9126 157.406 21.7695C157.313 21.612 157.189 21.5046 157.034 21.4474C156.894 21.3901 156.731 21.3615 156.545 21.3615H156.266V28.6841H152.774V13.6522H156.266V19.5147H156.499L157.662 13.6522H161.48L159.688 20.0945L158.337 20.2448V20.4595C158.943 20.4595 159.439 20.5311 159.827 20.6743C160.215 20.8031 160.518 21.0107 160.735 21.297C160.968 21.5834 161.123 21.9556 161.201 22.4137C161.294 22.8575 161.34 23.4015 161.34 24.0457Z" fill="#F2F0E4"/>
<path d="M168.982 16.723H165.932V19.6221H168.633V22.4137H165.932V25.6133H168.982V28.6841H162.208V13.6522H168.982V16.723Z" fill="#F2F0E4"/>
<path d="M178.531 25.7422C178.531 26.2862 178.539 26.7515 178.554 27.138C178.57 27.5102 178.593 27.8109 178.624 28.0399C178.639 28.3119 178.663 28.5267 178.694 28.6841H174.969C174.938 28.6126 174.915 28.5195 174.9 28.405C174.868 28.2904 174.845 28.1473 174.83 27.9755C174.814 27.7894 174.806 27.5603 174.806 27.2883V24.0887C174.806 23.6592 174.775 23.3084 174.713 23.0364C174.667 22.7644 174.589 22.5569 174.481 22.4137C174.387 22.2562 174.263 22.1488 174.108 22.0916C173.953 22.0343 173.782 22.0057 173.596 22.0057H173.48V28.6841H169.755V13.6522H174.341C175.101 13.6522 175.745 13.7023 176.273 13.8026C176.816 13.9028 177.258 14.0817 177.6 14.3394C177.941 14.5828 178.189 14.9192 178.345 15.3487C178.5 15.7639 178.577 16.2864 178.577 16.9163C178.577 17.5319 178.515 18.0616 178.391 18.5054C178.283 18.9349 178.096 19.2856 177.833 19.5576C177.569 19.8296 177.212 20.0301 176.762 20.1589C176.312 20.2734 175.753 20.3307 175.086 20.3307V20.5454C175.722 20.5454 176.257 20.6027 176.692 20.7172C177.126 20.8174 177.476 21.0036 177.739 21.2756C178.019 21.5476 178.22 21.9198 178.345 22.3922C178.469 22.8646 178.531 23.4588 178.531 24.1746V25.7422ZM174.341 18.9349C174.651 18.9349 174.868 18.849 174.993 18.6772C175.132 18.5054 175.202 18.2191 175.202 17.8182C175.202 17.4603 175.132 17.1883 174.993 17.0022C174.868 16.8161 174.651 16.723 174.341 16.723H173.48V18.9349H174.341Z" fill="#F2F0E4"/>
<path d="M133.383 30.1813V45.2132H129.658V39.3293H128.401V45.2132H124.677V30.1813H128.401V36.0437H129.658V30.1813H133.383Z" fill="#F2F0E4"/>
<path d="M138.552 29.9665C140.119 29.9665 141.237 30.3173 141.904 31.0188C142.571 31.7059 142.905 32.7152 142.905 34.0466V41.3263C142.905 42.6721 142.571 43.6957 141.904 44.3972C141.237 45.0843 140.119 45.4279 138.552 45.4279C136.969 45.4279 135.844 45.0843 135.177 44.3972C134.525 43.6957 134.199 42.6721 134.199 41.3263V34.0466C134.199 32.7152 134.525 31.7059 135.177 31.0188C135.844 30.3173 136.969 29.9665 138.552 29.9665ZM139.297 34.9271C139.297 34.1683 139.235 33.6672 139.111 33.4239C138.987 33.1662 138.8 33.0373 138.552 33.0373C138.304 33.0373 138.117 33.1662 137.993 33.4239C137.869 33.6672 137.807 34.1683 137.807 34.9271V40.4674C137.807 41.2261 137.869 41.7344 137.993 41.992C138.117 42.2354 138.304 42.3571 138.552 42.3571C138.8 42.3571 138.987 42.2354 139.111 41.992C139.235 41.7344 139.297 41.2261 139.297 40.4674V34.9271Z" fill="#F2F0E4"/>
<path d="M143.657 30.1813H147.148V40.4674C147.148 41.2261 147.211 41.7344 147.335 41.992C147.474 42.2354 147.699 42.3571 148.01 42.3571C148.32 42.3571 148.537 42.2354 148.662 41.992C148.801 41.7344 148.871 41.2261 148.871 40.4674V30.1813H152.363V41.3263C152.363 42.6721 152.029 43.6957 151.362 44.3972C150.694 45.0843 149.577 45.4279 148.01 45.4279C146.427 45.4279 145.302 45.0843 144.634 44.3972C143.983 43.6957 143.657 42.6721 143.657 41.3263V30.1813Z" fill="#F2F0E4"/>
<path d="M156.511 40.7465C156.511 41.8203 156.775 42.3571 157.302 42.3571C157.566 42.3571 157.76 42.2497 157.884 42.035C158.024 41.8059 158.094 41.4194 158.094 40.8754V40.6607C158.094 40.2884 158.032 39.9735 157.908 39.7158C157.783 39.4438 157.613 39.2076 157.395 39.0071C157.194 38.7924 156.945 38.5991 156.651 38.4273C156.371 38.2555 156.076 38.0766 155.766 37.8905C155.425 37.6757 155.083 37.4538 154.742 37.2248C154.416 36.9957 154.121 36.7309 153.857 36.4302C153.609 36.1153 153.407 35.7502 153.252 35.3351C153.097 34.9199 153.019 34.426 153.019 33.8533V33.6386C153.019 33.1232 153.097 32.6436 153.252 32.1998C153.407 31.7417 153.655 31.348 153.997 31.0188C154.354 30.6895 154.804 30.4318 155.347 30.2457C155.906 30.0596 156.581 29.9665 157.372 29.9665C158.94 29.9665 160.057 30.3173 160.724 31.0188C161.391 31.7059 161.725 32.7224 161.725 34.0681V35.6357H158.233V34.9271C158.233 34.1683 158.148 33.6672 157.977 33.4239C157.822 33.1662 157.589 33.0373 157.279 33.0373C156.845 33.0373 156.627 33.3022 156.627 33.8319V34.0466C156.627 34.3043 156.689 34.5405 156.814 34.7553C156.953 34.97 157.132 35.1776 157.349 35.378C157.582 35.5641 157.838 35.7502 158.117 35.9363C158.412 36.1224 158.715 36.3157 159.025 36.5161C159.382 36.7452 159.723 36.9814 160.049 37.2248C160.375 37.4538 160.662 37.733 160.91 38.0623C161.159 38.3916 161.353 38.7781 161.492 39.2219C161.648 39.6657 161.725 40.2025 161.725 40.8324V41.2619C161.725 42.6076 161.391 43.6384 160.724 44.3542C160.057 45.07 158.94 45.4279 157.372 45.4279C155.789 45.4279 154.664 45.07 153.997 44.3542C153.345 43.6384 153.019 42.6076 153.019 41.2619V40.3171C153.019 40.0307 153.027 39.8017 153.042 39.6299C153.058 39.4581 153.081 39.3149 153.112 39.2004C153.128 39.0716 153.151 38.9785 153.182 38.9212H156.674C156.643 39.0215 156.62 39.1575 156.604 39.3293C156.573 39.4867 156.55 39.68 156.534 39.9091C156.519 40.1381 156.511 40.4173 156.511 40.7465Z" fill="#F2F0E4"/>
<path d="M169.186 33.2521H166.137V36.1511H168.837V38.9427H166.137V42.1424H169.186V45.2132H162.413V30.1813H169.186V33.2521Z" fill="#F2F0E4"/>
<path d="M133.243 61.7422H129.914L130.427 59.1224H130.194C130.085 59.6807 129.945 60.146 129.775 60.5182C129.604 60.8761 129.402 61.1624 129.17 61.3771C128.937 61.5919 128.665 61.7422 128.355 61.8281C128.06 61.914 127.734 61.9569 127.377 61.9569C126.368 61.9569 125.647 61.5919 125.212 60.8618C124.778 60.1173 124.561 59.0221 124.561 57.5762V50.5971C124.561 49.2514 124.886 48.235 125.538 47.5478C126.206 46.8463 127.331 46.4956 128.914 46.4956C130.481 46.4956 131.598 46.8463 132.266 47.5478C132.933 48.235 133.266 49.2514 133.266 50.5971V52.1647H129.775V51.4561C129.775 50.6973 129.705 50.1963 129.565 49.9529C129.441 49.6952 129.224 49.5664 128.914 49.5664C128.603 49.5664 128.378 49.6952 128.238 49.9529C128.114 50.1963 128.052 50.6973 128.052 51.4561V52.8304H133.266L133.243 61.7422ZM128.052 56.7173C128.052 57.1467 128.06 57.5046 128.076 57.791C128.107 58.0773 128.153 58.2992 128.215 58.4567C128.277 58.6141 128.355 58.7287 128.448 58.8002C128.557 58.8575 128.681 58.8861 128.82 58.8861C128.929 58.8861 129.022 58.8575 129.1 58.8002C129.193 58.7287 129.27 58.6141 129.333 58.4567C129.395 58.2849 129.441 58.0558 129.472 57.7695C129.519 57.4688 129.542 57.0823 129.542 56.6099V55.6221H128.052V56.7173Z" fill="#F2F0E4"/>
<path d="M138.37 46.4956C139.938 46.4956 141.055 46.8463 141.722 47.5478C142.389 48.235 142.723 49.2443 142.723 50.5756V57.8554C142.723 59.2011 142.389 60.2247 141.722 60.9262C141.055 61.6134 139.938 61.9569 138.37 61.9569C136.787 61.9569 135.662 61.6134 134.995 60.9262C134.343 60.2247 134.017 59.2011 134.017 57.8554V50.5756C134.017 49.2443 134.343 48.235 134.995 47.5478C135.662 46.8463 136.787 46.4956 138.37 46.4956ZM139.115 51.4561C139.115 50.6973 139.053 50.1963 138.929 49.9529C138.805 49.6952 138.618 49.5664 138.37 49.5664C138.122 49.5664 137.936 49.6952 137.811 49.9529C137.687 50.1963 137.625 50.6973 137.625 51.4561V56.9964C137.625 57.7552 137.687 58.2634 137.811 58.5211C137.936 58.7645 138.122 58.8861 138.37 58.8861C138.618 58.8861 138.805 58.7645 138.929 58.5211C139.053 58.2634 139.115 57.7552 139.115 56.9964V51.4561Z" fill="#F2F0E4"/>
<path d="M148.136 58.4137H146.832L146.6 61.7422H142.875L145.203 46.7103H149.765L152.116 61.7422H148.369L148.136 58.4137ZM147.95 55.6221L147.601 51.0266H147.368L147.042 55.6221H147.95Z" fill="#F2F0E4"/>
</g>
<defs>
<clipPath id="clip0_1_8953">
<rect width="974" height="72.8579" rx="7" fill="white"/>
</clipPath>
</defs>
</svg>
