<svg width="199" height="204" viewBox="0 0 199 204" fill="none" xmlns="http://www.w3.org/2000/svg">
<path d="M78.8252 9.63303L96.5732 9.14516L119.02 8.52983L187.925 6.63878L194.448 190.889L11.7443 195.904L5.22152 11.6525L78.8252 9.63303Z" fill="#F24405"/>
<path d="M78.8252 9.63303L78.9438 13.1861L78.944 13.1861L78.8252 9.63303ZM96.5732 9.14516L96.4546 5.59209L96.4544 5.5921L96.5732 9.14516ZM119.02 8.52983L119.138 12.0829L119.139 12.0829L119.02 8.52983ZM187.925 6.63878L191.479 6.53411L191.353 2.98837L187.806 3.08571L187.925 6.63878ZM194.448 190.889L194.566 194.442L198.127 194.345L198.001 190.785L194.448 190.889ZM11.7443 195.904L8.19058 196.009L8.3161 199.555L11.8629 199.457L11.7443 195.904ZM5.22152 11.6525L5.1029 8.09945L1.54178 8.19716L1.66781 11.7572L5.22152 11.6525ZM78.8252 9.63303L78.944 13.1861L96.692 12.6982L96.5732 9.14516L96.4544 5.5921L78.7064 6.07997L78.8252 9.63303ZM96.5732 9.14516L96.6917 12.6982L119.138 12.0829L119.02 8.52983L118.901 4.97676L96.4546 5.59209L96.5732 9.14516ZM119.02 8.52983L119.139 12.0829L188.044 10.1918L187.925 6.63878L187.806 3.08571L118.901 4.97676L119.02 8.52983ZM187.925 6.63878L184.371 6.74345L190.894 190.994L194.448 190.889L198.001 190.785L191.479 6.53411L187.925 6.63878ZM194.448 190.889L194.329 187.336L11.6256 192.351L11.7443 195.904L11.8629 199.457L194.566 194.442L194.448 190.889ZM11.7443 195.904L15.298 195.799L8.77523 11.5479L5.22152 11.6525L1.66781 11.7572L8.19058 196.009L11.7443 195.904ZM5.22152 11.6525L5.34014 15.2056L78.9438 13.1861L78.8252 9.63303L78.7065 6.07996L5.1029 8.09945L5.22152 11.6525Z" fill="#EDE8DC"/>
<mask id="path-3-outside-1_1_9334" maskUnits="userSpaceOnUse" x="0.203497" y="0.376863" width="199.24" height="202.866" fill="black">
<rect fill="white" x="0.203497" y="0.376863" width="199.24" height="202.866"/>
<path d="M77.9172 5.24813L96.3232 4.74359L119.6 4.1062L191.056 2.14999L197.933 196.271L8.46826 201.46L1.58968 7.33819L77.9172 5.24813Z"/>
</mask>
<path d="M77.9172 5.24813L77.9477 6.16289L77.9477 6.16289L77.9172 5.24813ZM96.3232 4.74359L96.2927 3.82883L96.2927 3.82883L96.3232 4.74359ZM119.6 4.1062L119.569 3.19144L119.569 3.19144L119.6 4.1062ZM191.056 2.14999L191.971 2.12302L191.938 1.21024L191.025 1.23523L191.056 2.14999ZM197.933 196.271L197.964 197.186L198.881 197.161L198.848 196.244L197.933 196.271ZM8.46826 201.46L7.55334 201.487L7.58568 202.4L8.49875 202.375L8.46826 201.46ZM1.58968 7.33819L1.55919 6.42343L0.642278 6.44854L0.674758 7.36516L1.58968 7.33819ZM77.9172 5.24813L77.9477 6.16289L96.3537 5.65834L96.3232 4.74359L96.2927 3.82883L77.8867 4.33338L77.9172 5.24813ZM96.3232 4.74359L96.3537 5.65834L119.63 5.02096L119.6 4.1062L119.569 3.19144L96.2927 3.82883L96.3232 4.74359ZM119.6 4.1062L119.63 5.02096L191.086 3.06475L191.056 2.14999L191.025 1.23523L119.569 3.19144L119.6 4.1062ZM191.056 2.14999L190.141 2.17696L197.018 196.298L197.933 196.271L198.848 196.244L191.971 2.12302L191.056 2.14999ZM197.933 196.271L197.903 195.356L8.43777 200.545L8.46826 201.46L8.49875 202.375L197.964 197.186L197.933 196.271ZM8.46826 201.46L9.38318 201.433L2.5046 7.31121L1.58968 7.33819L0.674758 7.36516L7.55334 201.487L8.46826 201.46ZM1.58968 7.33819L1.62017 8.25295L77.9477 6.16289L77.9172 5.24813L77.8867 4.33337L1.55919 6.42343L1.58968 7.33819Z" fill="black" mask="url(#path-3-outside-1_1_9334)"/>
<path d="M41.138 24.8136L44.2908 74.7647L33.2642 75.4002L32.0301 55.848L28.3086 56.0625L29.5427 75.6147L18.5161 76.2503L15.3633 26.2992L26.3899 25.6636L27.6195 45.1446L31.341 44.9301L30.1114 25.4491L41.138 24.8136Z" fill="#0D0B0C"/>
<path d="M60.6193 62.7227L56.76 62.9452L56.769 74.0455L45.7424 74.681L49.4812 24.3327L62.9888 23.5542L73.1022 73.1041L62.0066 73.7436L60.6193 62.7227ZM59.4825 53.4779L57.4849 38.2667L56.7957 38.3064L56.7948 53.6328L59.4825 53.4779Z" fill="#0D0B0C"/>
<path d="M98.4526 58.68C98.7348 63.1518 97.9617 66.6102 96.1332 69.0551C94.3018 71.4525 91.0658 72.7849 86.4255 73.0523C81.7391 73.3224 78.3361 72.3727 76.2164 70.2031C74.1396 67.9833 72.9601 64.6374 72.6778 60.1656L71.1555 36.0464C70.8732 31.5746 71.6249 28.1413 73.4104 25.7466C75.2389 23.3017 78.4962 21.9442 83.1826 21.6741C87.8229 21.4066 91.2045 22.3815 93.3272 24.5987C95.4469 26.7683 96.6479 30.089 96.9302 34.5608L97.259 39.77L86.5769 40.3857L86.4283 38.0308C86.2692 35.5095 85.9803 33.855 85.5617 33.0675C85.186 32.2297 84.6077 31.8333 83.8266 31.8784C83.0456 31.9234 82.4983 32.3846 82.1848 33.2621C81.9142 34.0894 81.8585 35.7637 82.0177 38.285L83.1797 56.6956C83.3389 59.2169 83.6063 60.8965 83.9819 61.7343C84.4005 62.5218 85.0003 62.8931 85.7814 62.848C86.5624 62.803 87.0882 62.3669 87.3588 61.5396C87.6723 60.6621 87.7495 58.9627 87.5904 56.4414C87.4732 54.586 87.3527 53.0413 87.2287 51.807C87.1047 50.5728 86.9957 49.5764 86.9017 48.8179C86.7557 47.9669 86.6203 47.2824 86.4954 46.7644L97.1774 46.1487C97.2813 46.3337 97.3927 46.6376 97.5116 47.0605C97.5816 47.4384 97.6576 47.9115 97.7396 48.4797C97.8215 49.0479 97.8926 49.8078 97.9526 50.7592L98.4526 58.68Z" fill="#0D0B0C"/>
<path d="M126.089 54.5805L126.445 60.2178C126.559 62.0256 126.679 63.5704 126.806 64.8522C126.93 66.0864 127.062 67.0815 127.202 67.8373C127.305 68.7386 127.419 69.4482 127.544 69.9662L116.862 70.5819C116.755 70.3493 116.667 70.0441 116.597 69.6661C116.481 69.2908 116.382 68.8191 116.3 68.2509C116.215 67.6351 116.144 66.8752 116.087 65.9714L115.281 53.1982C115.19 51.771 115.025 50.6107 114.784 49.7175C114.589 48.8215 114.316 48.145 113.964 47.6878C113.656 47.1804 113.266 46.8448 112.794 46.681C112.369 46.5145 111.88 46.4472 111.329 46.4789L110.502 46.5266L112.038 70.8599L101.7 71.4557L98.5475 21.5047L108.885 20.9088L110.115 40.3898L110.804 40.35L113.02 20.6705L124.322 20.0191L120.367 41.7325L116.401 42.4624L116.446 43.176C118.238 43.0727 119.723 43.2259 120.902 43.6354C122.078 43.9973 123.017 44.6355 123.72 45.5499C124.47 46.4616 125.007 47.672 125.333 49.1811C125.702 50.6399 125.954 52.4397 126.089 54.5805Z" fill="#0D0B0C"/>
<path d="M147.176 28.9432L138.148 29.4636L138.756 39.097L146.751 38.6362L147.336 47.9129L139.342 48.3736L140.013 59.0061L149.041 58.4857L149.685 68.69L129.63 69.8459L126.477 19.8948L146.532 18.7389L147.176 28.9432Z" fill="#0D0B0C"/>
<path d="M177.339 57.2844C177.453 59.0922 177.573 60.637 177.7 61.9188C177.824 63.153 177.956 64.1481 178.096 64.9039C178.199 65.8051 178.313 66.5148 178.438 67.0328L167.412 67.6683C167.305 67.4357 167.216 67.1305 167.146 66.7526C167.03 66.3773 166.931 65.9055 166.849 65.3373C166.764 64.7215 166.693 63.9617 166.636 63.0578L165.965 52.4254C165.875 50.9982 165.71 49.838 165.469 48.9447C165.274 48.0487 165.001 47.3722 164.649 46.915C164.34 46.4076 163.95 46.072 163.479 45.9082C163.007 45.7444 162.496 45.6783 161.945 45.7101L161.6 45.73L163.001 67.9225L151.974 68.5581L148.821 18.607L162.398 17.8245C164.649 17.6947 166.566 17.7513 168.15 17.9943C169.779 18.2346 171.126 18.7538 172.19 19.5518C173.252 20.3023 174.058 21.3779 174.607 22.7786C175.154 24.1317 175.493 25.8549 175.625 27.9481C175.755 29.9937 175.682 31.7644 175.407 33.2604C175.176 34.7061 174.698 35.9034 173.974 36.8523C173.25 37.8012 172.235 38.5281 170.93 39.033C169.622 39.4904 167.98 39.776 166.004 39.8899L166.049 40.6035C167.933 40.4949 169.53 40.5939 170.84 40.9003C172.148 41.1592 173.221 41.718 174.059 42.5769C174.943 43.4331 175.618 44.6355 176.085 46.1842C176.551 47.733 176.86 49.6966 177.01 52.0752L177.339 57.2844ZM163.506 35.3787C164.425 35.3257 165.05 35.0032 165.382 34.4112C165.759 33.8165 165.906 32.8531 165.822 31.5211C165.747 30.3318 165.483 29.4398 165.03 28.8452C164.624 28.2479 163.961 27.9758 163.042 28.0288L160.492 28.1757L160.956 35.5257L163.506 35.3787Z" fill="#0D0B0C"/>
<path d="M44.6048 79.7397L47.7577 129.691L36.731 130.326L35.4969 110.774L31.7754 110.989L33.0095 130.541L21.9829 131.176L18.8301 81.2253L29.8567 80.5897L31.0863 100.071L34.8078 99.8562L33.5782 80.3752L44.6048 79.7397Z" fill="#0D0B0C"/>
<path d="M59.8635 78.144C64.5039 77.8766 67.8855 78.8514 70.0082 81.0686C72.1279 83.2382 73.3274 86.5351 73.6067 90.9594L75.1335 115.15C75.4158 119.622 74.6427 123.08 72.8142 125.525C70.9827 127.922 67.7468 129.255 63.1064 129.522C58.4201 129.792 55.0171 128.843 52.8974 126.673C50.8206 124.453 49.6411 121.107 49.3588 116.636L47.8319 92.445C47.5527 88.0207 48.3058 84.6113 50.0914 82.2166C51.9198 79.7716 55.1772 78.4141 59.8635 78.144ZM63.1093 94.5008C62.9501 91.9794 62.6613 90.325 62.2427 89.5374C61.8211 88.7023 61.2427 88.306 60.5076 88.3483C59.7725 88.3907 59.2482 88.8506 58.9347 89.7281C58.6182 90.558 58.5395 92.2337 58.6986 94.755L59.8607 113.166C60.0198 115.687 60.3102 117.365 60.7318 118.2C61.1504 118.988 61.7273 119.36 62.4624 119.318C63.1975 119.276 63.7233 118.839 64.0398 118.01C64.3533 117.132 64.4305 115.433 64.2713 112.911L63.1093 94.5008Z" fill="#0D0B0C"/>
<path d="M75.0217 77.9865L85.3592 77.3907L87.5166 111.572C87.6758 114.093 87.9661 115.771 88.3877 116.606C88.8523 117.391 89.544 117.757 90.4629 117.704C91.3818 117.651 91.9995 117.21 92.316 116.38C92.6754 115.5 92.7756 113.799 92.6164 111.278L90.459 77.0968L100.796 76.5009L103.134 113.536C103.416 118.008 102.643 121.466 100.815 123.911C98.9833 126.309 95.7473 127.641 91.107 127.908C86.4206 128.179 83.0176 127.229 80.8979 125.059C78.8211 122.839 77.6416 119.493 77.3593 115.022L75.0217 77.9865Z" fill="#0D0B0C"/>
<path d="M115.294 110.902C115.519 114.47 116.412 116.208 117.975 116.118C118.756 116.073 119.307 115.683 119.63 114.949C119.995 114.164 120.121 112.867 120.007 111.06L119.962 110.346C119.884 109.109 119.634 108.073 119.212 107.238C118.788 106.355 118.233 105.6 117.548 104.971C116.905 104.291 116.13 103.692 115.221 103.171C114.358 102.648 113.447 102.103 112.489 101.538C111.433 100.883 110.376 100.204 109.317 99.5006C108.304 98.7951 107.376 97.9653 106.532 97.0113C105.731 96.0071 105.057 94.8284 104.51 93.4753C103.964 92.1221 103.63 90.4941 103.51 88.5912L103.465 87.8777C103.357 86.165 103.486 84.5581 103.853 83.0569C104.216 81.5081 104.869 80.1575 105.81 79.0051C106.798 77.85 108.076 76.9169 109.645 76.2058C111.26 75.492 113.239 75.0676 115.582 74.9325C120.223 74.6651 123.604 75.6399 125.727 77.8571C127.847 80.0267 129.048 83.3474 129.33 87.8192L129.659 93.0284L119.321 93.6242L119.173 91.2694C119.014 88.7481 118.656 87.0976 118.099 86.318C117.586 85.4882 116.87 85.0997 115.951 85.1527C114.664 85.2269 114.077 86.144 114.188 87.9042L114.233 88.6178C114.287 89.4741 114.52 90.2484 114.933 90.9408C115.391 91.6306 115.963 92.2899 116.649 92.9189C117.377 93.4976 118.174 94.0723 119.04 94.6431C119.952 95.2113 120.888 95.8018 121.849 96.4149C122.954 97.1152 124.014 97.8418 125.03 98.595C126.043 99.3005 126.952 100.179 127.756 101.231C128.56 102.283 129.215 103.534 129.722 104.985C130.274 106.433 130.617 108.204 130.749 110.297L130.839 111.724C131.121 116.196 130.35 119.678 128.524 122.171C126.699 124.663 123.466 126.043 118.825 126.311C114.139 126.581 110.733 125.584 108.607 123.319C106.527 121.051 105.346 117.682 105.064 113.21L104.866 110.07C104.806 109.119 104.781 108.356 104.791 107.783C104.801 107.209 104.84 106.73 104.907 106.344C104.926 105.913 104.976 105.6 105.056 105.404L115.393 104.808C115.322 105.147 115.282 105.602 115.272 106.176C115.213 106.705 115.185 107.351 115.187 108.115C115.189 108.878 115.224 109.807 115.294 110.902Z" fill="#0D0B0C"/>
<path d="M151.249 83.8344L142.221 84.3548L142.829 93.9882L150.823 93.5274L151.409 102.804L143.414 103.265L144.085 113.897L153.113 113.377L153.758 123.581L133.703 124.737L130.55 74.786L150.605 73.6301L151.249 83.8344Z" fill="#0D0B0C"/>
<path d="M50.811 184.641L40.956 185.209L41.9226 176.416L41.2335 176.455C41.029 178.329 40.713 179.899 40.2857 181.165C39.8554 182.384 39.3182 183.369 38.6741 184.123C38.0299 184.876 37.2574 185.422 36.3566 185.76C35.5016 186.096 34.5458 186.294 33.4891 186.355C30.5027 186.527 28.2898 185.437 26.8502 183.085C25.4076 180.686 24.5347 177.084 24.2314 172.279L22.7676 149.087C22.4853 144.615 23.237 141.182 25.0225 138.787C26.851 136.342 30.1084 134.985 34.7947 134.715C39.4351 134.447 42.8166 135.422 44.9393 137.639C47.0591 139.809 48.2601 143.13 48.5423 147.602L48.8711 152.811L38.5337 153.407L38.385 151.052C38.2259 148.53 37.914 146.877 37.4495 146.092C37.0279 145.257 36.3576 144.866 35.4388 144.919C34.5199 144.972 33.8807 145.439 33.5213 146.319C33.2047 147.149 33.1261 148.824 33.2852 151.346L33.5735 155.913L49.0107 155.023L50.811 184.641ZM34.3887 168.829C34.4788 170.256 34.5768 171.444 34.6828 172.393C34.8348 173.339 35.0191 174.068 35.2359 174.581C35.4527 175.094 35.7065 175.461 35.9972 175.683C36.3308 175.855 36.7043 175.929 37.1178 175.905C37.4395 175.886 37.7091 175.775 37.9268 175.572C38.1875 175.318 38.3932 174.924 38.5439 174.39C38.6917 173.809 38.7815 173.04 38.8133 172.083C38.8881 171.076 38.8759 169.787 38.7768 168.218L38.5696 164.935L34.159 165.189L34.3887 168.829Z" fill="#0D0B0C"/>
<path d="M62.792 133.101C67.4323 132.834 70.8139 133.809 72.9366 136.026C75.0564 138.195 76.2559 141.492 76.5351 145.916L78.062 170.107C78.3442 174.579 77.5711 178.037 75.7426 180.482C73.9112 182.88 70.6752 184.212 66.0349 184.479C61.3486 184.75 57.9455 183.8 55.8258 181.63C53.749 179.41 52.5695 176.064 52.2872 171.593L50.7604 147.402C50.4811 142.978 51.2343 139.568 53.0198 137.174C54.8483 134.729 58.1056 133.371 62.792 133.101ZM66.0377 149.458C65.8786 146.937 65.5897 145.282 65.1711 144.495C64.7495 143.659 64.1712 143.263 63.436 143.305C62.7009 143.348 62.1766 143.808 61.8631 144.685C61.5466 145.515 61.4679 147.191 61.6271 149.712L62.7891 168.123C62.9483 170.644 63.2386 172.322 63.6602 173.157C64.0788 173.945 64.6557 174.317 65.3908 174.275C66.1259 174.233 66.6517 173.797 66.9682 172.967C67.2817 172.089 67.3589 170.39 67.1998 167.868L66.0377 149.458Z" fill="#0D0B0C"/>
<path d="M94.2043 171.039L90.345 171.261L90.3539 182.362L79.3273 182.997L83.0661 132.649L96.5737 131.87L106.687 181.42L95.5916 182.06L94.2043 171.039ZM93.0674 161.794L91.0698 146.583L90.3807 146.622L90.3797 161.949L93.0674 161.794Z" fill="#0D0B0C"/>
<path fill-rule="evenodd" clip-rule="evenodd" d="M138.533 138.108C138.021 138.387 137.576 138.697 137.524 138.829C137.481 138.938 137.226 139.124 136.992 139.208C136.734 139.301 136.5 139.535 136.469 139.716C136.453 139.91 136.375 140.108 136.258 140.15C135.604 140.478 135.281 140.84 135.604 140.836C135.866 140.837 135.805 140.99 135.469 141.28C135.188 141.532 135.005 141.842 135.053 141.976C135.101 142.109 135.034 142.585 134.914 143.043C134.755 143.495 134.753 144.061 134.919 144.303C135.086 144.544 135.158 144.82 135.109 144.894C135.036 144.976 135.105 145.159 135.252 145.294C135.4 145.429 135.42 145.686 135.283 145.829C135.064 146.077 135.108 146.118 135.446 146.128C135.808 146.13 135.843 146.193 135.589 146.378C135.39 146.525 135.149 146.574 135.029 146.523C134.893 146.459 134.723 146.482 134.626 146.574C134.545 146.678 134.43 146.663 134.382 146.529C134.334 146.396 133.916 146.283 133.463 146.257C133.011 146.231 132.554 146.113 132.436 146.004C132.318 145.896 132.065 145.874 131.854 145.95C131.666 146.017 131.49 146.005 131.509 145.904C131.481 145.669 129.745 145.784 128.354 146.096C126.902 146.41 126.053 146.979 125.001 148.317C124.121 149.424 123.994 149.696 124.374 149.804C124.518 149.846 124.477 149.899 124.322 149.936C124.128 149.968 124.012 150.16 124.034 150.359C124.032 150.567 124.022 150.797 123.973 150.871C123.9 150.954 124.131 151.285 124.454 151.64C124.762 151.981 125.056 152.459 125.069 152.68C125.193 153.54 130.349 157.507 132.919 158.693C133.651 159.033 134.595 159.598 135.079 159.951C135.912 160.594 142.148 163.457 142.898 163.546C143.166 163.581 143.136 163.554 142.886 163.475C142.635 163.395 142.614 163.346 142.838 163.341C143.014 163.353 143.262 163.49 143.354 163.664C143.447 163.838 143.65 163.935 143.791 163.884C143.931 163.834 144.152 163.886 144.271 163.994C144.537 164.238 153.919 167.44 154.737 167.561C155.325 167.651 155.74 168.18 155.641 168.686C155.514 169.466 157.91 171.299 159.393 171.519C160.393 171.687 161 171.017 160.268 170.527C160.209 170.473 160.235 170.407 160.352 170.365C160.469 170.323 160.471 170.115 160.334 169.901C160.221 169.678 160.269 169.453 160.457 169.386C160.668 169.31 160.661 169.124 160.439 168.921C160.232 168.732 160.21 168.533 160.374 168.474C160.829 168.292 161.864 166.639 161.627 166.423C161.494 166.301 161.59 166.21 161.846 166.175C162.139 166.145 162.198 166.049 161.976 165.846C161.798 165.684 161.76 165.321 161.897 165.027C162.143 164.505 162.058 164.159 161.79 164.481C161.595 164.721 161.494 164.569 161.375 163.952C161.349 163.66 161.177 163.383 161.033 163.341C160.874 163.285 160.861 163.214 161.002 163.164C161.19 163.096 161.37 163.201 161.513 163.451C161.626 163.674 161.835 163.806 161.953 163.764C162.187 163.68 161.602 162.816 161.273 162.784C161.158 162.769 160.91 162.632 160.686 162.486C160.364 162.282 160.382 162.238 160.811 162.272C161.24 162.306 161.234 162.271 160.836 162.056C160.408 161.814 160.417 161.792 160.961 161.841C161.49 161.877 161.522 161.847 161.315 161.658C161.182 161.536 160.985 161.475 160.844 161.526C160.703 161.576 160.57 161.454 160.489 161.201C160.414 160.983 160.231 160.785 160.063 160.751C159.91 160.731 160.027 160.689 160.306 160.645C160.77 160.592 160.769 160.441 160.299 160.102C160.172 160.015 160.21 159.87 160.362 159.74C160.505 159.632 160.551 159.465 160.447 159.371C160.314 159.249 160.244 159.274 160.219 159.49C160.185 159.728 160.162 159.737 160.057 159.492C159.98 159.331 159.887 159.157 159.858 159.13C159.828 159.103 159.963 159.017 160.15 158.95C160.338 158.882 160.443 158.769 160.354 158.688C160.28 158.621 160.087 158.653 159.943 158.761C159.759 158.921 159.645 158.905 159.578 158.666C159.486 158.492 159.511 158.276 159.593 158.171C159.683 158.044 159.639 158.004 159.451 158.071C159.287 158.13 159.028 158.073 158.88 157.937C158.673 157.748 158.705 157.718 159.085 157.826C159.45 157.921 159.482 157.891 159.201 157.634C159.024 157.471 158.97 157.302 159.087 157.26C159.181 157.227 158.955 156.931 158.562 156.601C158.169 156.272 157.944 155.976 158.037 155.942C158.155 155.9 158.075 155.797 157.886 155.714C157.644 155.613 157.664 155.511 158.016 155.385C158.344 155.267 158.388 155.157 158.146 155.056C157.934 154.981 157.901 154.862 158.041 154.811C158.229 154.744 158.164 154.654 157.846 154.542C157.292 154.365 157.092 154.003 157.387 153.615C157.544 153.37 157.455 153.289 156.895 153.076C156.267 152.83 156.273 152.716 156.965 152.542C157.214 152.472 156.764 151.522 156.387 151.356C156.175 151.282 155.883 151.255 155.719 151.314C155.485 151.398 155.387 151.339 155.303 150.992C155.26 150.744 155.332 150.511 155.472 150.461C155.637 150.402 155.697 150.248 155.673 150.106C155.61 149.959 155.451 149.903 155.263 149.971C155.052 150.047 154.864 149.964 154.706 149.7C154.546 149.494 154.547 149.286 154.665 149.244C154.782 149.202 154.732 149.126 154.534 149.065C154.299 148.999 154.354 148.96 154.695 148.913C155.112 148.876 155.114 148.819 154.746 148.631C154.421 148.484 154.329 148.31 154.443 148.175C154.597 147.988 154.544 147.969 154.239 148.079C153.888 148.205 153.805 148.159 153.661 147.759C153.58 147.506 153.36 147.095 153.194 146.854C152.814 146.387 152.437 145.864 152.389 145.73C152.369 145.681 152.589 145.734 152.869 145.84C153.187 145.952 153.212 145.924 152.942 145.758C152.665 145.594 152.596 145.411 152.748 145.281C153.034 145.065 152.558 144.54 152.182 144.675C152.065 144.717 151.944 144.666 151.941 144.573C151.946 144.458 152.08 144.372 152.257 144.384C152.665 144.369 152.14 144.068 151.702 144.056C151.487 144.039 151.49 143.982 151.701 143.906C151.982 143.805 151.953 143.778 151.591 143.776C151.268 143.779 151.141 143.693 151.116 143.4C151.073 143.152 150.963 143.022 150.74 143.027C150.217 143.027 150.089 142.79 150.576 142.728C150.87 142.698 150.928 142.602 150.691 142.385C150.529 142.237 150.504 142.095 150.666 142.093C150.842 142.105 150.786 141.994 150.553 141.87C150.32 141.747 150.075 141.703 150.026 141.777C149.863 141.986 149.371 141.805 149.284 141.516C149.221 141.369 149.373 141.239 149.605 141.212C150.154 141.147 149.672 140.736 149.064 140.748C148.655 140.763 148.543 140.69 148.408 140.268C148.204 139.663 147.456 139.009 146.88 138.99C146.565 138.971 146.521 138.93 146.696 138.792C146.807 138.714 146.845 138.569 146.771 138.502C146.682 138.421 146.559 138.427 146.501 138.523C146.282 138.771 145.731 138.536 145.79 138.232C145.839 138.008 145.62 137.898 144.811 137.755C144.246 137.657 143.693 137.479 143.589 137.385C143.486 137.29 143.386 137.288 143.336 137.362C143.325 137.442 142.946 137.484 142.54 137.441C141.184 137.307 139.564 137.587 138.533 138.108ZM142.119 143.807C142.386 144.05 142.368 144.094 142.027 143.991C141.768 143.933 141.596 143.806 141.584 143.736C141.588 143.47 141.779 143.496 142.119 143.807ZM143.836 145.526C144.032 145.794 144.11 146.105 144.052 146.201C143.947 146.314 143.826 146.264 143.736 146.032C143.617 145.774 143.473 145.731 143.191 145.832C142.957 145.917 142.751 145.878 142.62 145.699C142.519 145.547 142.642 145.39 142.953 145.316C143.269 145.227 143.226 145.167 142.822 145.136C142.193 145.099 142.178 145.085 142.452 144.798C142.686 144.564 142.809 144.557 143.108 144.77C143.317 144.902 143.663 145.249 143.836 145.526ZM143.283 146.364C143.357 146.432 143.314 146.542 143.173 146.592C143.056 146.634 142.935 146.584 142.931 146.491C142.913 146.384 142.971 146.288 143.041 146.263C143.088 146.246 143.194 146.283 143.283 146.364ZM145.095 146.975C145.424 147.366 145.692 147.91 145.741 148.193C145.79 148.477 145.96 148.812 146.107 148.947C146.255 149.082 146.309 149.251 146.251 149.347C146.05 149.551 145.24 149.259 144.881 148.841C144.704 148.679 144.485 148.569 144.345 148.62C144.204 148.67 144.156 148.537 144.219 148.326C144.306 148.106 144.263 147.858 144.174 147.777C143.893 147.52 144.436 147.419 144.741 147.668C144.889 147.803 145.003 147.818 144.947 147.707C144.928 147.6 144.53 147.385 144.091 147.223C143.219 146.933 143.234 146.947 144.391 146.362C144.485 146.328 144.804 146.59 145.095 146.975ZM134.846 152.54C135.884 152.92 136.835 153.313 136.969 153.435C137.087 153.543 137.308 153.595 137.425 153.553C137.566 153.503 137.763 153.564 137.881 153.672C138.266 154.023 141.034 155.27 141.245 155.194C141.362 155.152 141.454 155.176 141.457 155.269C141.469 155.34 142.464 155.98 143.656 156.682C144.887 157.389 146.079 158.091 146.356 158.255C146.934 158.574 148.452 158.707 148.694 158.451C148.776 158.346 148.588 158.056 148.254 157.78C147.081 156.827 146.989 156.653 147.508 156.56C147.849 156.513 147.916 156.395 147.747 156.211C147.543 155.964 147.481 155.968 147.306 156.256C147.132 156.545 147.094 156.54 147.162 156.214C147.202 156.011 147.395 155.829 147.603 155.811C147.812 155.792 147.993 155.689 147.975 155.583C147.995 155.482 148.129 155.396 148.306 155.408C148.467 155.406 148.546 155.359 148.449 155.3C148 155.009 147.884 154.693 148.189 154.584C148.376 154.516 148.599 154.511 148.688 154.592C148.762 154.66 149 154.669 149.188 154.601C149.587 154.458 150.027 154.771 149.823 155.032C149.75 155.115 149.869 155.373 150.091 155.576C150.313 155.779 150.459 156.122 150.434 156.338C150.394 156.541 150.585 156.924 150.836 157.154C151.103 157.397 151.231 157.634 151.113 157.676C150.996 157.718 151.142 158.061 151.433 158.446C151.738 158.845 151.967 159.234 151.986 159.34C151.966 159.441 151.999 159.561 152.02 159.61C152.121 159.762 152.31 160.353 152.392 160.757C152.444 160.983 152.66 161.301 152.891 161.482C153.107 161.649 153.199 161.823 153.082 161.865C152.941 161.916 152.91 162.097 153.017 162.284C153.142 162.578 152.897 162.742 152.724 162.465C152.68 162.424 152.291 162.338 151.824 162.298C151.356 162.259 151.174 162.212 151.421 162.198C151.767 162.187 151.685 162.141 151.137 161.999C150.695 161.894 150.321 161.671 150.184 161.456C150.071 161.233 149.891 161.128 149.703 161.196C149.562 161.246 149.448 161.231 149.421 161.146C149.416 160.903 148.341 160.517 148.186 160.705C148.105 160.809 147.996 160.83 147.946 160.754C147.655 160.368 147.053 160.057 146.088 159.801C145.449 159.635 145.071 159.47 145.183 159.392C145.294 159.314 145.114 159.21 144.731 159.159C144.364 159.121 144.016 158.982 143.974 158.884C143.941 158.764 143.517 158.616 143.066 158.532C142.234 158.398 142.113 158.348 141.519 157.864C141.371 157.729 141.18 157.703 141.084 157.795C141.011 157.877 140.805 157.838 140.657 157.703C140.494 157.554 140.152 157.451 139.897 157.486C139.642 157.522 139.453 157.439 139.443 157.31C139.444 156.952 138.856 156.504 138.238 156.387C137.849 156.301 137.708 156.201 137.777 156.026C137.846 155.85 137.704 155.75 137.31 155.628C136.853 155.51 136.803 155.434 136.957 155.247C137.088 155.068 137.038 154.992 136.582 154.873C136.232 154.773 136.198 154.791 136.479 154.929C136.75 155.057 136.786 155.12 136.557 155.089C135.518 154.916 132.625 153.017 133.141 152.832C133.282 152.782 133.161 152.731 132.837 152.734C132.291 152.742 132.261 152.715 132.362 152.359C132.494 151.972 131.917 151.803 131.64 152.147C131.445 152.387 131.314 152.208 131.415 151.851C131.524 151.473 132.348 151.629 134.846 152.54ZM152.398 144.842C152.428 144.869 152.341 145.088 152.246 145.33C152.089 145.625 152.007 145.629 151.999 145.343C151.999 144.985 152.235 144.693 152.398 144.842ZM146.766 150.236C146.814 150.369 146.699 150.354 146.536 150.205C146.35 150.065 146.332 149.959 146.461 149.987C146.576 150.003 146.733 150.116 146.766 150.236ZM154.113 148.501C154.187 148.568 154.167 148.67 154.026 148.72C153.909 148.762 153.718 148.737 153.644 148.669C153.555 148.588 153.613 148.492 153.731 148.45C153.871 148.399 154.024 148.42 154.113 148.501ZM147.347 157.936C147.395 158.07 147.281 158.055 147.118 157.906C146.932 157.766 146.913 157.659 147.043 157.688C147.158 157.703 147.314 157.817 147.347 157.936ZM159.697 170.035C159.771 170.103 159.728 170.213 159.587 170.263C159.47 170.305 159.349 170.254 159.345 170.162C159.327 170.055 159.385 169.959 159.456 169.934C159.502 169.917 159.609 169.954 159.697 170.035Z" fill="#171717"/>
</svg>
