<svg width="974" height="74" viewBox="0 0 974 74" fill="none" xmlns="http://www.w3.org/2000/svg">
<g clip-path="url(#clip0_1_9076)">
<path d="M963.499 -18.4395H920.486V92.7643H963.499V-18.4395Z" fill="#A6A6A6"/>
<path d="M115.504 -18.4395H10.501V92.7643H115.504V-18.4395Z" fill="white"/>
<path d="M993.172 -18.4395H963.499V92.7643H993.172V-18.4395Z" fill="#F28705"/>
<path d="M10.5003 -18.4395H-19.1729V92.7643H10.5003V-18.4395Z" fill="#F28705"/>
<path d="M920.485 -18.4395H115.503V92.7643H920.485V-18.4395Z" fill="#F28705"/>
<path d="M573.764 0.733467H592.696L568.41 25.0199H587.383L563.098 49.305H582.07L557.785 73.5914H576.766H576.758L557.585 92.7643H920.487V73.5914V69.9605V0.733467V-18.4395H592.937L573.764 0.733467Z" fill="white"/>
<path d="M19.0293 68.3902L23.0146 63.1915L19.0293 57.9901L23.0146 52.79L19.0293 47.5872L23.0146 42.3831L19.0293 37.1789L23.0146 31.9802L19.0293 26.7761L23.0146 21.5719L19.0293 16.3651L23.0146 11.1501L19.0293 5.93652" stroke="#A6A6A6" stroke-width="1.09115" stroke-miterlimit="10" stroke-linecap="round" stroke-linejoin="round"/>
<path d="M29.5244 68.3902L33.5097 63.1915L29.5244 57.9901L33.5097 52.79L29.5244 47.5872L33.5097 42.3831L29.5244 37.1789L33.5097 31.9802L29.5244 26.7761L33.5097 21.5719L29.5244 16.3651L33.5097 11.1501L29.5244 5.93652" stroke="#A6A6A6" stroke-width="1.09115" stroke-miterlimit="10" stroke-linecap="round" stroke-linejoin="round"/>
<path d="M40.0195 68.3902L44.0048 63.1915L40.0195 57.9901L44.0048 52.79L40.0195 47.5872L44.0048 42.3831L40.0195 37.1789L44.0048 31.9802L40.0195 26.7761L44.0048 21.5719L40.0195 16.3651L44.0048 11.1501L40.0195 5.93652" stroke="#A6A6A6" stroke-width="1.09115" stroke-miterlimit="10" stroke-linecap="round" stroke-linejoin="round"/>
<path d="M50.5146 68.3902L54.4999 63.1915L50.5146 57.9901L54.4999 52.79L50.5146 47.5872L54.4999 42.3831L50.5146 37.1789L54.4999 31.9802L50.5146 26.7761L54.4999 21.5719L50.5146 16.3651L54.4999 11.1501L50.5146 5.93652" stroke="#A6A6A6" stroke-width="1.09115" stroke-miterlimit="10" stroke-linecap="round" stroke-linejoin="round"/>
<path d="M61.0098 68.3902L64.995 63.1915L61.0098 57.9901L64.995 52.79L61.0098 47.5872L64.995 42.3831L61.0098 37.1789L64.995 31.9802L61.0098 26.7761L64.995 21.5719L61.0098 16.3651L64.995 11.1501L61.0098 5.93652" stroke="#A6A6A6" stroke-width="1.09115" stroke-miterlimit="10" stroke-linecap="round" stroke-linejoin="round"/>
<path d="M71.5039 68.3902L75.4892 63.1915L71.5039 57.9901L75.4892 52.79L71.5039 47.5872L75.4892 42.3831L71.5039 37.1789L75.4892 31.9802L71.5039 26.7761L75.4892 21.5719L71.5039 16.3651L75.4892 11.1501L71.5039 5.93652" stroke="#A6A6A6" stroke-width="1.09115" stroke-miterlimit="10" stroke-linecap="round" stroke-linejoin="round"/>
<path d="M82.001 68.3902L85.9863 63.1915L82.001 57.9901L85.9863 52.79L82.001 47.5872L85.9863 42.3831L82.001 37.1789L85.9863 31.9802L82.001 26.7761L85.9863 21.5719L82.001 16.3651L85.9863 11.1501L82.001 5.93652" stroke="#A6A6A6" stroke-width="1.09115" stroke-miterlimit="10" stroke-linecap="round" stroke-linejoin="round"/>
<path d="M92.4951 68.3902L96.4804 63.1915L92.4951 57.9901L96.4804 52.79L92.4951 47.5872L96.4804 42.3831L92.4951 37.1789L96.4804 31.9802L92.4951 26.7761L96.4804 21.5719L92.4951 16.3651L96.4804 11.1501L92.4951 5.93652" stroke="#A6A6A6" stroke-width="1.09115" stroke-miterlimit="10" stroke-linecap="round" stroke-linejoin="round"/>
<path d="M102.99 68.3902L106.976 63.1915L102.99 57.9901L106.976 52.79L102.99 47.5872L106.976 42.3831L102.99 37.1789L106.976 31.9802L102.99 26.7761L106.976 21.5719L102.99 16.3651L106.976 11.1501L102.99 5.93652" stroke="#A6A6A6" stroke-width="1.09115" stroke-miterlimit="10" stroke-linecap="round" stroke-linejoin="round"/>
<path d="M948.86 17.181L953.878 12.1649L948.86 7.14746" stroke="#373638" stroke-width="1.09115" stroke-miterlimit="10" stroke-linecap="round" stroke-linejoin="round"/>
<path d="M953.878 12.165H930.109" stroke="#373638" stroke-width="1.09115" stroke-miterlimit="10" stroke-linecap="round" stroke-linejoin="round"/>
<path d="M948.86 33.8465L953.878 28.8291L948.86 23.813" stroke="#373638" stroke-width="1.09115" stroke-miterlimit="10" stroke-linecap="round" stroke-linejoin="round"/>
<path d="M953.878 28.8291H930.109" stroke="#373638" stroke-width="1.09115" stroke-miterlimit="10" stroke-linecap="round" stroke-linejoin="round"/>
<path d="M948.86 50.5134L953.878 45.496L948.86 40.4785" stroke="#373638" stroke-width="1.09115" stroke-miterlimit="10" stroke-linecap="round" stroke-linejoin="round"/>
<path d="M953.878 45.4961H930.109" stroke="#373638" stroke-width="1.09115" stroke-miterlimit="10" stroke-linecap="round" stroke-linejoin="round"/>
<path d="M948.86 67.1794L953.878 62.162L948.86 57.1445" stroke="#373638" stroke-width="1.09115" stroke-miterlimit="10" stroke-linecap="round" stroke-linejoin="round"/>
<path d="M953.878 62.1616H930.109" stroke="#373638" stroke-width="1.09115" stroke-miterlimit="10" stroke-linecap="round" stroke-linejoin="round"/>
<path d="M557.786 73.5918L582.071 49.3054H563.098L587.385 25.0203H568.411L592.697 0.733887H920.488V73.5918H557.786Z" fill="white"/>
<path d="M179.317 10.1157H125.197V64.2119H179.317V10.1157Z" fill="white"/>
<path d="M157.301 56.2415C157.301 55.6111 157.301 54.9793 157.301 54.2867C155.942 54.2867 154.659 54.2867 153.301 54.2867C153.301 55.5664 153.301 56.8259 153.301 58.1611C152.617 58.1611 152.004 58.1611 151.283 58.1611C151.283 57.5645 151.283 56.9503 151.283 56.2834C150.589 56.2834 149.998 56.2834 149.3 56.2834C149.3 56.8773 149.3 57.4928 149.3 58.1732C148.581 58.1732 147.968 58.1732 147.299 58.1732C147.299 56.8976 147.299 55.6395 147.299 54.2718C147.893 54.2718 148.508 54.2718 149.268 54.2718C149.268 53.5129 149.268 52.8568 149.268 52.2007L149.239 52.2278C151.233 52.2278 153.225 52.2278 155.29 52.2278C155.29 51.454 155.29 50.8236 155.29 50.1918L155.263 50.2216C155.893 50.2216 156.523 50.2216 157.261 50.2216C157.261 49.5357 157.261 48.9189 157.261 48.252C157.955 48.252 158.544 48.252 159.242 48.252C159.242 48.8431 159.242 49.4573 159.242 50.1756C163.973 50.1756 168.6 50.1756 173.287 50.1756C173.287 51.5595 173.287 52.8406 173.287 54.1717C172.666 54.1717 172.078 54.1717 171.381 54.1717C171.381 53.5657 171.381 52.9515 171.381 52.2751C169.325 52.2751 167.374 52.2751 165.35 52.2751C165.35 54.2285 165.35 56.1549 165.35 58.1583C163.331 58.1583 161.38 58.1583 159.278 58.1583C159.278 57.5266 159.278 56.8719 159.278 56.2171C159.932 56.2171 160.589 56.2171 161.345 56.2171C161.345 55.4866 161.345 54.8738 161.345 54.1934C162.04 54.1934 162.63 54.1934 163.251 54.1934C163.251 53.5102 163.251 52.8974 163.251 52.2832C161.909 52.2832 160.629 52.2832 159.307 52.2832C159.307 53.6509 159.307 54.9482 159.307 56.2469C158.631 56.2347 157.953 56.2239 157.276 56.2117L157.301 56.2415Z" fill="black"/>
<path d="M145.166 30.0847C140.496 30.0847 135.894 30.0847 131.237 30.0847C131.237 25.4393 131.237 20.8371 131.237 16.1538C135.842 16.1538 140.467 16.1538 145.166 16.1538C145.166 20.7492 145.166 25.3743 145.166 30.0847ZM143.158 28.0745C143.158 24.7088 143.158 21.4215 143.158 18.16C139.799 18.16 136.512 18.16 133.242 18.16C133.242 21.5027 133.242 24.7669 133.242 28.0745C136.559 28.0745 139.822 28.0745 143.158 28.0745Z" fill="black"/>
<path d="M173.277 30.0837C168.603 30.0837 164.001 30.0837 159.346 30.0837C159.346 25.4369 159.346 20.8348 159.346 16.1528C163.953 16.1528 168.58 16.1528 173.277 16.1528C173.277 20.7523 173.277 25.3774 173.277 30.0837ZM161.345 28.0492C164.714 28.0492 168.001 28.0492 171.26 28.0492C171.26 24.6902 171.26 21.403 171.26 18.1347C167.916 18.1347 164.653 18.1347 161.345 18.1347C161.345 21.4503 161.345 24.7146 161.345 28.0492Z" fill="black"/>
<path d="M131.237 44.2295C135.884 44.2295 140.486 44.2295 145.163 44.2295C145.163 48.856 145.163 53.4811 145.163 58.1726C140.546 58.1726 135.919 58.1726 131.237 58.1726C131.237 53.5528 131.237 48.9507 131.237 44.2295ZM133.261 46.2357C133.261 49.6041 133.261 52.8913 133.261 56.1502C136.62 56.1502 139.907 56.1502 143.176 56.1502C143.176 52.8061 143.176 49.5432 143.176 46.2357C139.859 46.2357 136.596 46.2357 133.261 46.2357Z" fill="black"/>
<path d="M155.262 32.1507C155.89 32.1507 156.518 32.1507 157.248 32.1507C157.248 32.796 157.248 33.4088 157.248 34.1583C157.999 34.1583 158.652 34.1583 159.304 34.1583L159.277 34.1285C159.277 35.4759 159.277 36.8246 159.277 38.172L159.304 38.1422C158.008 38.1422 156.712 38.1422 155.346 38.1422C155.346 38.8199 155.346 39.4314 155.346 40.1497C155.955 40.1497 156.568 40.1497 157.249 40.1497C157.249 41.5079 157.249 42.7646 157.249 44.1255C157.926 44.1255 158.539 44.1255 159.22 44.1255C159.22 44.8412 159.22 45.4526 159.22 46.1736C157.904 46.1736 156.583 46.1736 155.262 46.1736L155.289 46.2034C155.289 45.55 155.289 44.898 155.289 44.25C154.54 44.25 153.928 44.25 153.253 44.25C153.253 44.9467 153.253 45.5744 153.253 46.2034L153.282 46.175C152.603 46.175 151.925 46.175 151.246 46.175L151.274 46.2034C151.274 44.879 151.274 43.5547 151.274 42.1599C150.5 42.1599 149.869 42.1599 149.238 42.1599L149.268 42.187C149.268 41.5566 149.268 40.9249 149.268 40.1876C150.592 40.1876 151.878 40.1876 153.214 40.1876C153.214 39.4923 153.214 38.9038 153.214 38.2058C152.622 38.2058 152.006 38.2058 151.276 38.2058C151.276 37.4482 151.276 36.7921 151.276 36.136L151.246 36.1631C152.569 36.1631 153.893 36.1631 155.289 36.1631C155.289 34.717 155.289 33.4183 155.289 32.1196L155.262 32.1507Z" fill="black"/>
<path d="M133.206 36.163C133.206 35.5339 133.206 34.9049 133.206 34.1703C132.52 34.1703 131.906 34.1703 131.237 34.1703C131.237 33.4534 131.237 32.8419 131.237 32.1831C132.536 32.1831 133.791 32.1831 135.155 32.1831C135.155 32.7919 135.155 33.4047 135.155 34.0811C135.872 34.0811 136.485 34.0811 137.168 34.0811C137.168 33.475 137.168 32.8838 137.168 32.2156C137.847 32.2156 138.46 32.2156 139.179 32.2156C139.179 33.4669 139.179 34.7493 139.179 36.1697C141.271 36.1697 143.259 36.1697 145.248 36.1697L145.22 36.1413C145.22 36.769 145.22 37.3954 145.22 38.1259C144.576 38.1259 143.962 38.1259 143.211 38.1259C143.211 38.8753 143.211 39.5273 143.211 40.1794L143.239 40.151C142.61 40.151 141.982 40.151 141.249 40.151C141.249 40.8341 141.249 41.4469 141.249 42.1166C139.867 42.1166 138.588 42.1166 137.24 42.1166C137.24 41.501 137.24 40.9126 137.24 40.22C136.562 40.22 135.948 40.22 135.232 40.22C135.232 38.8401 135.232 37.559 135.232 36.1332C134.483 36.1332 133.829 36.1332 133.176 36.1332L133.206 36.163Z" fill="black"/>
<path d="M147.26 32.1495C147.26 29.5157 147.26 26.8818 147.26 24.1763C149.243 24.1763 151.192 24.1763 153.253 24.1763C153.253 26.1621 153.253 28.1521 153.253 30.142L153.282 30.115C152.626 30.115 151.972 30.115 151.213 30.115C151.213 29.3831 151.213 28.7676 151.213 28.1751C150.515 28.1751 149.925 28.1751 149.231 28.1751C149.231 29.5116 149.231 30.7968 149.231 32.1225C148.492 32.1225 147.862 32.1225 147.231 32.1225L147.26 32.1495Z" fill="black"/>
<path d="M171.328 34.1598C171.957 34.1598 172.586 34.1598 173.281 34.1598C173.281 37.4835 173.281 40.7667 173.281 44.1649C172.635 44.1649 171.98 44.1649 171.326 44.1649L171.355 44.1933C171.355 43.5629 171.355 42.9325 171.355 42.1966C170.665 42.1966 170.049 42.1966 169.384 42.1966C169.384 41.5026 169.384 40.9128 169.384 40.2148C169.979 40.2148 170.593 40.2148 171.356 40.2148C171.356 38.118 171.356 36.1253 171.356 34.1313L171.328 34.1598Z" fill="black"/>
<path d="M163.293 36.1372C163.293 36.7662 163.293 37.3966 163.293 38.1298C164.642 38.1298 165.925 38.1298 167.265 38.1298C167.265 38.8441 167.265 39.4556 167.265 40.1387C166.644 40.1387 166.054 40.1387 165.36 40.1387C165.36 40.8178 165.36 41.432 165.36 42.1571C164.605 42.1571 163.95 42.1571 163.297 42.1571L163.325 42.1855C163.325 41.5564 163.325 40.9287 163.325 40.1982C161.978 40.1982 160.697 40.1982 159.306 40.1982C159.306 39.4488 159.306 38.7954 159.306 38.1434L159.279 38.1731C159.933 38.1731 160.585 38.1731 161.336 38.1731C161.336 37.4251 161.336 36.8122 161.336 36.1656C162.066 36.1656 162.695 36.1656 163.323 36.1656L163.293 36.1372Z" fill="black"/>
<path d="M145.249 36.1686C145.249 35.5396 145.249 34.9119 145.249 34.1814C144.579 34.1814 143.968 34.1814 143.293 34.1814C143.293 33.4698 143.293 32.8597 143.293 32.1481C144.624 32.1481 145.943 32.1481 147.261 32.1481L147.231 32.1211C147.231 32.7758 147.231 33.4319 147.231 34.13C148.677 34.13 149.977 34.13 151.276 34.13C151.266 34.8091 151.255 35.4868 151.246 36.1645L151.276 36.1375C149.257 36.1388 147.239 36.1388 145.221 36.1402L145.249 36.1686Z" fill="black"/>
<path d="M149.268 50.2195C149.268 48.8721 149.268 47.5248 149.268 46.176L149.238 46.2031C149.917 46.2031 150.595 46.2031 151.274 46.2031L151.246 46.1747C151.246 46.8281 151.246 47.4801 151.246 48.1281C151.995 48.1281 152.607 48.1281 153.282 48.1281C153.282 47.4314 153.282 46.8037 153.282 46.1747L153.253 46.2031C153.932 46.2031 154.61 46.2031 155.289 46.2031L155.262 46.1733C155.262 47.5221 155.262 48.8708 155.262 50.2195L155.289 50.1897C153.272 50.1897 151.255 50.1897 149.238 50.1897L149.268 50.2195Z" fill="black"/>
<path d="M155.287 22.0787C153.988 22.0787 152.69 22.0787 151.326 22.0787C151.326 20.082 151.326 18.1313 151.326 16.1265C151.934 16.1265 152.522 16.1265 153.221 16.1265C153.221 17.3845 153.221 18.6697 153.221 20.105C153.978 20.105 154.632 20.105 155.287 20.105L155.259 20.0766C155.259 20.753 155.257 21.4307 155.257 22.1071L155.287 22.0787Z" fill="black"/>
<path d="M159.306 34.1598C159.306 33.5308 159.306 32.9018 159.306 32.2051C161.288 32.2051 163.233 32.2051 165.248 32.2051C165.248 33.4713 165.248 34.7483 165.248 36.139C164.598 36.139 163.945 36.139 163.293 36.139L163.323 36.166C163.323 35.5113 163.323 34.8552 163.323 34.1301C161.877 34.1301 160.578 34.1301 159.279 34.1301L159.306 34.1598Z" fill="black"/>
<path d="M163.295 42.1572C163.295 42.789 163.295 43.4194 163.295 44.158C163.977 44.158 164.594 44.158 165.261 44.158C165.261 44.8533 165.261 45.4431 165.261 46.1425C164.67 46.1425 164.054 46.1425 163.332 46.1425C163.332 46.8622 163.332 47.4763 163.332 48.1446C162.636 48.1446 162.045 48.1446 161.377 48.1446C161.377 46.2142 161.377 44.2608 161.377 42.1856C162.013 42.1856 162.669 42.1856 163.325 42.1856L163.295 42.1572Z" fill="black"/>
<path d="M171.326 44.166C171.326 44.7978 171.326 45.4282 171.326 46.1668C172.008 46.1668 172.623 46.1668 173.292 46.1668C173.292 46.8621 173.292 47.4533 173.292 48.1215C172.032 48.1215 170.749 48.1215 169.355 48.1215C169.355 47.525 169.355 46.9108 169.355 46.2263C168.658 46.2263 168.069 46.2263 167.4 46.2263C167.4 45.5431 167.4 44.929 167.4 44.1944C168.704 44.1944 170.03 44.1944 171.355 44.1944L171.326 44.166Z" fill="black"/>
<path d="M155.289 20.1052C155.289 18.8106 155.289 17.516 155.289 16.147C155.932 16.147 156.542 16.147 157.22 16.147C157.22 17.4064 157.22 18.6848 157.22 20.0768C156.566 20.0768 155.914 20.0768 155.261 20.0768L155.289 20.1052Z" fill="black"/>
<path d="M149.193 22.078C148.527 22.078 147.962 22.078 147.32 22.078C147.32 20.7834 147.32 19.5023 147.32 18.1509C147.909 18.1509 148.52 18.1509 149.193 18.1509C149.193 19.432 149.193 20.713 149.193 22.078Z" fill="black"/>
<path d="M155.259 22.1075C155.888 22.1075 156.517 22.1075 157.215 22.1075C157.215 23.4211 157.215 24.6994 157.215 26.0454C156.614 26.0454 156.004 26.0454 155.287 26.0454C155.287 24.7184 155.287 23.3994 155.287 22.0791L155.259 22.1075Z" fill="black"/>
<path d="M171.357 34.1311C170.062 34.1311 168.767 34.1311 167.398 34.1311C167.398 33.4885 167.398 32.8784 167.398 32.2007C168.659 32.2007 169.936 32.2007 171.328 32.2007C171.328 32.8541 171.328 33.5075 171.328 34.1595L171.357 34.1311Z" fill="black"/>
<path d="M149.268 46.1772C148.639 46.1772 148.01 46.1772 147.313 46.1772C147.313 44.8609 147.313 43.5812 147.313 42.1892C147.963 42.1892 148.616 42.1892 149.268 42.1892L149.238 42.1621C149.238 43.5095 149.238 44.8582 149.238 46.2056L149.268 46.1772Z" fill="black"/>
<path d="M143.211 40.1798C143.839 40.1798 144.466 40.1798 145.164 40.1798C145.164 40.8223 145.164 41.4324 145.164 42.1102C144.568 42.1102 143.959 42.1102 143.239 42.1102C143.239 41.4554 143.239 40.8034 143.239 40.1514L143.211 40.1798Z" fill="black"/>
<path d="M155.331 30.1756C155.331 29.5236 155.331 28.8702 155.331 28.1694C155.952 28.1694 156.539 28.1694 157.205 28.1694C157.205 28.7606 157.205 29.3693 157.205 30.1485C156.596 30.1485 155.948 30.1485 155.3 30.1472L155.331 30.1756Z" fill="black"/>
<path d="M133.177 36.1343C133.177 36.762 133.177 37.3897 133.177 38.0877C132.534 38.0877 131.924 38.0877 131.246 38.0877C131.246 37.4911 131.246 36.8824 131.246 36.1627C131.901 36.1627 132.553 36.1627 133.205 36.1627L133.177 36.1343Z" fill="black"/>
<path d="M149.268 52.2019C148.639 52.2019 148.012 52.2019 147.313 52.2019C147.313 51.5539 147.313 50.9438 147.313 50.2214C147.961 50.2214 148.615 50.2214 149.268 50.2214L149.238 50.1943C149.238 50.8734 149.238 51.5512 149.238 52.2303L149.268 52.2019Z" fill="black"/>
<path d="M153.252 30.1417C153.945 30.1525 154.636 30.1633 155.33 30.1742L155.299 30.1471C155.287 30.8154 155.274 31.4836 155.261 32.1506L155.288 32.1208C154.61 32.1303 153.931 32.1411 153.252 32.1506C153.261 31.4715 153.271 30.7924 153.279 30.1133L153.252 30.1417Z" fill="black"/>
<path d="M157.272 56.2124C157.272 56.8401 157.272 57.4678 157.272 58.1658C156.63 58.1658 156.02 58.1658 155.342 58.1658C155.342 57.5706 155.342 56.9605 155.342 56.2408C155.997 56.2408 156.649 56.2408 157.301 56.2408L157.272 56.2124Z" fill="black"/>
<path d="M131.259 40.2036C131.896 40.2036 132.483 40.2036 133.13 40.2036C133.13 40.8502 133.13 41.4617 133.13 42.1246C132.513 42.1246 131.924 42.1246 131.259 42.1246C131.259 41.528 131.259 40.9165 131.259 40.2036Z" fill="black"/>
<path d="M171.276 58.2186C170.621 58.2186 170.057 58.2186 169.412 58.2186C169.412 57.5977 169.412 56.9863 169.412 56.3018C169.988 56.3018 170.598 56.3018 171.276 56.3018C171.276 56.9051 171.276 57.5166 171.276 58.2186Z" fill="black"/>
<path d="M141.171 20.1558C141.171 22.166 141.171 24.091 141.171 26.0647C139.197 26.0647 137.272 26.0647 135.271 26.0647C135.271 24.1221 135.271 22.1728 135.271 20.1558C137.206 20.1558 139.155 20.1558 141.171 20.1558Z" fill="black"/>
<path d="M169.262 26.0674C167.264 26.0674 165.34 26.0674 163.362 26.0674C163.362 24.0991 163.362 22.1741 163.362 20.168C165.293 20.168 167.242 20.168 169.262 20.168C169.262 22.0903 169.262 24.0396 169.262 26.0674Z" fill="black"/>
<path d="M135.245 54.1549C135.245 52.1487 135.245 50.2237 135.245 48.25C137.217 48.25 139.142 48.25 141.145 48.25C141.145 50.1885 141.145 52.1379 141.145 54.1549C139.213 54.1549 137.265 54.1549 135.245 54.1549Z" fill="black"/>
<path d="M151.245 34.158C151.245 33.5276 151.245 32.8959 151.245 32.1221C151.969 32.1221 152.625 32.1221 153.281 32.1221C153.281 32.7525 153.281 33.3829 153.281 34.158C152.557 34.158 151.901 34.158 151.245 34.158Z" fill="black"/>
<mask id="mask0_1_9076" style="mask-type:luminance" maskUnits="userSpaceOnUse" x="115" y="-19" width="806" height="112">
<path d="M920.486 -18.4395H115.503V92.7643H920.486V-18.4395Z" fill="white"/>
</mask>
<g mask="url(#mask0_1_9076)">
<path d="M620.494 16.4342L614.688 12.6816C600.602 3.57602 600.602 -3.01606 600.602 -5.49841C600.602 -11.406 605.39 -16.1948 611.298 -16.1948C615.209 -16.1948 618.629 -14.0967 620.494 -10.965C622.36 -14.0967 625.779 -16.1948 629.69 -16.1948C635.598 -16.1948 640.387 -11.406 640.387 -5.49841C640.387 -3.01606 640.387 3.57602 626.3 12.6816L620.494 16.4342Z" fill="#373638"/>
<path d="M895.658 14.6991C906.817 14.6991 915.863 5.7026 915.863 -5.3951C915.863 -16.4928 906.817 -25.4893 895.658 -25.4893C884.499 -25.4893 875.453 -16.4928 875.453 -5.3951C875.453 5.7026 884.499 14.6991 895.658 14.6991Z" fill="#373638"/>
<path d="M690.485 86.1255V72.8845L663.938 46.3403H650.698L690.485 86.1255Z" fill="#AEDB35"/>
<path d="M690.485 112.598V99.3584L637.467 46.3403H624.226L690.485 112.598Z" fill="#AEDB35"/>
<path d="M690.485 59.6517V46.4134L690.412 46.3403H677.174L690.485 59.6517Z" fill="#AEDB35"/>
<path d="M670.631 119.213H683.869L617.611 52.9551V66.1947L670.631 119.213Z" fill="#AEDB35"/>
<path d="M341.883 40.9711C340.815 40.9711 339.946 40.1027 339.946 39.034C339.946 37.9666 340.815 37.0981 341.883 37.0981C342.952 37.0981 343.822 37.9666 343.822 39.034C343.822 40.1027 342.952 40.9711 341.883 40.9711Z" fill="#373638"/>
<path d="M341.883 50.389C340.815 50.389 339.946 49.5205 339.946 48.4518C339.946 47.3831 340.815 46.5146 341.883 46.5146C342.952 46.5146 343.822 47.3831 343.822 48.4518C343.822 49.5192 342.952 50.389 341.883 50.389Z" fill="#373638"/>
<path d="M341.883 59.806C340.815 59.806 339.946 58.9375 339.946 57.8688C339.946 56.8001 340.815 55.9316 341.883 55.9316C342.952 55.9316 343.822 56.8001 343.822 57.8688C343.822 58.9375 342.952 59.806 341.883 59.806Z" fill="#373638"/>
<path d="M333.026 40.9711C331.958 40.9711 331.088 40.1027 331.088 39.034C331.088 37.9666 331.958 37.0981 333.026 37.0981C334.095 37.0981 334.964 37.9666 334.964 39.034C334.962 40.1027 334.094 40.9711 333.026 40.9711Z" fill="#373638"/>
<path d="M333.026 50.389C331.958 50.389 331.088 49.5205 331.088 48.4518C331.088 47.3831 331.958 46.5146 333.026 46.5146C334.095 46.5146 334.964 47.3831 334.964 48.4518C334.962 49.5192 334.094 50.389 333.026 50.389Z" fill="#373638"/>
<path d="M333.026 59.806C331.958 59.806 331.088 58.9375 331.088 57.8688C331.088 56.8001 331.958 55.9316 333.026 55.9316C334.095 55.9316 334.964 56.8001 334.964 57.8688C334.962 58.9375 334.094 59.806 333.026 59.806Z" fill="#373638"/>
<path d="M350.74 40.9711C349.671 40.9711 348.804 40.1027 348.804 39.034C348.804 37.9666 349.672 37.0981 350.74 37.0981C351.808 37.0981 352.678 37.9666 352.678 39.034C352.678 40.1027 351.808 40.9711 350.74 40.9711Z" fill="#373638"/>
<path d="M350.74 50.389C349.671 50.389 348.804 49.5205 348.804 48.4518C348.804 47.3831 349.672 46.5146 350.74 46.5146C351.808 46.5146 352.678 47.3831 352.678 48.4518C352.678 49.5192 351.808 50.389 350.74 50.389Z" fill="#373638"/>
<path d="M350.74 59.806C349.671 59.806 348.804 58.9375 348.804 57.8688C348.804 56.8001 349.672 55.9316 350.74 55.9316C351.808 55.9316 352.678 56.8001 352.678 57.8688C352.678 58.9375 351.808 59.806 350.74 59.806Z" fill="#373638"/>
<path d="M710.615 31.6155C721.282 31.6155 729.929 22.9685 729.929 12.3019C729.929 1.63528 721.282 -7.01172 710.615 -7.01172C699.949 -7.01172 691.302 1.63528 691.302 12.3019C691.302 22.9685 699.949 31.6155 710.615 31.6155Z" fill="#FFC400"/>
<path d="M705.692 7.37749C705.023 6.70922 705.023 5.61482 705.692 4.94655L707.001 3.63841C707.669 2.97014 708.764 2.97014 709.432 3.63841C710.1 4.30668 710.1 5.40108 709.432 6.06935L708.124 7.37749C707.454 8.04576 706.36 8.04576 705.692 7.37749Z" fill="#424242"/>
<path d="M715.54 17.2241C714.872 16.5558 714.872 15.4614 715.54 14.7931L716.85 13.4836C717.518 12.8154 718.612 12.8154 719.281 13.4836C719.949 14.1519 719.949 15.2463 719.281 15.9146L717.971 17.2227C717.302 17.8923 716.209 17.8923 715.54 17.2241Z" fill="#424242"/>
<path d="M700.176 10.1328C698.613 17.7435 705.171 24.3005 712.782 22.7394" stroke="#424242" stroke-width="1.45491" stroke-miterlimit="10" stroke-linecap="round"/>
<path d="M702.198 9.71803C702.198 9.71803 700.111 11.1209 698.022 8.90771" stroke="#424242" stroke-width="1.45491" stroke-miterlimit="10" stroke-linecap="round"/>
<path d="M713.2 20.7183C713.2 20.7183 711.797 22.8056 714.01 24.8943" stroke="#424242" stroke-width="1.45491" stroke-miterlimit="10" stroke-linecap="round"/>
<path d="M560.201 59.1072H544.742L555.673 48.1767L553.057 45.5605L542.126 56.4909V41.0327H538.425V56.4909L527.495 45.5605L524.878 48.1767L535.809 59.1072H520.351V62.8084H535.809L524.878 73.7388L527.495 76.3551L538.425 65.4247V80.8828H542.126V65.4247L553.057 76.3551L555.673 73.7388L544.742 62.8084H560.201V59.1072Z" fill="#373638"/>
<path d="M411.102 14.7328C432.787 23.7152 429.146 31.8468 407.925 22.4003C417.373 43.62 409.24 47.2617 400.258 25.5753C391.275 47.2603 383.144 43.62 392.591 22.4003C371.372 31.8481 367.73 23.7152 389.415 14.7328C367.73 5.75033 371.37 -2.38122 392.591 7.06658C383.144 -14.1531 391.277 -17.7948 400.258 3.89026C409.24 -17.7948 417.372 -14.1544 407.925 7.06658C429.146 -2.38122 432.787 5.75033 411.102 14.7328Z" fill="#AEDB35"/>
<path d="M445.137 79.4686C439.189 73.5204 439.189 63.8751 445.137 57.9269C451.085 51.9788 460.73 51.9788 466.679 57.9269C472.627 63.8751 472.627 73.5204 466.679 79.4686" stroke="white" stroke-width="8.72921" stroke-miterlimit="10"/>
<path d="M456.021 21.0879L463.954 26.5382L471.89 21.0879L479.826 26.5382L487.762 21.0879L495.7 26.5382L503.634 21.0879L511.575 26.5382L519.521 21.0879L527.467 26.5382" stroke="#FFC400" stroke-width="5.81951" stroke-miterlimit="10"/>
</g>
<path d="M795.322 21.3365H802.612V53.2332H795.322V40.7479H792.861V53.2332H785.57V21.3365H792.861V33.7762H795.322V21.3365Z" fill="#F28705"/>
<path d="M815.237 53.2332L814.781 46.1704H812.23L811.728 53.2332H804.438L809.04 21.3365H817.971L822.573 53.2332H815.237ZM812.64 40.2467H814.371L813.733 30.4954H813.278L812.64 40.2467Z" fill="#F28705"/>
<path d="M840.74 39.9277L840.785 44.9856C840.785 50.6815 838.416 53.6889 832.264 53.6889C826.067 53.6889 823.743 50.6815 823.743 44.9856V29.5841C823.743 23.8883 826.067 20.8809 832.264 20.8809C838.416 20.8809 840.74 23.8883 840.74 29.5841V32.9105H833.677V31.4068C833.677 28.1715 833.312 27.3969 832.264 27.3969C831.216 27.3969 830.806 28.1715 830.806 31.4068V43.163C830.806 46.3982 831.216 47.1728 832.264 47.1728C833.312 47.1728 833.722 46.3982 833.722 43.163C833.722 38.4696 833.403 36.9659 833.403 36.9659H840.466C840.466 36.9659 840.74 37.6038 840.74 39.9277Z" fill="#F28705"/>
<path d="M860.073 43.3908V46.9906C860.073 51.6839 860.392 53.2332 860.392 53.2332H853.329C853.329 53.2332 853.01 52.5953 853.01 50.2714V42.1149C853.01 38.424 852.145 37.695 850.687 37.695H850.14V53.2332H843.305V21.3365H850.14V33.7762H850.595L852.874 21.3365H860.347L856.838 35.0065L854.195 35.3255V35.7812C858.934 35.7812 860.073 37.9684 860.073 43.3908Z" fill="#F28705"/>
<path d="M875.943 21.3365V27.8526H869.974V34.0041H875.259V39.9277H869.974V46.7172H875.943V53.2332H862.683V21.3365H875.943Z" fill="#F28705"/>
<path d="M895.547 43.6642V46.9906C895.547 51.6839 895.866 53.2332 895.866 53.2332H888.575C888.575 53.2332 888.256 52.5953 888.256 50.2714V43.4819C888.256 39.8366 887.39 39.062 885.886 39.062H885.659V53.2332H878.368V21.3365H887.345C893.314 21.3365 895.638 22.8858 895.638 28.2627C895.638 33.5028 893.997 35.5533 888.803 35.5533V36.009C893.724 36.009 895.547 37.5583 895.547 43.6642ZM885.659 32.5459H887.345C888.575 32.5459 889.031 31.8624 889.031 30.1765C889.031 28.6728 888.575 27.8526 887.345 27.8526H885.659V32.5459Z" fill="#F28705"/>
<path d="M203.739 24.5992C203.309 24.5992 202.977 24.4819 202.742 24.2474C202.508 24.003 202.39 23.6609 202.39 23.221V15.377C202.39 14.9274 202.508 14.5853 202.742 14.3507C202.977 14.1161 203.309 13.9988 203.739 13.9988C204.179 13.9988 204.512 14.1161 204.736 14.3507C204.971 14.5853 205.088 14.9274 205.088 15.377V18.1188H209.355V15.377C209.355 14.9274 209.467 14.5853 209.692 14.3507C209.927 14.1161 210.264 13.9988 210.704 13.9988C211.134 13.9988 211.461 14.1161 211.686 14.3507C211.921 14.5853 212.038 14.9274 212.038 15.377V23.221C212.038 23.6609 211.921 24.003 211.686 24.2474C211.461 24.4819 211.134 24.5992 210.704 24.5992C210.264 24.5992 209.927 24.4819 209.692 24.2474C209.467 24.003 209.355 23.6609 209.355 23.221V20.3327H205.088V23.221C205.088 23.6609 204.976 24.003 204.751 24.2474C204.526 24.4819 204.189 24.5992 203.739 24.5992ZM214.4 24.5992C214.097 24.5992 213.843 24.5308 213.638 24.394C213.433 24.2474 213.306 24.0519 213.257 23.8075C213.208 23.5534 213.252 23.2699 213.389 22.9571L217.039 15.0985C217.215 14.7173 217.43 14.4387 217.685 14.2628C217.948 14.0868 218.247 13.9988 218.579 13.9988C218.911 13.9988 219.2 14.0868 219.444 14.2628C219.698 14.4387 219.918 14.7173 220.104 15.0985L223.755 22.9571C223.911 23.2699 223.965 23.5534 223.916 23.8075C223.877 24.0616 223.755 24.2571 223.549 24.394C223.354 24.5308 223.109 24.5992 222.816 24.5992C222.425 24.5992 222.122 24.5113 221.907 24.3353C221.702 24.1594 221.516 23.8759 221.35 23.485L220.558 21.6229L221.585 22.3707H215.544L216.585 21.6229L215.793 23.485C215.617 23.8759 215.436 24.1594 215.251 24.3353C215.065 24.5113 214.782 24.5992 214.4 24.5992ZM218.55 16.9458L216.849 21.0071L216.438 20.3034H220.705L220.294 21.0071L218.579 16.9458H218.55ZM230.061 24.6286C228.917 24.6286 227.935 24.4086 227.114 23.9688C226.293 23.5289 225.662 22.9083 225.222 22.1068C224.792 21.3053 224.577 20.3669 224.577 19.2917C224.577 18.4902 224.699 17.762 224.944 17.1071C225.198 16.4522 225.56 15.8902 226.029 15.421C226.508 14.9519 227.084 14.5951 227.759 14.3507C228.443 14.0966 229.21 13.9695 230.061 13.9695C230.51 13.9695 230.975 14.0233 231.454 14.1308C231.942 14.2285 232.372 14.3801 232.744 14.5853C233.018 14.7319 233.208 14.9176 233.316 15.1425C233.423 15.3673 233.457 15.597 233.418 15.8316C233.389 16.0661 233.306 16.2763 233.169 16.462C233.032 16.6477 232.856 16.7748 232.641 16.8432C232.426 16.9019 232.192 16.8676 231.937 16.7406C231.644 16.6037 231.351 16.5011 231.058 16.4327C230.774 16.3545 230.476 16.3154 230.163 16.3154C229.557 16.3154 229.049 16.4327 228.639 16.6673C228.238 16.8921 227.935 17.2244 227.73 17.6643C227.524 18.1041 227.422 18.6466 227.422 19.2917C227.422 19.9368 227.524 20.4842 227.73 20.9338C227.935 21.3737 228.238 21.7109 228.639 21.9455C229.049 22.1703 229.557 22.2827 230.163 22.2827C230.418 22.2827 230.691 22.2534 230.984 22.1947C231.278 22.1263 231.566 22.0237 231.849 21.8868C232.143 21.7598 232.402 21.7256 232.627 21.7842C232.861 21.8428 233.047 21.9601 233.184 22.1361C233.33 22.312 233.423 22.5173 233.462 22.7519C233.501 22.9767 233.467 23.2015 233.36 23.4263C233.262 23.6511 233.086 23.8319 232.832 23.9688C232.49 24.1741 232.065 24.3353 231.556 24.4526C231.058 24.5699 230.559 24.6286 230.061 24.6286ZM236.284 24.5992C235.854 24.5992 235.522 24.4819 235.287 24.2474C235.053 24.003 234.935 23.6658 234.935 23.2357V15.3624C234.935 14.9128 235.053 14.5755 235.287 14.3507C235.522 14.1161 235.854 13.9988 236.284 13.9988C236.724 13.9988 237.056 14.1161 237.281 14.3507C237.516 14.5755 237.633 14.9128 237.633 15.3624V18.5586H237.662L241.225 14.6293C241.411 14.4338 241.606 14.2823 241.812 14.1748C242.027 14.0575 242.266 13.9988 242.53 13.9988C242.941 13.9988 243.234 14.1064 243.41 14.3214C243.596 14.5267 243.679 14.771 243.659 15.0545C243.649 15.3282 243.537 15.5823 243.322 15.8169L239.774 19.5849V18.4853L243.498 22.6932C243.752 22.9767 243.879 23.2699 243.879 23.5729C243.879 23.8662 243.776 24.1105 243.571 24.306C243.376 24.5015 243.082 24.5992 242.691 24.5992C242.359 24.5992 242.09 24.5357 241.885 24.4086C241.69 24.2718 241.475 24.0714 241.24 23.8075L237.662 19.8049H237.633V23.2357C237.633 23.6658 237.521 24.003 237.296 24.2474C237.071 24.4819 236.734 24.5992 236.284 24.5992ZM246.781 24.4673C246.321 24.4673 245.97 24.35 245.725 24.1154C245.491 23.871 245.373 23.5241 245.373 23.0744V15.5237C245.373 15.074 245.491 14.7319 245.725 14.4973C245.97 14.253 246.321 14.1308 246.781 14.1308H251.751C252.103 14.1308 252.367 14.2188 252.543 14.3947C252.719 14.5707 252.807 14.8248 252.807 15.1571C252.807 15.4992 252.719 15.7631 252.543 15.9489C252.367 16.1248 252.103 16.2128 251.751 16.2128H247.954V18.1774H251.429C251.771 18.1774 252.03 18.2654 252.206 18.4413C252.391 18.6173 252.484 18.8763 252.484 19.2184C252.484 19.5605 252.391 19.8195 252.206 19.9955C252.03 20.1714 251.771 20.2594 251.429 20.2594H247.954V22.3853H251.751C252.103 22.3853 252.367 22.4782 252.543 22.6639C252.719 22.8398 252.807 23.094 252.807 23.4263C252.807 23.7684 252.719 24.0274 252.543 24.2034C252.367 24.3793 252.103 24.4673 251.751 24.4673H246.781ZM255.728 24.5992C255.298 24.5992 254.966 24.4819 254.731 24.2474C254.497 24.003 254.379 23.6658 254.379 23.2357V15.4943C254.379 15.0545 254.497 14.7173 254.731 14.4827C254.976 14.2481 255.313 14.1308 255.743 14.1308H259.35C260.523 14.1308 261.427 14.4191 262.062 14.9958C262.707 15.5628 263.03 16.3545 263.03 17.371C263.03 18.0259 262.883 18.5977 262.59 19.0864C262.306 19.5654 261.891 19.9368 261.344 20.2007C260.806 20.4549 260.141 20.5819 259.35 20.5819L259.467 20.318H260.171C260.591 20.318 260.962 20.4207 261.285 20.6259C261.608 20.8214 261.876 21.1244 262.091 21.5349L262.824 22.8545C262.981 23.138 263.054 23.4165 263.044 23.6902C263.035 23.9541 262.927 24.1741 262.722 24.35C262.526 24.5162 262.238 24.5992 261.857 24.5992C261.476 24.5992 261.163 24.521 260.918 24.3647C260.684 24.2083 260.474 23.9639 260.288 23.6316L258.954 21.1831C258.836 20.968 258.685 20.8214 258.499 20.7432C258.323 20.6552 258.118 20.6113 257.883 20.6113H257.077V23.2357C257.077 23.6658 256.965 24.003 256.74 24.2474C256.515 24.4819 256.178 24.5992 255.728 24.5992ZM257.077 18.7052H258.866C259.384 18.7052 259.78 18.6026 260.053 18.3974C260.327 18.1921 260.464 17.8744 260.464 17.4443C260.464 17.0338 260.327 16.7259 260.053 16.5207C259.78 16.3056 259.384 16.1981 258.866 16.1981H257.077V18.7052ZM270.275 24.5992C269.845 24.5992 269.513 24.4819 269.278 24.2474C269.044 24.003 268.926 23.6609 268.926 23.221V15.377C268.926 14.9274 269.044 14.5853 269.278 14.3507C269.513 14.1161 269.845 13.9988 270.275 13.9988C270.715 13.9988 271.048 14.1161 271.272 14.3507C271.507 14.5853 271.624 14.9274 271.624 15.377V18.1188H275.891V15.377C275.891 14.9274 276.003 14.5853 276.228 14.3507C276.463 14.1161 276.8 13.9988 277.24 13.9988C277.67 13.9988 277.997 14.1161 278.222 14.3507C278.457 14.5853 278.574 14.9274 278.574 15.377V23.221C278.574 23.6609 278.457 24.003 278.222 24.2474C277.997 24.4819 277.67 24.5992 277.24 24.5992C276.8 24.5992 276.463 24.4819 276.228 24.2474C276.003 24.003 275.891 23.6609 275.891 23.221V20.3327H271.624V23.221C271.624 23.6609 271.512 24.003 271.287 24.2474C271.062 24.4819 270.725 24.5992 270.275 24.5992ZM285.437 24.6286C284.392 24.6286 283.473 24.4086 282.681 23.9688C281.889 23.5192 281.274 22.8936 280.834 22.0921C280.404 21.2906 280.189 20.3571 280.189 19.2917C280.189 18.4902 280.311 17.762 280.555 17.1071C280.809 16.4522 281.166 15.8902 281.625 15.421C282.095 14.9519 282.652 14.5951 283.297 14.3507C283.942 14.0966 284.655 13.9695 285.437 13.9695C286.483 13.9695 287.397 14.1894 288.179 14.6293C288.971 15.0692 289.587 15.6898 290.027 16.4913C290.466 17.2831 290.686 18.2165 290.686 19.2917C290.686 20.0932 290.559 20.8214 290.305 21.4763C290.061 22.1312 289.704 22.6981 289.235 23.1771C288.775 23.6462 288.223 24.0079 287.578 24.262C286.933 24.5064 286.219 24.6286 285.437 24.6286ZM285.437 22.3707C285.955 22.3707 286.395 22.2485 286.757 22.0041C287.119 21.7598 287.397 21.4079 287.593 20.9485C287.788 20.4891 287.886 19.9368 287.886 19.2917C287.886 18.324 287.671 17.5714 287.241 17.0338C286.811 16.4962 286.21 16.2274 285.437 16.2274C284.929 16.2274 284.489 16.3496 284.118 16.594C283.756 16.8286 283.478 17.1755 283.282 17.6349C283.087 18.0846 282.989 18.6368 282.989 19.2917C282.989 20.2594 283.204 21.0169 283.634 21.5643C284.064 22.1019 284.665 22.3707 285.437 22.3707ZM296.854 24.6286C296.101 24.6286 295.436 24.5357 294.86 24.35C294.283 24.1545 293.794 23.8662 293.393 23.485C293.002 23.1037 292.704 22.6297 292.499 22.0628C292.304 21.4861 292.206 20.8214 292.206 20.0688V15.3624C292.206 14.9128 292.323 14.5755 292.558 14.3507C292.792 14.1161 293.125 13.9988 293.555 13.9988C293.995 13.9988 294.327 14.1161 294.552 14.3507C294.786 14.5755 294.904 14.9128 294.904 15.3624V20.0981C294.904 20.8507 295.07 21.4177 295.402 21.7989C295.734 22.1801 296.218 22.3707 296.854 22.3707C297.479 22.3707 297.958 22.1801 298.29 21.7989C298.623 21.4177 298.789 20.8507 298.789 20.0981V15.3624C298.789 14.9128 298.901 14.5755 299.126 14.3507C299.361 14.1161 299.693 13.9988 300.123 13.9988C300.553 13.9988 300.881 14.1161 301.105 14.3507C301.33 14.5755 301.443 14.9128 301.443 15.3624V20.0688C301.443 21.0756 301.267 21.921 300.915 22.6053C300.573 23.2797 300.06 23.788 299.375 24.1301C298.691 24.4624 297.851 24.6286 296.854 24.6286ZM307.088 24.6286C306.697 24.6286 306.287 24.5992 305.857 24.5406C305.436 24.4917 305.036 24.4135 304.654 24.306C304.273 24.1985 303.931 24.0714 303.628 23.9248C303.364 23.7977 303.178 23.6316 303.071 23.4263C302.963 23.2113 302.924 22.9865 302.954 22.7519C302.983 22.5173 303.066 22.312 303.203 22.1361C303.34 21.9504 303.52 21.8282 303.745 21.7695C303.97 21.7011 304.224 21.7304 304.508 21.8575C304.879 22.0334 305.299 22.1703 305.769 22.268C306.238 22.3658 306.678 22.4147 307.088 22.4147C307.733 22.4147 308.183 22.3316 308.437 22.1654C308.701 21.9895 308.833 21.7744 308.833 21.5203C308.833 21.2955 308.74 21.1146 308.554 20.9778C308.378 20.841 308.061 20.7237 307.601 20.6259L305.886 20.2594C304.948 20.0639 304.249 19.7218 303.789 19.2331C303.33 18.7443 303.1 18.1139 303.1 17.3417C303.1 16.8334 303.203 16.374 303.408 15.9635C303.623 15.5432 303.921 15.1864 304.302 14.8932C304.693 14.6 305.153 14.3752 305.681 14.2188C306.218 14.0526 306.814 13.9695 307.469 13.9695C307.978 13.9695 308.491 14.0282 309.009 14.1455C309.537 14.253 309.991 14.4191 310.372 14.644C310.597 14.7613 310.758 14.9225 310.856 15.1278C310.954 15.3331 310.993 15.5481 310.973 15.7729C310.954 15.9879 310.876 16.1786 310.739 16.3447C310.612 16.5109 310.436 16.6233 310.211 16.6819C309.996 16.7308 309.737 16.6917 309.434 16.5646C309.151 16.4376 308.828 16.3447 308.466 16.2861C308.114 16.2176 307.772 16.1834 307.44 16.1834C307.078 16.1834 306.77 16.2274 306.516 16.3154C306.262 16.3936 306.067 16.5109 305.93 16.6673C305.803 16.8237 305.739 17.0045 305.739 17.2098C305.739 17.415 305.822 17.591 305.989 17.7376C306.164 17.8744 306.482 17.9917 306.942 18.0895L308.642 18.456C309.59 18.6613 310.299 18.9985 310.768 19.4677C311.237 19.9368 311.472 20.5477 311.472 21.3004C311.472 21.8086 311.369 22.268 311.164 22.6786C310.959 23.0891 310.666 23.441 310.284 23.7342C309.903 24.0177 309.444 24.2376 308.906 24.394C308.369 24.5504 307.763 24.6286 307.088 24.6286ZM314.204 24.4673C313.745 24.4673 313.393 24.35 313.149 24.1154C312.914 23.871 312.797 23.5241 312.797 23.0744V15.5237C312.797 15.074 312.914 14.7319 313.149 14.4973C313.393 14.253 313.745 14.1308 314.204 14.1308H319.175C319.527 14.1308 319.791 14.2188 319.966 14.3947C320.142 14.5707 320.23 14.8248 320.23 15.1571C320.23 15.4992 320.142 15.7631 319.966 15.9489C319.791 16.1248 319.527 16.2128 319.175 16.2128H315.377V18.1774H318.852C319.194 18.1774 319.453 18.2654 319.629 18.4413C319.815 18.6173 319.908 18.8763 319.908 19.2184C319.908 19.5605 319.815 19.8195 319.629 19.9955C319.453 20.1714 319.194 20.2594 318.852 20.2594H315.377V22.3853H319.175C319.527 22.3853 319.791 22.4782 319.966 22.6639C320.142 22.8398 320.23 23.094 320.23 23.4263C320.23 23.7684 320.142 24.0274 319.966 24.2034C319.791 24.3793 319.527 24.4673 319.175 24.4673H314.204ZM331.276 24.6286C330.094 24.6286 329.087 24.4086 328.256 23.9688C327.435 23.5289 326.809 22.9131 326.379 22.1214C325.949 21.3297 325.734 20.406 325.734 19.3504C325.734 18.5293 325.861 17.7913 326.115 17.1364C326.379 16.4718 326.756 15.9049 327.244 15.4357C327.733 14.9567 328.329 14.5951 329.033 14.3507C329.747 14.0966 330.553 13.9695 331.452 13.9695C331.941 13.9695 332.44 14.0184 332.948 14.1161C333.456 14.2041 333.955 14.3752 334.443 14.6293C334.697 14.7466 334.868 14.9128 334.956 15.1278C335.054 15.3331 335.084 15.553 335.044 15.7876C335.015 16.0124 334.932 16.2225 334.795 16.418C334.668 16.6037 334.492 16.7308 334.267 16.7992C334.043 16.8579 333.788 16.8237 333.505 16.6966C333.212 16.5598 332.894 16.4571 332.552 16.3887C332.21 16.3105 331.848 16.2714 331.467 16.2714C330.812 16.2714 330.265 16.3887 329.825 16.6233C329.395 16.8579 329.072 17.2049 328.857 17.6643C328.642 18.1237 328.535 18.6857 328.535 19.3504C328.535 20.3474 328.779 21.1 329.268 21.6083C329.756 22.1165 330.48 22.3707 331.438 22.3707C331.731 22.3707 332.049 22.3413 332.391 22.2827C332.743 22.224 333.094 22.141 333.446 22.0334L332.948 23.0451V20.538H331.921C331.589 20.538 331.33 20.4549 331.144 20.2887C330.968 20.1225 330.881 19.888 330.881 19.5849C330.881 19.2819 330.968 19.0522 331.144 18.8958C331.33 18.7297 331.589 18.6466 331.921 18.6466H334.091C334.434 18.6466 334.693 18.7395 334.868 18.9252C335.054 19.1011 335.147 19.3601 335.147 19.7022V22.9425C335.147 23.2357 335.084 23.485 334.956 23.6902C334.839 23.8955 334.649 24.0421 334.385 24.1301C333.925 24.2865 333.427 24.4086 332.889 24.4966C332.352 24.5846 331.814 24.6286 331.276 24.6286ZM341.936 24.6286C340.891 24.6286 339.972 24.4086 339.18 23.9688C338.388 23.5192 337.773 22.8936 337.333 22.0921C336.903 21.2906 336.688 20.3571 336.688 19.2917C336.688 18.4902 336.81 17.762 337.054 17.1071C337.308 16.4522 337.665 15.8902 338.124 15.421C338.594 14.9519 339.151 14.5951 339.796 14.3507C340.441 14.0966 341.154 13.9695 341.936 13.9695C342.982 13.9695 343.896 14.1894 344.678 14.6293C345.47 15.0692 346.086 15.6898 346.526 16.4913C346.965 17.2831 347.185 18.2165 347.185 19.2917C347.185 20.0932 347.058 20.8214 346.804 21.4763C346.56 22.1312 346.203 22.6981 345.734 23.1771C345.274 23.6462 344.722 24.0079 344.077 24.262C343.432 24.5064 342.718 24.6286 341.936 24.6286ZM341.936 22.3707C342.454 22.3707 342.894 22.2485 343.256 22.0041C343.618 21.7598 343.896 21.4079 344.092 20.9485C344.287 20.4891 344.385 19.9368 344.385 19.2917C344.385 18.324 344.17 17.5714 343.74 17.0338C343.31 16.4962 342.709 16.2274 341.936 16.2274C341.428 16.2274 340.988 16.3496 340.617 16.594C340.255 16.8286 339.977 17.1755 339.781 17.6349C339.586 18.0846 339.488 18.6368 339.488 19.2917C339.488 20.2594 339.703 21.0169 340.133 21.5643C340.563 22.1019 341.164 22.3707 341.936 22.3707ZM349.004 24.5992C348.701 24.5992 348.447 24.5308 348.242 24.394C348.037 24.2474 347.91 24.0519 347.861 23.8075C347.812 23.5534 347.856 23.2699 347.993 22.9571L351.643 15.0985C351.819 14.7173 352.034 14.4387 352.288 14.2628C352.552 14.0868 352.851 13.9988 353.183 13.9988C353.515 13.9988 353.804 14.0868 354.048 14.2628C354.302 14.4387 354.522 14.7173 354.708 15.0985L358.358 22.9571C358.515 23.2699 358.569 23.5534 358.52 23.8075C358.481 24.0616 358.358 24.2571 358.153 24.394C357.958 24.5308 357.713 24.5992 357.42 24.5992C357.029 24.5992 356.726 24.5113 356.511 24.3353C356.306 24.1594 356.12 23.8759 355.954 23.485L355.162 21.6229L356.188 22.3707H350.148L351.189 21.6229L350.397 23.485C350.221 23.8759 350.04 24.1594 349.855 24.3353C349.669 24.5113 349.385 24.5992 349.004 24.5992ZM353.154 16.9458L351.453 21.0071L351.042 20.3034H355.309L354.898 21.0071L353.183 16.9458H353.154Z" fill="#282729"/>
<path d="M205.851 42.2223C204.58 42.2223 203.603 41.758 202.918 40.8295C202.244 39.8911 201.907 38.5667 201.907 36.8561C201.907 35.7028 202.058 34.7351 202.361 33.9531C202.664 33.1614 203.109 32.5652 203.695 32.1644C204.282 31.7637 205 31.5633 205.851 31.5633C207.131 31.5633 208.109 32.0129 208.783 32.9121C209.457 33.8114 209.795 35.1212 209.795 36.8415C209.795 37.9851 209.643 38.9576 209.34 39.7592C209.037 40.5607 208.592 41.1716 208.006 41.5919C207.419 42.0122 206.701 42.2223 205.851 42.2223ZM205.851 40.0817C206.32 40.0817 206.667 39.8276 206.892 39.3193C207.126 38.8013 207.244 37.9753 207.244 36.8415C207.244 35.7174 207.126 34.9159 206.892 34.437C206.667 33.9482 206.32 33.7039 205.851 33.7039C205.381 33.7039 205.03 33.9482 204.795 34.437C204.57 34.9159 204.458 35.7174 204.458 36.8415C204.458 37.9753 204.57 38.8013 204.795 39.3193C205.03 39.8276 205.381 40.0817 205.851 40.0817ZM216.196 42.193C215.786 42.193 215.463 42.0806 215.228 41.8558C215.004 41.631 214.891 41.2986 214.891 40.8588V40.331H211.944C211.514 40.331 211.177 40.2332 210.933 40.0377C210.698 39.8422 210.581 39.5441 210.581 39.1434C210.581 38.9088 210.625 38.684 210.713 38.4689C210.801 38.2441 210.957 37.9753 211.182 37.6625L214.759 32.443C214.955 32.1497 215.175 31.9347 215.419 31.7979C215.663 31.661 215.952 31.5926 216.284 31.5926C216.655 31.5926 216.949 31.705 217.164 31.9298C217.379 32.1449 217.486 32.4772 217.486 32.9268V38.293H217.838C218.21 38.293 218.488 38.381 218.674 38.5569C218.869 38.7328 218.967 38.9821 218.967 39.3046C218.967 39.637 218.869 39.8911 218.674 40.067C218.488 40.243 218.21 40.331 217.838 40.331H217.486V40.8588C217.486 41.2889 217.374 41.6212 217.149 41.8558C216.934 42.0806 216.616 42.193 216.196 42.193ZM214.891 38.293V34.8328H215.302L212.545 38.9234V38.293H214.891ZM220.853 39.1434C220.56 39.1434 220.315 39.0456 220.12 38.8501C219.924 38.6546 219.826 38.4103 219.826 38.117C219.826 37.8238 219.924 37.5843 220.12 37.3986C220.315 37.2031 220.56 37.1054 220.853 37.1054H223.756C224.049 37.1054 224.293 37.2031 224.489 37.3986C224.684 37.5843 224.782 37.8238 224.782 38.117C224.782 38.4103 224.684 38.6546 224.489 38.8501C224.293 39.0456 224.049 39.1434 223.756 39.1434H220.853ZM229.962 42.2223C228.692 42.2223 227.714 41.758 227.03 40.8295C226.355 39.8911 226.018 38.5667 226.018 36.8561C226.018 35.7028 226.17 34.7351 226.473 33.9531C226.776 33.1614 227.221 32.5652 227.807 32.1644C228.393 31.7637 229.112 31.5633 229.962 31.5633C231.243 31.5633 232.22 32.0129 232.895 32.9121C233.569 33.8114 233.906 35.1212 233.906 36.8415C233.906 37.9851 233.755 38.9576 233.452 39.7592C233.149 40.5607 232.704 41.1716 232.118 41.5919C231.531 42.0122 230.813 42.2223 229.962 42.2223ZM229.962 40.0817C230.431 40.0817 230.778 39.8276 231.003 39.3193C231.238 38.8013 231.355 37.9753 231.355 36.8415C231.355 35.7174 231.238 34.9159 231.003 34.437C230.778 33.9482 230.431 33.7039 229.962 33.7039C229.493 33.7039 229.141 33.9482 228.907 34.437C228.682 34.9159 228.569 35.7174 228.569 36.8415C228.569 37.9753 228.682 38.8013 228.907 39.3193C229.141 39.8276 229.493 40.0817 229.962 40.0817ZM237.844 42.2223C237.444 42.2223 237.038 42.1734 236.628 42.0757C236.217 41.978 235.826 41.8313 235.455 41.6358C235.22 41.5186 235.059 41.3622 234.971 41.1667C234.883 40.9614 234.849 40.7513 234.868 40.5362C234.897 40.3114 234.976 40.1159 235.103 39.9498C235.23 39.7738 235.396 39.6516 235.601 39.5832C235.816 39.5148 236.056 39.5392 236.32 39.6565C236.613 39.7934 236.887 39.8862 237.141 39.9351C237.395 39.984 237.639 40.0084 237.874 40.0084C238.363 40.0084 238.768 39.9107 239.091 39.7152C239.423 39.5099 239.667 39.2069 239.824 38.8061C239.99 38.3956 240.073 37.8873 240.073 37.2813V36.5189H240.293C240.215 36.9294 240.054 37.2862 239.809 37.5892C239.575 37.8922 239.281 38.1219 238.929 38.2783C238.587 38.4347 238.201 38.5129 237.771 38.5129C237.204 38.5129 236.691 38.3712 236.232 38.0877C235.782 37.7945 235.425 37.3937 235.161 36.8855C234.897 36.3674 234.766 35.7907 234.766 35.1554C234.766 34.4516 234.917 33.8309 235.22 33.2934C235.523 32.7558 235.943 32.3355 236.481 32.0324C237.028 31.7197 237.649 31.5633 238.343 31.5633C239.252 31.5633 240.019 31.7685 240.645 32.1791C241.28 32.5896 241.764 33.1858 242.096 33.9678C242.429 34.74 242.595 35.6832 242.595 36.7975C242.595 37.6479 242.487 38.4103 242.272 39.0847C242.057 39.7592 241.744 40.331 241.334 40.8001C240.923 41.2595 240.425 41.6114 239.838 41.8558C239.252 42.1001 238.587 42.2223 237.844 42.2223ZM238.49 36.4603C238.744 36.4603 238.964 36.4016 239.149 36.2843C239.345 36.1573 239.491 35.9911 239.589 35.7858C239.697 35.5708 239.751 35.3216 239.751 35.0381C239.751 34.7449 239.697 34.4907 239.589 34.2757C239.491 34.0606 239.345 33.8994 239.149 33.7918C238.964 33.6746 238.744 33.6159 238.49 33.6159C238.235 33.6159 238.016 33.6746 237.83 33.7918C237.644 33.8994 237.497 34.0606 237.39 34.2757C237.282 34.4907 237.229 34.7449 237.229 35.0381C237.229 35.3216 237.282 35.5708 237.39 35.7858C237.497 35.9911 237.644 36.1573 237.83 36.2843C238.016 36.4016 238.235 36.4603 238.49 36.4603ZM248.764 42.193C248.461 42.193 248.207 42.1246 248.001 41.9877C247.796 41.8411 247.669 41.6456 247.62 41.4013C247.571 41.1471 247.615 40.8637 247.752 40.5509L251.403 32.6922C251.579 32.311 251.794 32.0324 252.048 31.8565C252.312 31.6806 252.61 31.5926 252.942 31.5926C253.275 31.5926 253.563 31.6806 253.807 31.8565C254.061 32.0324 254.281 32.311 254.467 32.6922L258.118 40.5509C258.274 40.8637 258.328 41.1471 258.279 41.4013C258.24 41.6554 258.118 41.8509 257.913 41.9877C257.717 42.1246 257.473 42.193 257.179 42.193C256.788 42.193 256.485 42.105 256.27 41.9291C256.065 41.7531 255.879 41.4697 255.713 41.0787L254.922 39.2167L255.948 39.9644H249.907L250.948 39.2167L250.157 41.0787C249.981 41.4697 249.8 41.7531 249.614 41.9291C249.428 42.105 249.145 42.193 248.764 42.193ZM252.913 34.5396L251.212 38.6009L250.802 37.8971H255.068L254.658 38.6009L252.942 34.5396H252.913ZM263.965 42.2223C263.212 42.2223 262.548 42.1295 261.971 41.9437C261.394 41.7483 260.906 41.4599 260.505 41.0787C260.114 40.6975 259.816 40.2234 259.611 39.6565C259.415 39.0798 259.317 38.4152 259.317 37.6625V32.9561C259.317 32.5065 259.435 32.1693 259.669 31.9445C259.904 31.7099 260.236 31.5926 260.666 31.5926C261.106 31.5926 261.438 31.7099 261.663 31.9445C261.898 32.1693 262.015 32.5065 262.015 32.9561V37.6919C262.015 38.4445 262.181 39.0114 262.514 39.3926C262.846 39.7738 263.33 39.9644 263.965 39.9644C264.591 39.9644 265.07 39.7738 265.402 39.3926C265.734 39.0114 265.9 38.4445 265.9 37.6919V32.9561C265.9 32.5065 266.013 32.1693 266.238 31.9445C266.472 31.7099 266.805 31.5926 267.235 31.5926C267.665 31.5926 267.992 31.7099 268.217 31.9445C268.442 32.1693 268.554 32.5065 268.554 32.9561V37.6625C268.554 38.6693 268.378 39.5148 268.026 40.199C267.684 40.8734 267.171 41.3817 266.487 41.7238C265.803 42.0561 264.962 42.2223 263.965 42.2223ZM275.636 42.2223C274.454 42.2223 273.447 42.0024 272.616 41.5625C271.795 41.1227 271.17 40.5069 270.739 39.7152C270.309 38.9234 270.094 37.9998 270.094 36.9441C270.094 36.1231 270.221 35.3851 270.476 34.7302C270.739 34.0655 271.116 33.4986 271.604 33.0294C272.093 32.5505 272.689 32.1888 273.393 31.9445C274.107 31.6903 274.913 31.5633 275.812 31.5633C276.301 31.5633 276.8 31.6121 277.308 31.7099C277.816 31.7979 278.315 31.9689 278.803 32.2231C279.058 32.3403 279.229 32.5065 279.317 32.7215C279.414 32.9268 279.444 33.1467 279.405 33.3813C279.375 33.6061 279.292 33.8163 279.155 34.0118C279.028 34.1975 278.852 34.3246 278.627 34.393C278.403 34.4516 278.148 34.4174 277.865 34.2903C277.572 34.1535 277.254 34.0509 276.912 33.9825C276.57 33.9043 276.208 33.8652 275.827 33.8652C275.172 33.8652 274.625 33.9825 274.185 34.217C273.755 34.4516 273.432 34.7986 273.217 35.258C273.002 35.7174 272.895 36.2794 272.895 36.9441C272.895 37.9411 273.139 38.6937 273.628 39.202C274.117 39.7103 274.84 39.9644 275.798 39.9644C276.091 39.9644 276.409 39.9351 276.751 39.8764C277.103 39.8178 277.454 39.7347 277.806 39.6272L277.308 40.6389V38.1317H276.282C275.949 38.1317 275.69 38.0486 275.504 37.8825C275.329 37.7163 275.241 37.4817 275.241 37.1787C275.241 36.8757 275.329 36.646 275.504 36.4896C275.69 36.3234 275.949 36.2403 276.282 36.2403H278.451C278.794 36.2403 279.053 36.3332 279.229 36.5189C279.414 36.6949 279.507 36.9539 279.507 37.296V40.5362C279.507 40.8295 279.444 41.0787 279.317 41.284C279.199 41.4892 279.009 41.6358 278.745 41.7238C278.285 41.8802 277.787 42.0024 277.249 42.0904C276.712 42.1783 276.174 42.2223 275.636 42.2223ZM286.68 42.061C286.25 42.061 285.937 41.9633 285.741 41.7678C285.556 41.5625 285.463 41.2644 285.463 40.8734C285.463 40.5998 285.521 40.3554 285.639 40.1404C285.766 39.9253 285.927 39.7152 286.123 39.5099L288.688 36.8268C289.07 36.4163 289.338 36.0644 289.495 35.7712C289.661 35.4779 289.744 35.1847 289.744 34.8915C289.744 34.52 289.622 34.2415 289.377 34.0558C289.133 33.87 288.781 33.7772 288.322 33.7772C288.087 33.7772 287.838 33.8114 287.574 33.8798C287.31 33.9385 287.027 34.046 286.724 34.2024C286.46 34.3197 286.22 34.3539 286.005 34.305C285.8 34.2561 285.624 34.1486 285.477 33.9825C285.341 33.8163 285.253 33.6257 285.214 33.4106C285.184 33.1956 285.218 32.9855 285.316 32.7802C285.414 32.5652 285.59 32.3892 285.844 32.2524C286.294 32.008 286.758 31.8321 287.237 31.7246C287.726 31.617 288.214 31.5633 288.703 31.5633C289.504 31.5633 290.174 31.6806 290.712 31.9152C291.259 32.1497 291.674 32.4918 291.958 32.9415C292.241 33.3813 292.383 33.9287 292.383 34.5836C292.383 34.9941 292.32 35.3949 292.192 35.7858C292.075 36.1768 291.88 36.5678 291.606 36.9588C291.342 37.3497 290.985 37.7652 290.536 38.205L288.161 40.5509V39.8764H291.782C292.144 39.8764 292.417 39.9693 292.603 40.155C292.798 40.3407 292.896 40.6095 292.896 40.9614C292.896 41.3133 292.798 41.587 292.603 41.7825C292.417 41.9682 292.144 42.061 291.782 42.061H286.68ZM297.758 42.2223C296.487 42.2223 295.51 41.758 294.826 40.8295C294.151 39.8911 293.814 38.5667 293.814 36.8561C293.814 35.7028 293.966 34.7351 294.269 33.9531C294.572 33.1614 295.016 32.5652 295.603 32.1644C296.189 31.7637 296.908 31.5633 297.758 31.5633C299.039 31.5633 300.016 32.0129 300.691 32.9121C301.365 33.8114 301.702 35.1212 301.702 36.8415C301.702 37.9851 301.551 38.9576 301.248 39.7592C300.945 40.5607 300.5 41.1716 299.913 41.5919C299.327 42.0122 298.609 42.2223 297.758 42.2223ZM297.758 40.0817C298.227 40.0817 298.574 39.8276 298.799 39.3193C299.034 38.8013 299.151 37.9753 299.151 36.8415C299.151 35.7174 299.034 34.9159 298.799 34.437C298.574 33.9482 298.227 33.7039 297.758 33.7039C297.289 33.7039 296.937 33.9482 296.703 34.437C296.478 34.9159 296.365 35.7174 296.365 36.8415C296.365 37.9753 296.478 38.8013 296.703 39.3193C296.937 39.8276 297.289 40.0817 297.758 40.0817ZM304.262 42.061C303.832 42.061 303.519 41.9633 303.324 41.7678C303.138 41.5625 303.045 41.2644 303.045 40.8734C303.045 40.5998 303.104 40.3554 303.221 40.1404C303.348 39.9253 303.51 39.7152 303.705 39.5099L306.271 36.8268C306.652 36.4163 306.921 36.0644 307.077 35.7712C307.243 35.4779 307.327 35.1847 307.327 34.8915C307.327 34.52 307.204 34.2415 306.96 34.0558C306.716 33.87 306.364 33.7772 305.904 33.7772C305.67 33.7772 305.421 33.8114 305.157 33.8798C304.893 33.9385 304.609 34.046 304.306 34.2024C304.042 34.3197 303.803 34.3539 303.588 34.305C303.383 34.2561 303.207 34.1486 303.06 33.9825C302.923 33.8163 302.835 33.6257 302.796 33.4106C302.767 33.1956 302.801 32.9855 302.899 32.7802C302.996 32.5652 303.172 32.3892 303.427 32.2524C303.876 32.008 304.34 31.8321 304.819 31.7246C305.308 31.617 305.797 31.5633 306.286 31.5633C307.087 31.5633 307.757 31.6806 308.294 31.9152C308.842 32.1497 309.257 32.4918 309.54 32.9415C309.824 33.3813 309.966 33.9287 309.966 34.5836C309.966 34.9941 309.902 35.3949 309.775 35.7858C309.658 36.1768 309.462 36.5678 309.189 36.9588C308.925 37.3497 308.568 37.7652 308.118 38.205L305.743 40.5509V39.8764H309.364C309.726 39.8764 310 39.9693 310.186 40.155C310.381 40.3407 310.479 40.6095 310.479 40.9614C310.479 41.3133 310.381 41.587 310.186 41.7825C310 41.9682 309.726 42.061 309.364 42.061H304.262ZM316.895 42.193C316.484 42.193 316.162 42.0806 315.927 41.8558C315.702 41.631 315.59 41.2986 315.59 40.8588V40.331H312.643C312.213 40.331 311.876 40.2332 311.631 40.0377C311.397 39.8422 311.279 39.5441 311.279 39.1434C311.279 38.9088 311.323 38.684 311.411 38.4689C311.499 38.2441 311.656 37.9753 311.881 37.6625L315.458 32.443C315.654 32.1497 315.873 31.9347 316.118 31.7979C316.362 31.661 316.651 31.5926 316.983 31.5926C317.354 31.5926 317.648 31.705 317.863 31.9298C318.078 32.1449 318.185 32.4772 318.185 32.9268V38.293H318.537C318.908 38.293 319.187 38.381 319.373 38.5569C319.568 38.7328 319.666 38.9821 319.666 39.3046C319.666 39.637 319.568 39.8911 319.373 40.067C319.187 40.243 318.908 40.331 318.537 40.331H318.185V40.8588C318.185 41.2889 318.073 41.6212 317.848 41.8558C317.633 42.0806 317.315 42.193 316.895 42.193ZM315.59 38.293V34.8328H316.001L313.244 38.9234V38.293H315.59Z" fill="#282729"/>
<path d="M206.261 59.8166C205.352 59.8166 204.58 59.6113 203.945 59.2008C203.319 58.7902 202.84 58.1989 202.508 57.4267C202.175 56.6447 202.009 55.6966 202.009 54.5823C202.009 53.732 202.117 52.9695 202.332 52.2951C202.547 51.6207 202.86 51.0538 203.27 50.5944C203.681 50.1252 204.179 49.7684 204.766 49.5241C205.352 49.2797 206.017 49.1575 206.76 49.1575C207.16 49.1575 207.566 49.2064 207.977 49.3041C208.387 49.4019 208.778 49.5485 209.15 49.744C209.384 49.8613 209.545 50.0226 209.633 50.2278C209.721 50.4233 209.751 50.6335 209.721 50.8583C209.702 51.0733 209.628 51.2688 209.501 51.4447C209.374 51.6109 209.203 51.7282 208.988 51.7966C208.783 51.865 208.548 51.8406 208.284 51.7233C207.991 51.5865 207.718 51.4936 207.463 51.4447C207.209 51.3959 206.965 51.3714 206.73 51.3714C206.242 51.3714 205.836 51.4741 205.513 51.6793C205.191 51.8748 204.947 52.1778 204.78 52.5883C204.614 52.9891 204.531 53.4925 204.531 54.0985V54.8609H204.311C204.399 54.4406 204.56 54.0838 204.795 53.7906C205.03 53.4876 205.318 53.2579 205.66 53.1015C206.012 52.9451 206.403 52.8669 206.833 52.8669C207.41 52.8669 207.923 53.0135 208.372 53.3068C208.822 53.5902 209.179 53.9861 209.443 54.4944C209.707 55.0026 209.839 55.5793 209.839 56.2244C209.839 56.9282 209.687 57.5489 209.384 58.0865C209.081 58.6241 208.661 59.0493 208.123 59.362C207.586 59.665 206.965 59.8166 206.261 59.8166ZM206.115 57.7639C206.369 57.7639 206.589 57.7053 206.774 57.588C206.97 57.4707 207.116 57.3045 207.214 57.0895C207.322 56.8744 207.375 56.6252 207.375 56.3417C207.375 56.0485 207.322 55.7993 207.214 55.594C207.116 55.379 206.97 55.2128 206.774 55.0955C206.589 54.9684 206.369 54.9049 206.115 54.9049C205.87 54.9049 205.65 54.9684 205.455 55.0955C205.269 55.2128 205.122 55.379 205.015 55.594C204.907 55.7993 204.854 56.0485 204.854 56.3417C204.854 56.6252 204.907 56.8744 205.015 57.0895C205.122 57.3045 205.269 57.4707 205.455 57.588C205.65 57.7053 205.87 57.7639 206.115 57.7639ZM216.784 59.6553C216.325 59.6553 215.973 59.538 215.729 59.3034C215.494 59.059 215.377 58.712 215.377 58.2624V50.7117C215.377 50.262 215.494 49.9199 215.729 49.6853C215.973 49.441 216.325 49.3188 216.784 49.3188H219.658C221.457 49.3188 222.845 49.7684 223.822 50.6677C224.809 51.5669 225.303 52.8376 225.303 54.4797C225.303 55.3008 225.176 56.0338 224.922 56.679C224.668 57.3143 224.301 57.8568 223.822 58.3064C223.343 58.7462 222.752 59.0835 222.048 59.3181C221.354 59.5429 220.557 59.6553 219.658 59.6553H216.784ZM218.075 57.4707H219.482C220 57.4707 220.445 57.4071 220.816 57.2801C221.198 57.153 221.51 56.9673 221.755 56.7229C222.009 56.4786 222.195 56.1707 222.312 55.7993C222.439 55.4278 222.503 54.988 222.503 54.4797C222.503 53.4632 222.253 52.7154 221.755 52.2365C221.256 51.7477 220.499 51.5034 219.482 51.5034H218.075V57.4707ZM227.129 59.7872C226.826 59.7872 226.572 59.7188 226.367 59.582C226.161 59.4353 226.034 59.2399 225.985 58.9955C225.937 58.7414 225.981 58.4579 226.117 58.1451L229.768 50.2865C229.944 49.9053 230.159 49.6267 230.413 49.4507C230.677 49.2748 230.975 49.1868 231.308 49.1868C231.64 49.1868 231.928 49.2748 232.173 49.4507C232.427 49.6267 232.647 49.9053 232.832 50.2865L236.483 58.1451C236.64 58.4579 236.693 58.7414 236.645 58.9955C236.605 59.2496 236.483 59.4451 236.278 59.582C236.082 59.7188 235.838 59.7872 235.545 59.7872C235.154 59.7872 234.851 59.6993 234.636 59.5233C234.431 59.3474 234.245 59.0639 234.079 58.6729L233.287 56.8109L234.313 57.5587H228.273L229.314 56.8109L228.522 58.6729C228.346 59.0639 228.165 59.3474 227.979 59.5233C227.794 59.6993 227.51 59.7872 227.129 59.7872ZM231.278 52.1338L229.578 56.1951L229.167 55.4914H233.434L233.023 56.1951L231.308 52.1338H231.278ZM240.651 59.7872C240.221 59.7872 239.889 59.6699 239.654 59.4353C239.419 59.191 239.302 58.844 239.302 58.3944V54.3771L239.859 55.8579L236.487 51.0049C236.321 50.7703 236.248 50.5113 236.267 50.2278C236.297 49.9346 236.414 49.6902 236.619 49.4947C236.834 49.2895 237.137 49.1868 237.528 49.1868C237.802 49.1868 238.051 49.2553 238.276 49.3921C238.501 49.5192 238.711 49.7391 238.906 50.0519L240.959 53.0722H240.431L242.484 50.0372C242.689 49.7244 242.899 49.5045 243.114 49.3774C243.329 49.2504 243.583 49.1868 243.877 49.1868C244.248 49.1868 244.536 49.2797 244.742 49.4654C244.947 49.6511 245.054 49.8857 245.064 50.1692C245.084 50.4526 244.996 50.741 244.8 51.0342L241.457 55.8579L242 54.3771V58.3944C242 59.3229 241.55 59.7872 240.651 59.7872ZM249.845 59.8166C249.454 59.8166 249.043 59.7872 248.613 59.7286C248.193 59.6797 247.792 59.6015 247.411 59.494C247.03 59.3865 246.687 59.2594 246.384 59.1128C246.121 58.9857 245.935 58.8196 245.827 58.6143C245.72 58.3993 245.681 58.1744 245.71 57.9399C245.739 57.7053 245.822 57.5 245.959 57.3241C246.096 57.1384 246.277 57.0162 246.502 56.9575C246.727 56.8891 246.981 56.9184 247.264 57.0455C247.636 57.2214 248.056 57.3583 248.525 57.456C248.994 57.5538 249.434 57.6026 249.845 57.6026C250.49 57.6026 250.939 57.5196 251.193 57.3534C251.457 57.1774 251.589 56.9624 251.589 56.7083C251.589 56.4835 251.496 56.3026 251.311 56.1658C251.135 56.029 250.817 55.9117 250.358 55.8139L248.642 55.4474C247.704 55.2519 247.005 54.9098 246.546 54.4211C246.086 53.9323 245.857 53.3019 245.857 52.5297C245.857 52.0214 245.959 51.562 246.165 51.1515C246.38 50.7312 246.678 50.3744 247.059 50.0812C247.45 49.788 247.909 49.5632 248.437 49.4068C248.975 49.2406 249.571 49.1575 250.226 49.1575C250.734 49.1575 251.247 49.2162 251.765 49.3335C252.293 49.441 252.748 49.6071 253.129 49.832C253.354 49.9492 253.515 50.1105 253.613 50.3158C253.71 50.521 253.75 50.7361 253.73 50.9609C253.71 51.1759 253.632 51.3665 253.495 51.5327C253.368 51.6989 253.192 51.8113 252.968 51.8699C252.753 51.9188 252.493 51.8797 252.19 51.7526C251.907 51.6256 251.584 51.5327 251.223 51.4741C250.871 51.4056 250.529 51.3714 250.196 51.3714C249.835 51.3714 249.527 51.4154 249.273 51.5034C249.019 51.5816 248.823 51.6989 248.686 51.8553C248.559 52.0117 248.496 52.1925 248.496 52.3977C248.496 52.603 248.579 52.7789 248.745 52.9256C248.921 53.0624 249.239 53.1797 249.698 53.2774L251.399 53.644C252.347 53.8492 253.056 54.1865 253.525 54.6556C253.994 55.1248 254.228 55.7357 254.228 56.4884C254.228 56.9966 254.126 57.456 253.921 57.8665C253.715 58.2771 253.422 58.629 253.041 58.9222C252.66 59.2056 252.2 59.4256 251.663 59.582C251.125 59.7384 250.519 59.8166 249.845 59.8166ZM261.097 59.7872C260.667 59.7872 260.335 59.6699 260.1 59.4353C259.866 59.191 259.749 58.8538 259.749 58.4237V50.6823C259.749 50.2425 259.866 49.9053 260.1 49.6707C260.345 49.4361 260.682 49.3188 261.112 49.3188H264.719C265.892 49.3188 266.796 49.6218 267.431 50.2278C268.076 50.8241 268.399 51.65 268.399 52.7056C268.399 53.7613 268.076 54.5921 267.431 55.1981C266.796 55.7944 265.892 56.0925 264.719 56.0925H262.446V58.4237C262.446 58.8538 262.334 59.191 262.109 59.4353C261.884 59.6699 261.547 59.7872 261.097 59.7872ZM262.446 54.0252H264.25C264.758 54.0252 265.149 53.9177 265.423 53.7026C265.696 53.4778 265.833 53.1455 265.833 52.7056C265.833 52.256 265.696 51.9237 265.423 51.7086C265.149 51.4936 264.758 51.3861 264.25 51.3861H262.446V54.0252ZM269.052 59.7872C268.749 59.7872 268.495 59.7188 268.29 59.582C268.085 59.4353 267.958 59.2399 267.909 58.9955C267.86 58.7414 267.904 58.4579 268.041 58.1451L271.691 50.2865C271.867 49.9053 272.082 49.6267 272.337 49.4507C272.6 49.2748 272.899 49.1868 273.231 49.1868C273.563 49.1868 273.852 49.2748 274.096 49.4507C274.35 49.6267 274.57 49.9053 274.756 50.2865L278.406 58.1451C278.563 58.4579 278.617 58.7414 278.568 58.9955C278.529 59.2496 278.406 59.4451 278.201 59.582C278.006 59.7188 277.761 59.7872 277.468 59.7872C277.077 59.7872 276.774 59.6993 276.559 59.5233C276.354 59.3474 276.168 59.0639 276.002 58.6729L275.21 56.8109L276.237 57.5587H270.196L271.237 56.8109L270.445 58.6729C270.269 59.0639 270.088 59.3474 269.903 59.5233C269.717 59.6993 269.434 59.7872 269.052 59.7872ZM273.202 52.1338L271.501 56.1951L271.09 55.4914H275.357L274.946 56.1951L273.231 52.1338H273.202ZM283.463 59.8166C283.072 59.8166 282.662 59.7872 282.232 59.7286C281.811 59.6797 281.411 59.6015 281.03 59.494C280.648 59.3865 280.306 59.2594 280.003 59.1128C279.739 58.9857 279.554 58.8196 279.446 58.6143C279.339 58.3993 279.299 58.1744 279.329 57.9399C279.358 57.7053 279.441 57.5 279.578 57.3241C279.715 57.1384 279.896 57.0162 280.121 56.9575C280.345 56.8891 280.599 56.9184 280.883 57.0455C281.254 57.2214 281.675 57.3583 282.144 57.456C282.613 57.5538 283.053 57.6026 283.463 57.6026C284.108 57.6026 284.558 57.5196 284.812 57.3534C285.076 57.1774 285.208 56.9624 285.208 56.7083C285.208 56.4835 285.115 56.3026 284.93 56.1658C284.754 56.029 284.436 55.9117 283.977 55.8139L282.261 55.4474C281.323 55.2519 280.624 54.9098 280.164 54.4211C279.705 53.9323 279.475 53.3019 279.475 52.5297C279.475 52.0214 279.578 51.562 279.783 51.1515C279.998 50.7312 280.296 50.3744 280.678 50.0812C281.069 49.788 281.528 49.5632 282.056 49.4068C282.593 49.2406 283.19 49.1575 283.845 49.1575C284.353 49.1575 284.866 49.2162 285.384 49.3335C285.912 49.441 286.366 49.6071 286.748 49.832C286.972 49.9492 287.134 50.1105 287.231 50.3158C287.329 50.521 287.368 50.7361 287.349 50.9609C287.329 51.1759 287.251 51.3665 287.114 51.5327C286.987 51.6989 286.811 51.8113 286.586 51.8699C286.371 51.9188 286.112 51.8797 285.809 51.7526C285.526 51.6256 285.203 51.5327 284.842 51.4741C284.49 51.4056 284.148 51.3714 283.815 51.3714C283.454 51.3714 283.146 51.4154 282.892 51.5034C282.637 51.5816 282.442 51.6989 282.305 51.8553C282.178 52.0117 282.115 52.1925 282.115 52.3977C282.115 52.603 282.198 52.7789 282.364 52.9256C282.54 53.0624 282.857 53.1797 283.317 53.2774L285.018 53.644C285.966 53.8492 286.674 54.1865 287.143 54.6556C287.613 55.1248 287.847 55.7357 287.847 56.4884C287.847 56.9966 287.745 57.456 287.539 57.8665C287.334 58.2771 287.041 58.629 286.66 58.9222C286.278 59.2056 285.819 59.4256 285.281 59.582C284.744 59.7384 284.138 59.8166 283.463 59.8166ZM293.014 59.8166C292.623 59.8166 292.212 59.7872 291.782 59.7286C291.362 59.6797 290.961 59.6015 290.58 59.494C290.198 59.3865 289.856 59.2594 289.553 59.1128C289.289 58.9857 289.104 58.8196 288.996 58.6143C288.889 58.3993 288.85 58.1744 288.879 57.9399C288.908 57.7053 288.991 57.5 289.128 57.3241C289.265 57.1384 289.446 57.0162 289.671 56.9575C289.895 56.8891 290.15 56.9184 290.433 57.0455C290.804 57.2214 291.225 57.3583 291.694 57.456C292.163 57.5538 292.603 57.6026 293.014 57.6026C293.659 57.6026 294.108 57.5196 294.362 57.3534C294.626 57.1774 294.758 56.9624 294.758 56.7083C294.758 56.4835 294.665 56.3026 294.48 56.1658C294.304 56.029 293.986 55.9117 293.527 55.8139L291.811 55.4474C290.873 55.2519 290.174 54.9098 289.715 54.4211C289.255 53.9323 289.026 53.3019 289.026 52.5297C289.026 52.0214 289.128 51.562 289.333 51.1515C289.548 50.7312 289.847 50.3744 290.228 50.0812C290.619 49.788 291.078 49.5632 291.606 49.4068C292.144 49.2406 292.74 49.1575 293.395 49.1575C293.903 49.1575 294.416 49.2162 294.934 49.3335C295.462 49.441 295.917 49.6071 296.298 49.832C296.523 49.9492 296.684 50.1105 296.782 50.3158C296.879 50.521 296.918 50.7361 296.899 50.9609C296.879 51.1759 296.801 51.3665 296.664 51.5327C296.537 51.6989 296.361 51.8113 296.136 51.8699C295.921 51.9188 295.662 51.8797 295.359 51.7526C295.076 51.6256 294.753 51.5327 294.392 51.4741C294.04 51.4056 293.698 51.3714 293.365 51.3714C293.004 51.3714 292.696 51.4154 292.442 51.5034C292.188 51.5816 291.992 51.6989 291.855 51.8553C291.728 52.0117 291.665 52.1925 291.665 52.3977C291.665 52.603 291.748 52.7789 291.914 52.9256C292.09 53.0624 292.408 53.1797 292.867 53.2774L294.568 53.644C295.516 53.8492 296.224 54.1865 296.694 54.6556C297.163 55.1248 297.397 55.7357 297.397 56.4884C297.397 56.9966 297.295 57.456 297.089 57.8665C296.884 58.2771 296.591 58.629 296.21 58.9222C295.829 59.2056 295.369 59.4256 294.832 59.582C294.294 59.7384 293.688 59.8166 293.014 59.8166Z" fill="#282729"/>
<path d="M182.267 65.0806H120.752V9.94482H182.267V65.0806Z" fill="black"/>
<path d="M133.383 13.5727V28.6045H129.658V22.7206H128.401V28.6045H124.677V13.5727H128.401V19.4351H129.658V13.5727H133.383Z" fill="#F2F0E4"/>
<path d="M139.134 25.2761H137.83L137.598 28.6045H133.873L136.201 13.5727H140.763L143.114 28.6045H139.367L139.134 25.2761ZM138.948 22.4844L138.599 17.889H138.366L138.04 22.4844H138.948Z" fill="#F2F0E4"/>
<path d="M151.952 24.7177C151.952 26.0634 151.619 27.087 150.951 27.7885C150.284 28.4757 149.167 28.8193 147.599 28.8193C146.017 28.8193 144.891 28.4757 144.224 27.7885C143.572 27.087 143.247 26.0634 143.247 24.7177V17.4595C143.247 16.1138 143.572 15.0973 144.224 14.4101C144.891 13.7087 146.017 13.3579 147.599 13.3579C149.167 13.3579 150.284 13.7087 150.951 14.4101C151.619 15.0973 151.952 16.1138 151.952 17.4595V19.0271H148.344V18.3184C148.344 17.5597 148.282 17.0586 148.158 16.8152C148.05 16.5576 147.863 16.4287 147.599 16.4287C147.336 16.4287 147.142 16.5576 147.018 16.8152C146.909 17.0586 146.855 17.5597 146.855 18.3184V23.8588C146.855 24.6175 146.909 25.1257 147.018 25.3834C147.142 25.6268 147.336 25.7485 147.599 25.7485C147.863 25.7485 148.05 25.6268 148.158 25.3834C148.282 25.1257 148.344 24.6175 148.344 23.8588C148.344 23.3004 148.337 22.8352 148.321 22.4629C148.306 22.0907 148.29 21.7901 148.275 21.561C148.243 21.3033 148.212 21.0958 148.181 20.9383H151.789C151.821 20.9955 151.852 21.0886 151.883 21.2174C151.898 21.332 151.914 21.4751 151.929 21.6469C151.945 21.8187 151.952 22.0478 151.952 22.3341V24.7177Z" fill="#F2F0E4"/>
<path d="M161.34 23.9661V25.6626C161.34 26.2066 161.348 26.6719 161.364 27.0584C161.379 27.4306 161.402 27.7313 161.433 27.9603C161.449 28.2323 161.472 28.4471 161.503 28.6045H157.895C157.864 28.533 157.841 28.4399 157.825 28.3254C157.794 28.2109 157.771 28.0677 157.756 27.8959C157.74 27.7098 157.732 27.4807 157.732 27.2087V23.3649C157.732 22.9354 157.701 22.5846 157.639 22.3126C157.593 22.0406 157.515 21.833 157.406 21.6899C157.313 21.5324 157.189 21.425 157.034 21.3678C156.894 21.3105 156.731 21.2819 156.545 21.2819H156.266V28.6045H152.774V13.5727H156.266V19.4351H156.499L157.662 13.5727H161.48L159.688 20.0149L158.337 20.1652V20.38C158.943 20.38 159.439 20.4515 159.827 20.5947C160.215 20.7235 160.518 20.9311 160.735 21.2174C160.968 21.5038 161.123 21.876 161.201 22.3341C161.294 22.7779 161.34 23.3219 161.34 23.9661Z" fill="#F2F0E4"/>
<path d="M168.982 16.6435H165.932V19.5425H168.633V22.3341H165.932V25.5337H168.982V28.6045H162.208V13.5727H168.982V16.6435Z" fill="#F2F0E4"/>
<path d="M178.531 25.6626C178.531 26.2066 178.539 26.6719 178.554 27.0584C178.57 27.4306 178.593 27.7313 178.624 27.9603C178.639 28.2323 178.663 28.4471 178.694 28.6045H174.969C174.938 28.533 174.915 28.4399 174.9 28.3254C174.868 28.2109 174.845 28.0677 174.83 27.8959C174.814 27.7098 174.806 27.4807 174.806 27.2087V24.0091C174.806 23.5796 174.775 23.2289 174.713 22.9569C174.667 22.6848 174.589 22.4773 174.481 22.3341C174.387 22.1766 174.263 22.0693 174.108 22.012C173.953 21.9547 173.782 21.9261 173.596 21.9261H173.48V28.6045H169.755V13.5727H174.341C175.101 13.5727 175.745 13.6228 176.273 13.723C176.816 13.8232 177.258 14.0021 177.6 14.2598C177.941 14.5032 178.189 14.8396 178.345 15.2691C178.5 15.6843 178.577 16.2068 178.577 16.8367C178.577 17.4523 178.515 17.982 178.391 18.4258C178.283 18.8553 178.096 19.206 177.833 19.478C177.569 19.75 177.212 19.9505 176.762 20.0793C176.312 20.1938 175.753 20.2511 175.086 20.2511V20.4659C175.722 20.4659 176.257 20.5231 176.692 20.6376C177.126 20.7379 177.476 20.924 177.739 21.196C178.019 21.468 178.22 21.8402 178.345 22.3126C178.469 22.7851 178.531 23.3792 178.531 24.095V25.6626ZM174.341 18.8553C174.651 18.8553 174.868 18.7694 174.993 18.5976C175.132 18.4258 175.202 18.1395 175.202 17.7386C175.202 17.3807 175.132 17.1087 174.993 16.9226C174.868 16.7365 174.651 16.6435 174.341 16.6435H173.48V18.8553H174.341Z" fill="#F2F0E4"/>
<path d="M133.383 30.1017V45.1336H129.658V39.2497H128.401V45.1336H124.677V30.1017H128.401V35.9641H129.658V30.1017H133.383Z" fill="#F2F0E4"/>
<path d="M138.552 29.8869C140.119 29.8869 141.237 30.2377 141.904 30.9392C142.571 31.6263 142.905 32.6356 142.905 33.967V41.2468C142.905 42.5925 142.571 43.6161 141.904 44.3176C141.237 45.0047 140.119 45.3483 138.552 45.3483C136.969 45.3483 135.844 45.0047 135.177 44.3176C134.525 43.6161 134.199 42.5925 134.199 41.2468V33.967C134.199 32.6356 134.525 31.6263 135.177 30.9392C135.844 30.2377 136.969 29.8869 138.552 29.8869ZM139.297 34.8475C139.297 34.0887 139.235 33.5877 139.111 33.3443C138.987 33.0866 138.8 32.9577 138.552 32.9577C138.304 32.9577 138.117 33.0866 137.993 33.3443C137.869 33.5877 137.807 34.0887 137.807 34.8475V40.3878C137.807 41.1465 137.869 41.6548 137.993 41.9125C138.117 42.1558 138.304 42.2775 138.552 42.2775C138.8 42.2775 138.987 42.1558 139.111 41.9125C139.235 41.6548 139.297 41.1465 139.297 40.3878V34.8475Z" fill="#F2F0E4"/>
<path d="M143.657 30.1017H147.148V40.3878C147.148 41.1465 147.211 41.6548 147.335 41.9125C147.474 42.1558 147.699 42.2775 148.01 42.2775C148.32 42.2775 148.537 42.1558 148.662 41.9125C148.801 41.6548 148.871 41.1465 148.871 40.3878V30.1017H152.363V41.2468C152.363 42.5925 152.029 43.6161 151.362 44.3176C150.694 45.0047 149.577 45.3483 148.01 45.3483C146.427 45.3483 145.302 45.0047 144.634 44.3176C143.983 43.6161 143.657 42.5925 143.657 41.2468V30.1017Z" fill="#F2F0E4"/>
<path d="M156.511 40.667C156.511 41.7407 156.775 42.2775 157.302 42.2775C157.566 42.2775 157.76 42.1701 157.884 41.9554C158.024 41.7263 158.094 41.3398 158.094 40.7958V40.5811C158.094 40.2088 158.032 39.8939 157.908 39.6362C157.783 39.3642 157.613 39.128 157.395 38.9276C157.194 38.7128 156.945 38.5195 156.651 38.3478C156.371 38.176 156.076 37.997 155.766 37.8109C155.425 37.5962 155.083 37.3743 154.742 37.1452C154.416 36.9161 154.121 36.6513 153.857 36.3507C153.609 36.0357 153.407 35.6706 153.252 35.2555C153.097 34.8403 153.019 34.3464 153.019 33.7738V33.559C153.019 33.0436 153.097 32.564 153.252 32.1203C153.407 31.6621 153.655 31.2684 153.997 30.9392C154.354 30.6099 154.804 30.3522 155.347 30.1661C155.906 29.98 156.581 29.8869 157.372 29.8869C158.94 29.8869 160.057 30.2377 160.724 30.9392C161.391 31.6263 161.725 32.6428 161.725 33.9885V35.5561H158.233V34.8475C158.233 34.0887 158.148 33.5877 157.977 33.3443C157.822 33.0866 157.589 32.9577 157.279 32.9577C156.845 32.9577 156.627 33.2226 156.627 33.7523V33.967C156.627 34.2247 156.689 34.4609 156.814 34.6757C156.953 34.8904 157.132 35.098 157.349 35.2984C157.582 35.4845 157.838 35.6706 158.117 35.8568C158.412 36.0429 158.715 36.2361 159.025 36.4366C159.382 36.6656 159.723 36.9018 160.049 37.1452C160.375 37.3743 160.662 37.6534 160.91 37.9827C161.159 38.312 161.353 38.6985 161.492 39.1423C161.648 39.5861 161.725 40.1229 161.725 40.7529V41.1823C161.725 42.5281 161.391 43.5588 160.724 44.2746C160.057 44.9904 158.94 45.3483 157.372 45.3483C155.789 45.3483 154.664 44.9904 153.997 44.2746C153.345 43.5588 153.019 42.5281 153.019 41.1823V40.2375C153.019 39.9512 153.027 39.7221 153.042 39.5503C153.058 39.3785 153.081 39.2353 153.112 39.1208C153.128 38.992 153.151 38.8989 153.182 38.8417H156.674C156.643 38.9419 156.62 39.0779 156.604 39.2497C156.573 39.4071 156.55 39.6004 156.534 39.8295C156.519 40.0585 156.511 40.3377 156.511 40.667Z" fill="#F2F0E4"/>
<path d="M169.186 33.1725H166.137V36.0715H168.837V38.8631H166.137V42.0628H169.186V45.1336H162.413V30.1017H169.186V33.1725Z" fill="#F2F0E4"/>
<path d="M133.243 61.6626H129.914L130.427 59.0428H130.194C130.085 59.6011 129.945 60.0664 129.775 60.4386C129.604 60.7965 129.402 61.0828 129.17 61.2976C128.937 61.5123 128.665 61.6626 128.355 61.7485C128.06 61.8344 127.734 61.8773 127.377 61.8773C126.368 61.8773 125.647 61.5123 125.212 60.7822C124.778 60.0377 124.561 58.9426 124.561 57.4966V50.5175C124.561 49.1718 124.886 48.1554 125.538 47.4682C126.206 46.7667 127.331 46.416 128.914 46.416C130.481 46.416 131.598 46.7667 132.266 47.4682C132.933 48.1554 133.266 49.1718 133.266 50.5175V52.0851H129.775V51.3765C129.775 50.6177 129.705 50.1167 129.565 49.8733C129.441 49.6156 129.224 49.4868 128.914 49.4868C128.603 49.4868 128.378 49.6156 128.238 49.8733C128.114 50.1167 128.052 50.6177 128.052 51.3765V52.7508H133.266L133.243 61.6626ZM128.052 56.6377C128.052 57.0671 128.06 57.425 128.076 57.7114C128.107 57.9977 128.153 58.2196 128.215 58.3771C128.277 58.5345 128.355 58.6491 128.448 58.7207C128.557 58.7779 128.681 58.8065 128.82 58.8065C128.929 58.8065 129.022 58.7779 129.1 58.7207C129.193 58.6491 129.27 58.5345 129.333 58.3771C129.395 58.2053 129.441 57.9762 129.472 57.6899C129.519 57.3893 129.542 57.0027 129.542 56.5303V55.5425H128.052V56.6377Z" fill="#F2F0E4"/>
<path d="M138.37 46.416C139.938 46.416 141.055 46.7667 141.722 47.4682C142.389 48.1554 142.723 49.1647 142.723 50.4961V57.7758C142.723 59.1215 142.389 60.1451 141.722 60.8466C141.055 61.5338 139.938 61.8773 138.37 61.8773C136.787 61.8773 135.662 61.5338 134.995 60.8466C134.343 60.1451 134.017 59.1215 134.017 57.7758V50.4961C134.017 49.1647 134.343 48.1554 134.995 47.4682C135.662 46.7667 136.787 46.416 138.37 46.416ZM139.115 51.3765C139.115 50.6177 139.053 50.1167 138.929 49.8733C138.805 49.6156 138.618 49.4868 138.37 49.4868C138.122 49.4868 137.936 49.6156 137.811 49.8733C137.687 50.1167 137.625 50.6177 137.625 51.3765V56.9168C137.625 57.6756 137.687 58.1838 137.811 58.4415C137.936 58.6849 138.122 58.8065 138.37 58.8065C138.618 58.8065 138.805 58.6849 138.929 58.4415C139.053 58.1838 139.115 57.6756 139.115 56.9168V51.3765Z" fill="#F2F0E4"/>
<path d="M148.136 58.3341H146.832L146.6 61.6626H142.875L145.203 46.6307H149.765L152.116 61.6626H148.369L148.136 58.3341ZM147.95 55.5425L147.601 50.947H147.368L147.042 55.5425H147.95Z" fill="#F2F0E4"/>
<path d="M182.267 65.0806H120.752V9.94482H182.267V65.0806Z" fill="black"/>
<path d="M133.383 13.5727V28.6045H129.658V22.7206H128.401V28.6045H124.677V13.5727H128.401V19.4351H129.658V13.5727H133.383Z" fill="#F2F0E4"/>
<path d="M139.134 25.2761H137.83L137.598 28.6045H133.873L136.201 13.5727H140.763L143.114 28.6045H139.367L139.134 25.2761ZM138.948 22.4844L138.599 17.889H138.366L138.04 22.4844H138.948Z" fill="#F2F0E4"/>
<path d="M151.952 24.7177C151.952 26.0634 151.619 27.087 150.951 27.7885C150.284 28.4757 149.167 28.8193 147.599 28.8193C146.017 28.8193 144.891 28.4757 144.224 27.7885C143.572 27.087 143.247 26.0634 143.247 24.7177V17.4595C143.247 16.1138 143.572 15.0973 144.224 14.4101C144.891 13.7087 146.017 13.3579 147.599 13.3579C149.167 13.3579 150.284 13.7087 150.951 14.4101C151.619 15.0973 151.952 16.1138 151.952 17.4595V19.0271H148.344V18.3184C148.344 17.5597 148.282 17.0586 148.158 16.8152C148.05 16.5576 147.863 16.4287 147.599 16.4287C147.336 16.4287 147.142 16.5576 147.018 16.8152C146.909 17.0586 146.855 17.5597 146.855 18.3184V23.8588C146.855 24.6175 146.909 25.1257 147.018 25.3834C147.142 25.6268 147.336 25.7485 147.599 25.7485C147.863 25.7485 148.05 25.6268 148.158 25.3834C148.282 25.1257 148.344 24.6175 148.344 23.8588C148.344 23.3004 148.337 22.8352 148.321 22.4629C148.306 22.0907 148.29 21.7901 148.275 21.561C148.243 21.3033 148.212 21.0958 148.181 20.9383H151.789C151.821 20.9955 151.852 21.0886 151.883 21.2174C151.898 21.332 151.914 21.4751 151.929 21.6469C151.945 21.8187 151.952 22.0478 151.952 22.3341V24.7177Z" fill="#F2F0E4"/>
<path d="M161.34 23.9661V25.6626C161.34 26.2066 161.348 26.6719 161.364 27.0584C161.379 27.4306 161.402 27.7313 161.433 27.9603C161.449 28.2323 161.472 28.4471 161.503 28.6045H157.895C157.864 28.533 157.841 28.4399 157.825 28.3254C157.794 28.2109 157.771 28.0677 157.756 27.8959C157.74 27.7098 157.732 27.4807 157.732 27.2087V23.3649C157.732 22.9354 157.701 22.5846 157.639 22.3126C157.593 22.0406 157.515 21.833 157.406 21.6899C157.313 21.5324 157.189 21.425 157.034 21.3678C156.894 21.3105 156.731 21.2819 156.545 21.2819H156.266V28.6045H152.774V13.5727H156.266V19.4351H156.499L157.662 13.5727H161.48L159.688 20.0149L158.337 20.1652V20.38C158.943 20.38 159.439 20.4515 159.827 20.5947C160.215 20.7235 160.518 20.9311 160.735 21.2174C160.968 21.5038 161.123 21.876 161.201 22.3341C161.294 22.7779 161.34 23.3219 161.34 23.9661Z" fill="#F2F0E4"/>
<path d="M168.982 16.6435H165.932V19.5425H168.633V22.3341H165.932V25.5337H168.982V28.6045H162.208V13.5727H168.982V16.6435Z" fill="#F2F0E4"/>
<path d="M178.531 25.6626C178.531 26.2066 178.539 26.6719 178.554 27.0584C178.57 27.4306 178.593 27.7313 178.624 27.9603C178.639 28.2323 178.663 28.4471 178.694 28.6045H174.969C174.938 28.533 174.915 28.4399 174.9 28.3254C174.868 28.2109 174.845 28.0677 174.83 27.8959C174.814 27.7098 174.806 27.4807 174.806 27.2087V24.0091C174.806 23.5796 174.775 23.2289 174.713 22.9569C174.667 22.6848 174.589 22.4773 174.481 22.3341C174.387 22.1766 174.263 22.0693 174.108 22.012C173.953 21.9547 173.782 21.9261 173.596 21.9261H173.48V28.6045H169.755V13.5727H174.341C175.101 13.5727 175.745 13.6228 176.273 13.723C176.816 13.8232 177.258 14.0021 177.6 14.2598C177.941 14.5032 178.189 14.8396 178.345 15.2691C178.5 15.6843 178.577 16.2068 178.577 16.8367C178.577 17.4523 178.515 17.982 178.391 18.4258C178.283 18.8553 178.096 19.206 177.833 19.478C177.569 19.75 177.212 19.9505 176.762 20.0793C176.312 20.1938 175.753 20.2511 175.086 20.2511V20.4659C175.722 20.4659 176.257 20.5231 176.692 20.6376C177.126 20.7379 177.476 20.924 177.739 21.196C178.019 21.468 178.22 21.8402 178.345 22.3126C178.469 22.7851 178.531 23.3792 178.531 24.095V25.6626ZM174.341 18.8553C174.651 18.8553 174.868 18.7694 174.993 18.5976C175.132 18.4258 175.202 18.1395 175.202 17.7386C175.202 17.3807 175.132 17.1087 174.993 16.9226C174.868 16.7365 174.651 16.6435 174.341 16.6435H173.48V18.8553H174.341Z" fill="#F2F0E4"/>
<path d="M133.383 30.1017V45.1336H129.658V39.2497H128.401V45.1336H124.677V30.1017H128.401V35.9641H129.658V30.1017H133.383Z" fill="#F2F0E4"/>
<path d="M138.552 29.8869C140.119 29.8869 141.237 30.2377 141.904 30.9392C142.571 31.6263 142.905 32.6356 142.905 33.967V41.2468C142.905 42.5925 142.571 43.6161 141.904 44.3176C141.237 45.0047 140.119 45.3483 138.552 45.3483C136.969 45.3483 135.844 45.0047 135.177 44.3176C134.525 43.6161 134.199 42.5925 134.199 41.2468V33.967C134.199 32.6356 134.525 31.6263 135.177 30.9392C135.844 30.2377 136.969 29.8869 138.552 29.8869ZM139.297 34.8475C139.297 34.0887 139.235 33.5877 139.111 33.3443C138.987 33.0866 138.8 32.9577 138.552 32.9577C138.304 32.9577 138.117 33.0866 137.993 33.3443C137.869 33.5877 137.807 34.0887 137.807 34.8475V40.3878C137.807 41.1465 137.869 41.6548 137.993 41.9125C138.117 42.1558 138.304 42.2775 138.552 42.2775C138.8 42.2775 138.987 42.1558 139.111 41.9125C139.235 41.6548 139.297 41.1465 139.297 40.3878V34.8475Z" fill="#F2F0E4"/>
<path d="M143.657 30.1017H147.148V40.3878C147.148 41.1465 147.211 41.6548 147.335 41.9125C147.474 42.1558 147.699 42.2775 148.01 42.2775C148.32 42.2775 148.537 42.1558 148.662 41.9125C148.801 41.6548 148.871 41.1465 148.871 40.3878V30.1017H152.363V41.2468C152.363 42.5925 152.029 43.6161 151.362 44.3176C150.694 45.0047 149.577 45.3483 148.01 45.3483C146.427 45.3483 145.302 45.0047 144.634 44.3176C143.983 43.6161 143.657 42.5925 143.657 41.2468V30.1017Z" fill="#F2F0E4"/>
<path d="M156.511 40.667C156.511 41.7407 156.775 42.2775 157.302 42.2775C157.566 42.2775 157.76 42.1701 157.884 41.9554C158.024 41.7263 158.094 41.3398 158.094 40.7958V40.5811C158.094 40.2088 158.032 39.8939 157.908 39.6362C157.783 39.3642 157.613 39.128 157.395 38.9276C157.194 38.7128 156.945 38.5195 156.651 38.3478C156.371 38.176 156.076 37.997 155.766 37.8109C155.425 37.5962 155.083 37.3743 154.742 37.1452C154.416 36.9161 154.121 36.6513 153.857 36.3507C153.609 36.0357 153.407 35.6706 153.252 35.2555C153.097 34.8403 153.019 34.3464 153.019 33.7738V33.559C153.019 33.0436 153.097 32.564 153.252 32.1203C153.407 31.6621 153.655 31.2684 153.997 30.9392C154.354 30.6099 154.804 30.3522 155.347 30.1661C155.906 29.98 156.581 29.8869 157.372 29.8869C158.94 29.8869 160.057 30.2377 160.724 30.9392C161.391 31.6263 161.725 32.6428 161.725 33.9885V35.5561H158.233V34.8475C158.233 34.0887 158.148 33.5877 157.977 33.3443C157.822 33.0866 157.589 32.9577 157.279 32.9577C156.845 32.9577 156.627 33.2226 156.627 33.7523V33.967C156.627 34.2247 156.689 34.4609 156.814 34.6757C156.953 34.8904 157.132 35.098 157.349 35.2984C157.582 35.4845 157.838 35.6706 158.117 35.8568C158.412 36.0429 158.715 36.2361 159.025 36.4366C159.382 36.6656 159.723 36.9018 160.049 37.1452C160.375 37.3743 160.662 37.6534 160.91 37.9827C161.159 38.312 161.353 38.6985 161.492 39.1423C161.648 39.5861 161.725 40.1229 161.725 40.7529V41.1823C161.725 42.5281 161.391 43.5588 160.724 44.2746C160.057 44.9904 158.94 45.3483 157.372 45.3483C155.789 45.3483 154.664 44.9904 153.997 44.2746C153.345 43.5588 153.019 42.5281 153.019 41.1823V40.2375C153.019 39.9512 153.027 39.7221 153.042 39.5503C153.058 39.3785 153.081 39.2353 153.112 39.1208C153.128 38.992 153.151 38.8989 153.182 38.8417H156.674C156.643 38.9419 156.62 39.0779 156.604 39.2497C156.573 39.4071 156.55 39.6004 156.534 39.8295C156.519 40.0585 156.511 40.3377 156.511 40.667Z" fill="#F2F0E4"/>
<path d="M169.186 33.1725H166.137V36.0715H168.837V38.8631H166.137V42.0628H169.186V45.1336H162.413V30.1017H169.186V33.1725Z" fill="#F2F0E4"/>
<path d="M133.243 61.6626H129.914L130.427 59.0428H130.194C130.085 59.6011 129.945 60.0664 129.775 60.4386C129.604 60.7965 129.402 61.0828 129.17 61.2976C128.937 61.5123 128.665 61.6626 128.355 61.7485C128.06 61.8344 127.734 61.8773 127.377 61.8773C126.368 61.8773 125.647 61.5123 125.212 60.7822C124.778 60.0377 124.561 58.9426 124.561 57.4966V50.5175C124.561 49.1718 124.886 48.1554 125.538 47.4682C126.206 46.7667 127.331 46.416 128.914 46.416C130.481 46.416 131.598 46.7667 132.266 47.4682C132.933 48.1554 133.266 49.1718 133.266 50.5175V52.0851H129.775V51.3765C129.775 50.6177 129.705 50.1167 129.565 49.8733C129.441 49.6156 129.224 49.4868 128.914 49.4868C128.603 49.4868 128.378 49.6156 128.238 49.8733C128.114 50.1167 128.052 50.6177 128.052 51.3765V52.7508H133.266L133.243 61.6626ZM128.052 56.6377C128.052 57.0671 128.06 57.425 128.076 57.7114C128.107 57.9977 128.153 58.2196 128.215 58.3771C128.277 58.5345 128.355 58.6491 128.448 58.7207C128.557 58.7779 128.681 58.8065 128.82 58.8065C128.929 58.8065 129.022 58.7779 129.1 58.7207C129.193 58.6491 129.27 58.5345 129.333 58.3771C129.395 58.2053 129.441 57.9762 129.472 57.6899C129.519 57.3893 129.542 57.0027 129.542 56.5303V55.5425H128.052V56.6377Z" fill="#F2F0E4"/>
<path d="M138.37 46.416C139.938 46.416 141.055 46.7667 141.722 47.4682C142.389 48.1554 142.723 49.1647 142.723 50.4961V57.7758C142.723 59.1215 142.389 60.1451 141.722 60.8466C141.055 61.5338 139.938 61.8773 138.37 61.8773C136.787 61.8773 135.662 61.5338 134.995 60.8466C134.343 60.1451 134.017 59.1215 134.017 57.7758V50.4961C134.017 49.1647 134.343 48.1554 134.995 47.4682C135.662 46.7667 136.787 46.416 138.37 46.416ZM139.115 51.3765C139.115 50.6177 139.053 50.1167 138.929 49.8733C138.805 49.6156 138.618 49.4868 138.37 49.4868C138.122 49.4868 137.936 49.6156 137.811 49.8733C137.687 50.1167 137.625 50.6177 137.625 51.3765V56.9168C137.625 57.6756 137.687 58.1838 137.811 58.4415C137.936 58.6849 138.122 58.8065 138.37 58.8065C138.618 58.8065 138.805 58.6849 138.929 58.4415C139.053 58.1838 139.115 57.6756 139.115 56.9168V51.3765Z" fill="#F2F0E4"/>
<path d="M148.136 58.3341H146.832L146.6 61.6626H142.875L145.203 46.6307H149.765L152.116 61.6626H148.369L148.136 58.3341ZM147.95 55.5425L147.601 50.947H147.368L147.042 55.5425H147.95Z" fill="#F2F0E4"/>
</g>
<defs>
<clipPath id="clip0_1_9076">
<rect y="0.733887" width="974" height="72.8579" rx="7" fill="white"/>
</clipPath>
</defs>
</svg>
