<svg width="512" height="512" viewBox="0 0 512 512" fill="none" xmlns="http://www.w3.org/2000/svg">
<path d="M206.054 320.997C188.923 320.997 172.277 317.578 156.588 310.837C141.453 304.336 127.87 295.049 116.214 283.214C104.558 271.38 95.4101 257.589 89.0068 242.223C82.368 226.293 79 209.393 79 192H159.484C159.484 218.075 180.371 239.282 206.054 239.282C231.736 239.282 252.623 218.075 252.623 192H333.107C333.107 209.393 329.739 226.293 323.1 242.223C316.697 257.589 307.549 271.38 295.893 283.214C284.237 295.049 270.654 304.336 255.519 310.837C239.83 317.578 223.184 320.997 206.054 320.997Z" fill="#FF4202"/>
<path d="M306.554 320.999V239.283C332.237 239.283 353.124 218.077 353.124 192.002H433.608C433.608 209.395 430.24 226.295 423.601 242.224C417.198 257.591 408.05 271.381 396.394 283.216C384.738 295.05 371.155 304.338 356.02 310.839C340.331 317.58 323.685 320.999 306.554 320.999Z" fill="#FF4202"/>
</svg>
