<svg width="217" height="55" viewBox="0 0 217 55" fill="none" xmlns="http://www.w3.org/2000/svg">
<rect x="0.5" y="0.5" width="216" height="54" rx="9.5" stroke="#DFDFDF"/>
<path d="M21.5134 15.8335H34.475C38.6284 15.8335 39.6667 16.8718 39.6667 21.0135V28.3985C39.6667 32.5518 38.6284 33.5785 34.4867 33.5785H21.5134C17.3717 33.5902 16.3334 32.5518 16.3334 28.4102V21.0135C16.3334 16.8718 17.3717 15.8335 21.5134 15.8335Z" stroke="#171717" stroke-width="1.7" stroke-linecap="round" stroke-linejoin="round"/>
<path d="M28 33.5903V39.167" stroke="#171717" stroke-width="1.7" stroke-linecap="round" stroke-linejoin="round"/>
<path d="M16.3334 28.6665H39.6667" stroke="#171717" stroke-width="1.7" stroke-linecap="round" stroke-linejoin="round"/>
<path d="M22.75 39.1665H33.25" stroke="#171717" stroke-width="1.7" stroke-linecap="round" stroke-linejoin="round"/>
<path d="M50.056 19.912V34.696H58.432V37H47.488V19.912H50.056ZM70.7734 35.152H71.4454V37C71.0934 37.048 70.7014 37.072 70.2694 37.072C69.5014 37.072 68.9254 36.936 68.5414 36.664C68.1734 36.376 67.9494 35.928 67.8694 35.32C67.0374 36.632 65.6934 37.288 63.8374 37.288C62.4774 37.288 61.3974 36.968 60.5974 36.328C59.8134 35.672 59.4214 34.768 59.4214 33.616C59.4214 31.376 60.9734 30.096 64.0774 29.776L65.9014 29.584C66.5414 29.504 67.0054 29.344 67.2934 29.104C67.5974 28.848 67.7494 28.488 67.7494 28.024C67.7494 27.4 67.5494 26.952 67.1494 26.68C66.7654 26.392 66.1174 26.248 65.2054 26.248C64.2134 26.248 63.5014 26.416 63.0694 26.752C62.6374 27.072 62.3894 27.648 62.3254 28.48H59.9494C60.1254 25.712 61.8774 24.328 65.2054 24.328C68.4694 24.328 70.1014 25.544 70.1014 27.976V34.528C70.1014 34.944 70.3254 35.152 70.7734 35.152ZM64.1974 35.416C65.2214 35.416 66.0694 35.128 66.7414 34.552C67.4134 33.976 67.7494 33.16 67.7494 32.104V30.808C67.4454 31.064 66.9334 31.232 66.2134 31.312L64.4854 31.504C63.5574 31.616 62.8934 31.84 62.4934 32.176C62.0934 32.496 61.8934 32.952 61.8934 33.544C61.8934 34.136 62.0854 34.6 62.4694 34.936C62.8694 35.256 63.4454 35.416 64.1974 35.416ZM79.2235 24.328C80.5835 24.328 81.6475 24.712 82.4155 25.48C83.1835 26.232 83.5675 27.304 83.5675 28.696V37H81.1675V29.032C81.1675 27.304 80.2955 26.44 78.5515 26.44C77.7515 26.44 77.0315 26.744 76.3915 27.352C75.7515 27.976 75.4315 28.864 75.4315 30.016V37H73.0315V24.616H75.3355V26.464C76.2795 25.04 77.5755 24.328 79.2235 24.328ZM95.3697 26.296V19.912H97.7697V37H95.4657V35.176C94.5377 36.584 93.1697 37.288 91.3617 37.288C89.6337 37.288 88.2577 36.704 87.2337 35.536C86.2097 34.368 85.6977 32.792 85.6977 30.808C85.6977 28.824 86.2097 27.248 87.2337 26.08C88.2577 24.912 89.6337 24.328 91.3617 24.328C93.1057 24.328 94.4417 24.984 95.3697 26.296ZM88.1937 30.904C88.1937 32.28 88.5217 33.344 89.1777 34.096C89.8337 34.848 90.7137 35.224 91.8177 35.224C92.9537 35.224 93.8417 34.832 94.4817 34.048C95.1217 33.296 95.4417 32.216 95.4417 30.808C95.4417 29.416 95.1217 28.328 94.4817 27.544C93.8417 26.776 92.9537 26.392 91.8177 26.392C90.7137 26.392 89.8337 26.792 89.1777 27.592C88.5217 28.392 88.1937 29.496 88.1937 30.904ZM102.901 22.864H100.453V20.296H102.901V22.864ZM102.877 37H100.477V24.616H102.877V37ZM111.755 24.328C113.115 24.328 114.179 24.712 114.947 25.48C115.715 26.232 116.099 27.304 116.099 28.696V37H113.699V29.032C113.699 27.304 112.827 26.44 111.083 26.44C110.283 26.44 109.563 26.744 108.923 27.352C108.283 27.976 107.963 28.864 107.963 30.016V37H105.563V24.616H107.867V26.464C108.811 25.04 110.107 24.328 111.755 24.328ZM127.997 26.368V24.616H130.301V36.544C130.301 38.24 129.789 39.568 128.765 40.528C127.741 41.504 126.285 41.992 124.397 41.992C122.781 41.992 121.493 41.624 120.533 40.888C119.589 40.152 119.053 39.144 118.925 37.864H121.325C121.517 39.32 122.549 40.048 124.421 40.048C126.741 40.048 127.901 38.896 127.901 36.592V35.224C126.957 36.504 125.629 37.144 123.917 37.144C122.189 37.144 120.813 36.56 119.789 35.392C118.749 34.208 118.229 32.656 118.229 30.736C118.229 28.816 118.749 27.264 119.789 26.08C120.813 24.912 122.181 24.328 123.893 24.328C125.701 24.328 127.069 25.008 127.997 26.368ZM124.349 35.08C125.469 35.08 126.349 34.696 126.989 33.928C127.645 33.144 127.973 32.08 127.973 30.736C127.973 29.392 127.645 28.336 126.989 27.568C126.349 26.784 125.469 26.392 124.349 26.392C123.245 26.392 122.365 26.784 121.709 27.568C121.053 28.352 120.725 29.408 120.725 30.736C120.725 32.08 121.053 33.144 121.709 33.928C122.365 34.696 123.245 35.08 124.349 35.08ZM138.004 19.912H145.276C147.132 19.912 148.572 20.4 149.596 21.376C150.62 22.336 151.132 23.648 151.132 25.312C151.132 26.96 150.62 28.272 149.596 29.248C148.572 30.208 147.132 30.688 145.276 30.688H140.572V37H138.004V19.912ZM140.572 28.432H145.228C146.3 28.432 147.116 28.168 147.676 27.64C148.236 27.096 148.516 26.32 148.516 25.312C148.516 24.304 148.236 23.528 147.676 22.984C147.116 22.44 146.3 22.168 145.228 22.168H140.572V28.432ZM162.953 35.152H163.625V37C163.273 37.048 162.881 37.072 162.449 37.072C161.681 37.072 161.105 36.936 160.721 36.664C160.353 36.376 160.129 35.928 160.049 35.32C159.217 36.632 157.873 37.288 156.017 37.288C154.657 37.288 153.577 36.968 152.777 36.328C151.993 35.672 151.601 34.768 151.601 33.616C151.601 31.376 153.153 30.096 156.257 29.776L158.081 29.584C158.721 29.504 159.185 29.344 159.473 29.104C159.777 28.848 159.929 28.488 159.929 28.024C159.929 27.4 159.729 26.952 159.329 26.68C158.945 26.392 158.297 26.248 157.385 26.248C156.393 26.248 155.681 26.416 155.249 26.752C154.817 27.072 154.569 27.648 154.505 28.48H152.129C152.305 25.712 154.057 24.328 157.385 24.328C160.649 24.328 162.281 25.544 162.281 27.976V34.528C162.281 34.944 162.505 35.152 162.953 35.152ZM156.377 35.416C157.401 35.416 158.249 35.128 158.921 34.552C159.593 33.976 159.929 33.16 159.929 32.104V30.808C159.625 31.064 159.113 31.232 158.393 31.312L156.665 31.504C155.737 31.616 155.073 31.84 154.673 32.176C154.273 32.496 154.073 32.952 154.073 33.544C154.073 34.136 154.265 34.6 154.649 34.936C155.049 35.256 155.625 35.416 156.377 35.416ZM174.169 26.368V24.616H176.473V36.544C176.473 38.24 175.961 39.568 174.937 40.528C173.913 41.504 172.457 41.992 170.569 41.992C168.953 41.992 167.665 41.624 166.705 40.888C165.761 40.152 165.225 39.144 165.097 37.864H167.497C167.689 39.32 168.721 40.048 170.593 40.048C172.913 40.048 174.073 38.896 174.073 36.592V35.224C173.129 36.504 171.801 37.144 170.089 37.144C168.361 37.144 166.985 36.56 165.961 35.392C164.921 34.208 164.401 32.656 164.401 30.736C164.401 28.816 164.921 27.264 165.961 26.08C166.985 24.912 168.353 24.328 170.065 24.328C171.873 24.328 173.241 25.008 174.169 26.368ZM170.521 35.08C171.641 35.08 172.521 34.696 173.161 33.928C173.817 33.144 174.145 32.08 174.145 30.736C174.145 29.392 173.817 28.336 173.161 27.568C172.521 26.784 171.641 26.392 170.521 26.392C169.417 26.392 168.537 26.784 167.881 27.568C167.225 28.352 166.897 29.408 166.897 30.736C166.897 32.08 167.225 33.144 167.881 33.928C168.537 34.696 169.417 35.08 170.521 35.08ZM190.364 30.904V31.6H181.028C181.14 32.816 181.5 33.736 182.108 34.36C182.716 34.968 183.54 35.272 184.58 35.272C186.148 35.272 187.172 34.584 187.652 33.208H190.076C189.74 34.472 189.084 35.472 188.108 36.208C187.148 36.928 185.956 37.288 184.532 37.288C182.756 37.288 181.324 36.696 180.236 35.512C179.148 34.328 178.604 32.76 178.604 30.808C178.604 28.856 179.148 27.288 180.236 26.104C181.324 24.92 182.74 24.328 184.484 24.328C186.308 24.328 187.748 24.944 188.804 26.176C189.844 27.408 190.364 28.984 190.364 30.904ZM184.484 26.344C183.54 26.344 182.764 26.632 182.156 27.208C181.564 27.784 181.196 28.616 181.052 29.704H187.892C187.78 28.696 187.42 27.888 186.812 27.28C186.22 26.656 185.444 26.344 184.484 26.344ZM197.006 37.312C193.566 37.312 191.758 35.896 191.582 33.064H193.982C194.078 33.928 194.358 34.536 194.822 34.888C195.286 35.24 196.022 35.416 197.03 35.416C198.854 35.416 199.766 34.84 199.766 33.688C199.766 33.192 199.574 32.808 199.19 32.536C198.806 32.264 198.118 32.04 197.126 31.864L195.854 31.624C193.23 31.144 191.918 29.912 191.918 27.928C191.918 26.824 192.342 25.952 193.19 25.312C194.038 24.656 195.206 24.328 196.694 24.328C200.102 24.328 201.846 25.712 201.926 28.48H199.598C199.55 27.648 199.294 27.064 198.83 26.728C198.366 26.376 197.654 26.2 196.694 26.2C195.926 26.2 195.334 26.344 194.918 26.632C194.502 26.92 194.294 27.328 194.294 27.856C194.294 28.336 194.478 28.712 194.846 28.984C195.214 29.24 195.798 29.448 196.598 29.608L197.894 29.824C199.414 30.112 200.51 30.544 201.182 31.12C201.854 31.696 202.19 32.496 202.19 33.52C202.19 34.72 201.734 35.656 200.822 36.328C199.91 36.984 198.638 37.312 197.006 37.312Z" fill="#171717"/>
</svg>
