<svg width="196" height="55" viewBox="0 0 196 55" fill="none" xmlns="http://www.w3.org/2000/svg">
<rect x="0.5" y="0.5" width="195" height="54" rx="9.5" stroke="#DFDFDF"/>
<path d="M24.5 39.1668H31.5C37.3334 39.1668 39.6667 36.8335 39.6667 31.0002V24.0002C39.6667 18.1668 37.3334 15.8335 31.5 15.8335H24.5C18.6667 15.8335 16.3334 18.1668 16.3334 24.0002V31.0002C16.3334 36.8335 18.6667 39.1668 24.5 39.1668Z" stroke="#171717" stroke-width="1.7" stroke-linecap="round" stroke-linejoin="round"/>
<path d="M28 31.5832C30.2551 31.5832 32.0833 29.755 32.0833 27.4998C32.0833 25.2447 30.2551 23.4165 28 23.4165C25.7448 23.4165 23.9166 25.2447 23.9166 27.4998C23.9166 29.755 25.7448 31.5832 28 31.5832Z" stroke="#171717" stroke-width="1.7" stroke-linecap="round" stroke-linejoin="round"/>
<path d="M34.5755 21.6668H34.589" stroke="#171717" stroke-width="2.7" stroke-linecap="round" stroke-linejoin="round"/>
<path d="M53.848 37.384C51.592 37.384 49.832 36.872 48.568 35.848C47.32 34.824 46.688 33.328 46.672 31.36H49.24C49.288 33.92 50.84 35.2 53.896 35.2C55.16 35.2 56.128 34.96 56.8 34.48C57.488 33.984 57.832 33.272 57.832 32.344C57.832 31.592 57.552 31.016 56.992 30.616C56.432 30.2 55.424 29.832 53.968 29.512L52.504 29.2C50.744 28.848 49.416 28.272 48.52 27.472C47.624 26.672 47.176 25.568 47.176 24.16C47.176 22.752 47.72 21.632 48.808 20.8C49.896 19.952 51.368 19.528 53.224 19.528C55.464 19.528 57.144 20.008 58.264 20.968C59.4 21.928 59.984 23.248 60.016 24.928H57.472C57.392 23.824 57.024 23.016 56.368 22.504C55.728 21.976 54.688 21.712 53.248 21.712C52.128 21.712 51.272 21.92 50.68 22.336C50.088 22.752 49.792 23.344 49.792 24.112C49.792 24.896 50.056 25.488 50.584 25.888C51.112 26.32 52.088 26.688 53.512 26.992L55 27.304C56.952 27.72 58.352 28.32 59.2 29.104C60.064 29.888 60.496 30.944 60.496 32.272C60.496 33.856 59.904 35.104 58.72 36.016C57.552 36.928 55.928 37.384 53.848 37.384ZM72.7739 35.512C71.6379 36.696 70.1579 37.288 68.3339 37.288C66.5099 37.288 65.0299 36.696 63.8939 35.512C62.7579 34.328 62.1899 32.76 62.1899 30.808C62.1899 28.84 62.7579 27.264 63.8939 26.08C65.0139 24.912 66.4939 24.328 68.3339 24.328C70.1739 24.328 71.6539 24.912 72.7739 26.08C73.8939 27.248 74.4539 28.824 74.4539 30.808C74.4539 32.776 73.8939 34.344 72.7739 35.512ZM65.6699 34.048C66.3259 34.832 67.2139 35.224 68.3339 35.224C69.4539 35.224 70.3339 34.832 70.9739 34.048C71.6299 33.264 71.9579 32.184 71.9579 30.808C71.9579 29.432 71.6299 28.352 70.9739 27.568C70.3339 26.784 69.4539 26.392 68.3339 26.392C67.2139 26.392 66.3259 26.784 65.6699 27.568C65.0139 28.352 64.6859 29.432 64.6859 30.808C64.6859 32.184 65.0139 33.264 65.6699 34.048ZM81.8986 37.288C80.1386 37.288 78.7146 36.696 77.6266 35.512C76.5386 34.328 75.9946 32.76 75.9946 30.808C75.9946 28.84 76.5386 27.264 77.6266 26.08C78.6986 24.912 80.1226 24.328 81.8986 24.328C83.4186 24.328 84.6666 24.744 85.6426 25.576C86.6346 26.408 87.2266 27.528 87.4186 28.936H84.9706C84.8106 28.12 84.4506 27.496 83.8906 27.064C83.3466 26.632 82.6826 26.416 81.8986 26.416C80.8586 26.416 80.0266 26.8 79.4026 27.568C78.7946 28.32 78.4906 29.4 78.4906 30.808C78.4906 32.216 78.7946 33.304 79.4026 34.072C80.0266 34.824 80.8586 35.2 81.8986 35.2C82.6986 35.2 83.3786 34.976 83.9386 34.528C84.4986 34.08 84.8506 33.432 84.9946 32.584H87.4426C87.2506 34.024 86.6506 35.168 85.6426 36.016C84.6346 36.864 83.3866 37.288 81.8986 37.288ZM91.7446 22.864H89.2966V20.296H91.7446V22.864ZM91.7206 37H89.3206V24.616H91.7206V37ZM105.062 35.152H105.734V37C105.383 37.048 104.991 37.072 104.559 37.072C103.791 37.072 103.215 36.936 102.831 36.664C102.463 36.376 102.239 35.928 102.159 35.32C101.327 36.632 99.9825 37.288 98.1265 37.288C96.7665 37.288 95.6865 36.968 94.8865 36.328C94.1025 35.672 93.7105 34.768 93.7105 33.616C93.7105 31.376 95.2625 30.096 98.3665 29.776L100.191 29.584C100.831 29.504 101.295 29.344 101.583 29.104C101.887 28.848 102.039 28.488 102.039 28.024C102.039 27.4 101.839 26.952 101.439 26.68C101.055 26.392 100.407 26.248 99.4945 26.248C98.5025 26.248 97.7905 26.416 97.3585 26.752C96.9265 27.072 96.6785 27.648 96.6145 28.48H94.2385C94.4145 25.712 96.1665 24.328 99.4945 24.328C102.759 24.328 104.391 25.544 104.391 27.976V34.528C104.391 34.944 104.615 35.152 105.062 35.152ZM98.4865 35.416C99.5105 35.416 100.359 35.128 101.031 34.552C101.703 33.976 102.039 33.16 102.039 32.104V30.808C101.735 31.064 101.223 31.232 100.503 31.312L98.7745 31.504C97.8465 31.616 97.1825 31.84 96.7825 32.176C96.3825 32.496 96.1825 32.952 96.1825 33.544C96.1825 34.136 96.3745 34.6 96.7585 34.936C97.1585 35.256 97.7345 35.416 98.4865 35.416ZM109.627 37H107.227V19.912H109.627V37ZM127.892 28.768L131.276 19.912H134.852V37H132.38V31.648C132.38 27.792 132.412 24.904 132.476 22.984C132.14 24.008 131.66 25.328 131.036 26.944L127.172 37H125.012L121.1 26.944C120.572 25.536 120.1 24.24 119.684 23.056C119.748 24.96 119.78 27.824 119.78 31.648V37H117.308V19.912H120.86L124.364 29.008C125.084 30.896 125.668 32.504 126.116 33.832C126.644 32.248 127.236 30.56 127.892 28.768ZM148.856 30.904V31.6H139.52C139.632 32.816 139.992 33.736 140.6 34.36C141.208 34.968 142.032 35.272 143.072 35.272C144.64 35.272 145.664 34.584 146.144 33.208H148.568C148.232 34.472 147.576 35.472 146.6 36.208C145.64 36.928 144.448 37.288 143.024 37.288C141.248 37.288 139.816 36.696 138.728 35.512C137.64 34.328 137.096 32.76 137.096 30.808C137.096 28.856 137.64 27.288 138.728 26.104C139.816 24.92 141.232 24.328 142.976 24.328C144.8 24.328 146.24 24.944 147.296 26.176C148.336 27.408 148.856 28.984 148.856 30.904ZM142.976 26.344C142.032 26.344 141.256 26.632 140.648 27.208C140.056 27.784 139.688 28.616 139.544 29.704H146.384C146.272 28.696 145.912 27.888 145.304 27.28C144.712 26.656 143.936 26.344 142.976 26.344ZM160.081 26.296V19.912H162.481V37H160.177V35.176C159.249 36.584 157.881 37.288 156.073 37.288C154.345 37.288 152.969 36.704 151.945 35.536C150.921 34.368 150.409 32.792 150.409 30.808C150.409 28.824 150.921 27.248 151.945 26.08C152.969 24.912 154.345 24.328 156.073 24.328C157.817 24.328 159.153 24.984 160.081 26.296ZM152.905 30.904C152.905 32.28 153.233 33.344 153.889 34.096C154.545 34.848 155.425 35.224 156.529 35.224C157.665 35.224 158.553 34.832 159.193 34.048C159.833 33.296 160.153 32.216 160.153 30.808C160.153 29.416 159.833 28.328 159.193 27.544C158.553 26.776 157.665 26.392 156.529 26.392C155.425 26.392 154.545 26.792 153.889 27.592C153.233 28.392 152.905 29.496 152.905 30.904ZM167.612 22.864H165.164V20.296H167.612V22.864ZM167.588 37H165.188V24.616H167.588V37ZM180.93 35.152H181.602V37C181.25 37.048 180.858 37.072 180.426 37.072C179.658 37.072 179.082 36.936 178.698 36.664C178.33 36.376 178.106 35.928 178.026 35.32C177.194 36.632 175.85 37.288 173.994 37.288C172.634 37.288 171.554 36.968 170.754 36.328C169.97 35.672 169.578 34.768 169.578 33.616C169.578 31.376 171.13 30.096 174.234 29.776L176.058 29.584C176.698 29.504 177.162 29.344 177.45 29.104C177.754 28.848 177.906 28.488 177.906 28.024C177.906 27.4 177.706 26.952 177.306 26.68C176.922 26.392 176.274 26.248 175.362 26.248C174.37 26.248 173.658 26.416 173.226 26.752C172.794 27.072 172.546 27.648 172.482 28.48H170.106C170.282 25.712 172.034 24.328 175.362 24.328C178.626 24.328 180.258 25.544 180.258 27.976V34.528C180.258 34.944 180.482 35.152 180.93 35.152ZM174.354 35.416C175.378 35.416 176.226 35.128 176.898 34.552C177.57 33.976 177.906 33.16 177.906 32.104V30.808C177.602 31.064 177.09 31.232 176.37 31.312L174.642 31.504C173.714 31.616 173.05 31.84 172.65 32.176C172.25 32.496 172.05 32.952 172.05 33.544C172.05 34.136 172.242 34.6 172.626 34.936C173.026 35.256 173.602 35.416 174.354 35.416Z" fill="#171717"/>
</svg>
