<svg width="267" height="55" viewBox="0 0 267 55" fill="none" xmlns="http://www.w3.org/2000/svg">
<rect x="0.5" y="0.5" width="266" height="54" rx="9.5" stroke="#DFDFDF"/>
<path d="M33.8332 36.8332H22.1666C18.6666 36.8332 16.3333 34.4998 16.3333 30.9998V23.9998C16.3333 20.4998 18.6666 18.1665 22.1666 18.1665H33.8332C37.3332 18.1665 39.6666 20.4998 39.6666 23.9998V30.9998C39.6666 34.4998 37.3332 36.8332 33.8332 36.8332Z" stroke="#171717" stroke-width="2" stroke-miterlimit="10" stroke-linecap="round" stroke-linejoin="round"/>
<path d="M27.3002 24.5829L30.2169 26.3329C31.2669 27.0329 31.2669 28.0829 30.2169 28.7829L27.3002 30.5329C26.1335 31.2329 25.2002 30.6495 25.2002 29.3662V25.8662C25.2002 24.3495 26.1335 23.8829 27.3002 24.5829Z" stroke="#171717" stroke-width="2" stroke-miterlimit="10" stroke-linecap="round" stroke-linejoin="round"/>
<path d="M56.728 23.488L58.936 19.912H61.792L55.312 30.184V37H52.768V30.184L46.264 19.912H49.168L51.424 23.512C51.68 23.928 52.104 24.608 52.696 25.552C52.856 25.808 53.032 26.104 53.224 26.44C53.432 26.776 53.6 27.064 53.728 27.304C53.872 27.528 53.992 27.72 54.088 27.88C54.904 26.456 55.784 24.992 56.728 23.488ZM69.8442 35.512C68.7082 36.696 67.2282 37.288 65.4042 37.288C63.5802 37.288 62.1002 36.696 60.9642 35.512C59.8282 34.328 59.2602 32.76 59.2602 30.808C59.2602 28.84 59.8282 27.264 60.9642 26.08C62.0842 24.912 63.5642 24.328 65.4042 24.328C67.2442 24.328 68.7242 24.912 69.8442 26.08C70.9642 27.248 71.5242 28.824 71.5242 30.808C71.5242 32.776 70.9642 34.344 69.8442 35.512ZM62.7402 34.048C63.3962 34.832 64.2842 35.224 65.4042 35.224C66.5242 35.224 67.4042 34.832 68.0442 34.048C68.7002 33.264 69.0282 32.184 69.0282 30.808C69.0282 29.432 68.7002 28.352 68.0442 27.568C67.4042 26.784 66.5242 26.392 65.4042 26.392C64.2842 26.392 63.3962 26.784 62.7402 27.568C62.0842 28.352 61.7562 29.432 61.7562 30.808C61.7562 32.184 62.0842 33.264 62.7402 34.048ZM81.4488 31.6V24.616H83.8488V37H81.5448V35.152C80.6008 36.576 79.3048 37.288 77.6568 37.288C76.2968 37.288 75.2328 36.904 74.4648 36.136C73.6968 35.368 73.3128 34.296 73.3128 32.92V24.616H75.7128V32.584C75.7128 34.312 76.5848 35.176 78.3288 35.176C79.2088 35.176 79.9448 34.864 80.5368 34.24C81.1448 33.6 81.4488 32.72 81.4488 31.6ZM83.6976 19.912H97.6416V22.216H91.9776V37H89.3616V22.216H83.6976V19.912ZM105.168 31.6V24.616H107.568V37H105.264V35.152C104.32 36.576 103.024 37.288 101.376 37.288C100.016 37.288 98.9515 36.904 98.1835 36.136C97.4155 35.368 97.0315 34.296 97.0315 32.92V24.616H99.4315V32.584C99.4315 34.312 100.304 35.176 102.048 35.176C102.928 35.176 103.664 34.864 104.256 34.24C104.864 33.6 105.168 32.72 105.168 31.6ZM116.706 24.328C118.434 24.328 119.81 24.912 120.834 26.08C121.858 27.248 122.37 28.824 122.37 30.808C122.37 32.776 121.858 34.344 120.834 35.512C119.794 36.696 118.418 37.288 116.706 37.288C114.882 37.288 113.506 36.568 112.578 35.128V37H110.274V19.912H112.674V26.344C113.602 25 114.946 24.328 116.706 24.328ZM113.61 34.048C114.25 34.832 115.13 35.224 116.25 35.224C117.37 35.224 118.258 34.824 118.914 34.024C119.554 33.24 119.874 32.136 119.874 30.712C119.874 29.336 119.554 28.272 118.914 27.52C118.274 26.768 117.386 26.392 116.25 26.392C115.146 26.392 114.266 26.776 113.61 27.544C112.954 28.344 112.626 29.432 112.626 30.808C112.626 32.184 112.954 33.264 113.61 34.048ZM135.661 30.904V31.6H126.325C126.437 32.816 126.797 33.736 127.405 34.36C128.013 34.968 128.837 35.272 129.877 35.272C131.445 35.272 132.469 34.584 132.949 33.208H135.373C135.037 34.472 134.381 35.472 133.405 36.208C132.445 36.928 131.253 37.288 129.829 37.288C128.053 37.288 126.621 36.696 125.533 35.512C124.445 34.328 123.901 32.76 123.901 30.808C123.901 28.856 124.445 27.288 125.533 26.104C126.621 24.92 128.037 24.328 129.781 24.328C131.605 24.328 133.045 24.944 134.101 26.176C135.141 27.408 135.661 28.984 135.661 30.904ZM129.781 26.344C128.837 26.344 128.061 26.632 127.453 27.208C126.861 27.784 126.493 28.616 126.349 29.704H133.189C133.077 28.696 132.717 27.888 132.109 27.28C131.517 26.656 130.741 26.344 129.781 26.344ZM141.729 19.912H155.673V22.216H150.009V37H147.393V22.216H141.729V19.912ZM163.27 24.328C164.63 24.328 165.694 24.712 166.462 25.48C167.23 26.232 167.614 27.304 167.614 28.696V37H165.214V29.032C165.214 27.304 164.342 26.44 162.598 26.44C161.798 26.44 161.078 26.744 160.438 27.352C159.798 27.976 159.478 28.864 159.478 30.016V37H157.078V19.912H159.478V26.32C160.422 24.992 161.686 24.328 163.27 24.328ZM178.035 31.6V24.616H180.435V37H178.131V35.152C177.187 36.576 175.891 37.288 174.243 37.288C172.883 37.288 171.819 36.904 171.051 36.136C170.283 35.368 169.899 34.296 169.899 32.92V24.616H172.299V32.584C172.299 34.312 173.171 35.176 174.915 35.176C175.795 35.176 176.531 34.864 177.123 34.24C177.731 33.6 178.035 32.72 178.035 31.6ZM196.677 24.328C198.021 24.328 199.069 24.728 199.821 25.528C200.573 26.312 200.949 27.368 200.949 28.696V37H198.525V29.008C198.525 27.296 197.733 26.44 196.149 26.44C195.301 26.44 194.605 26.768 194.061 27.424C193.517 28.064 193.245 28.992 193.245 30.208V37H190.845V29.008C190.845 27.296 190.045 26.44 188.445 26.44C187.597 26.44 186.901 26.768 186.357 27.424C185.813 28.08 185.541 29.008 185.541 30.208V37H183.141V24.616H185.445V26.464C186.293 25.04 187.485 24.328 189.021 24.328C190.893 24.328 192.165 25.104 192.837 26.656C193.717 25.104 194.997 24.328 196.677 24.328ZM210.057 24.328C211.785 24.328 213.161 24.912 214.185 26.08C215.209 27.248 215.721 28.824 215.721 30.808C215.721 32.776 215.209 34.344 214.185 35.512C213.145 36.696 211.769 37.288 210.057 37.288C208.233 37.288 206.857 36.568 205.929 35.128V37H203.625V19.912H206.025V26.344C206.953 25 208.297 24.328 210.057 24.328ZM206.961 34.048C207.601 34.832 208.481 35.224 209.601 35.224C210.721 35.224 211.609 34.824 212.265 34.024C212.905 33.24 213.225 32.136 213.225 30.712C213.225 29.336 212.905 28.272 212.265 27.52C211.625 26.768 210.737 26.392 209.601 26.392C208.497 26.392 207.617 26.776 206.961 27.544C206.305 28.344 205.977 29.432 205.977 30.808C205.977 32.184 206.305 33.264 206.961 34.048ZM224.02 24.328C225.38 24.328 226.444 24.712 227.212 25.48C227.98 26.232 228.364 27.304 228.364 28.696V37H225.964V29.032C225.964 27.304 225.092 26.44 223.348 26.44C222.548 26.44 221.828 26.744 221.188 27.352C220.548 27.976 220.228 28.864 220.228 30.016V37H217.828V24.616H220.132V26.464C221.076 25.04 222.372 24.328 224.02 24.328ZM241.727 35.152H242.399V37C242.047 37.048 241.655 37.072 241.223 37.072C240.455 37.072 239.879 36.936 239.495 36.664C239.127 36.376 238.903 35.928 238.823 35.32C237.991 36.632 236.647 37.288 234.791 37.288C233.431 37.288 232.351 36.968 231.551 36.328C230.767 35.672 230.375 34.768 230.375 33.616C230.375 31.376 231.927 30.096 235.031 29.776L236.855 29.584C237.495 29.504 237.959 29.344 238.247 29.104C238.551 28.848 238.703 28.488 238.703 28.024C238.703 27.4 238.503 26.952 238.103 26.68C237.719 26.392 237.071 26.248 236.159 26.248C235.167 26.248 234.455 26.416 234.023 26.752C233.591 27.072 233.343 27.648 233.279 28.48H230.903C231.079 25.712 232.831 24.328 236.159 24.328C239.423 24.328 241.055 25.544 241.055 27.976V34.528C241.055 34.944 241.279 35.152 241.727 35.152ZM235.151 35.416C236.175 35.416 237.023 35.128 237.695 34.552C238.367 33.976 238.703 33.16 238.703 32.104V30.808C238.399 31.064 237.887 31.232 237.167 31.312L235.439 31.504C234.511 31.616 233.847 31.84 233.447 32.176C233.047 32.496 232.847 32.952 232.847 33.544C232.847 34.136 233.039 34.6 233.423 34.936C233.823 35.256 234.399 35.416 235.151 35.416ZM246.315 22.864H243.867V20.296H246.315V22.864ZM246.291 37H243.891V24.616H246.291V37ZM251.377 37H248.977V19.912H251.377V37Z" fill="#171717"/>
</svg>
