<svg width="199" height="55" viewBox="0 0 199 55" fill="none" xmlns="http://www.w3.org/2000/svg">
<rect x="0.5" y="0.5" width="198" height="54" rx="9.5" stroke="#DFDFDF"/>
<path d="M30.0182 17.5951L32.0716 21.7017C32.3516 22.2734 33.0982 22.8217 33.7282 22.9267L37.4499 23.5451C39.8299 23.9417 40.3899 25.6684 38.6749 27.3717L35.7816 30.2651C35.2916 30.7551 35.0232 31.7001 35.1749 32.3767L36.0032 35.9584C36.6566 38.7934 35.1516 39.8901 32.6432 38.4084L29.1549 36.3434C28.5249 35.9701 27.4866 35.9701 26.8449 36.3434L23.3566 38.4084C20.8599 39.8901 19.3432 38.7817 19.9966 35.9584L20.8249 32.3767C20.9766 31.7001 20.7082 30.7551 20.2182 30.2651L17.3249 27.3717C15.6216 25.6684 16.1699 23.9417 18.5499 23.5451L22.2716 22.9267C22.8899 22.8217 23.6366 22.2734 23.9166 21.7017L25.9699 17.5951C27.0899 15.3667 28.9099 15.3667 30.0182 17.5951Z" stroke="#171717" stroke-width="1.75" stroke-linecap="round" stroke-linejoin="round"/>
<path d="M59.68 19.912V22.216H50.056V27.04H58.768V29.296H50.056V34.696H59.608V37H47.488V19.912H59.68ZM68.1259 29.152L69.7819 24.616H72.3259L67.5739 37H64.9099L60.1819 24.616H62.7739L64.4539 29.152C65.5899 32.528 66.1979 34.368 66.2779 34.672C66.3259 34.512 66.4299 34.192 66.5899 33.712C66.7499 33.232 66.9739 32.576 67.2619 31.744C67.5499 30.896 67.8379 30.032 68.1259 29.152ZM84.2624 30.904V31.6H74.9264C75.0384 32.816 75.3984 33.736 76.0064 34.36C76.6144 34.968 77.4384 35.272 78.4784 35.272C80.0464 35.272 81.0704 34.584 81.5504 33.208H83.9744C83.6384 34.472 82.9824 35.472 82.0064 36.208C81.0464 36.928 79.8544 37.288 78.4304 37.288C76.6544 37.288 75.2224 36.696 74.1344 35.512C73.0464 34.328 72.5024 32.76 72.5024 30.808C72.5024 28.856 73.0464 27.288 74.1344 26.104C75.2224 24.92 76.6384 24.328 78.3824 24.328C80.2064 24.328 81.6464 24.944 82.7024 26.176C83.7424 27.408 84.2624 28.984 84.2624 30.904ZM78.3824 26.344C77.4384 26.344 76.6624 26.632 76.0544 27.208C75.4624 27.784 75.0944 28.616 74.9504 29.704H81.7904C81.6784 28.696 81.3184 27.888 80.7104 27.28C80.1184 26.656 79.3424 26.344 78.3824 26.344ZM92.5829 24.328C93.9429 24.328 95.0069 24.712 95.7749 25.48C96.5429 26.232 96.9269 27.304 96.9269 28.696V37H94.5269V29.032C94.5269 27.304 93.6549 26.44 91.9109 26.44C91.1109 26.44 90.3909 26.744 89.7509 27.352C89.1109 27.976 88.7909 28.864 88.7909 30.016V37H86.3909V24.616H88.6949V26.464C89.6389 25.04 90.9349 24.328 92.5829 24.328ZM105.068 24.616V26.584H102.572V34.024C102.572 34.392 102.676 34.664 102.884 34.84C103.108 35 103.476 35.08 103.988 35.08H105.068V37C104.54 37.048 104.052 37.072 103.604 37.072C102.436 37.072 101.572 36.848 101.012 36.4C100.452 35.952 100.172 35.232 100.172 34.24V26.584H98.1798V24.616H100.172V21.064H102.572V24.616H105.068ZM111.988 19.912H118.084C120.724 19.912 122.804 20.672 124.324 22.192C125.812 23.712 126.556 25.8 126.556 28.456C126.556 31.112 125.812 33.2 124.324 34.72C122.804 36.24 120.724 37 118.084 37H111.988V19.912ZM114.556 34.744H118.06C119.932 34.744 121.364 34.2 122.356 33.112C123.364 32.024 123.868 30.472 123.868 28.456C123.868 26.44 123.364 24.888 122.356 23.8C121.364 22.712 119.932 22.168 118.06 22.168H114.556V34.744ZM139.973 30.904V31.6H130.637C130.749 32.816 131.109 33.736 131.717 34.36C132.325 34.968 133.149 35.272 134.189 35.272C135.757 35.272 136.781 34.584 137.261 33.208H139.685C139.349 34.472 138.693 35.472 137.717 36.208C136.757 36.928 135.565 37.288 134.141 37.288C132.365 37.288 130.933 36.696 129.845 35.512C128.757 34.328 128.213 32.76 128.213 30.808C128.213 28.856 128.757 27.288 129.845 26.104C130.933 24.92 132.349 24.328 134.093 24.328C135.917 24.328 137.357 24.944 138.413 26.176C139.453 27.408 139.973 28.984 139.973 30.904ZM134.093 26.344C133.149 26.344 132.373 26.632 131.765 27.208C131.173 27.784 130.805 28.616 130.661 29.704H137.501C137.389 28.696 137.029 27.888 136.421 27.28C135.829 26.656 135.053 26.344 134.093 26.344ZM146.616 37.312C143.176 37.312 141.368 35.896 141.192 33.064H143.592C143.688 33.928 143.968 34.536 144.432 34.888C144.896 35.24 145.632 35.416 146.64 35.416C148.464 35.416 149.376 34.84 149.376 33.688C149.376 33.192 149.184 32.808 148.8 32.536C148.416 32.264 147.728 32.04 146.736 31.864L145.464 31.624C142.84 31.144 141.528 29.912 141.528 27.928C141.528 26.824 141.952 25.952 142.8 25.312C143.648 24.656 144.816 24.328 146.304 24.328C149.712 24.328 151.456 25.712 151.536 28.48H149.208C149.16 27.648 148.904 27.064 148.44 26.728C147.976 26.376 147.264 26.2 146.304 26.2C145.536 26.2 144.944 26.344 144.528 26.632C144.112 26.92 143.904 27.328 143.904 27.856C143.904 28.336 144.088 28.712 144.456 28.984C144.824 29.24 145.408 29.448 146.208 29.608L147.504 29.824C149.024 30.112 150.12 30.544 150.792 31.12C151.464 31.696 151.8 32.496 151.8 33.52C151.8 34.72 151.344 35.656 150.432 36.328C149.52 36.984 148.248 37.312 146.616 37.312ZM156.01 22.864H153.562V20.296H156.01V22.864ZM155.986 37H153.586V24.616H155.986V37ZM167.864 26.368V24.616H170.168V36.544C170.168 38.24 169.656 39.568 168.632 40.528C167.608 41.504 166.152 41.992 164.264 41.992C162.648 41.992 161.36 41.624 160.4 40.888C159.456 40.152 158.92 39.144 158.792 37.864H161.192C161.384 39.32 162.416 40.048 164.288 40.048C166.608 40.048 167.768 38.896 167.768 36.592V35.224C166.824 36.504 165.496 37.144 163.784 37.144C162.056 37.144 160.68 36.56 159.656 35.392C158.616 34.208 158.096 32.656 158.096 30.736C158.096 28.816 158.616 27.264 159.656 26.08C160.68 24.912 162.048 24.328 163.76 24.328C165.568 24.328 166.936 25.008 167.864 26.368ZM164.216 35.08C165.336 35.08 166.216 34.696 166.856 33.928C167.512 33.144 167.84 32.08 167.84 30.736C167.84 29.392 167.512 28.336 166.856 27.568C166.216 26.784 165.336 26.392 164.216 26.392C163.112 26.392 162.232 26.784 161.576 27.568C160.92 28.352 160.592 29.408 160.592 30.736C160.592 32.08 160.92 33.144 161.576 33.928C162.232 34.696 163.112 35.08 164.216 35.08ZM179.067 24.328C180.427 24.328 181.491 24.712 182.259 25.48C183.027 26.232 183.411 27.304 183.411 28.696V37H181.011V29.032C181.011 27.304 180.139 26.44 178.395 26.44C177.595 26.44 176.875 26.744 176.235 27.352C175.595 27.976 175.275 28.864 175.275 30.016V37H172.875V24.616H175.179V26.464C176.123 25.04 177.419 24.328 179.067 24.328Z" fill="#171717"/>
</svg>
