<svg width="197" height="55" viewBox="0 0 197 55" fill="none" xmlns="http://www.w3.org/2000/svg">
<rect x="0.5" y="0.5" width="196" height="54" rx="9.5" stroke="#DFDFDF"/>
<path d="M33.8333 37.4168H22.1666C18.6666 37.4168 16.3333 35.6668 16.3333 31.5835V23.4168C16.3333 19.3335 18.6666 17.5835 22.1666 17.5835H33.8333C37.3333 17.5835 39.6666 19.3335 39.6666 23.4168V31.5835C39.6666 35.6668 37.3333 37.4168 33.8333 37.4168Z" stroke="#171717" stroke-width="1.8125" stroke-miterlimit="10" stroke-linecap="round" stroke-linejoin="round"/>
<path d="M33.8334 24L30.1817 26.9167C28.9801 27.8733 27.0084 27.8733 25.8067 26.9167L22.1667 24" stroke="#171717" stroke-width="1.8125" stroke-miterlimit="10" stroke-linecap="round" stroke-linejoin="round"/>
<path d="M59.68 19.912V22.216H50.056V27.04H58.768V29.296H50.056V34.696H59.608V37H47.488V19.912H59.68ZM75.1534 24.328C76.4974 24.328 77.5454 24.728 78.2974 25.528C79.0494 26.312 79.4254 27.368 79.4254 28.696V37H77.0014V29.008C77.0014 27.296 76.2094 26.44 74.6254 26.44C73.7774 26.44 73.0814 26.768 72.5374 27.424C71.9934 28.064 71.7214 28.992 71.7214 30.208V37H69.3214V29.008C69.3214 27.296 68.5214 26.44 66.9214 26.44C66.0734 26.44 65.3774 26.768 64.8334 27.424C64.2894 28.08 64.0174 29.008 64.0174 30.208V37H61.6174V24.616H63.9214V26.464C64.7694 25.04 65.9614 24.328 67.4974 24.328C69.3694 24.328 70.6414 25.104 71.3134 26.656C72.1934 25.104 73.4734 24.328 75.1534 24.328ZM92.7578 35.152H93.4298V37C93.0778 37.048 92.6858 37.072 92.2538 37.072C91.4858 37.072 90.9098 36.936 90.5258 36.664C90.1578 36.376 89.9338 35.928 89.8538 35.32C89.0218 36.632 87.6778 37.288 85.8218 37.288C84.4618 37.288 83.3818 36.968 82.5818 36.328C81.7978 35.672 81.4058 34.768 81.4058 33.616C81.4058 31.376 82.9578 30.096 86.0618 29.776L87.8858 29.584C88.5258 29.504 88.9898 29.344 89.2778 29.104C89.5818 28.848 89.7338 28.488 89.7338 28.024C89.7338 27.4 89.5338 26.952 89.1338 26.68C88.7498 26.392 88.1018 26.248 87.1898 26.248C86.1978 26.248 85.4858 26.416 85.0538 26.752C84.6218 27.072 84.3738 27.648 84.3098 28.48H81.9338C82.1098 25.712 83.8618 24.328 87.1898 24.328C90.4538 24.328 92.0858 25.544 92.0858 27.976V34.528C92.0858 34.944 92.3098 35.152 92.7578 35.152ZM86.1818 35.416C87.2058 35.416 88.0538 35.128 88.7258 34.552C89.3978 33.976 89.7338 33.16 89.7338 32.104V30.808C89.4298 31.064 88.9178 31.232 88.1978 31.312L86.4698 31.504C85.5418 31.616 84.8778 31.84 84.4778 32.176C84.0778 32.496 83.8778 32.952 83.8778 33.544C83.8778 34.136 84.0698 34.6 84.4538 34.936C84.8538 35.256 85.4298 35.416 86.1818 35.416ZM97.3461 22.864H94.8981V20.296H97.3461V22.864ZM97.3221 37H94.9221V24.616H97.3221V37ZM102.408 37H100.008V19.912H102.408V37ZM110.09 19.912H116.186C118.826 19.912 120.906 20.672 122.426 22.192C123.914 23.712 124.658 25.8 124.658 28.456C124.658 31.112 123.914 33.2 122.426 34.72C120.906 36.24 118.826 37 116.186 37H110.09V19.912ZM112.658 34.744H116.162C118.034 34.744 119.466 34.2 120.458 33.112C121.466 32.024 121.97 30.472 121.97 28.456C121.97 26.44 121.466 24.888 120.458 23.8C119.466 22.712 118.034 22.168 116.162 22.168H112.658V34.744ZM138.075 30.904V31.6H128.739C128.851 32.816 129.211 33.736 129.819 34.36C130.427 34.968 131.251 35.272 132.291 35.272C133.859 35.272 134.883 34.584 135.363 33.208H137.787C137.451 34.472 136.795 35.472 135.819 36.208C134.859 36.928 133.667 37.288 132.243 37.288C130.467 37.288 129.035 36.696 127.947 35.512C126.859 34.328 126.315 32.76 126.315 30.808C126.315 28.856 126.859 27.288 127.947 26.104C129.035 24.92 130.451 24.328 132.195 24.328C134.019 24.328 135.459 24.944 136.515 26.176C137.555 27.408 138.075 28.984 138.075 30.904ZM132.195 26.344C131.251 26.344 130.475 26.632 129.867 27.208C129.275 27.784 128.907 28.616 128.763 29.704H135.603C135.491 28.696 135.131 27.888 134.523 27.28C133.931 26.656 133.155 26.344 132.195 26.344ZM144.717 37.312C141.277 37.312 139.469 35.896 139.293 33.064H141.693C141.789 33.928 142.069 34.536 142.533 34.888C142.997 35.24 143.733 35.416 144.741 35.416C146.565 35.416 147.477 34.84 147.477 33.688C147.477 33.192 147.285 32.808 146.901 32.536C146.517 32.264 145.829 32.04 144.837 31.864L143.565 31.624C140.941 31.144 139.629 29.912 139.629 27.928C139.629 26.824 140.053 25.952 140.901 25.312C141.749 24.656 142.917 24.328 144.405 24.328C147.813 24.328 149.557 25.712 149.637 28.48H147.309C147.261 27.648 147.005 27.064 146.541 26.728C146.077 26.376 145.365 26.2 144.405 26.2C143.637 26.2 143.045 26.344 142.629 26.632C142.213 26.92 142.005 27.328 142.005 27.856C142.005 28.336 142.189 28.712 142.557 28.984C142.925 29.24 143.509 29.448 144.309 29.608L145.605 29.824C147.125 30.112 148.221 30.544 148.893 31.12C149.565 31.696 149.901 32.496 149.901 33.52C149.901 34.72 149.445 35.656 148.533 36.328C147.621 36.984 146.349 37.312 144.717 37.312ZM154.112 22.864H151.664V20.296H154.112V22.864ZM154.088 37H151.688V24.616H154.088V37ZM165.966 26.368V24.616H168.27V36.544C168.27 38.24 167.758 39.568 166.734 40.528C165.71 41.504 164.254 41.992 162.366 41.992C160.75 41.992 159.462 41.624 158.502 40.888C157.558 40.152 157.022 39.144 156.894 37.864H159.294C159.486 39.32 160.518 40.048 162.39 40.048C164.71 40.048 165.87 38.896 165.87 36.592V35.224C164.926 36.504 163.598 37.144 161.886 37.144C160.158 37.144 158.782 36.56 157.758 35.392C156.718 34.208 156.198 32.656 156.198 30.736C156.198 28.816 156.718 27.264 157.758 26.08C158.782 24.912 160.15 24.328 161.862 24.328C163.67 24.328 165.038 25.008 165.966 26.368ZM162.318 35.08C163.438 35.08 164.318 34.696 164.958 33.928C165.614 33.144 165.942 32.08 165.942 30.736C165.942 29.392 165.614 28.336 164.958 27.568C164.318 26.784 163.438 26.392 162.318 26.392C161.214 26.392 160.334 26.784 159.678 27.568C159.022 28.352 158.694 29.408 158.694 30.736C158.694 32.08 159.022 33.144 159.678 33.928C160.334 34.696 161.214 35.08 162.318 35.08ZM177.169 24.328C178.529 24.328 179.593 24.712 180.361 25.48C181.129 26.232 181.513 27.304 181.513 28.696V37H179.113V29.032C179.113 27.304 178.241 26.44 176.497 26.44C175.697 26.44 174.977 26.744 174.337 27.352C173.697 27.976 173.377 28.864 173.377 30.016V37H170.977V24.616H173.281V26.464C174.225 25.04 175.521 24.328 177.169 24.328Z" fill="#171717"/>
</svg>
