<svg width="224" height="55" viewBox="0 0 224 55" fill="none" xmlns="http://www.w3.org/2000/svg">
<rect x="0.5" y="0.5" width="223" height="54" rx="9.5" stroke="#DFDFDF"/>
<path d="M25.6667 33.2745H21.245C17.3134 33.2745 16.3334 32.2945 16.3334 28.3628V21.3628C16.3334 17.4312 17.3134 16.4512 21.245 16.4512H33.53C37.4617 16.4512 38.4417 17.4312 38.4417 21.3628" stroke="#171717" stroke-width="1.8125" stroke-linecap="round" stroke-linejoin="round"/>
<path d="M25.6666 38.5487V33.2754" stroke="#171717" stroke-width="1.8125" stroke-linecap="round" stroke-linejoin="round"/>
<path d="M16.3334 28.6084H25.6667" stroke="#171717" stroke-width="1.8125" stroke-linecap="round" stroke-linejoin="round"/>
<path d="M21.8636 38.5488H25.667" stroke="#171717" stroke-width="1.8125" stroke-linecap="round" stroke-linejoin="round"/>
<path d="M39.6664 28.4333V35.095C39.6664 37.86 38.978 38.5483 36.213 38.5483H32.0714C29.3064 38.5483 28.618 37.86 28.618 35.095V28.4333C28.618 25.6683 29.3064 24.98 32.0714 24.98H36.213C38.978 24.98 39.6664 25.6683 39.6664 28.4333Z" stroke="#171717" stroke-width="1.8125" stroke-linecap="round" stroke-linejoin="round"/>
<path d="M34.1186 34.7918H34.129" stroke="#171717" stroke-width="2.41667" stroke-linecap="round" stroke-linejoin="round"/>
<path d="M47.488 19.912H54.76C56.616 19.912 58.056 20.4 59.08 21.376C60.104 22.336 60.616 23.648 60.616 25.312C60.616 26.96 60.104 28.272 59.08 29.248C58.056 30.208 56.616 30.688 54.76 30.688H50.056V37H47.488V19.912ZM50.056 28.432H54.712C55.784 28.432 56.6 28.168 57.16 27.64C57.72 27.096 58 26.32 58 25.312C58 24.304 57.72 23.528 57.16 22.984C56.6 22.44 55.784 22.168 54.712 22.168H50.056V28.432ZM68.5823 24.424C68.9343 24.424 69.1663 24.432 69.2783 24.448V26.728H68.6783C67.4463 26.728 66.4943 27.032 65.8223 27.64C65.1503 28.248 64.8143 29.128 64.8143 30.28V37H62.4143V24.616H64.7183V26.824C65.5023 25.224 66.7903 24.424 68.5823 24.424ZM80.3676 35.512C79.2316 36.696 77.7516 37.288 75.9276 37.288C74.1036 37.288 72.6236 36.696 71.4876 35.512C70.3516 34.328 69.7836 32.76 69.7836 30.808C69.7836 28.84 70.3516 27.264 71.4876 26.08C72.6076 24.912 74.0876 24.328 75.9276 24.328C77.7676 24.328 79.2476 24.912 80.3676 26.08C81.4876 27.248 82.0476 28.824 82.0476 30.808C82.0476 32.776 81.4876 34.344 80.3676 35.512ZM73.2636 34.048C73.9196 34.832 74.8076 35.224 75.9276 35.224C77.0476 35.224 77.9276 34.832 78.5676 34.048C79.2236 33.264 79.5516 32.184 79.5516 30.808C79.5516 29.432 79.2236 28.352 78.5676 27.568C77.9276 26.784 77.0476 26.392 75.9276 26.392C74.8076 26.392 73.9196 26.784 73.2636 27.568C72.6076 28.352 72.2796 29.432 72.2796 30.808C72.2796 32.184 72.6076 33.264 73.2636 34.048ZM93.2603 26.296V19.912H95.6603V37H93.3563V35.176C92.4283 36.584 91.0603 37.288 89.2523 37.288C87.5243 37.288 86.1483 36.704 85.1243 35.536C84.1003 34.368 83.5883 32.792 83.5883 30.808C83.5883 28.824 84.1003 27.248 85.1243 26.08C86.1483 24.912 87.5243 24.328 89.2523 24.328C90.9963 24.328 92.3323 24.984 93.2603 26.296ZM86.0843 30.904C86.0843 32.28 86.4123 33.344 87.0683 34.096C87.7243 34.848 88.6043 35.224 89.7083 35.224C90.8443 35.224 91.7323 34.832 92.3723 34.048C93.0123 33.296 93.3323 32.216 93.3323 30.808C93.3323 29.416 93.0123 28.328 92.3723 27.544C91.7323 26.776 90.8443 26.392 89.7083 26.392C88.6043 26.392 87.7243 26.792 87.0683 27.592C86.4123 28.392 86.0843 29.496 86.0843 30.904ZM106.503 31.6V24.616H108.903V37H106.599V35.152C105.655 36.576 104.359 37.288 102.711 37.288C101.351 37.288 100.287 36.904 99.5194 36.136C98.7514 35.368 98.3674 34.296 98.3674 32.92V24.616H100.767V32.584C100.767 34.312 101.639 35.176 103.383 35.176C104.263 35.176 104.999 34.864 105.591 34.24C106.199 33.6 106.503 32.72 106.503 31.6ZM116.938 37.288C115.178 37.288 113.754 36.696 112.666 35.512C111.578 34.328 111.034 32.76 111.034 30.808C111.034 28.84 111.578 27.264 112.666 26.08C113.738 24.912 115.162 24.328 116.938 24.328C118.458 24.328 119.706 24.744 120.682 25.576C121.674 26.408 122.266 27.528 122.458 28.936H120.01C119.85 28.12 119.49 27.496 118.93 27.064C118.386 26.632 117.722 26.416 116.938 26.416C115.898 26.416 115.066 26.8 114.442 27.568C113.834 28.32 113.53 29.4 113.53 30.808C113.53 32.216 113.834 33.304 114.442 34.072C115.066 34.824 115.898 35.2 116.938 35.2C117.738 35.2 118.418 34.976 118.978 34.528C119.538 34.08 119.89 33.432 120.034 32.584H122.482C122.29 34.024 121.69 35.168 120.682 36.016C119.674 36.864 118.426 37.288 116.938 37.288ZM129.841 24.616V26.584H127.345V34.024C127.345 34.392 127.449 34.664 127.657 34.84C127.881 35 128.249 35.08 128.761 35.08H129.841V37C129.313 37.048 128.825 37.072 128.377 37.072C127.209 37.072 126.345 36.848 125.785 36.4C125.225 35.952 124.945 35.232 124.945 34.24V26.584H122.953V24.616H124.945V21.064H127.345V24.616H129.841ZM136.761 19.912H142.857C145.497 19.912 147.577 20.672 149.097 22.192C150.585 23.712 151.329 25.8 151.329 28.456C151.329 31.112 150.585 33.2 149.097 34.72C147.577 36.24 145.497 37 142.857 37H136.761V19.912ZM139.329 34.744H142.833C144.705 34.744 146.137 34.2 147.129 33.112C148.137 32.024 148.641 30.472 148.641 28.456C148.641 26.44 148.137 24.888 147.129 23.8C146.137 22.712 144.705 22.168 142.833 22.168H139.329V34.744ZM164.747 30.904V31.6H155.411C155.523 32.816 155.883 33.736 156.491 34.36C157.099 34.968 157.923 35.272 158.963 35.272C160.531 35.272 161.555 34.584 162.035 33.208H164.459C164.123 34.472 163.467 35.472 162.491 36.208C161.531 36.928 160.339 37.288 158.915 37.288C157.139 37.288 155.707 36.696 154.619 35.512C153.531 34.328 152.987 32.76 152.987 30.808C152.987 28.856 153.531 27.288 154.619 26.104C155.707 24.92 157.123 24.328 158.867 24.328C160.691 24.328 162.131 24.944 163.187 26.176C164.227 27.408 164.747 28.984 164.747 30.904ZM158.867 26.344C157.923 26.344 157.147 26.632 156.539 27.208C155.947 27.784 155.579 28.616 155.435 29.704H162.275C162.163 28.696 161.803 27.888 161.195 27.28C160.603 26.656 159.827 26.344 158.867 26.344ZM171.389 37.312C167.949 37.312 166.141 35.896 165.965 33.064H168.365C168.461 33.928 168.741 34.536 169.205 34.888C169.669 35.24 170.405 35.416 171.413 35.416C173.237 35.416 174.149 34.84 174.149 33.688C174.149 33.192 173.957 32.808 173.573 32.536C173.189 32.264 172.501 32.04 171.509 31.864L170.237 31.624C167.613 31.144 166.301 29.912 166.301 27.928C166.301 26.824 166.725 25.952 167.573 25.312C168.421 24.656 169.589 24.328 171.077 24.328C174.485 24.328 176.229 25.712 176.309 28.48H173.981C173.933 27.648 173.677 27.064 173.213 26.728C172.749 26.376 172.037 26.2 171.077 26.2C170.309 26.2 169.717 26.344 169.301 26.632C168.885 26.92 168.677 27.328 168.677 27.856C168.677 28.336 168.861 28.712 169.229 28.984C169.597 29.24 170.181 29.448 170.981 29.608L172.277 29.824C173.797 30.112 174.893 30.544 175.565 31.12C176.237 31.696 176.573 32.496 176.573 33.52C176.573 34.72 176.117 35.656 175.205 36.328C174.293 36.984 173.021 37.312 171.389 37.312ZM180.784 22.864H178.336V20.296H180.784V22.864ZM180.76 37H178.36V24.616H180.76V37ZM192.638 26.368V24.616H194.942V36.544C194.942 38.24 194.43 39.568 193.406 40.528C192.382 41.504 190.926 41.992 189.038 41.992C187.422 41.992 186.134 41.624 185.174 40.888C184.23 40.152 183.694 39.144 183.566 37.864H185.966C186.158 39.32 187.19 40.048 189.062 40.048C191.382 40.048 192.542 38.896 192.542 36.592V35.224C191.598 36.504 190.27 37.144 188.558 37.144C186.83 37.144 185.454 36.56 184.43 35.392C183.39 34.208 182.87 32.656 182.87 30.736C182.87 28.816 183.39 27.264 184.43 26.08C185.454 24.912 186.822 24.328 188.534 24.328C190.342 24.328 191.71 25.008 192.638 26.368ZM188.99 35.08C190.11 35.08 190.99 34.696 191.63 33.928C192.286 33.144 192.614 32.08 192.614 30.736C192.614 29.392 192.286 28.336 191.63 27.568C190.99 26.784 190.11 26.392 188.99 26.392C187.886 26.392 187.006 26.784 186.35 27.568C185.694 28.352 185.366 29.408 185.366 30.736C185.366 32.08 185.694 33.144 186.35 33.928C187.006 34.696 187.886 35.08 188.99 35.08ZM203.841 24.328C205.201 24.328 206.265 24.712 207.033 25.48C207.801 26.232 208.185 27.304 208.185 28.696V37H205.785V29.032C205.785 27.304 204.913 26.44 203.169 26.44C202.369 26.44 201.649 26.744 201.009 27.352C200.369 27.976 200.049 28.864 200.049 30.016V37H197.649V24.616H199.953V26.464C200.897 25.04 202.193 24.328 203.841 24.328Z" fill="#171717"/>
</svg>
