<svg width="294" height="55" viewBox="0 0 294 55" fill="none" xmlns="http://www.w3.org/2000/svg">
<rect x="0.5" y="0.5" width="293" height="54" rx="9.5" stroke="#DFDFDF"/>
<path d="M27.9999 39.1668C34.4432 39.1668 39.6666 33.9435 39.6666 27.5002C39.6666 21.0568 34.4432 15.8335 27.9999 15.8335C21.5566 15.8335 16.3333 21.0568 16.3333 27.5002C16.3333 33.9435 21.5566 39.1668 27.9999 39.1668Z" stroke="#171717" stroke-width="1.875" stroke-linecap="round" stroke-linejoin="round"/>
<path d="M23.3335 17H24.5002C22.2252 23.8133 22.2252 31.1867 24.5002 38H23.3335" stroke="#171717" stroke-width="1.875" stroke-linecap="round" stroke-linejoin="round"/>
<path d="M31.5 17C33.775 23.8133 33.775 31.1867 31.5 38" stroke="#171717" stroke-width="1.875" stroke-linecap="round" stroke-linejoin="round"/>
<path d="M17.5 32.1667V31C24.3133 33.275 31.6867 33.275 38.5 31V32.1667" stroke="#171717" stroke-width="1.875" stroke-linecap="round" stroke-linejoin="round"/>
<path d="M17.5 24.0002C24.3133 21.7252 31.6867 21.7252 38.5 24.0002" stroke="#171717" stroke-width="1.875" stroke-linecap="round" stroke-linejoin="round"/>
<path d="M64.168 27.664L66.256 19.912H68.92L64.12 37H61.24L59.08 29.008C58.664 27.456 58.168 25.48 57.592 23.08C57.016 25.48 56.52 27.456 56.104 29.008L53.944 37H51.064L46.264 19.912H48.928L51.016 27.664C51.736 30.464 52.264 32.568 52.6 33.976C53.528 30.168 54.048 28.048 54.16 27.616L56.224 19.912H58.96L61.024 27.616C61.136 28.048 61.656 30.168 62.584 33.976C62.92 32.568 63.448 30.464 64.168 27.664ZM80.1843 30.904V31.6H70.8483C70.9603 32.816 71.3203 33.736 71.9283 34.36C72.5363 34.968 73.3603 35.272 74.4003 35.272C75.9683 35.272 76.9923 34.584 77.4723 33.208H79.8963C79.5603 34.472 78.9043 35.472 77.9283 36.208C76.9683 36.928 75.7763 37.288 74.3523 37.288C72.5763 37.288 71.1443 36.696 70.0563 35.512C68.9683 34.328 68.4243 32.76 68.4243 30.808C68.4243 28.856 68.9683 27.288 70.0563 26.104C71.1443 24.92 72.5603 24.328 74.3043 24.328C76.1283 24.328 77.5683 24.944 78.6243 26.176C79.6643 27.408 80.1843 28.984 80.1843 30.904ZM74.3043 26.344C73.3603 26.344 72.5843 26.632 71.9763 27.208C71.3843 27.784 71.0163 28.616 70.8723 29.704H77.7123C77.6003 28.696 77.2403 27.888 76.6323 27.28C76.0403 26.656 75.2643 26.344 74.3043 26.344ZM88.7448 24.328C90.4728 24.328 91.8488 24.912 92.8728 26.08C93.8968 27.248 94.4088 28.824 94.4088 30.808C94.4088 32.776 93.8968 34.344 92.8728 35.512C91.8328 36.696 90.4568 37.288 88.7448 37.288C86.9208 37.288 85.5448 36.568 84.6168 35.128V37H82.3128V19.912H84.7128V26.344C85.6408 25 86.9848 24.328 88.7448 24.328ZM85.6488 34.048C86.2888 34.832 87.1688 35.224 88.2888 35.224C89.4088 35.224 90.2968 34.824 90.9528 34.024C91.5928 33.24 91.9128 32.136 91.9128 30.712C91.9128 29.336 91.5928 28.272 90.9528 27.52C90.3128 26.768 89.4248 26.392 88.2888 26.392C87.1848 26.392 86.3048 26.776 85.6488 27.544C84.9928 28.344 84.6648 29.432 84.6648 30.808C84.6648 32.184 84.9928 33.264 85.6488 34.048ZM100.912 37.312C97.4724 37.312 95.6644 35.896 95.4884 33.064H97.8884C97.9844 33.928 98.2644 34.536 98.7284 34.888C99.1924 35.24 99.9284 35.416 100.936 35.416C102.76 35.416 103.672 34.84 103.672 33.688C103.672 33.192 103.48 32.808 103.096 32.536C102.712 32.264 102.024 32.04 101.032 31.864L99.7604 31.624C97.1364 31.144 95.8244 29.912 95.8244 27.928C95.8244 26.824 96.2484 25.952 97.0964 25.312C97.9444 24.656 99.1124 24.328 100.6 24.328C104.008 24.328 105.752 25.712 105.832 28.48H103.504C103.456 27.648 103.2 27.064 102.736 26.728C102.272 26.376 101.56 26.2 100.6 26.2C99.8324 26.2 99.2404 26.344 98.8244 26.632C98.4084 26.92 98.2004 27.328 98.2004 27.856C98.2004 28.336 98.3844 28.712 98.7524 28.984C99.1204 29.24 99.7044 29.448 100.504 29.608L101.8 29.824C103.32 30.112 104.416 30.544 105.088 31.12C105.76 31.696 106.096 32.496 106.096 33.52C106.096 34.72 105.64 35.656 104.728 36.328C103.816 36.984 102.544 37.312 100.912 37.312ZM110.307 22.864H107.859V20.296H110.307V22.864ZM110.283 37H107.883V24.616H110.283V37ZM118.849 24.616V26.584H116.353V34.024C116.353 34.392 116.457 34.664 116.665 34.84C116.889 35 117.257 35.08 117.769 35.08H118.849V37C118.321 37.048 117.833 37.072 117.385 37.072C116.217 37.072 115.353 36.848 114.793 36.4C114.233 35.952 113.953 35.232 113.953 34.24V26.584H111.961V24.616H113.953V21.064H116.353V24.616H118.849ZM131.723 30.904V31.6H122.387C122.499 32.816 122.859 33.736 123.467 34.36C124.075 34.968 124.899 35.272 125.939 35.272C127.507 35.272 128.531 34.584 129.011 33.208H131.435C131.099 34.472 130.443 35.472 129.467 36.208C128.507 36.928 127.315 37.288 125.891 37.288C124.115 37.288 122.683 36.696 121.595 35.512C120.507 34.328 119.963 32.76 119.963 30.808C119.963 28.856 120.507 27.288 121.595 26.104C122.683 24.92 124.099 24.328 125.843 24.328C127.667 24.328 129.107 24.944 130.163 26.176C131.203 27.408 131.723 28.984 131.723 30.904ZM125.843 26.344C124.899 26.344 124.123 26.632 123.515 27.208C122.923 27.784 122.555 28.616 122.411 29.704H129.251C129.139 28.696 128.779 27.888 128.171 27.28C127.579 26.656 126.803 26.344 125.843 26.344ZM138.847 19.912H144.943C147.583 19.912 149.663 20.672 151.183 22.192C152.671 23.712 153.415 25.8 153.415 28.456C153.415 31.112 152.671 33.2 151.183 34.72C149.663 36.24 147.583 37 144.943 37H138.847V19.912ZM141.415 34.744H144.919C146.791 34.744 148.223 34.2 149.215 33.112C150.223 32.024 150.727 30.472 150.727 28.456C150.727 26.44 150.223 24.888 149.215 23.8C148.223 22.712 146.791 22.168 144.919 22.168H141.415V34.744ZM166.833 30.904V31.6H157.497C157.609 32.816 157.969 33.736 158.577 34.36C159.185 34.968 160.009 35.272 161.049 35.272C162.617 35.272 163.641 34.584 164.121 33.208H166.545C166.209 34.472 165.553 35.472 164.577 36.208C163.617 36.928 162.425 37.288 161.001 37.288C159.225 37.288 157.793 36.696 156.705 35.512C155.617 34.328 155.073 32.76 155.073 30.808C155.073 28.856 155.617 27.288 156.705 26.104C157.793 24.92 159.209 24.328 160.953 24.328C162.777 24.328 164.217 24.944 165.273 26.176C166.313 27.408 166.833 28.984 166.833 30.904ZM160.953 26.344C160.009 26.344 159.233 26.632 158.625 27.208C158.033 27.784 157.665 28.616 157.521 29.704H164.361C164.249 28.696 163.889 27.888 163.281 27.28C162.689 26.656 161.913 26.344 160.953 26.344ZM175.048 29.152L176.704 24.616H179.248L174.496 37H171.832L167.104 24.616H169.696L171.376 29.152C172.512 32.528 173.12 34.368 173.2 34.672C173.248 34.512 173.352 34.192 173.512 33.712C173.672 33.232 173.896 32.576 174.184 31.744C174.472 30.896 174.76 30.032 175.048 29.152ZM191.184 30.904V31.6H181.848C181.96 32.816 182.32 33.736 182.928 34.36C183.536 34.968 184.36 35.272 185.4 35.272C186.968 35.272 187.992 34.584 188.472 33.208H190.896C190.56 34.472 189.904 35.472 188.928 36.208C187.968 36.928 186.776 37.288 185.352 37.288C183.576 37.288 182.144 36.696 181.056 35.512C179.968 34.328 179.424 32.76 179.424 30.808C179.424 28.856 179.968 27.288 181.056 26.104C182.144 24.92 183.56 24.328 185.304 24.328C187.128 24.328 188.568 24.944 189.624 26.176C190.664 27.408 191.184 28.984 191.184 30.904ZM185.304 26.344C184.36 26.344 183.584 26.632 182.976 27.208C182.384 27.784 182.016 28.616 181.872 29.704H188.712C188.6 28.696 188.24 27.888 187.632 27.28C187.04 26.656 186.264 26.344 185.304 26.344ZM195.713 37H193.313V19.912H195.713V37ZM208.407 35.512C207.271 36.696 205.791 37.288 203.967 37.288C202.143 37.288 200.663 36.696 199.527 35.512C198.391 34.328 197.823 32.76 197.823 30.808C197.823 28.84 198.391 27.264 199.527 26.08C200.647 24.912 202.127 24.328 203.967 24.328C205.807 24.328 207.287 24.912 208.407 26.08C209.527 27.248 210.087 28.824 210.087 30.808C210.087 32.776 209.527 34.344 208.407 35.512ZM201.303 34.048C201.959 34.832 202.847 35.224 203.967 35.224C205.087 35.224 205.967 34.832 206.607 34.048C207.263 33.264 207.591 32.184 207.591 30.808C207.591 29.432 207.263 28.352 206.607 27.568C205.967 26.784 205.087 26.392 203.967 26.392C202.847 26.392 201.959 26.784 201.303 27.568C200.647 28.352 200.319 29.432 200.319 30.808C200.319 32.184 200.647 33.264 201.303 34.048ZM218.635 24.328C220.363 24.328 221.739 24.912 222.763 26.08C223.787 27.248 224.299 28.824 224.299 30.808C224.299 32.776 223.787 34.344 222.763 35.512C221.723 36.696 220.347 37.288 218.635 37.288C216.875 37.288 215.531 36.616 214.603 35.272V41.704H212.203V24.616H214.507V26.488C215.435 25.048 216.811 24.328 218.635 24.328ZM215.539 34.048C216.179 34.832 217.059 35.224 218.179 35.224C219.299 35.224 220.187 34.824 220.843 34.024C221.483 33.24 221.803 32.136 221.803 30.712C221.803 29.336 221.483 28.272 220.843 27.52C220.203 26.768 219.315 26.392 218.179 26.392C217.075 26.392 216.195 26.776 215.539 27.544C214.883 28.344 214.555 29.432 214.555 30.808C214.555 32.184 214.883 33.264 215.539 34.048ZM239.943 24.328C241.287 24.328 242.335 24.728 243.087 25.528C243.839 26.312 244.215 27.368 244.215 28.696V37H241.791V29.008C241.791 27.296 240.999 26.44 239.415 26.44C238.567 26.44 237.871 26.768 237.327 27.424C236.783 28.064 236.511 28.992 236.511 30.208V37H234.111V29.008C234.111 27.296 233.311 26.44 231.711 26.44C230.863 26.44 230.167 26.768 229.623 27.424C229.079 28.08 228.807 29.008 228.807 30.208V37H226.407V24.616H228.711V26.464C229.559 25.04 230.751 24.328 232.287 24.328C234.159 24.328 235.431 25.104 236.103 26.656C236.983 25.104 238.263 24.328 239.943 24.328ZM258.075 30.904V31.6H248.739C248.851 32.816 249.211 33.736 249.819 34.36C250.427 34.968 251.251 35.272 252.291 35.272C253.859 35.272 254.883 34.584 255.363 33.208H257.787C257.451 34.472 256.795 35.472 255.819 36.208C254.859 36.928 253.667 37.288 252.243 37.288C250.467 37.288 249.035 36.696 247.947 35.512C246.859 34.328 246.315 32.76 246.315 30.808C246.315 28.856 246.859 27.288 247.947 26.104C249.035 24.92 250.451 24.328 252.195 24.328C254.019 24.328 255.459 24.944 256.515 26.176C257.555 27.408 258.075 28.984 258.075 30.904ZM252.195 26.344C251.251 26.344 250.475 26.632 249.867 27.208C249.275 27.784 248.907 28.616 248.763 29.704H255.603C255.491 28.696 255.131 27.888 254.523 27.28C253.931 26.656 253.155 26.344 252.195 26.344ZM266.395 24.328C267.755 24.328 268.819 24.712 269.587 25.48C270.355 26.232 270.739 27.304 270.739 28.696V37H268.339V29.032C268.339 27.304 267.467 26.44 265.723 26.44C264.923 26.44 264.203 26.744 263.563 27.352C262.923 27.976 262.603 28.864 262.603 30.016V37H260.203V24.616H262.507V26.464C263.451 25.04 264.747 24.328 266.395 24.328ZM278.88 24.616V26.584H276.384V34.024C276.384 34.392 276.488 34.664 276.696 34.84C276.92 35 277.288 35.08 277.8 35.08H278.88V37C278.352 37.048 277.864 37.072 277.416 37.072C276.248 37.072 275.384 36.848 274.824 36.4C274.264 35.952 273.984 35.232 273.984 34.24V26.584H271.992V24.616H273.984V21.064H276.384V24.616H278.88Z" fill="#171717"/>
</svg>
