<svg width="196" height="55" viewBox="0 0 196 55" fill="none" xmlns="http://www.w3.org/2000/svg">
<rect x="0.5" y="0.5" width="195" height="54" rx="9.5" stroke="#DFDFDF"/>
<path d="M37.3333 21.6668V33.3335C37.3333 38.0002 36.1666 39.1668 31.5 39.1668H24.5C19.8333 39.1668 18.6666 38.0002 18.6666 33.3335V21.6668C18.6666 17.0002 19.8333 15.8335 24.5 15.8335H31.5C36.1666 15.8335 37.3333 17.0002 37.3333 21.6668Z" stroke="#171717" stroke-width="1.7" stroke-linecap="round" stroke-linejoin="round"/>
<path d="M30.3333 19.917H25.6666" stroke="#171717" stroke-width="1.7" stroke-linecap="round" stroke-linejoin="round"/>
<path d="M28.0002 35.7837C28.9989 35.7837 29.8086 34.974 29.8086 33.9753C29.8086 32.9766 28.9989 32.167 28.0002 32.167C27.0015 32.167 26.1919 32.9766 26.1919 33.9753C26.1919 34.974 27.0015 35.7837 28.0002 35.7837Z" stroke="#171717" stroke-width="1.7" stroke-linecap="round" stroke-linejoin="round"/>
<path d="M62.656 37H59.944L58.264 32.56H50.584L48.928 37H46.264L52.936 19.912H55.888L62.656 37ZM51.76 29.392L51.4 30.328H57.424L57.064 29.392C56.216 27.28 55.328 24.944 54.4 22.384C53.296 25.328 52.416 27.664 51.76 29.392ZM70.5338 24.328C72.2618 24.328 73.6378 24.912 74.6618 26.08C75.6858 27.248 76.1978 28.824 76.1978 30.808C76.1978 32.776 75.6858 34.344 74.6618 35.512C73.6218 36.696 72.2458 37.288 70.5338 37.288C68.7738 37.288 67.4298 36.616 66.5018 35.272V41.704H64.1018V24.616H66.4058V26.488C67.3338 25.048 68.7098 24.328 70.5338 24.328ZM67.4378 34.048C68.0778 34.832 68.9578 35.224 70.0778 35.224C71.1978 35.224 72.0858 34.824 72.7418 34.024C73.3818 33.24 73.7018 32.136 73.7018 30.712C73.7018 29.336 73.3818 28.272 72.7418 27.52C72.1018 26.768 71.2138 26.392 70.0778 26.392C68.9738 26.392 68.0938 26.776 67.4378 27.544C66.7818 28.344 66.4538 29.432 66.4538 30.808C66.4538 32.184 66.7818 33.264 67.4378 34.048ZM84.7369 24.328C86.4649 24.328 87.8409 24.912 88.8649 26.08C89.8889 27.248 90.4009 28.824 90.4009 30.808C90.4009 32.776 89.8889 34.344 88.8649 35.512C87.8249 36.696 86.4489 37.288 84.7369 37.288C82.9769 37.288 81.6329 36.616 80.7049 35.272V41.704H78.3049V24.616H80.6089V26.488C81.5369 25.048 82.9129 24.328 84.7369 24.328ZM81.6409 34.048C82.2809 34.832 83.1609 35.224 84.2809 35.224C85.4009 35.224 86.2889 34.824 86.9449 34.024C87.5849 33.24 87.9049 32.136 87.9049 30.712C87.9049 29.336 87.5849 28.272 86.9449 27.52C86.3049 26.768 85.4169 26.392 84.2809 26.392C83.1769 26.392 82.2969 26.776 81.6409 27.544C80.9849 28.344 80.6569 29.432 80.6569 30.808C80.6569 32.184 80.9849 33.264 81.6409 34.048ZM96.9046 37.312C93.4646 37.312 91.6566 35.896 91.4806 33.064H93.8806C93.9766 33.928 94.2566 34.536 94.7206 34.888C95.1846 35.24 95.9206 35.416 96.9286 35.416C98.7526 35.416 99.6646 34.84 99.6646 33.688C99.6646 33.192 99.4726 32.808 99.0886 32.536C98.7046 32.264 98.0166 32.04 97.0246 31.864L95.7526 31.624C93.1286 31.144 91.8166 29.912 91.8166 27.928C91.8166 26.824 92.2406 25.952 93.0886 25.312C93.9366 24.656 95.1046 24.328 96.5926 24.328C100.001 24.328 101.745 25.712 101.825 28.48H99.4966C99.4486 27.648 99.1926 27.064 98.7286 26.728C98.2646 26.376 97.5526 26.2 96.5926 26.2C95.8246 26.2 95.2326 26.344 94.8166 26.632C94.4006 26.92 94.1926 27.328 94.1926 27.856C94.1926 28.336 94.3766 28.712 94.7446 28.984C95.1126 29.24 95.6966 29.448 96.4966 29.608L97.7926 29.824C99.3126 30.112 100.409 30.544 101.081 31.12C101.753 31.696 102.089 32.496 102.089 33.52C102.089 34.72 101.633 35.656 100.721 36.328C99.8086 36.984 98.5366 37.312 96.9046 37.312ZM108.871 19.912H114.967C117.607 19.912 119.687 20.672 121.207 22.192C122.695 23.712 123.439 25.8 123.439 28.456C123.439 31.112 122.695 33.2 121.207 34.72C119.687 36.24 117.607 37 114.967 37H108.871V19.912ZM111.439 34.744H114.943C116.815 34.744 118.247 34.2 119.239 33.112C120.247 32.024 120.751 30.472 120.751 28.456C120.751 26.44 120.247 24.888 119.239 23.8C118.247 22.712 116.815 22.168 114.943 22.168H111.439V34.744ZM136.856 30.904V31.6H127.52C127.632 32.816 127.992 33.736 128.6 34.36C129.208 34.968 130.032 35.272 131.072 35.272C132.64 35.272 133.664 34.584 134.144 33.208H136.568C136.232 34.472 135.576 35.472 134.6 36.208C133.64 36.928 132.448 37.288 131.024 37.288C129.248 37.288 127.816 36.696 126.728 35.512C125.64 34.328 125.096 32.76 125.096 30.808C125.096 28.856 125.64 27.288 126.728 26.104C127.816 24.92 129.232 24.328 130.976 24.328C132.8 24.328 134.24 24.944 135.296 26.176C136.336 27.408 136.856 28.984 136.856 30.904ZM130.976 26.344C130.032 26.344 129.256 26.632 128.648 27.208C128.056 27.784 127.688 28.616 127.544 29.704H134.384C134.272 28.696 133.912 27.888 133.304 27.28C132.712 26.656 131.936 26.344 130.976 26.344ZM143.498 37.312C140.058 37.312 138.25 35.896 138.074 33.064H140.474C140.57 33.928 140.85 34.536 141.314 34.888C141.778 35.24 142.514 35.416 143.522 35.416C145.346 35.416 146.258 34.84 146.258 33.688C146.258 33.192 146.066 32.808 145.682 32.536C145.298 32.264 144.61 32.04 143.618 31.864L142.346 31.624C139.722 31.144 138.41 29.912 138.41 27.928C138.41 26.824 138.834 25.952 139.682 25.312C140.53 24.656 141.698 24.328 143.186 24.328C146.594 24.328 148.338 25.712 148.418 28.48H146.09C146.042 27.648 145.786 27.064 145.322 26.728C144.858 26.376 144.146 26.2 143.186 26.2C142.418 26.2 141.826 26.344 141.41 26.632C140.994 26.92 140.786 27.328 140.786 27.856C140.786 28.336 140.97 28.712 141.338 28.984C141.706 29.24 142.29 29.448 143.09 29.608L144.386 29.824C145.906 30.112 147.002 30.544 147.674 31.12C148.346 31.696 148.682 32.496 148.682 33.52C148.682 34.72 148.226 35.656 147.314 36.328C146.402 36.984 145.13 37.312 143.498 37.312ZM152.893 22.864H150.445V20.296H152.893V22.864ZM152.869 37H150.469V24.616H152.869V37ZM164.747 26.368V24.616H167.051V36.544C167.051 38.24 166.539 39.568 165.515 40.528C164.491 41.504 163.035 41.992 161.147 41.992C159.531 41.992 158.243 41.624 157.283 40.888C156.339 40.152 155.803 39.144 155.675 37.864H158.075C158.267 39.32 159.299 40.048 161.171 40.048C163.491 40.048 164.651 38.896 164.651 36.592V35.224C163.707 36.504 162.379 37.144 160.667 37.144C158.939 37.144 157.563 36.56 156.539 35.392C155.499 34.208 154.979 32.656 154.979 30.736C154.979 28.816 155.499 27.264 156.539 26.08C157.563 24.912 158.931 24.328 160.643 24.328C162.451 24.328 163.819 25.008 164.747 26.368ZM161.099 35.08C162.219 35.08 163.099 34.696 163.739 33.928C164.395 33.144 164.723 32.08 164.723 30.736C164.723 29.392 164.395 28.336 163.739 27.568C163.099 26.784 162.219 26.392 161.099 26.392C159.995 26.392 159.115 26.784 158.459 27.568C157.803 28.352 157.475 29.408 157.475 30.736C157.475 32.08 157.803 33.144 158.459 33.928C159.115 34.696 159.995 35.08 161.099 35.08ZM175.95 24.328C177.31 24.328 178.374 24.712 179.142 25.48C179.91 26.232 180.294 27.304 180.294 28.696V37H177.894V29.032C177.894 27.304 177.022 26.44 175.278 26.44C174.478 26.44 173.758 26.744 173.118 27.352C172.478 27.976 172.158 28.864 172.158 30.016V37H169.758V24.616H172.062V26.464C173.006 25.04 174.302 24.328 175.95 24.328Z" fill="#171717"/>
</svg>
