<svg width="194" height="55" viewBox="0 0 194 55" fill="none" xmlns="http://www.w3.org/2000/svg">
<rect x="0.5" y="0.5" width="193" height="54" rx="9.5" stroke="#DFDFDF"/>
<path d="M50.056 19.912V34.696H58.432V37H47.488V19.912H50.056ZM69.6333 35.512C68.4973 36.696 67.0173 37.288 65.1933 37.288C63.3693 37.288 61.8893 36.696 60.7533 35.512C59.6173 34.328 59.0493 32.76 59.0493 30.808C59.0493 28.84 59.6173 27.264 60.7533 26.08C61.8733 24.912 63.3533 24.328 65.1933 24.328C67.0333 24.328 68.5133 24.912 69.6333 26.08C70.7533 27.248 71.3133 28.824 71.3133 30.808C71.3133 32.776 70.7533 34.344 69.6333 35.512ZM62.5293 34.048C63.1853 34.832 64.0733 35.224 65.1933 35.224C66.3133 35.224 67.1933 34.832 67.8333 34.048C68.4893 33.264 68.8173 32.184 68.8173 30.808C68.8173 29.432 68.4893 28.352 67.8333 27.568C67.1933 26.784 66.3133 26.392 65.1933 26.392C64.0733 26.392 63.1853 26.784 62.5293 27.568C61.8733 28.352 61.5453 29.432 61.5453 30.808C61.5453 32.184 61.8733 33.264 62.5293 34.048ZM82.6219 26.368V24.616H84.9259V36.544C84.9259 38.24 84.4139 39.568 83.3899 40.528C82.3659 41.504 80.9099 41.992 79.0219 41.992C77.4059 41.992 76.1179 41.624 75.1579 40.888C74.2139 40.152 73.6779 39.144 73.5499 37.864H75.9499C76.1419 39.32 77.1739 40.048 79.0459 40.048C81.3659 40.048 82.5259 38.896 82.5259 36.592V35.224C81.5819 36.504 80.2539 37.144 78.5419 37.144C76.8139 37.144 75.4379 36.56 74.4139 35.392C73.3739 34.208 72.8539 32.656 72.8539 30.736C72.8539 28.816 73.3739 27.264 74.4139 26.08C75.4379 24.912 76.8059 24.328 78.5179 24.328C80.3259 24.328 81.6939 25.008 82.6219 26.368ZM78.9739 35.08C80.0939 35.08 80.9739 34.696 81.6139 33.928C82.2699 33.144 82.5979 32.08 82.5979 30.736C82.5979 29.392 82.2699 28.336 81.6139 27.568C80.9739 26.784 80.0939 26.392 78.9739 26.392C77.8699 26.392 76.9899 26.784 76.3339 27.568C75.6779 28.352 75.3499 29.408 75.3499 30.736C75.3499 32.08 75.6779 33.144 76.3339 33.928C76.9899 34.696 77.8699 35.08 78.9739 35.08ZM97.6411 35.512C96.5051 36.696 95.0251 37.288 93.2011 37.288C91.3771 37.288 89.8971 36.696 88.7611 35.512C87.6251 34.328 87.0571 32.76 87.0571 30.808C87.0571 28.84 87.6251 27.264 88.7611 26.08C89.8811 24.912 91.3611 24.328 93.2011 24.328C95.0411 24.328 96.5211 24.912 97.6411 26.08C98.7611 27.248 99.3211 28.824 99.3211 30.808C99.3211 32.776 98.7611 34.344 97.6411 35.512ZM90.5371 34.048C91.1931 34.832 92.0811 35.224 93.2011 35.224C94.3211 35.224 95.2011 34.832 95.8411 34.048C96.4971 33.264 96.8251 32.184 96.8251 30.808C96.8251 29.432 96.4971 28.352 95.8411 27.568C95.2011 26.784 94.3211 26.392 93.2011 26.392C92.0811 26.392 91.1931 26.784 90.5371 27.568C89.8811 28.352 89.5531 29.432 89.5531 30.808C89.5531 32.184 89.8811 33.264 90.5371 34.048ZM106.433 19.912H112.529C115.169 19.912 117.249 20.672 118.769 22.192C120.257 23.712 121.001 25.8 121.001 28.456C121.001 31.112 120.257 33.2 118.769 34.72C117.249 36.24 115.169 37 112.529 37H106.433V19.912ZM109.001 34.744H112.505C114.377 34.744 115.809 34.2 116.801 33.112C117.809 32.024 118.313 30.472 118.313 28.456C118.313 26.44 117.809 24.888 116.801 23.8C115.809 22.712 114.377 22.168 112.505 22.168H109.001V34.744ZM134.419 30.904V31.6H125.083C125.195 32.816 125.555 33.736 126.163 34.36C126.771 34.968 127.595 35.272 128.635 35.272C130.203 35.272 131.227 34.584 131.707 33.208H134.131C133.795 34.472 133.139 35.472 132.163 36.208C131.203 36.928 130.011 37.288 128.587 37.288C126.811 37.288 125.379 36.696 124.291 35.512C123.203 34.328 122.659 32.76 122.659 30.808C122.659 28.856 123.203 27.288 124.291 26.104C125.379 24.92 126.795 24.328 128.539 24.328C130.363 24.328 131.803 24.944 132.859 26.176C133.899 27.408 134.419 28.984 134.419 30.904ZM128.539 26.344C127.595 26.344 126.819 26.632 126.211 27.208C125.619 27.784 125.251 28.616 125.107 29.704H131.947C131.835 28.696 131.475 27.888 130.867 27.28C130.275 26.656 129.499 26.344 128.539 26.344ZM141.061 37.312C137.621 37.312 135.813 35.896 135.637 33.064H138.037C138.133 33.928 138.413 34.536 138.877 34.888C139.341 35.24 140.077 35.416 141.085 35.416C142.909 35.416 143.821 34.84 143.821 33.688C143.821 33.192 143.629 32.808 143.245 32.536C142.861 32.264 142.173 32.04 141.181 31.864L139.909 31.624C137.285 31.144 135.973 29.912 135.973 27.928C135.973 26.824 136.397 25.952 137.245 25.312C138.093 24.656 139.261 24.328 140.749 24.328C144.157 24.328 145.901 25.712 145.981 28.48H143.653C143.605 27.648 143.349 27.064 142.885 26.728C142.421 26.376 141.709 26.2 140.749 26.2C139.981 26.2 139.389 26.344 138.973 26.632C138.557 26.92 138.349 27.328 138.349 27.856C138.349 28.336 138.533 28.712 138.901 28.984C139.269 29.24 139.853 29.448 140.653 29.608L141.949 29.824C143.469 30.112 144.565 30.544 145.237 31.12C145.909 31.696 146.245 32.496 146.245 33.52C146.245 34.72 145.789 35.656 144.877 36.328C143.965 36.984 142.693 37.312 141.061 37.312ZM150.456 22.864H148.008V20.296H150.456V22.864ZM150.432 37H148.032V24.616H150.432V37ZM162.309 26.368V24.616H164.613V36.544C164.613 38.24 164.101 39.568 163.077 40.528C162.053 41.504 160.597 41.992 158.709 41.992C157.093 41.992 155.805 41.624 154.845 40.888C153.901 40.152 153.365 39.144 153.237 37.864H155.637C155.829 39.32 156.861 40.048 158.733 40.048C161.053 40.048 162.213 38.896 162.213 36.592V35.224C161.269 36.504 159.941 37.144 158.229 37.144C156.501 37.144 155.125 36.56 154.101 35.392C153.061 34.208 152.541 32.656 152.541 30.736C152.541 28.816 153.061 27.264 154.101 26.08C155.125 24.912 156.493 24.328 158.205 24.328C160.013 24.328 161.381 25.008 162.309 26.368ZM158.661 35.08C159.781 35.08 160.661 34.696 161.301 33.928C161.957 33.144 162.285 32.08 162.285 30.736C162.285 29.392 161.957 28.336 161.301 27.568C160.661 26.784 159.781 26.392 158.661 26.392C157.557 26.392 156.677 26.784 156.021 27.568C155.365 28.352 155.037 29.408 155.037 30.736C155.037 32.08 155.365 33.144 156.021 33.928C156.677 34.696 157.557 35.08 158.661 35.08ZM173.513 24.328C174.873 24.328 175.937 24.712 176.705 25.48C177.473 26.232 177.857 27.304 177.857 28.696V37H175.457V29.032C175.457 27.304 174.585 26.44 172.841 26.44C172.041 26.44 171.321 26.744 170.681 27.352C170.041 27.976 169.721 28.864 169.721 30.016V37H167.321V24.616H169.625V26.464C170.569 25.04 171.865 24.328 173.513 24.328Z" fill="#171717"/>
</svg>
